<svg width="78" height="76" viewBox="0 0 78 76" fill="none" xmlns="http://www.w3.org/2000/svg">
<path d="M62.1128 24.028C64.9697 28.6896 66.3804 34.0937 66.1666 39.5571C65.9527 45.0204 64.1238 50.2976 60.9111 54.7217C57.6985 59.1458 53.2463 62.5181 48.1174 64.4122C42.9884 66.3063 37.4131 66.6373 32.0961 65.3633C26.7791 64.0892 21.9592 61.2674 18.2457 57.2544C14.5322 53.2415 12.0918 48.2177 11.2331 42.818C10.3743 37.4184 11.1358 31.8853 13.4212 26.9184C15.7066 21.9514 19.4133 17.7736 24.0727 14.9129C30.3272 11.0825 37.8463 9.89091 44.9786 11.5999C52.111 13.309 58.2735 17.7789 62.1128 24.028Z" fill="#A41FBD"/>
<g style="mix-blend-mode:screen" opacity="0.5">
<path opacity="0.05" d="M55.7929 28.3727C57.8871 31.7743 58.9259 35.7203 58.7782 39.7121C58.6305 43.7039 57.3029 47.5623 54.9632 50.7999C52.6235 54.0375 49.3766 56.5089 45.6328 57.9018C41.889 59.2947 37.8164 59.5467 33.9294 58.6259C30.0425 57.7051 26.5157 55.6528 23.7947 52.7284C21.0737 49.8039 19.2806 46.1386 18.642 42.1954C18.0034 38.2523 18.5478 34.2083 20.2067 30.5745C21.8655 26.9407 24.5642 23.8802 27.9617 21.7795C30.2214 20.3825 32.7343 19.4448 35.3567 19.02C37.9792 18.5953 40.6596 18.6919 43.2447 19.3043C45.8298 19.9167 48.2687 21.0329 50.4219 22.589C52.5751 24.145 54.4002 26.1105 55.7929 28.3727Z" fill="url(#paint0_radial_357_2015)"/>
<path opacity="0.1" d="M55.7625 28.3424C57.8639 31.7437 58.9089 35.692 58.7653 39.6875C58.6217 43.6829 57.296 47.546 54.956 50.7878C52.6159 54.0295 49.3667 56.5041 45.6196 57.8984C41.8725 59.2926 37.7961 59.5439 33.9061 58.6204C30.0162 57.6968 26.4876 55.64 23.7672 52.7102C21.0467 49.7804 19.2566 46.1094 18.6234 42.1618C17.9902 38.2141 18.5424 34.1674 20.2102 30.5338C21.8779 26.9001 24.5861 23.8429 27.9921 21.7492C30.2482 20.3576 32.7563 19.4243 35.3732 19.0025C37.9902 18.5807 40.6646 18.6788 43.2436 19.2911C45.8226 19.9034 48.2556 21.0179 50.4037 22.571C52.5518 24.1241 54.3728 26.0852 55.7625 28.3424Z" fill="url(#paint1_radial_357_2015)"/>
<path opacity="0.14" d="M55.7322 28.3424C57.8275 31.7394 58.8682 35.6816 58.7225 39.6702C58.5767 43.6588 57.2512 47.5146 54.9136 50.7497C52.576 53.9847 49.3313 56.4537 45.5901 57.8443C41.8489 59.2348 37.7793 59.4844 33.8962 58.5615C30.0131 57.6386 26.491 55.5846 23.7756 52.6594C21.0601 49.7343 19.2734 46.0694 18.6413 42.1285C18.0093 38.1876 18.5603 34.1478 20.2248 30.5202C21.8893 26.8926 24.5924 23.8402 27.9921 21.7492C30.2458 20.3584 32.7517 19.4256 35.3662 19.0043C37.9808 18.5829 40.6528 18.6813 43.2293 19.2936C45.8059 19.906 48.2363 21.0204 50.3817 22.5731C52.5271 24.1258 54.3453 26.0863 55.7322 28.3424Z" fill="url(#paint2_radial_357_2015)"/>
<path opacity="0.19" d="M55.7321 28.3424C57.8179 31.7353 58.851 35.6702 58.7011 39.6501C58.5512 43.6299 57.225 47.476 54.89 50.7024C52.5549 53.9287 49.316 56.3905 45.5823 57.7766C41.8486 59.1628 37.7879 59.4111 33.9131 58.4901C30.0384 57.5692 26.5236 55.5204 23.8129 52.6025C21.1022 49.6847 19.3173 46.0288 18.6836 42.0969C18.05 38.165 18.596 34.1334 20.2529 30.5118C21.9097 26.8901 24.6029 23.8408 27.9921 21.7492C30.2458 20.3584 32.7516 19.4256 35.3662 19.0043C37.9808 18.5829 40.6528 18.6813 43.2293 19.2936C45.8058 19.906 48.2363 21.0204 50.3817 22.5731C52.5271 24.1258 54.3452 26.0863 55.7321 28.3424Z" fill="url(#paint3_radial_357_2015)"/>
<path opacity="0.24" d="M55.7018 28.312C57.7897 31.698 58.8267 35.6272 58.6815 39.6026C58.5364 43.578 57.2157 47.4211 54.8865 50.6459C52.5572 53.8708 49.324 56.3325 45.5957 57.7198C41.8674 59.1071 37.8115 59.3578 33.9407 58.44C30.07 57.5222 26.5583 55.4773 23.8498 52.5638C21.1412 49.6503 19.3574 45.999 18.724 42.0717C18.0905 38.1444 18.6358 34.1175 20.2909 30.5001C21.9461 26.8827 24.6367 23.8374 28.0225 21.7491C32.5654 18.9568 38.03 18.0796 43.2186 19.3098C48.4072 20.54 52.8963 23.7773 55.7018 28.312Z" fill="url(#paint4_radial_357_2015)"/>
<path opacity="0.29" d="M55.7018 28.312C57.7897 31.6981 58.8267 35.6272 58.6815 39.6026C58.5364 43.578 57.2157 47.4211 54.8865 50.646C52.5572 53.8708 49.324 56.3325 45.5957 57.7198C41.8674 59.1072 37.8115 59.3578 33.9407 58.44C30.07 57.5223 26.5583 55.4773 23.8498 52.5638C21.1412 49.6503 19.3574 45.999 18.724 42.0718C18.0905 38.1445 18.6358 34.1175 20.2909 30.5001C21.9461 26.8828 24.6367 23.8374 28.0225 21.7492C30.2709 20.3625 32.7703 19.4323 35.3782 19.0117C37.986 18.591 40.6512 18.6882 43.2215 19.2976C45.7918 19.907 48.2169 21.0168 50.3583 22.5635C52.4996 24.1102 54.3154 26.0635 55.7018 28.312Z" fill="url(#paint5_radial_357_2015)"/>
<path opacity="0.33" d="M55.6714 28.312C57.7569 31.6937 58.7926 35.6179 58.6474 39.5883C58.5021 43.5586 57.1826 47.3967 54.8556 50.617C52.5286 53.8372 49.2988 56.2949 45.5747 57.6792C41.8507 59.0635 37.7997 59.3121 33.9343 58.3936C30.0689 57.475 26.5628 55.4307 23.8596 52.5191C21.1563 49.6076 19.3773 45.9597 18.7477 42.0369C18.1181 38.114 18.6661 34.0926 20.3225 30.4814C21.9788 26.8701 24.6691 23.8312 28.0529 21.7492C32.5863 18.9598 38.0417 18.0843 43.2204 19.3148C48.399 20.5454 52.8773 23.7815 55.6714 28.312Z" fill="url(#paint6_radial_357_2015)"/>
<path opacity="0.38" d="M55.6411 28.2816C57.7252 31.6566 58.7615 35.5739 58.619 39.538C58.4765 43.502 57.1616 47.3348 54.8406 50.5514C52.5196 53.7681 49.2967 56.2241 45.5796 57.6089C41.8626 58.9937 37.8183 59.245 33.9585 58.331C30.0986 57.4171 26.5964 55.3789 23.895 52.4743C21.1936 49.5698 19.4143 45.9293 18.7822 42.0134C18.15 38.0974 18.6934 34.082 20.3437 30.4749C21.9939 26.8679 24.6768 23.8313 28.053 21.7492C32.5802 18.9667 38.0256 18.0919 43.1965 19.3163C48.3675 20.5407 52.8424 23.7645 55.6411 28.2816Z" fill="url(#paint7_radial_357_2015)"/>
<path opacity="0.43" d="M55.6411 28.2816C57.7252 31.6566 58.7615 35.5739 58.619 39.538C58.4765 43.502 57.1616 47.3348 54.8406 50.5514C52.5196 53.7681 49.2967 56.2241 45.5796 57.6089C41.8626 58.9937 37.8183 59.245 33.9585 58.331C30.0986 57.4171 26.5964 55.3789 23.895 52.4743C21.1936 49.5698 19.4143 45.9293 18.7822 42.0134C18.15 38.0974 18.6934 34.082 20.3437 30.4749C21.9939 26.8679 24.6768 23.8313 28.053 21.7492C30.2925 20.3634 32.7833 19.4331 35.3829 19.0114C37.9824 18.5897 40.6397 18.685 43.2023 19.2918C45.765 19.8986 48.1828 21.005 50.3173 22.5476C52.4517 24.0902 54.2609 26.0388 55.6411 28.2816Z" fill="url(#paint8_radial_357_2015)"/>
<path opacity="0.48" d="M55.6107 28.2816C57.6828 31.648 58.7103 35.5531 58.5636 39.5034C58.4168 43.4536 57.1023 47.2717 54.7861 50.4751C52.4699 53.6784 49.2561 56.1233 45.5508 57.5006C41.8456 58.8779 37.8151 59.1259 33.969 58.2131C30.1228 57.3004 26.6335 55.268 23.9422 52.3727C21.2508 49.4774 19.4781 45.8493 18.8482 41.9468C18.2183 38.0443 18.7595 34.0427 20.4032 30.4477C22.047 26.8527 24.7196 23.8256 28.0833 21.7492C32.6012 18.9697 38.0373 18.0965 43.1983 19.3213C48.3593 20.546 52.8234 23.7686 55.6107 28.2816Z" fill="url(#paint9_radial_357_2015)"/>
<path opacity="0.52" d="M55.5804 28.2512C57.6741 31.6168 58.7201 35.5287 58.5856 39.4901C58.4511 43.4515 57.1421 47.2834 54.825 50.4992C52.5078 53.715 49.287 56.1694 45.5719 57.5507C41.8567 58.932 37.8148 59.1777 33.9596 58.2568C30.1045 57.3358 26.61 55.2897 23.9203 52.3784C21.2306 49.467 19.467 45.8219 18.8535 41.906C18.24 37.9901 18.8043 33.9803 20.4748 30.3859C22.1453 26.7914 24.8465 23.7747 28.2353 21.7188C32.7313 18.9727 38.1317 18.1183 43.2558 19.3424C48.38 20.5665 52.8111 23.7695 55.5804 28.2512Z" fill="url(#paint10_radial_357_2015)"/>
<path opacity="0.57" d="M55.5804 28.2513C57.6645 31.6127 58.7031 35.5174 58.5644 39.47C58.4257 43.4227 57.116 47.245 54.8014 50.4521C52.4869 53.6591 49.2718 56.1064 45.5641 57.4833C41.8565 58.8601 37.8234 59.1046 33.9766 58.1856C30.1298 57.2667 26.6426 55.2257 23.9576 52.3217C21.2727 49.4177 19.5108 45.7815 18.8957 41.8746C18.2806 37.9677 18.84 33.9661 20.5028 30.3775C22.1656 26.789 24.8569 23.7753 28.2353 21.7188C32.7334 18.9808 38.1311 18.1309 43.2529 19.3545C48.3747 20.578 52.8055 23.7758 55.5804 28.2513Z" fill="url(#paint11_radial_357_2015)"/>
<path opacity="0.62" d="M55.5498 28.2513C57.6243 31.6085 58.6554 35.506 58.5126 39.4499C58.3697 43.3938 57.0593 47.2065 54.7473 50.4049C52.4354 53.6032 49.226 56.0433 45.5259 57.4157C41.8258 58.7882 37.8015 59.0314 33.963 58.1144C30.1246 57.1975 26.6447 55.1617 23.9645 52.265C21.2842 49.3683 19.5242 45.7411 18.9075 41.8431C18.2908 37.9451 18.8451 33.9518 20.5002 30.3692C22.1554 26.7866 24.8368 23.776 28.2047 21.7188C32.7028 18.9808 38.1006 18.1309 43.2223 19.3545C48.3441 20.578 52.775 23.7758 55.5498 28.2513Z" fill="url(#paint12_radial_357_2015)"/>
<path opacity="0.67" d="M55.5196 28.2208C57.5986 31.5757 58.6348 35.4724 58.4969 39.4169C58.3589 43.3613 57.0529 47.1761 54.7444 50.3775C52.436 53.5789 49.2291 56.0229 45.5301 57.3996C41.8311 58.7764 37.8066 59.0239 33.9668 58.1109C30.127 57.1979 26.6447 55.1654 23.9612 52.271C21.2778 49.3767 19.5142 45.7508 18.8938 41.853C18.2734 37.9551 18.8242 33.9609 20.4764 30.3765C22.1286 26.792 24.8079 23.7788 28.1745 21.7188C32.6668 18.9699 38.0645 18.1108 43.1882 19.3291C48.312 20.5475 52.7453 23.7442 55.5196 28.2208Z" fill="url(#paint13_radial_357_2015)"/>
<path opacity="0.71" d="M55.5195 28.2209C57.589 31.5716 58.6178 35.4611 58.4756 39.3968C58.3334 43.3325 57.0267 47.1376 54.7209 50.3303C52.415 53.523 49.2137 55.9597 45.5223 57.3321C41.8308 58.7045 37.8152 58.9507 33.9837 58.0397C30.1523 57.1286 26.6772 55.1013 23.9986 52.2142C21.3199 49.3272 19.5581 45.7103 18.9361 41.8215C18.3141 37.9326 18.8599 33.9466 20.5044 30.3681C22.149 26.7896 24.8183 23.7795 28.1745 21.7188C32.6647 18.9619 38.065 18.0981 43.1911 19.317C48.3172 20.5359 52.7508 23.7379 55.5195 28.2209Z" fill="url(#paint14_radial_357_2015)"/>
<path opacity="0.76" d="M55.4891 28.1905C57.5535 31.5348 58.5798 35.4161 58.4383 39.3437C58.2968 43.2713 56.9938 47.0687 54.6941 50.2557C52.3944 53.4427 49.2012 55.8762 45.5184 57.2484C41.8356 58.6206 37.8286 58.8699 34.0042 57.9648C30.1797 57.0597 26.7095 55.0408 24.0324 52.1634C21.3554 49.286 19.5917 45.6794 18.9645 41.7997C18.3372 37.9199 18.8745 33.9413 20.5085 30.3669C22.1424 26.7926 24.7996 23.783 28.144 21.7188C32.6306 18.9592 38.0282 18.0907 43.1539 19.3038C48.2797 20.5169 52.7154 23.7126 55.4891 28.1905Z" fill="url(#paint15_radial_357_2015)"/>
<path opacity="0.81" d="M55.4588 28.1905C57.5136 31.5306 58.5325 35.4047 58.3868 39.3235C58.2411 43.2423 56.9373 47.0301 54.6402 50.2084C52.343 53.3866 49.1556 55.8129 45.4803 57.1807C41.805 58.5485 37.8069 58.7965 33.9908 57.8934C30.1747 56.9902 26.7118 54.9764 24.0395 52.1064C21.3672 49.2363 19.6054 45.6387 18.9765 41.768C18.3476 37.8972 18.88 33.9269 20.5062 30.3584C22.1325 26.79 24.7798 23.7836 28.1137 21.7188C30.3331 20.3443 32.8018 19.4214 35.3785 19.0027C37.9552 18.5841 40.5891 18.6781 43.1294 19.2793C45.6697 19.8805 48.0664 20.9771 50.1821 22.5063C52.2978 24.0354 54.091 25.9671 55.4588 28.1905Z" fill="url(#paint16_radial_357_2015)"/>
<path opacity="0.86" d="M55.4588 28.1905C57.5136 31.5306 58.5325 35.4047 58.3868 39.3235C58.2411 43.2423 56.9373 47.0301 54.6402 50.2084C52.343 53.3866 49.1556 55.8129 45.4803 57.1807C41.805 58.5485 37.8069 58.7965 33.9908 57.8934C30.1747 56.9902 26.7118 54.9764 24.0395 52.1064C21.3672 49.2363 19.6054 45.6387 18.9765 41.768C18.3476 37.8972 18.88 33.9269 20.5062 30.3584C22.1325 26.79 24.7798 23.7836 28.1137 21.7188C30.3331 20.3443 32.8018 19.4214 35.3785 19.0027C37.9552 18.5841 40.5891 18.6781 43.1294 19.2793C45.6697 19.8805 48.0664 20.9771 50.1821 22.5063C52.2978 24.0354 54.091 25.9671 55.4588 28.1905Z" fill="url(#paint17_radial_357_2015)"/>
<path opacity="0.9" d="M55.4284 28.16C57.4782 31.4937 58.4946 35.3597 58.3495 39.2703C58.2045 43.181 56.9044 46.9611 54.6133 50.1337C52.3223 53.3063 49.1429 55.7292 45.4763 57.0968C41.8097 58.4645 37.8202 58.7155 34.0111 57.8182C30.202 56.921 26.744 54.9157 24.0734 52.0553C21.4027 49.1949 19.6391 45.6075 19.005 41.7459C18.3709 37.8843 18.8947 33.9214 20.5104 30.3571C22.1261 26.7929 24.7612 23.787 28.0834 21.7188C30.2986 20.3349 32.7659 19.4035 35.343 18.9783C37.92 18.5531 40.5558 18.6425 43.0981 19.2413C45.6405 19.8402 48.039 20.9367 50.1553 22.4674C52.2716 23.9982 54.0638 25.933 55.4284 28.16Z" fill="url(#paint18_radial_357_2015)"/>
<path opacity="0.95" d="M55.398 28.1601C57.4335 31.4918 58.4374 35.3514 58.2833 39.2527C58.1292 43.154 56.824 46.9224 54.532 50.0832C52.2401 53.244 49.064 55.6558 45.4038 57.0148C41.7436 58.3738 37.7631 58.6191 33.9638 57.7199C30.1644 56.8208 26.7161 54.8173 24.0534 51.9619C21.3906 49.1064 19.6325 45.5269 19.0004 41.674C18.3684 37.8212 18.8907 33.8675 20.5016 30.311C22.1125 26.7545 24.74 23.7543 28.0529 21.6884C30.2699 20.3059 32.7388 19.3763 35.3171 18.9533C37.8954 18.5304 40.5319 18.6224 43.0744 19.2241C45.617 19.8259 48.0151 20.9254 50.1303 22.4591C52.2455 23.9929 54.0358 25.9305 55.398 28.1601Z" fill="url(#paint19_radial_357_2015)"/>
<path d="M55.3981 28.1601C57.4518 31.4912 58.4712 35.3565 58.3273 39.2671C58.1835 43.1777 56.883 46.9578 54.5902 50.129C52.2975 53.3002 49.1156 55.7201 45.4471 57.0825C41.7787 58.4448 37.7886 58.6884 33.9817 57.7824C30.1748 56.8764 26.7221 54.8615 24.0607 51.9927C21.3992 49.1239 19.6485 45.5302 19.0301 41.6661C18.4116 37.802 18.9533 33.8414 20.5865 30.2852C22.2197 26.7291 24.871 23.7373 28.205 21.6884C32.6702 18.9444 38.0419 18.0846 43.1405 19.298C48.2391 20.5115 52.6477 23.6988 55.3981 28.1601Z" fill="url(#paint20_radial_357_2015)"/>
</g>
<path d="M55.3979 28.1601C57.4515 31.4912 58.4709 35.3565 58.3271 39.2671C58.1833 43.1777 56.8827 46.9578 54.59 50.129C52.2972 53.3002 49.1153 55.7201 45.4469 57.0825C41.7785 58.4448 37.7883 58.6884 33.9814 57.7824C30.1745 56.8764 26.7219 54.8615 24.0604 51.9927C21.399 49.1239 19.6483 45.5302 19.0298 41.6661C18.4114 37.802 18.953 33.8414 20.5862 30.2852C22.2194 26.7291 24.8707 23.7373 28.2047 21.6884C32.6699 18.9444 38.0417 18.0846 43.1403 19.298C48.2389 20.5115 52.6475 23.6988 55.3979 28.1601Z" fill="#A41FBD"/>
<path d="M30.3621 12.1177L32.4585 16.3106C32.547 16.4751 32.6872 16.6058 32.8575 16.6827C33.0277 16.7596 33.2185 16.7783 33.4004 16.736C36.3872 16.0162 39.4908 15.9231 42.5154 16.4625C42.7046 16.506 42.903 16.481 43.0754 16.392C43.2479 16.303 43.3832 16.1557 43.4573 15.9764L45.2499 11.6923C40.3422 10.4665 35.1918 10.6137 30.3621 12.1177Z" fill="#F0EEED"/>
<path d="M11.5852 32.4442L16.2642 32.6872C16.4263 32.6784 16.582 32.6217 16.7118 32.5244C16.8416 32.427 16.9396 32.2934 16.9935 32.1403C17.8975 29.1869 19.4084 26.4548 21.4294 24.1191C21.5478 23.973 21.6125 23.7907 21.6125 23.6026C21.6125 23.4145 21.5478 23.2322 21.4294 23.0861L18.6645 19.3185C15.1446 22.9609 12.6953 27.502 11.5852 32.4442Z" fill="#F0EEED"/>
<path d="M19.8191 58.8473L22.3713 54.9279C22.4897 54.7818 22.5543 54.5994 22.5543 54.4114C22.5543 54.2233 22.4897 54.0409 22.3713 53.8948C20.2726 51.6738 18.6494 49.0477 17.6011 46.1775C17.5453 45.9931 17.4265 45.8342 17.2654 45.7287C17.1043 45.6232 16.9112 45.5777 16.72 45.6002L12.0713 46.1471C13.4479 51.0076 16.1271 55.3993 19.8191 58.8473Z" fill="#F0EEED"/>
<path d="M46.7692 64.924L44.6728 60.7311C44.5842 60.5667 44.444 60.4359 44.2738 60.359C44.1036 60.2822 43.9128 60.2634 43.7309 60.3058C40.744 61.0255 37.6405 61.1186 34.6159 60.5792C34.4267 60.5357 34.2283 60.5607 34.0559 60.6497C33.8834 60.7387 33.7481 60.886 33.674 61.0653L31.8813 65.3494C36.7891 66.5752 41.9394 66.4281 46.7692 64.924Z" fill="#F0EEED"/>
<path d="M65.6068 44.5975L60.867 44.2936C60.6806 44.2785 60.4947 44.3275 60.34 44.4325C60.1853 44.5375 60.0711 44.6922 60.0163 44.8709C59.1446 47.8036 57.6757 50.5242 55.7018 52.8618C55.5834 53.0079 55.5188 53.1902 55.5188 53.3783C55.5188 53.5663 55.5834 53.7487 55.7018 53.8948L58.4971 57.6623C62.0184 54.0404 64.4777 49.5212 65.6068 44.5975Z" fill="#F0EEED"/>
<path d="M57.3121 18.1943L54.7599 22.1138C54.6415 22.2599 54.5769 22.4423 54.5769 22.6303C54.5769 22.8184 54.6415 23.0007 54.7599 23.1468C56.8586 25.3679 58.4818 27.994 59.5301 30.8642C59.5859 31.0486 59.7047 31.2074 59.8658 31.313C60.0269 31.4185 60.22 31.464 60.4112 31.4415L65.0599 30.8946C63.6833 26.0341 61.0041 21.6424 57.3121 18.1943Z" fill="#F0EEED"/>
<path d="M25.8958 23.3595L26.9896 24.6963C27.6606 24.1389 28.3714 23.6311 29.1164 23.1772C29.8533 22.7126 30.6254 22.3063 31.4255 21.9618L30.6963 20.3819C29.8385 20.763 29.0062 21.1994 28.2049 21.6884C27.3987 22.1931 26.6272 22.7514 25.8958 23.3595Z" fill="#F0EEED"/>
<path d="M35.2234 19.045L35.4968 20.7465C37.2202 20.5038 38.9691 20.5038 40.6924 20.7465L40.8443 19.045C38.9806 18.7719 37.0871 18.7719 35.2234 19.045Z" fill="#F0EEED"/>
<path d="M44.7639 21.5973C46.3998 22.1802 47.9368 23.0102 49.3214 24.0583L50.4152 22.6303C48.8601 21.5271 47.1637 20.638 45.3716 19.9869L44.7639 21.5973Z" fill="#F0EEED"/>
<path d="M56.4917 40.6173L58.1932 40.7693C58.413 38.9082 58.3619 37.0251 58.0413 35.1787L56.4917 35.4218C56.7344 37.1451 56.7344 38.894 56.4917 40.6173Z" fill="#F0EEED"/>
<path d="M55.3981 28.1601C54.8933 27.3539 54.335 26.5824 53.727 25.851L52.3901 26.9448C52.9476 27.6158 53.4553 28.3266 53.9093 29.0716C54.3739 29.8085 54.7802 30.5806 55.1246 31.3807L56.7046 30.6515C56.3234 29.7937 55.887 28.9614 55.3981 28.1601Z" fill="#F0EEED"/>
<path d="M20.6698 36.4244L18.938 36.2725C18.6649 38.1362 18.6649 40.0297 18.938 41.8934L20.6394 41.6199C20.3915 39.8962 20.4017 38.1451 20.6698 36.4244Z" fill="#F0EEED"/>
<path d="M23.4043 51.1907L24.7412 50.0969C24.1837 49.4258 23.676 48.715 23.222 47.97C22.7575 47.2331 22.3511 46.461 22.0067 45.6609L20.4268 46.3901C20.8079 47.248 21.2443 48.0802 21.7332 48.8815C22.238 49.6877 22.7963 50.4592 23.4043 51.1907Z" fill="#F0EEED"/>
<path d="M51.2356 53.6821L50.1418 52.3453C49.4708 52.9027 48.7599 53.4105 48.015 53.8644C47.278 54.329 46.506 54.7354 45.7058 55.0798L46.435 56.6597C47.2929 56.2786 48.1251 55.8422 48.9265 55.3532C49.7327 54.8485 50.5041 54.2902 51.2356 53.6821Z" fill="#F0EEED"/>
<path d="M20.0317 31.7149L21.6724 32.3226C22.2554 30.6867 23.0854 29.1498 24.1335 27.7651L22.7055 26.7321C21.5964 28.2666 20.6972 29.9424 20.0317 31.7149Z" fill="#F0EEED"/>
<path d="M57.1298 45.3267L55.4891 44.7191C54.9062 46.3549 54.0762 47.8919 53.0281 49.2766L54.4561 50.3096C55.5652 48.7751 56.4644 47.0993 57.1298 45.3267Z" fill="#F0EEED"/>
<path d="M32.3674 55.4444C30.7315 54.8614 29.1946 54.0315 27.8099 52.9833L26.7769 54.4114C28.3114 55.5204 29.9872 56.4196 31.7597 57.0851L32.3674 55.4444Z" fill="#F0EEED"/>
<path d="M41.9381 57.9966L41.6646 56.447C39.9413 56.6898 38.1924 56.6898 36.4691 56.447L36.3171 58.1485C38.1882 58.3713 40.0818 58.3201 41.9381 57.9966Z" fill="#F0EEED"/>
<path d="M26.8375 16.9486L26.4425 18.6197C26.4058 18.6714 26.3502 18.7068 26.2878 18.7181C26.2253 18.7295 26.1609 18.7159 26.1083 18.6804L24.4676 18.2854C24.4005 18.2708 24.3413 18.2314 24.3019 18.1751C24.2625 18.1188 24.2457 18.0497 24.2549 17.9816L24.6499 16.3105C24.657 16.2742 24.6715 16.2397 24.6924 16.2091C24.7133 16.1785 24.7402 16.1524 24.7714 16.1325C24.8027 16.1126 24.8376 16.0993 24.8742 16.0933C24.9108 16.0874 24.9482 16.0889 24.9841 16.0978L26.6248 16.4928C26.6784 16.4911 26.7312 16.5051 26.7769 16.5331C26.8225 16.5611 26.859 16.6019 26.8816 16.6505C26.9043 16.699 26.9122 16.7532 26.9043 16.8062C26.8965 16.8592 26.8732 16.9087 26.8375 16.9486Z" fill="#F0EEED"/>
<path d="M13.955 37.822L15.2007 39.007C15.2478 39.062 15.2737 39.132 15.2737 39.2044C15.2737 39.2769 15.2478 39.3469 15.2007 39.4019L13.955 40.6173C13.9322 40.6431 13.9042 40.6639 13.8727 40.678C13.8413 40.6922 13.8072 40.6996 13.7727 40.6996C13.7382 40.6996 13.7041 40.6922 13.6727 40.678C13.6413 40.6639 13.6132 40.6431 13.5904 40.6173L12.3751 39.4627C12.3484 39.4372 12.3272 39.4065 12.3127 39.3726C12.2982 39.3386 12.2908 39.3021 12.2908 39.2652C12.2908 39.2283 12.2982 39.1918 12.3127 39.1578C12.3272 39.1239 12.3484 39.0932 12.3751 39.0677L13.56 37.8524C13.5834 37.8237 13.6124 37.8 13.6453 37.7828C13.6781 37.7657 13.7141 37.7554 13.751 37.7525C13.788 37.7497 13.8251 37.7544 13.8602 37.7663C13.8952 37.7783 13.9275 37.7972 13.955 37.822Z" fill="#F0EEED"/>
<path d="M25.6527 59.4854L27.2631 58.9992C27.3356 58.979 27.4131 58.9865 27.4805 59.0202C27.5478 59.0539 27.6003 59.1114 27.6277 59.1815L28.1138 60.8222C28.1328 60.8907 28.1244 60.9639 28.0904 61.0263C28.0563 61.0887 27.9994 61.1354 27.9315 61.1565L26.2908 61.6426C26.25 61.635 26.2118 61.617 26.1798 61.5904C26.1479 61.5638 26.1234 61.5295 26.1085 61.4907L25.6224 59.85C25.5815 59.7962 25.562 59.7292 25.5676 59.6618C25.5732 59.5945 25.6035 59.5317 25.6527 59.4854Z" fill="#F0EEED"/>
<path d="M50.4152 60.2145L50.8101 58.5434C50.8164 58.5074 50.8307 58.4732 50.852 58.4434C50.8733 58.4137 50.9011 58.3891 50.9332 58.3716C50.9654 58.3541 51.001 58.344 51.0376 58.3422C51.0742 58.3404 51.1106 58.3469 51.1444 58.3611L52.7851 58.7561C52.8522 58.7708 52.9114 58.8102 52.9508 58.8665C52.9902 58.9228 53.007 58.9919 52.9977 59.06L52.6028 60.731C52.5956 60.7674 52.5812 60.8019 52.5603 60.8325C52.5394 60.8631 52.5125 60.8891 52.4812 60.909C52.45 60.9289 52.415 60.9423 52.3785 60.9482C52.3419 60.9542 52.3045 60.9527 52.2685 60.9437L50.4152 60.5487C50.3782 60.5009 50.3582 60.4421 50.3582 60.3816C50.3582 60.3212 50.3782 60.2624 50.4152 60.2145Z" fill="#F0EEED"/>
<path d="M63.2066 39.2196L61.9609 38.0347C61.9138 37.9796 61.8879 37.9096 61.8879 37.8372C61.8879 37.7647 61.9138 37.6947 61.9609 37.6397L63.1458 36.4243C63.1686 36.3985 63.1967 36.3778 63.2281 36.3636C63.2596 36.3494 63.2936 36.342 63.3281 36.342C63.3626 36.342 63.3967 36.3494 63.4281 36.3636C63.4596 36.3778 63.4876 36.3985 63.5104 36.4243L64.7562 37.6093C64.7828 37.6348 64.804 37.6655 64.8185 37.6994C64.833 37.7334 64.8405 37.7699 64.8405 37.8068C64.8405 37.8437 64.833 37.8802 64.8185 37.9141C64.804 37.9481 64.7828 37.9787 64.7562 38.0043L63.5712 39.2196C63.5211 39.2644 63.4562 39.2892 63.3889 39.2892C63.3216 39.2892 63.2567 39.2644 63.2066 39.2196Z" fill="#F0EEED"/>
<path d="M51.4786 17.5259L49.8683 18.012C49.7957 18.0322 49.7182 18.0248 49.6508 17.9911C49.5835 17.9574 49.531 17.8999 49.5037 17.8297L49.0175 16.189C48.9985 16.1205 49.0069 16.0473 49.041 15.985C49.075 15.9226 49.132 15.8759 49.1998 15.8548L50.8405 15.3686C50.8742 15.3544 50.9107 15.3479 50.9473 15.3497C50.9838 15.3515 51.0195 15.3616 51.0516 15.3791C51.0838 15.3966 51.1115 15.4212 51.1329 15.4509C51.1542 15.4807 51.1685 15.5149 51.1747 15.5509L51.6609 17.1916C51.6799 17.2601 51.6715 17.3333 51.6374 17.3957C51.6034 17.4581 51.5464 17.5048 51.4786 17.5259Z" fill="#F0EEED"/>
<g style="mix-blend-mode:multiply">
<path d="M55.3981 28.1601C57.4518 31.4912 58.4712 35.3565 58.3273 39.2671C58.1835 43.1777 56.883 46.9578 54.5902 50.129C52.2975 53.3002 49.1156 55.7201 45.4471 57.0825C41.7787 58.4448 37.7886 58.6884 33.9817 57.7824C30.1748 56.8764 26.7221 54.8615 24.0607 51.9927C21.3992 49.1239 19.6485 45.5302 19.0301 41.6661C18.4116 37.802 18.9533 33.8414 20.5865 30.2852C22.2197 26.7291 24.871 23.7373 28.205 21.6884C32.6702 18.9444 38.0419 18.0846 43.1405 19.298C48.2391 20.5115 52.6477 23.6988 55.3981 28.1601Z" fill="url(#paint21_radial_357_2015)"/>
<path opacity="0.89" d="M55.3374 28.1905C57.3776 31.5063 58.3889 35.3525 58.2435 39.243C58.0982 43.1335 56.8027 46.8936 54.5207 50.0479C52.2388 53.2023 49.0729 55.6093 45.4233 56.9647C41.7736 58.3201 37.804 58.563 34.0163 57.6628C30.2286 56.7626 26.7928 54.7596 24.1433 51.9071C21.4937 49.0546 19.7493 45.4806 19.1306 41.6368C18.5119 37.7931 19.0466 33.8522 20.6672 30.3123C22.2878 26.7725 24.9215 23.7925 28.2354 21.7492C32.685 19.015 38.0375 18.1577 43.1184 19.3653C48.1994 20.5728 52.5938 23.7467 55.3374 28.1905Z" fill="url(#paint22_radial_357_2015)"/>
<path opacity="0.78" d="M55.2765 28.2208C57.3128 31.5256 58.3236 35.36 58.1808 39.2391C58.0381 43.1183 56.7483 46.868 54.4746 50.0142C52.2009 53.1603 49.0453 55.5617 45.4069 56.9145C41.7685 58.2674 37.8107 58.511 34.0338 57.6146C30.2569 56.7181 26.8307 54.722 24.1883 51.8784C21.5459 49.0348 19.806 45.4716 19.1886 41.6392C18.5712 37.8068 19.104 33.8775 20.7197 30.3479C22.3354 26.8183 24.9614 23.8471 28.2656 21.8099C32.6996 19.0857 38.0328 18.2307 43.0961 19.4325C48.1595 20.6342 52.5397 23.7946 55.2765 28.2208Z" fill="url(#paint23_radial_357_2015)"/>
<path opacity="0.67" d="M55.2157 28.2816C57.2422 31.571 58.248 35.3874 58.1057 39.2483C57.9635 43.1092 56.6797 46.8413 54.4166 49.9726C52.1535 53.104 49.0128 55.494 45.3916 56.8406C41.7703 58.1872 37.8311 58.4298 34.0719 57.5378C30.3128 56.6458 26.9025 54.6592 24.2722 51.8292C21.642 48.9993 19.9099 45.453 19.295 41.6387C18.68 37.8244 19.2098 33.9134 20.8174 30.4002C22.4249 26.887 25.0381 23.9293 28.3264 21.9011C30.5096 20.5498 32.9381 19.6428 35.4726 19.2322C38.0071 18.8215 40.5977 18.9153 43.0959 19.5081C45.5941 20.1009 47.9507 21.181 50.0305 22.6866C52.1103 24.1922 53.8724 26.0935 55.2157 28.2816Z" fill="url(#paint24_radial_357_2015)"/>
<path opacity="0.56" d="M55.1247 28.312C57.1414 31.586 58.1421 35.3844 58.0004 39.2271C57.8586 43.0698 56.5808 46.7841 54.3284 49.9007C52.0759 53.0172 48.9501 55.396 45.3459 56.7363C41.7418 58.0766 37.8212 58.3182 34.0797 57.4306C30.3383 56.543 26.944 54.5661 24.3259 51.7497C21.7079 48.9333 19.9836 45.4039 19.3711 41.6078C18.7586 37.8116 19.2853 33.919 20.8848 30.4221C22.4842 26.9253 25.0845 23.9811 28.3569 21.9619C30.5312 20.6202 32.9485 19.7202 35.4708 19.3132C37.993 18.9063 40.5708 19.0003 43.0567 19.5901C45.5426 20.1798 47.8879 21.2536 49.9586 22.7502C52.0293 24.2467 53.7847 26.1367 55.1247 28.312Z" fill="url(#paint25_radial_357_2015)"/>
<path opacity="0.44" d="M55.064 28.3424C57.0769 31.6053 58.077 35.3919 57.9379 39.2232C57.7988 43.0545 56.5267 46.7586 54.2825 49.867C52.0383 52.9753 48.9227 55.3484 45.3298 56.6862C41.7369 58.0239 37.8281 58.2662 34.0975 57.3824C30.3669 56.4986 26.9821 54.5284 24.3712 51.721C21.7603 48.9136 20.0405 45.395 19.4293 41.6102C18.8181 37.8254 19.343 33.9443 20.9375 30.4577C22.532 26.9712 25.1246 24.0358 28.3873 22.0227C30.5539 20.6859 32.9625 19.789 35.4757 19.3832C37.9889 18.9773 40.5574 19.0705 43.0346 19.6573C45.5118 20.2442 47.8491 21.3132 49.9131 22.8034C51.9771 24.2936 53.7274 26.1758 55.064 28.3424Z" fill="url(#paint26_radial_357_2015)"/>
<path opacity="0.33" d="M55.003 28.3728C57.0121 31.6246 58.0116 35.3993 57.8751 39.2193C57.7387 43.0392 56.4723 46.7329 54.2363 49.8331C52.0004 52.9333 48.8951 55.3008 45.3135 56.636C41.7319 57.9711 37.8347 58.2141 34.1149 57.3341C30.3952 56.4541 27.02 54.4907 24.4162 51.6923C21.8125 48.8938 20.0972 45.386 19.4873 41.6125C18.8774 37.8391 19.4004 33.9695 20.99 30.4933C22.5796 27.0171 25.1644 24.0904 28.4176 22.0834C30.5752 20.7475 32.9753 19.8505 35.4802 19.4436C37.9851 19.0367 40.5456 19.128 43.0152 19.7123C45.4848 20.2965 47.8148 21.3622 49.8719 22.8483C51.9289 24.3344 53.6726 26.2117 55.003 28.3728Z" fill="url(#paint27_radial_357_2015)"/>
<path opacity="0.22" d="M54.9424 28.4336C56.9371 31.6724 57.9265 35.4299 57.7857 39.2311C57.6449 43.0322 56.3801 46.7062 54.1512 49.7886C51.9224 52.8709 48.8296 55.2231 45.264 56.5478C41.6983 57.8724 37.8199 58.11 34.1193 57.2305C30.4186 56.351 27.0618 54.3939 24.4734 51.6067C21.8849 48.8195 20.1811 45.3273 19.5773 41.5718C18.9736 37.8163 19.497 33.9661 21.0813 30.508C22.6657 27.0499 25.2399 24.1393 28.4785 22.1442C30.6279 20.8153 33.0185 19.9238 35.5131 19.5207C38.0078 19.1176 40.5575 19.2109 43.0161 19.7952C45.4746 20.3795 47.7937 21.4433 49.8402 22.9257C51.8868 24.408 53.6207 26.2797 54.9424 28.4336Z" fill="url(#paint28_radial_357_2015)"/>
<path opacity="0.11" d="M54.8815 28.4639C56.8723 31.6916 57.8612 35.4373 57.723 39.2271C57.5848 43.0169 56.3258 46.6806 54.1051 49.7548C51.8845 52.8289 48.802 55.1755 45.2476 56.4976C41.6932 57.8197 37.8266 58.058 34.1367 57.1823C30.4469 56.3066 27.0997 54.3562 24.5184 51.578C21.9371 48.7997 20.2378 45.3183 19.6353 41.5742C19.0329 37.83 19.5544 33.9913 21.1338 30.5435C22.7133 27.0958 25.2798 24.1939 28.5087 22.2049C30.6504 20.881 33.0323 19.9926 35.5179 19.5906C38.0034 19.1886 40.5439 19.281 42.9938 19.8624C45.4436 20.4438 47.7546 21.5029 49.7945 22.9788C51.8344 24.4548 53.5631 26.3188 54.8815 28.4639Z" fill="url(#paint29_radial_357_2015)"/>
<path opacity="0.11" d="M54.4866 28.7069C56.4365 31.8553 57.4085 35.5114 57.2797 39.2125C57.1509 42.9135 55.927 46.4932 53.763 49.4984C51.599 52.5036 48.592 54.7993 45.1228 56.0949C41.6535 57.3905 37.8779 57.6278 34.2737 56.7767C30.6695 55.9257 27.3988 54.0246 24.8756 51.314C22.3523 48.6033 20.6899 45.2051 20.0987 41.5493C19.5075 37.8935 20.0141 34.1445 21.5545 30.7767C23.0948 27.409 25.5996 24.5739 28.7518 22.6303C30.839 21.3339 33.1617 20.4627 35.5865 20.0665C38.0113 19.6703 40.4905 19.757 42.8818 20.3217C45.273 20.8863 47.5291 21.9177 49.5206 23.3567C51.5121 24.7957 53.1997 26.6139 54.4866 28.7069Z" fill="url(#paint30_radial_357_2015)"/>
<path opacity="0.22" d="M54.4258 28.7373C56.3577 31.8728 57.3166 35.5106 57.1814 39.191C57.0461 42.8714 55.8229 46.429 53.6661 49.4143C51.5094 52.3996 48.516 54.6784 45.0644 55.9628C41.6128 57.2472 37.8579 57.4795 34.2743 56.6303C30.6907 55.7811 27.4393 53.8886 24.9311 51.1919C22.4229 48.4952 20.7704 45.1154 20.1826 41.4798C19.5948 37.8442 20.0981 34.1159 21.6287 30.7662C23.1594 27.4165 25.6488 24.5958 28.7822 22.6606C30.8646 21.3746 33.1801 20.5115 35.5963 20.1209C38.0124 19.7303 40.4819 19.8197 42.8635 20.384C45.2451 20.9484 47.4921 21.9766 49.476 23.4099C51.4599 24.8432 53.1419 26.6535 54.4258 28.7373Z" fill="url(#paint31_radial_357_2015)"/>
<path opacity="0.33" d="M54.365 28.7981C56.292 31.9247 57.2484 35.5527 57.113 39.2229C56.9776 42.8932 55.7566 46.4409 53.6044 49.417C51.4522 52.3931 48.4656 54.664 45.0225 55.9422C41.5793 57.2205 37.8344 57.4487 34.2615 56.5981C30.6886 55.7474 27.4483 53.856 24.9507 51.1632C22.453 48.4705 20.8102 45.0974 20.2301 41.4707C19.65 37.8441 20.1587 34.1268 21.6918 30.7893C23.225 27.4519 25.7136 24.6441 28.8429 22.7214C33.0341 20.1463 38.0759 19.3398 42.8612 20.4792C47.6465 21.6186 51.784 24.6106 54.365 28.7981Z" fill="url(#paint32_radial_357_2015)"/>
<path opacity="0.44" d="M47.1782 54.8723C56.2056 50.1188 59.6702 38.9472 54.9167 29.9198C50.1631 20.8925 38.9915 17.4279 29.9641 22.1814C20.9368 26.9349 17.4722 38.1066 22.2257 47.1339C26.9793 56.1613 38.1509 59.6259 47.1782 54.8723Z" fill="url(#paint33_radial_357_2015)"/>
<path opacity="0.56" d="M47.0255 54.8286C56.0371 50.1534 59.5524 39.0582 54.8773 30.0467C50.2022 21.0351 39.1069 17.5198 30.0954 22.1949C21.0839 26.87 17.5685 37.9653 22.2436 46.9768C26.9188 55.9883 38.014 59.5037 47.0255 54.8286Z" fill="url(#paint34_radial_357_2015)"/>
<path opacity="0.67" d="M46.9404 54.7761C55.9194 50.1476 59.4462 39.1166 54.8178 30.1376C50.1893 21.1586 39.1583 17.6318 30.1793 22.2602C21.2003 26.8887 17.6735 37.9197 22.3019 46.8987C26.9304 55.8777 37.9614 59.4045 46.9404 54.7761Z" fill="url(#paint35_radial_357_2015)"/>
<path opacity="0.78" d="M46.8898 54.6979C55.8305 50.105 59.355 39.1338 54.7621 30.1932C50.1692 21.2525 39.1981 17.7279 30.2574 22.3208C21.3167 26.9137 17.7921 37.8849 22.3851 46.8256C26.978 55.7662 37.9491 59.2908 46.8898 54.6979Z" fill="url(#paint36_radial_357_2015)"/>
<path opacity="0.89" d="M46.8187 54.6341C55.7194 50.0735 59.2377 39.161 54.6772 30.2603C50.1166 21.3596 39.204 17.8413 30.3034 22.4019C21.4027 26.9625 17.8843 37.875 22.4449 46.7757C27.0055 55.6763 37.918 59.1947 46.8187 54.6341Z" fill="url(#paint37_radial_357_2015)"/>
<path d="M53.9094 29.102C55.7765 32.1385 56.7009 35.6606 56.5657 39.2227C56.4305 42.7848 55.2417 46.2267 53.1498 49.1129C51.0578 51.9992 48.1567 54.2 44.8136 55.437C41.4705 56.674 37.8355 56.8915 34.3688 56.062C30.902 55.2326 27.7591 53.3934 25.3379 50.7772C22.9167 48.161 21.3259 44.8854 20.7669 41.3649C20.2079 37.8444 20.7057 34.2371 22.1974 30.9996C23.6891 27.7621 26.1076 25.0398 29.1469 23.1772C33.2172 20.6828 38.1111 19.9056 42.7539 21.0165C47.3967 22.1273 51.4089 25.0354 53.9094 29.102Z" fill="url(#paint38_radial_357_2015)"/>
</g>
<path d="M53.9091 29.102C55.7762 32.1385 56.7007 35.6607 56.5655 39.2228C56.4303 42.7848 55.2415 46.2268 53.1495 49.113C51.0576 51.9993 48.1565 54.2001 44.8134 55.4371C41.4702 56.6741 37.8353 56.8916 34.3685 56.0621C30.9017 55.2326 27.7589 53.3934 25.3377 50.7773C22.9165 48.1611 21.3257 44.8855 20.7667 41.365C20.2076 37.8444 20.7054 34.2372 22.1971 30.9997C23.6888 27.7621 26.1073 25.0398 29.1466 23.1772C33.2169 20.6828 38.1108 19.9057 42.7536 21.0166C47.3964 22.1274 51.4086 25.0354 53.9091 29.102Z" fill="#A41FBD"/>
<g style="mix-blend-mode:multiply">
<path d="M53.9094 29.102C55.7765 32.1385 56.7009 35.6606 56.5657 39.2227C56.4305 42.7848 55.2417 46.2267 53.1498 49.1129C51.0578 51.9992 48.1567 54.2 44.8136 55.437C41.4705 56.674 37.8355 56.8915 34.3688 56.062C30.902 55.2326 27.7591 53.3934 25.3379 50.7772C22.9167 48.161 21.3259 44.8854 20.7669 41.3649C20.2079 37.8444 20.7057 34.2371 22.1974 30.9996C23.6891 27.7621 26.1076 25.0398 29.1469 23.1772C33.2172 20.6828 38.1111 19.9056 42.7539 21.0165C47.3967 22.1273 51.4089 25.0354 53.9094 29.102Z" fill="#EBEBEB"/>
<path opacity="0.95" d="M53.9094 29.1019C55.7765 32.1384 56.7009 35.6606 56.5657 39.2226C56.4305 42.7847 55.2417 46.2266 53.1498 49.1129C51.0578 51.9991 48.1567 54.2 44.8136 55.437C41.4705 56.674 37.8355 56.8915 34.3688 56.062C30.902 55.2325 27.7591 53.3933 25.3379 50.7771C22.9167 48.161 21.3259 44.8854 20.7669 41.3648C20.2079 37.8443 20.7057 34.2371 22.1974 30.9995C23.6891 27.762 26.1076 25.0397 29.1469 23.1771C33.2193 20.6908 38.1106 19.9183 42.751 21.0286C47.3914 22.1389 51.4033 25.0416 53.9094 29.1019Z" fill="#ECECEC"/>
<path opacity="0.9" d="M53.879 29.1019C55.7401 32.1342 56.6602 35.6502 56.5228 39.2054C56.3855 42.7606 55.1969 46.1951 53.1074 49.0747C51.0179 51.9543 48.1213 54.1496 44.7841 55.3828C41.4468 56.6161 37.8188 56.8319 34.3589 56.0031C30.899 55.1742 27.7625 53.3379 25.3464 50.7264C22.9302 48.1148 21.3427 44.8454 20.7848 41.3316C20.2269 37.8178 20.7236 34.2175 22.212 30.986C23.7005 27.7545 26.1138 25.037 29.1469 23.1772C33.2125 20.6842 38.1017 19.9079 42.7396 21.019C47.3775 22.13 51.3842 25.0374 53.879 29.1019Z" fill="#EDEDED"/>
<path opacity="0.86" d="M53.8485 29.102C55.6806 32.1413 56.571 35.6554 56.4073 39.2005C56.2435 42.7456 55.033 46.1626 52.9286 49.0202C50.8241 51.8777 47.9201 54.0476 44.5833 55.2559C41.2464 56.4641 37.6264 56.6565 34.1803 55.8087C30.7342 54.961 27.6166 53.1111 25.2211 50.4927C22.8256 47.8743 21.2597 44.6048 20.7212 41.0971C20.1826 37.5893 20.6955 34.0007 22.1951 30.7842C23.6947 27.5678 26.1138 24.8678 29.1468 23.0253C31.1666 21.7983 33.4088 20.982 35.7447 20.6234C38.0806 20.2647 40.4644 20.3707 42.7593 20.9353C45.0541 21.4998 47.215 22.5118 49.118 23.9132C51.0209 25.3147 52.6285 27.0779 53.8485 29.102Z" fill="#EEEEEE"/>
<path opacity="0.81" d="M53.8183 29.1019C55.6443 32.137 56.5304 35.6449 56.3645 39.1831C56.1987 42.7212 54.9883 46.1309 52.8864 48.9818C50.7844 51.8327 47.885 53.997 44.554 55.2015C41.2231 56.406 37.61 56.5968 34.1708 55.7497C30.7315 54.9026 27.6203 53.0556 25.2299 50.4419C22.8394 47.8281 21.2768 44.5648 20.7393 41.0638C20.2019 37.5628 20.7136 33.9811 22.21 30.7706C23.7063 27.5602 26.1202 24.865 29.1469 23.0253C31.1633 21.7949 33.4032 20.976 35.7376 20.6156C38.072 20.2551 40.4547 20.3604 42.7482 20.9253C45.0417 21.4902 47.2007 22.5036 49.1007 23.9069C51.0006 25.3103 52.604 27.0759 53.8183 29.1019Z" fill="#EFEFEF"/>
<path opacity="0.76" d="M53.8181 29.1019C55.6346 32.1327 56.5132 35.6334 56.3432 39.1627C56.1732 42.692 54.9623 46.0921 52.863 48.9342C50.7637 51.7764 47.87 53.9335 44.5467 55.1337C41.2233 56.3339 37.6191 56.5234 34.1882 55.6783C30.7573 54.8333 27.6534 52.9915 25.2676 50.3852C22.8818 47.7788 21.321 44.5245 20.7818 41.0325C20.2427 37.5404 20.7494 33.9669 22.238 30.7624C23.7266 27.5579 26.1305 24.8657 29.1468 23.0253C31.1642 21.799 33.4041 20.9833 35.7377 20.6251C38.0712 20.2668 40.4526 20.3731 42.745 20.9377C45.0374 21.5023 47.1957 22.5142 49.0959 23.9153C50.9962 25.3163 52.601 27.079 53.8181 29.1019Z" fill="#F0F0F0"/>
<path opacity="0.71" d="M53.7878 29.102C55.6078 32.1326 56.4895 35.6345 56.3215 39.1657C56.1535 42.6969 54.9435 46.0993 52.8439 48.9435C50.7444 51.7877 47.8496 53.9464 44.5245 55.1472C41.1995 56.348 37.5934 56.5371 34.161 55.6907C30.7286 54.8442 27.6238 53.0001 25.2384 50.3911C22.8529 47.782 21.2936 44.5249 20.7572 41.0306C20.2209 37.5363 20.7314 33.9615 22.2245 30.7571C23.7176 27.5527 26.1264 24.8622 29.1468 23.0253C31.1608 21.7957 33.3984 20.9773 35.7305 20.6172C38.0625 20.2572 40.4428 20.3628 42.7338 20.9277C45.0249 21.4927 47.1813 22.506 49.0786 23.909C50.9758 25.312 52.5764 27.077 53.7878 29.102Z" fill="#F1F1F1"/>
<path opacity="0.67" d="M53.7575 29.1019C55.5715 32.1282 56.4488 35.624 56.2787 39.1482C56.1087 42.6725 54.8988 46.0675 52.8018 48.9051C50.7047 51.7427 47.8144 53.8958 44.4953 55.0929C41.1762 56.2899 37.577 56.4774 34.1515 55.6316C30.726 54.7858 27.6276 52.9446 25.2471 50.3402C22.8667 47.7358 21.3107 44.4849 20.7754 40.9974C20.2401 37.5098 20.7495 33.9419 22.2394 30.7435C23.7292 27.5451 26.1328 24.8594 29.1469 23.0252C31.1586 21.7964 33.3939 20.9785 35.7236 20.6189C38.0533 20.2592 40.4312 20.365 42.7197 20.9301C45.0083 21.4952 47.1621 22.5083 49.0567 23.911C50.9513 25.3136 52.549 27.0779 53.7575 29.1019Z" fill="#F2F2F2"/>
<path opacity="0.62" d="M53.7575 29.102C55.562 32.1241 56.4318 35.6125 56.2577 39.1279C56.0835 42.6434 54.873 46.0287 52.7786 48.8575C50.6843 51.6864 47.7997 53.8323 44.4882 55.0251C41.1767 56.2178 37.5863 56.404 34.1691 55.5603C30.752 54.7166 27.6609 52.8806 25.2851 50.2836C22.9093 47.6866 21.3551 44.4446 20.8181 40.9661C20.2812 37.4875 20.7855 33.9278 22.2676 30.7353C23.7497 27.5428 26.1433 24.8602 29.147 23.0253C31.1597 21.8005 33.3949 20.9859 35.7238 20.6285C38.0527 20.271 40.4293 20.3778 42.7167 20.9426C45.0042 21.5074 47.1573 22.5191 49.0522 23.9194C50.947 25.3198 52.5462 27.0811 53.7575 29.102Z" fill="#F3F3F3"/>
<path opacity="0.57" d="M53.727 29.1019C55.5254 32.1196 56.3909 35.6019 56.2146 39.1104C56.0383 42.6189 54.828 45.9969 52.7362 48.8191C50.6443 51.6413 47.7643 53.7816 44.4587 54.9706C41.1531 56.1597 37.5696 56.3443 34.1594 55.5012C30.7491 54.6581 27.6644 52.825 25.2936 50.2327C22.9229 47.6403 21.3719 44.4046 20.8361 40.9328C20.3002 37.461 20.8033 33.9082 22.2822 30.7217C23.761 27.5352 26.1494 24.8573 29.1468 23.0253C31.1561 21.7971 33.3891 20.9798 35.7164 20.6205C38.0438 20.2613 40.4193 20.3674 42.7054 20.9325C44.9915 21.4977 47.1427 22.5107 49.0346 23.913C50.9265 25.3153 52.5214 27.079 53.727 29.1019Z" fill="#F4F4F4"/>
<path opacity="0.52" d="M53.6967 29.102C55.4891 32.1153 56.3502 35.5914 56.1718 39.093C55.9934 42.5946 54.7834 45.9652 52.694 48.7807C50.6046 51.5963 47.7292 53.731 44.4295 54.9163C41.1298 56.1016 37.5533 56.2846 34.1499 55.4421C30.7464 54.5997 27.6682 52.7695 25.3024 50.1819C22.9366 47.5942 21.389 44.3647 20.8542 40.8996C20.3194 37.4345 20.8214 33.8886 22.297 30.7081C23.7726 27.5276 26.1558 24.8546 29.1469 23.0253C31.155 21.8019 33.3855 20.9884 35.7097 20.6318C38.0338 20.2751 40.4057 20.3824 42.6882 20.9474C44.9707 21.5123 47.1187 22.5238 49.0081 23.9235C50.8976 25.3231 52.4911 27.0831 53.6967 29.102Z" fill="#F5F5F5"/>
<path opacity="0.48" d="M53.6967 29.102C55.4891 32.1153 56.3502 35.5915 56.1718 39.093C55.9934 42.5946 54.7834 45.9652 52.694 48.7808C50.6046 51.5963 47.7292 53.731 44.4295 54.9163C41.1298 56.1016 37.5533 56.2846 34.1499 55.4422C30.7464 54.5997 27.6682 52.7696 25.3024 50.1819C22.9366 47.5943 21.389 44.3647 20.8542 40.8996C20.3194 37.4345 20.8214 33.8887 22.297 30.7082C23.7726 27.5277 26.1558 24.8546 29.1469 23.0253C31.1527 21.7938 33.3835 20.9736 35.7093 20.6126C38.0352 20.2516 40.4096 20.3569 42.6943 20.9225C44.9791 21.488 47.1285 22.5024 49.0174 23.9067C50.9063 25.311 52.4969 27.077 53.6967 29.102Z" fill="#F5F5F5"/>
<path opacity="0.43" d="M53.6663 28.9197C55.4803 31.9151 56.3674 35.3804 56.2158 38.879C56.0643 42.3776 54.8808 45.7532 52.8146 48.5806C50.7484 51.4079 47.8917 53.5607 44.6044 54.7677C41.317 55.9747 37.746 56.182 34.3411 55.3634C30.9362 54.5449 27.8497 52.7372 25.4701 50.1679C23.0906 47.5986 21.5246 44.3826 20.9692 40.925C20.4138 37.4674 20.894 33.9228 22.3492 30.7376C23.8044 27.5523 26.1696 24.8689 29.1469 23.0253C31.1406 21.7907 33.3592 20.9636 35.6746 20.5917C37.9899 20.2198 40.3559 20.3105 42.636 20.8586C44.916 21.4067 47.0648 22.4014 48.9581 23.785C50.8514 25.1686 52.4516 26.9138 53.6663 28.9197Z" fill="#F6F6F6"/>
<path opacity="0.38" d="M53.6359 28.9197C55.4439 31.9108 56.3266 35.3699 56.1729 38.8616C56.0192 42.3533 54.836 45.7215 52.7722 48.5423C50.7084 51.363 47.8563 53.5101 44.5748 54.7134C41.2934 55.9167 37.7294 56.1223 34.3313 55.3044C30.9333 54.4865 27.8531 52.6817 25.4786 50.117C23.1041 47.5524 21.5414 44.3426 20.9871 40.8918C20.4328 37.4409 20.9119 33.9032 22.3638 30.724C23.8158 27.5448 26.1758 24.8661 29.1468 23.0253C31.1382 21.7914 33.3545 20.9648 35.6674 20.5933C37.9804 20.2219 40.3441 20.3128 42.6216 20.861C44.8992 21.4092 47.0454 22.4038 48.936 23.787C50.8266 25.1703 52.4241 26.9148 53.6359 28.9197Z" fill="#F7F7F7"/>
<path opacity="0.33" d="M53.6359 28.8893C55.4485 31.8781 56.3362 35.3365 56.1874 38.8288C56.0385 42.3211 54.8597 45.6914 52.7994 48.5152C50.739 51.3389 47.8893 53.49 44.609 54.6975C41.3286 55.905 37.7644 56.115 34.3649 55.301C30.9655 54.487 27.8829 52.6854 25.5053 50.1231C23.1277 47.5607 21.5613 44.3522 21.0034 40.9015C20.4456 37.4508 20.9211 33.9121 22.3702 30.7311C23.8193 27.5501 26.1772 24.869 29.1469 23.0253C31.1376 21.7942 33.3522 20.9691 35.6631 20.5975C37.974 20.2259 40.3356 20.3153 42.6119 20.8603C44.8882 21.4054 47.0341 22.3954 48.9261 23.7734C50.8181 25.1513 52.4188 26.89 53.6359 28.8893Z" fill="#F8F8F8"/>
<path opacity="0.29" d="M53.6055 28.8893C55.412 31.8738 56.2954 35.326 56.1444 38.8114C55.9934 42.2969 54.8148 45.6597 52.7569 48.4769C50.6991 51.294 47.8539 53.4394 44.5794 54.6432C41.305 55.847 37.7477 56.0553 34.3551 55.242C30.9625 54.4286 27.8864 52.6299 25.5138 50.0722C23.1412 47.5145 21.5781 44.3122 21.0213 40.8682C20.4646 37.4242 20.939 33.8925 22.3848 30.7175C23.8307 27.5425 26.1834 24.8662 29.1468 23.0253C31.134 21.7908 33.3464 20.963 35.6557 20.5896C37.9651 20.2163 40.3257 20.3049 42.6006 20.8503C44.8755 21.3957 47.0195 22.3871 48.9086 23.767C50.7976 25.1469 52.3941 26.888 53.6055 28.8893Z" fill="#F9F9F9"/>
<path opacity="0.24" d="M53.4535 28.8893C55.2823 31.8621 56.1888 35.3103 56.0583 38.7982C55.9279 42.2861 54.7665 45.657 52.7208 48.485C50.6751 51.3129 47.8371 53.471 44.5652 54.6864C41.2934 55.9019 37.7347 56.1201 34.3388 55.3136C30.943 54.5071 27.8625 52.712 25.4865 50.1553C23.1106 47.5985 21.5459 44.3947 20.9903 40.949C20.4346 37.5032 20.9129 33.97 22.3647 30.796C23.8165 27.6219 26.1766 24.9495 29.1468 23.1164C31.1202 21.8938 33.3158 21.0731 35.6073 20.7015C37.8989 20.33 40.2412 20.4149 42.4999 20.9513C44.7585 21.4877 46.889 22.4651 48.7687 23.8274C50.6485 25.1896 52.2406 26.9099 53.4535 28.8893Z" fill="#FAFAFA"/>
<path opacity="0.19" d="M53.4537 28.8589C55.2817 31.8315 56.1859 35.28 56.0518 38.7672C55.9177 42.2543 54.7512 45.6232 52.7003 48.4466C50.6494 51.2701 47.8063 53.4211 44.5315 54.6269C41.2567 55.8327 37.6976 56.039 34.3054 55.2198C30.9132 54.4005 27.8406 52.5926 25.4771 50.0251C23.1136 47.4575 21.5656 44.2461 21.0294 40.7978C20.4931 37.3495 20.9928 33.8196 22.465 30.6556C23.9372 27.4916 26.3156 24.836 29.2989 23.0253C33.2791 20.6095 38.0536 19.867 42.5795 20.96C47.1054 22.0531 51.0148 24.8928 53.4537 28.8589Z" fill="#FBFBFB"/>
<path opacity="0.14" d="M53.4535 28.8589C55.2851 31.8314 56.1924 35.281 56.0603 38.77C55.9282 42.259 54.7626 45.6302 52.7115 48.4557C50.6604 51.2812 47.8162 53.4338 44.5397 54.6402C41.2633 55.8467 37.7023 56.0526 34.3086 55.232C30.9149 54.4113 27.8414 52.6011 25.4782 50.0309C23.115 47.4607 21.5685 44.2464 21.0351 40.7959C20.5016 37.3454 21.0051 33.8142 22.4818 30.6503C23.9584 27.4864 26.3416 24.8325 29.3291 23.0253C33.3046 20.6109 38.0745 19.8693 42.5954 20.9625C47.1163 22.0557 51.0203 24.8948 53.4535 28.8589Z" fill="#FCFCFC"/>
<path opacity="0.1" d="M53.4536 28.8589C55.2756 31.8272 56.1754 35.2696 56.0392 38.7499C55.9029 42.2301 54.7367 45.5916 52.6882 48.4084C50.6397 51.2253 47.8012 53.3706 44.5323 54.5727C41.2634 55.7748 37.7112 55.9795 34.3258 55.1608C30.9405 54.3422 27.8743 52.5371 25.5158 49.9743C23.1573 47.4114 21.6127 44.2061 21.0775 40.7646C20.5424 37.323 21.0409 33.8 22.5099 30.642C23.9789 27.484 26.3522 24.8332 29.3291 23.0253C33.3026 20.6028 38.0751 19.8565 42.5984 20.9503C47.1217 22.0441 51.0259 24.8886 53.4536 28.8589Z" fill="#FDFDFD"/>
<path opacity="0.05" d="M53.4536 28.8285C55.261 31.7862 56.1511 35.2132 56.0114 38.6765C55.8717 42.1399 54.7084 45.4841 52.6687 48.2866C50.629 51.089 47.8043 53.2239 44.5516 54.4215C41.2989 55.6191 37.7642 55.8256 34.3941 55.0149C31.0241 54.2043 27.97 52.4128 25.6178 49.8669C23.2656 47.3211 21.7209 44.1351 21.1788 40.7115C20.6368 37.288 21.1218 33.7807 22.5724 30.6327C24.0231 27.4847 26.3744 24.8374 29.3292 23.0253C31.2937 21.8205 33.4766 21.0148 35.7528 20.6544C38.029 20.294 40.354 20.386 42.5946 20.925C44.8353 21.464 46.9477 22.4394 48.811 23.7956C50.6743 25.1518 52.2519 26.862 53.4536 28.8285Z" fill="#FEFEFE"/>
</g>
<path d="M50.9012 30.925C52.3871 33.3748 53.1135 36.2101 52.9886 39.0727C52.8637 41.9352 51.8931 44.6964 50.1995 47.0075C48.5059 49.3186 46.1652 51.0759 43.4733 52.0572C40.7814 53.0386 37.8589 53.2 35.0753 52.521C32.2917 51.8421 29.7718 50.3533 27.8339 48.2427C25.8961 46.1322 24.6274 43.4946 24.188 40.6633C23.7487 37.8319 24.1584 34.9339 25.3655 32.3353C26.5725 29.7367 28.5228 27.5543 30.9697 26.0637C32.5971 25.0723 34.4041 24.4116 36.2871 24.1194C38.1702 23.8272 40.0924 23.9092 41.9437 24.3608C43.795 24.8123 45.5391 25.6245 47.0761 26.7509C48.6132 27.8772 49.913 29.2957 50.9012 30.925Z" fill="#F0EEED"/>
<g style="mix-blend-mode:multiply">
<path d="M62.1128 24.028C64.9697 28.6896 66.3804 34.0937 66.1666 39.5571C65.9527 45.0204 64.1238 50.2976 60.9111 54.7217C57.6985 59.1458 53.2463 62.5181 48.1174 64.4122C42.9884 66.3063 37.4131 66.6373 32.0961 65.3633C26.7791 64.0892 21.9592 61.2674 18.2457 57.2544C14.5322 53.2415 12.0918 48.2177 11.2331 42.818C10.3743 37.4184 11.1358 31.8853 13.4212 26.9184C15.7066 21.9514 19.4133 17.7736 24.0727 14.9129C30.3272 11.0825 37.8463 9.89091 44.9786 11.5999C52.111 13.309 58.2735 17.7789 62.1128 24.028Z" fill="#E3E3E3"/>
<path opacity="0.95" d="M62.0522 23.9976C64.8971 28.6507 66.2991 34.0425 66.081 39.4921C65.8628 44.9416 64.0344 50.2042 60.8266 54.6149C57.6188 59.0257 53.1757 62.3868 48.0586 64.2734C42.9414 66.1601 37.3799 66.4878 32.0766 65.215C26.7733 63.9422 21.9663 61.1261 18.2628 57.1225C14.5593 53.1188 12.1256 48.1073 11.2691 42.7211C10.4126 37.3349 11.1718 31.8157 13.4507 26.8608C15.7296 21.9059 19.426 17.7376 24.0729 14.8826C27.1641 12.9834 30.5995 11.7125 34.1824 11.1428C37.7653 10.5731 41.4255 10.7156 44.9532 11.5623C48.481 12.4089 51.8072 13.9431 54.7412 16.0769C57.6753 18.2107 60.1597 20.9023 62.0522 23.9976Z" fill="#E4E4E4"/>
<path opacity="0.9" d="M62.0215 23.9672C64.8641 28.6158 66.2648 34.0028 66.0465 39.4472C65.8283 44.8917 64.001 50.1493 60.7955 54.5555C57.59 58.9617 53.1502 62.3187 48.0373 64.2023C42.9244 66.0859 37.3678 66.4115 32.0699 65.138C26.772 63.8644 21.9705 61.0489 18.2723 57.0473C14.5742 53.0456 12.1453 48.0375 11.2926 42.6558C10.44 37.274 11.2019 31.7604 13.482 26.8115C15.7622 21.8627 19.4582 17.7009 24.1031 14.8522C27.1906 12.9585 30.6212 11.692 34.1987 11.1252C37.7761 10.5585 41.4301 10.7025 44.9519 11.5491C48.4736 12.3956 51.7939 13.9281 54.7229 16.0589C57.6518 18.1898 60.132 20.8771 62.0215 23.9672Z" fill="#E6E6E6"/>
<path opacity="0.86" d="M61.9912 23.9672C64.8313 28.6114 66.2307 33.9934 66.0123 39.4328C65.794 44.8722 63.9678 50.1248 60.7646 54.5264C57.5613 58.928 53.1249 62.2811 48.0163 64.1616C42.9076 66.0421 37.356 66.3657 32.0635 65.0914C26.7709 63.8171 21.975 61.0022 18.2821 57.0025C14.5892 53.0028 12.1652 47.998 11.3164 42.6208C10.4676 37.2435 11.2323 31.7354 13.5136 26.7927C15.795 21.85 19.4907 17.6947 24.1334 14.8522C27.2174 12.964 30.6433 11.7019 34.2152 11.1381C37.7871 10.5743 41.4351 10.7198 44.9508 11.5662C48.4664 12.4127 51.7809 13.9436 54.7047 16.0714C57.6286 18.1992 60.1045 20.8822 61.9912 23.9672Z" fill="#E7E7E7"/>
<path opacity="0.81" d="M61.961 23.9368C64.7698 28.5442 66.1527 33.8796 65.9356 39.2713C65.7184 44.6631 63.9109 49.87 60.7406 54.2366C57.5703 58.6031 53.179 61.9341 48.1195 63.8102C43.06 65.6862 37.5586 66.0233 32.3079 64.7792C27.0572 63.535 22.2919 60.7652 18.6122 56.8185C14.9324 52.8717 12.5025 47.9244 11.6286 42.5996C10.7547 37.2747 11.4757 31.8104 13.7009 26.8944C15.9261 21.9785 19.556 17.8309 24.1336 14.9737C27.2005 13.0594 30.6164 11.7723 34.1839 11.1868C37.7514 10.6013 41.3996 10.729 44.9174 11.5626C48.4353 12.3961 51.7529 13.9189 54.6784 16.0429C57.6038 18.1669 60.0791 20.85 61.961 23.9368Z" fill="#E8E8E8"/>
<path opacity="0.76" d="M61.9002 23.9065C64.72 28.5135 66.1122 33.8524 65.9012 39.2498C65.6902 44.6471 63.8855 49.861 60.7148 54.2339C57.544 58.6067 53.1492 61.9426 48.0847 63.8206C43.0203 65.6987 37.5131 66.0348 32.2578 64.7866C27.0026 63.5383 22.2347 60.7617 18.5557 56.8069C14.8767 52.8521 12.4513 47.8963 11.5855 42.5647C10.7197 37.2331 11.4523 31.7645 13.6909 26.8488C15.9295 21.933 19.5738 17.7904 24.164 14.9434C27.2273 13.0435 30.636 11.7679 34.194 11.1902C37.752 10.6124 41.3892 10.7438 44.8962 11.5768C48.4033 12.4098 51.711 13.9279 54.6292 16.0439C57.5474 18.1599 60.0185 20.832 61.9002 23.9065Z" fill="#EAEAEA"/>
<path opacity="0.71" d="M53.163 61.4642C65.9778 53.4098 69.837 36.492 61.7827 23.6771C53.7283 10.8623 36.8105 7.00309 23.9956 15.0574C11.1807 23.1118 7.32157 40.0296 15.3759 52.8445C23.4303 65.6593 40.3481 69.5185 53.163 61.4642Z" fill="#EBEBEB"/>
<path opacity="0.67" d="M52.6759 61.6466C65.6115 53.8525 69.7796 37.0478 61.9856 24.1121C54.1915 11.1765 37.3868 7.00837 24.4511 14.8024C11.5155 22.5965 7.34738 39.4012 15.1414 52.3369C22.9355 65.2725 39.7402 69.4406 52.6759 61.6466Z" fill="#ECECEC"/>
<path opacity="0.62" d="M52.1997 61.8606C65.2734 54.3339 69.77 37.634 62.2432 24.5603C54.7164 11.4867 38.0165 6.99012 24.9429 14.5169C11.8693 22.0437 7.37265 38.7436 14.8994 51.8172C22.4262 64.8908 39.1261 69.3874 52.1997 61.8606Z" fill="#EEEEEE"/>
<path opacity="0.57" d="M51.6731 62.0432C64.8746 54.8126 69.7149 38.2491 62.4844 25.0476C55.2538 11.8462 38.6903 7.00582 25.4888 14.2364C12.2874 21.467 7.447 38.0305 14.6776 51.2319C21.9082 64.4334 38.4716 69.2738 51.6731 62.0432Z" fill="#EFEFEF"/>
<path opacity="0.52" d="M51.1077 62.2472C64.455 55.3257 69.664 38.8947 62.7425 25.5474C55.821 12.2002 39.39 6.99115 26.0428 13.9126C12.6956 20.8341 7.48647 37.2652 14.408 50.6124C21.3295 63.9596 37.7605 69.1687 51.1077 62.2472Z" fill="#F0F0F0"/>
<path opacity="0.48" d="M50.5194 62.4874C64.0132 55.8944 69.6074 39.6108 63.0144 26.117C56.4213 12.6231 40.1377 7.02896 26.6439 13.622C13.1501 20.215 7.5559 36.4987 14.1489 49.9925C20.742 63.4863 37.0256 69.0805 50.5194 62.4874Z" fill="#F2F2F2"/>
<path opacity="0.43" d="M49.8582 62.6561C63.484 56.4206 69.475 40.3198 63.2395 26.694C57.004 13.0682 40.9032 7.07713 27.2774 13.3126C13.6516 19.5481 7.66059 35.6489 13.8961 49.2747C20.1316 62.9006 36.2324 68.8916 49.8582 62.6561Z" fill="#F3F3F3"/>
<path opacity="0.38" d="M49.1437 62.9308C62.9157 57.0679 69.3273 41.1507 63.4644 27.3787C57.6015 13.6067 41.6843 7.19509 27.9122 13.058C14.1402 18.9209 7.72865 34.8381 13.5915 48.6101C19.4544 62.3821 35.3717 68.7937 49.1437 62.9308Z" fill="#F4F4F4"/>
<path opacity="0.33" d="M48.438 63.1588C62.3527 57.6889 69.1986 41.9745 63.7287 28.0598C58.2587 14.1451 42.5444 7.29921 28.6296 12.7691C14.7149 18.2391 7.86907 33.9534 13.339 47.8682C18.8089 61.7829 34.5233 68.6287 48.438 63.1588Z" fill="#F6F6F6"/>
<path opacity="0.29" d="M47.6971 63.3129C61.7328 58.2597 69.0146 42.7851 63.9615 28.7493C58.9083 14.7136 43.4336 7.43174 29.3979 12.4849C15.3621 17.5381 8.0803 33.0128 13.1335 47.0485C18.1867 61.0843 33.6613 68.3661 47.6971 63.3129Z" fill="#F7F7F7"/>
<path opacity="0.24" d="M46.8922 63.5098C61.0581 58.8878 68.7951 43.6572 64.1731 29.4913C59.5512 15.3253 44.3206 7.58833 30.1546 12.2103C15.9887 16.8322 8.25171 32.0628 12.8736 46.2288C17.4956 60.3947 32.7262 68.1317 46.8922 63.5098Z" fill="#F8F8F8"/>
<path opacity="0.19" d="M46.1034 63.6664C60.3731 59.4937 68.5584 44.5431 64.3856 30.2733C60.2128 16.0036 45.2622 7.81834 30.9925 11.9911C16.7227 16.1639 8.53748 31.1145 12.7102 45.3842C16.883 59.654 31.8336 67.8392 46.1034 63.6664Z" fill="#FAFAFA"/>
<path opacity="0.14" d="M45.3178 63.9108C59.7229 60.1981 68.3908 45.5109 64.6781 31.1058C60.9655 16.7008 46.2782 8.03287 31.8732 11.7455C17.4681 15.4581 8.80022 30.1454 12.5129 44.5505C16.2255 58.9555 30.9128 67.6234 45.3178 63.9108Z" fill="#FBFBFB"/>
<path opacity="0.1" d="M44.4333 63.9523C58.907 60.7038 68.0068 46.3371 64.7583 31.8634C61.5098 17.3897 47.1431 8.28986 32.6694 11.5384C18.1957 14.7869 9.09585 29.1536 12.3444 43.6273C15.5929 58.101 29.9596 67.2008 44.4333 63.9523Z" fill="#FCFCFC"/>
<path opacity="0.05" d="M43.562 63.9951C58.1001 61.2218 67.6373 47.1882 64.864 32.6501C62.0907 18.112 48.0571 8.57481 33.5191 11.3481C18.981 14.1214 9.44375 28.155 12.217 42.6931C14.9903 57.2311 29.0239 66.7684 43.562 63.9951Z" fill="#FEFEFE"/>
</g>
<path style="mix-blend-mode:multiply" d="M62.1128 24.028C64.9697 28.6896 66.3804 34.0937 66.1666 39.5571C65.9527 45.0204 64.1238 50.2976 60.9111 54.7217C57.6985 59.1458 53.2463 62.5181 48.1174 64.4122C42.9884 66.3063 37.4131 66.6373 32.0961 65.3633C26.7791 64.0892 21.9592 61.2674 18.2457 57.2544C14.5322 53.2415 12.0918 48.2177 11.2331 42.818C10.3743 37.4184 11.1358 31.8853 13.4212 26.9184C15.7066 21.9514 19.4133 17.7736 24.0727 14.9129C30.3272 11.0825 37.8463 9.89091 44.9786 11.5999C52.111 13.309 58.2735 17.7789 62.1128 24.028Z" fill="url(#paint39_linear_357_2015)"/>
<g style="mix-blend-mode:screen" opacity="0.5">
<path d="M62.1128 24.028C64.9697 28.6896 66.3804 34.0937 66.1666 39.5571C65.9527 45.0204 64.1238 50.2976 60.9111 54.7217C57.6985 59.1458 53.2463 62.5181 48.1174 64.4122C42.9884 66.3063 37.4131 66.6373 32.0961 65.3633C26.7791 64.0892 21.9592 61.2674 18.2457 57.2544C14.5322 53.2415 12.0918 48.2177 11.2331 42.818C10.3743 37.4184 11.1358 31.8853 13.4212 26.9184C15.7066 21.9514 19.4133 17.7736 24.0727 14.9129C30.3272 11.0825 37.8463 9.89091 44.9786 11.5999C52.111 13.309 58.2735 17.7789 62.1128 24.028Z" fill="#BD7364"/>
<path opacity="0.95" d="M62.0519 24.0887C64.8969 28.7418 66.2989 34.1337 66.0807 39.5832C65.8626 45.0327 64.0341 50.2953 60.8264 54.7061C57.6186 59.1168 53.1755 62.4779 48.0583 64.3646C42.9412 66.2512 37.3796 66.5789 32.0763 65.3061C26.7731 64.0333 21.966 61.2172 18.2625 57.2136C14.5591 53.21 12.1253 48.1985 11.2689 42.8123C10.4124 37.4261 11.1715 31.9068 13.4505 26.9519C15.7294 21.997 19.4258 17.8287 24.0727 14.9737C27.1638 13.0745 30.5992 11.8037 34.1821 11.2339C37.7651 10.6642 41.4252 10.8067 44.953 11.6534C48.4808 12.5001 51.8069 14.0342 54.741 16.168C57.6751 18.3019 60.1595 20.9935 62.0519 24.0887Z" fill="#B46E5F"/>
<path opacity="0.9" d="M62.0215 24.1494C64.8641 28.7981 66.2648 34.185 66.0465 39.6295C65.8283 45.074 64.001 50.3315 60.7955 54.7377C57.59 59.1439 53.1502 62.501 48.0373 64.3846C42.9244 66.2682 37.3678 66.5938 32.0699 65.3202C26.772 64.0467 21.9705 61.2312 18.2723 57.2295C14.5742 53.2279 12.1453 48.2197 11.2926 42.838C10.44 37.4563 11.2019 31.9426 13.482 26.9938C15.7622 22.045 19.4582 17.8832 24.1031 15.0344C27.1906 13.1407 30.6212 11.8743 34.1987 11.3075C37.7761 10.7407 41.4301 10.8847 44.9519 11.7313C48.4736 12.5779 51.7939 14.1104 54.7229 16.2412C57.6518 18.372 60.132 21.0593 62.0215 24.1494Z" fill="#AB685A"/>
<path opacity="0.86" d="M61.9912 24.2103C64.8543 28.8429 66.2789 34.2206 66.0849 39.6631C65.8908 45.1055 64.0868 50.3681 60.9011 54.7851C57.7153 59.202 53.291 62.5747 48.188 64.4765C43.0849 66.3783 37.5324 66.7237 32.233 65.469C26.9336 64.2144 22.1254 61.416 18.4168 57.4279C14.7082 53.4399 12.2659 48.4415 11.3988 43.065C10.5317 37.6886 11.2788 32.1757 13.5457 27.224C15.8125 22.2723 19.4972 18.1042 24.1335 15.2472C30.3436 11.4203 37.8187 10.2148 44.917 11.8953C52.0153 13.5759 58.1563 18.0052 61.9912 24.2103Z" fill="#A26356"/>
<path opacity="0.81" d="M61.9607 24.3014C64.7504 28.9201 66.1112 34.2608 65.872 39.6513C65.6328 45.0417 63.8042 50.2409 60.6164 54.5943C57.4286 58.9477 53.0242 62.2607 47.9575 64.1162C42.8909 65.9718 37.3885 66.2869 32.1431 65.0219C26.8978 63.757 22.1439 60.9685 18.4799 57.0075C14.816 53.0465 12.4057 48.0901 11.5527 42.7622C10.6996 37.4343 11.4418 31.9731 13.6859 27.0662C15.93 22.1592 19.5756 18.0259 24.1638 15.1864C27.2385 13.2836 30.6601 12.0095 34.2306 11.4378C37.801 10.8661 41.4494 11.0082 44.9645 11.8559C48.4797 12.7036 51.7918 14.2401 54.7092 16.3764C57.6266 18.5126 60.0913 21.2063 61.9607 24.3014Z" fill="#995D51"/>
<path opacity="0.76" d="M61.9002 24.3622C64.7236 28.9691 66.1189 34.3092 65.9099 39.7084C65.701 45.1076 63.8972 50.3238 60.7263 54.6988C57.5554 59.0737 53.1594 62.4112 48.0933 64.2899C43.0272 66.1686 37.5181 66.5044 32.2613 65.2548C27.0045 64.0052 22.2358 61.2263 18.557 57.2688C14.8783 53.3113 12.4544 48.3527 11.5913 43.0188C10.7283 37.685 11.4648 32.215 13.7078 27.2993C15.9508 22.3836 19.5999 18.2427 24.1944 15.3991C27.2564 13.5039 30.6627 12.2323 34.2175 11.6571C37.7724 11.0819 41.4059 11.2145 44.9093 12.0473C48.4128 12.8801 51.7173 14.3967 54.6331 16.5101C57.5488 18.6234 60.0185 21.2918 61.9002 24.3622Z" fill="#90584C"/>
<path opacity="0.71" d="M55.8154 60.0365C67.5518 50.5053 69.3396 33.2646 59.8085 21.5282C50.2773 9.79179 33.0366 8.00405 21.3002 17.5352C9.5638 27.0663 7.77606 44.307 17.3072 56.0434C26.8383 67.7798 44.079 69.5676 55.8154 60.0365Z" fill="#875247"/>
<path opacity="0.67" d="M55.925 59.8934C67.5637 50.2958 69.2183 33.0804 59.6207 21.4418C50.0231 9.80311 32.8078 8.14849 21.1691 17.7461C9.53046 27.3436 7.87583 44.559 17.4734 56.1977C27.071 67.8363 44.2864 69.491 55.925 59.8934Z" fill="#7E4D43"/>
<path opacity="0.62" d="M56.0917 59.8072C67.6367 50.1232 69.1453 32.9138 59.4614 21.3688C49.7774 9.82379 32.5679 8.31512 21.0229 17.9991C9.47796 27.683 7.9693 44.8925 17.6533 56.4375C27.3372 67.9825 44.5467 69.4911 56.0917 59.8072Z" fill="#75473E"/>
<path opacity="0.57" d="M56.253 59.6136C67.6756 49.8371 69.01 32.6518 59.2335 21.2292C49.457 9.80663 32.2717 8.47223 20.8492 18.2487C9.42658 28.0253 8.09217 45.2105 17.8687 56.6331C27.6452 68.0557 44.8305 69.3901 56.253 59.6136Z" fill="#6C4239"/>
<path opacity="0.52" d="M56.4811 59.4447C67.7794 49.5502 68.9175 32.3701 59.0231 21.0718C49.1287 9.77352 31.9486 8.63543 20.6503 18.5298C9.35197 28.4242 8.21387 45.6043 18.1083 56.9027C28.0027 68.201 45.1828 69.3391 56.4811 59.4447Z" fill="#633C34"/>
<path opacity="0.48" d="M56.7294 59.2203C67.8813 49.1862 68.7874 32.0115 58.7533 20.8597C48.7191 9.70785 31.5445 8.80176 20.3927 18.8359C9.2408 28.87 8.33471 46.0446 18.3688 57.1965C28.403 68.3483 45.5776 69.2544 56.7294 59.2203Z" fill="#5A3730"/>
<path opacity="0.43" d="M57.0503 58.9008C68.0132 48.7098 68.639 31.5612 58.4481 20.5983C48.2571 9.63533 31.1085 9.00951 20.1456 19.2005C9.18263 29.3914 8.55681 46.5401 18.7478 57.503C28.9387 68.4659 46.0874 69.0917 57.0503 58.9008Z" fill="#51312B"/>
<path opacity="0.38" d="M57.4019 58.5545C68.1515 48.1628 68.4417 31.0245 58.05 20.2749C47.6584 9.52533 30.5201 9.23515 19.7705 19.6268C9.0209 30.0184 8.73072 47.1568 19.1224 57.9063C29.514 68.6559 46.6523 68.9461 57.4019 58.5545Z" fill="#482C26"/>
<path opacity="0.33" d="M57.7105 58.2628C68.2589 47.7144 68.2589 30.612 57.7105 20.0637C47.1621 9.51526 30.0598 9.51526 19.5114 20.0637C8.96303 30.612 8.96303 47.7144 19.5114 58.2628C30.0598 68.8112 47.1621 68.8112 57.7105 58.2628Z" fill="#3F2621"/>
<path opacity="0.29" d="M58.3775 57.5159C68.5075 46.588 67.8606 29.5171 56.9327 19.3871C46.0048 9.2571 28.9339 9.90395 18.8039 20.8319C8.67391 31.7598 9.32075 48.8306 20.2487 58.9607C31.1766 69.0907 48.2475 68.4438 58.3775 57.5159Z" fill="#36211D"/>
<path opacity="0.24" d="M59.0383 56.7621C68.7116 45.472 67.401 28.4779 56.111 18.8046C44.821 9.13126 27.8268 10.4419 18.1535 21.7319C8.4802 33.0219 9.79081 50.0161 21.0808 59.6894C32.3709 69.3627 49.365 68.0521 59.0383 56.7621Z" fill="#2D1B18"/>
<path opacity="0.19" d="M59.8829 55.7098C68.95 43.9486 66.7661 27.0639 55.0049 17.9967C43.2437 8.92955 26.359 11.1135 17.2918 22.8747C8.22465 34.6359 10.4086 51.5206 22.1698 60.5878C33.931 69.6549 50.8157 67.471 59.8829 55.7098Z" fill="#241613"/>
<path opacity="0.14" d="M60.9215 54.2138C69.134 41.881 65.7939 25.2257 53.4611 17.0132C41.1283 8.80069 24.473 12.1408 16.2605 24.4736C8.04794 36.8064 11.3881 53.4617 23.7209 61.6742C36.0537 69.8867 52.709 66.5466 60.9215 54.2138Z" fill="#1B100E"/>
<path opacity="0.1" d="M62.184 52.0851C69.2051 39.0563 64.335 22.8026 51.3061 15.7814C38.2773 8.76029 22.0236 13.6305 15.0025 26.6593C7.98132 39.6881 12.8515 55.9418 25.8803 62.9629C38.9091 69.9841 55.1628 65.1139 62.184 52.0851Z" fill="#120B0A"/>
<path opacity="0.05" d="M63.5061 49.1604C68.8893 35.4099 62.1063 19.899 48.3559 14.5158C34.6054 9.1326 19.0945 15.9156 13.7113 29.6661C8.32806 43.4165 15.1111 58.9274 28.8615 64.3106C42.612 69.6939 58.1229 62.9109 63.5061 49.1604Z" fill="#090505"/>
</g>
<defs>
<radialGradient id="paint0_radial_357_2015" cx="0" cy="0" r="1" gradientUnits="userSpaceOnUse" gradientTransform="translate(38.5744 38.9692) rotate(-0.08) scale(20.205 20.205)">
<stop offset="0.66" stop-color="#090505"/>
<stop offset="0.95" stop-color="#090505"/>
<stop offset="1" stop-color="#090505"/>
</radialGradient>
<radialGradient id="paint1_radial_357_2015" cx="0" cy="0" r="1" gradientUnits="userSpaceOnUse" gradientTransform="translate(38.5831 38.9634) rotate(-0.16) scale(20.205 20.205)">
<stop offset="0.66" stop-color="#120B0A"/>
<stop offset="0.95" stop-color="#120B0A"/>
<stop offset="1" stop-color="#120B0A"/>
</radialGradient>
<radialGradient id="paint2_radial_357_2015" cx="0" cy="0" r="1" gradientUnits="userSpaceOnUse" gradientTransform="translate(38.5917 38.9289) rotate(-0.24) scale(20.1746 20.1746)">
<stop offset="0.66" stop-color="#1B100E"/>
<stop offset="0.95" stop-color="#1B100E"/>
<stop offset="1" stop-color="#1B100E"/>
</radialGradient>
<radialGradient id="paint3_radial_357_2015" cx="0" cy="0" r="1" gradientUnits="userSpaceOnUse" gradientTransform="translate(38.5646 38.9007) rotate(-0.31) scale(20.1442 20.1442)">
<stop offset="0.66" stop-color="#241613"/>
<stop offset="0.95" stop-color="#241613"/>
<stop offset="1" stop-color="#241613"/>
</radialGradient>
<radialGradient id="paint4_radial_357_2015" cx="0" cy="0" r="1" gradientUnits="userSpaceOnUse" gradientTransform="translate(38.573 38.8693) rotate(-0.39) scale(20.1138)">
<stop offset="0.66" stop-color="#2D1B18"/>
<stop offset="0.95" stop-color="#2D1B18"/>
<stop offset="1" stop-color="#2D1B18"/>
</radialGradient>
<radialGradient id="paint5_radial_357_2015" cx="0" cy="0" r="1" gradientUnits="userSpaceOnUse" gradientTransform="translate(38.6321 38.828) rotate(-0.572939) scale(20.1148 20.1148)">
<stop offset="0.66" stop-color="#36211D"/>
<stop offset="0.95" stop-color="#36211D"/>
<stop offset="1" stop-color="#36211D"/>
</radialGradient>
<radialGradient id="paint6_radial_357_2015" cx="0" cy="0" r="1" gradientUnits="userSpaceOnUse" gradientTransform="translate(38.5891 38.8422) rotate(-0.55) scale(20.0834)">
<stop offset="0.66" stop-color="#3F2621"/>
<stop offset="0.95" stop-color="#3F2621"/>
<stop offset="1" stop-color="#3F2621"/>
</radialGradient>
<radialGradient id="paint7_radial_357_2015" cx="0" cy="0" r="1" gradientUnits="userSpaceOnUse" gradientTransform="translate(38.5401 38.8404) rotate(-0.572939) scale(20.0541)">
<stop offset="0.66" stop-color="#482C26"/>
<stop offset="0.95" stop-color="#482C26"/>
<stop offset="1" stop-color="#482C26"/>
</radialGradient>
<radialGradient id="paint8_radial_357_2015" cx="0" cy="0" r="1" gradientUnits="userSpaceOnUse" gradientTransform="translate(38.5095 38.8465) rotate(-0.572939) scale(20.0237 20.0237)">
<stop offset="0.66" stop-color="#51312B"/>
<stop offset="0.95" stop-color="#51312B"/>
<stop offset="1" stop-color="#51312B"/>
</radialGradient>
<radialGradient id="paint9_radial_357_2015" cx="0" cy="0" r="1" gradientUnits="userSpaceOnUse" gradientTransform="translate(38.5819 38.7685) rotate(-0.79) scale(20.0227 20.0227)">
<stop offset="0.66" stop-color="#5A3730"/>
<stop offset="0.95" stop-color="#5A3730"/>
<stop offset="1" stop-color="#5A3730"/>
</radialGradient>
<radialGradient id="paint10_radial_357_2015" cx="0" cy="0" r="1" gradientUnits="userSpaceOnUse" gradientTransform="translate(38.5843 38.7509) rotate(-0.86) scale(19.9923 19.9923)">
<stop offset="0.66" stop-color="#633C34"/>
<stop offset="0.95" stop-color="#633C34"/>
<stop offset="1" stop-color="#633C34"/>
</radialGradient>
<radialGradient id="paint11_radial_357_2015" cx="0" cy="0" r="1" gradientUnits="userSpaceOnUse" gradientTransform="translate(38.5608 38.7012) rotate(-0.94) scale(19.9619)">
<stop offset="0.66" stop-color="#6C4239"/>
<stop offset="0.95" stop-color="#6C4239"/>
<stop offset="1" stop-color="#6C4239"/>
</radialGradient>
<radialGradient id="paint12_radial_357_2015" cx="0" cy="0" r="1" gradientUnits="userSpaceOnUse" gradientTransform="translate(38.5679 38.7134) rotate(-1.02) scale(19.9619 19.9619)">
<stop offset="0.66" stop-color="#75473E"/>
<stop offset="0.95" stop-color="#75473E"/>
<stop offset="1" stop-color="#75473E"/>
</radialGradient>
<radialGradient id="paint13_radial_357_2015" cx="0" cy="0" r="1" gradientUnits="userSpaceOnUse" gradientTransform="translate(38.6002 38.6563) rotate(-1.14576) scale(19.9355)">
<stop offset="0.66" stop-color="#7E4D43"/>
<stop offset="0.95" stop-color="#7E4D43"/>
<stop offset="1" stop-color="#7E4D43"/>
</radialGradient>
<radialGradient id="paint14_radial_357_2015" cx="0" cy="0" r="1" gradientUnits="userSpaceOnUse" gradientTransform="translate(38.581 38.6517) rotate(-1.18) scale(19.9011)">
<stop offset="0.66" stop-color="#875247"/>
<stop offset="0.95" stop-color="#875247"/>
<stop offset="1" stop-color="#875247"/>
</radialGradient>
<radialGradient id="paint15_radial_357_2015" cx="0" cy="0" r="1" gradientUnits="userSpaceOnUse" gradientTransform="translate(38.5575 38.6392) rotate(-1.26) scale(19.8707)">
<stop offset="0.66" stop-color="#90584C"/>
<stop offset="0.95" stop-color="#90584C"/>
<stop offset="1" stop-color="#90584C"/>
</radialGradient>
<radialGradient id="paint16_radial_357_2015" cx="0" cy="0" r="1" gradientUnits="userSpaceOnUse" gradientTransform="translate(38.4757 38.6934) rotate(-1.14576) scale(19.8747)">
<stop offset="0.66" stop-color="#995D51"/>
<stop offset="0.95" stop-color="#995D51"/>
<stop offset="1" stop-color="#995D51"/>
</radialGradient>
<radialGradient id="paint17_radial_357_2015" cx="0" cy="0" r="1" gradientUnits="userSpaceOnUse" gradientTransform="translate(38.565 38.5905) rotate(-1.41) scale(19.8404)">
<stop offset="0.66" stop-color="#A26356"/>
<stop offset="0.95" stop-color="#A26356"/>
<stop offset="1" stop-color="#A26356"/>
</radialGradient>
<radialGradient id="paint18_radial_357_2015" cx="0" cy="0" r="1" gradientUnits="userSpaceOnUse" gradientTransform="translate(38.5709 38.5821) rotate(-1.49) scale(19.81 19.81)">
<stop offset="0.66" stop-color="#AB685A"/>
<stop offset="0.95" stop-color="#AB685A"/>
<stop offset="1" stop-color="#AB685A"/>
</radialGradient>
<radialGradient id="paint19_radial_357_2015" cx="0" cy="0" r="1" gradientUnits="userSpaceOnUse" gradientTransform="translate(38.5765 38.5451) rotate(-1.57) scale(19.7796)">
<stop offset="0.66" stop-color="#B46E5F"/>
<stop offset="0.95" stop-color="#B46E5F"/>
<stop offset="1" stop-color="#B46E5F"/>
</radialGradient>
<radialGradient id="paint20_radial_357_2015" cx="0" cy="0" r="1" gradientUnits="userSpaceOnUse" gradientTransform="translate(38.5518 38.5106) rotate(-1.65) scale(19.7796)">
<stop offset="0.66" stop-color="#BD7364"/>
<stop offset="0.95" stop-color="#BD7364"/>
<stop offset="1" stop-color="#BD7364"/>
</radialGradient>
<radialGradient id="paint21_radial_357_2015" cx="0" cy="0" r="1" gradientUnits="userSpaceOnUse" gradientTransform="translate(38.5518 38.5106) rotate(-1.65) scale(19.7796)">
<stop offset="0.66" stop-color="#CFB5B0"/>
<stop offset="0.95" stop-color="#CFB5B0"/>
<stop offset="1" stop-color="#CFB5B0"/>
</radialGradient>
<radialGradient id="paint22_radial_357_2015" cx="0" cy="0" r="1" gradientUnits="userSpaceOnUse" gradientTransform="translate(38.7149 38.4604) rotate(-1.71836) scale(19.6973)">
<stop offset="0.66" stop-color="#D4BDB9"/>
<stop offset="0.95" stop-color="#D4BDB9"/>
<stop offset="1" stop-color="#D4BDB9"/>
</radialGradient>
<radialGradient id="paint23_radial_357_2015" cx="0" cy="0" r="1" gradientUnits="userSpaceOnUse" gradientTransform="translate(38.5644 38.5457) rotate(-1.28) scale(19.6277)">
<stop offset="0.66" stop-color="#DAC5C2"/>
<stop offset="0.95" stop-color="#DAC5C2"/>
<stop offset="1" stop-color="#DAC5C2"/>
</radialGradient>
<radialGradient id="paint24_radial_357_2015" cx="0" cy="0" r="1" gradientUnits="userSpaceOnUse" gradientTransform="translate(38.5972 38.5044) rotate(-1.14576) scale(19.5404 19.5404)">
<stop offset="0.66" stop-color="#DFCECA"/>
<stop offset="0.95" stop-color="#DFCECA"/>
<stop offset="1" stop-color="#DFCECA"/>
</radialGradient>
<radialGradient id="paint25_radial_357_2015" cx="0" cy="0" r="1" gradientUnits="userSpaceOnUse" gradientTransform="translate(38.5787 38.5227) rotate(-0.92) scale(19.4758 19.4758)">
<stop offset="0.66" stop-color="#E4D6D3"/>
<stop offset="0.95" stop-color="#E4D6D3"/>
<stop offset="1" stop-color="#E4D6D3"/>
</radialGradient>
<radialGradient id="paint26_radial_357_2015" cx="0" cy="0" r="1" gradientUnits="userSpaceOnUse" gradientTransform="translate(38.5501 38.5434) rotate(-0.73) scale(19.3846)">
<stop offset="0.66" stop-color="#EADEDC"/>
<stop offset="0.95" stop-color="#EADEDC"/>
<stop offset="1" stop-color="#EADEDC"/>
</radialGradient>
<radialGradient id="paint27_radial_357_2015" cx="0" cy="0" r="1" gradientUnits="userSpaceOnUse" gradientTransform="translate(38.5556 38.5082) rotate(-0.55) scale(19.3239 19.3238)">
<stop offset="0.66" stop-color="#EFE6E5"/>
<stop offset="0.95" stop-color="#EFE6E5"/>
<stop offset="1" stop-color="#EFE6E5"/>
</radialGradient>
<radialGradient id="paint28_radial_357_2015" cx="0" cy="0" r="1" gradientUnits="userSpaceOnUse" gradientTransform="translate(38.69 38.4552) rotate(-0.572939) scale(19.264)">
<stop offset="0.66" stop-color="#F4EFED"/>
<stop offset="0.95" stop-color="#F4EFED"/>
<stop offset="1" stop-color="#F4EFED"/>
</radialGradient>
<radialGradient id="paint29_radial_357_2015" cx="0" cy="0" r="1" gradientUnits="userSpaceOnUse" gradientTransform="translate(38.5611 38.4991) rotate(-0.18) scale(19.1719)">
<stop offset="0.66" stop-color="#FAF7F6"/>
<stop offset="0.95" stop-color="#FAF7F6"/>
<stop offset="1" stop-color="#FAF7F6"/>
</radialGradient>
<radialGradient id="paint30_radial_357_2015" cx="0" cy="0" r="1" gradientUnits="userSpaceOnUse" gradientTransform="translate(38.5612 38.499) rotate(-0.18) scale(18.7162 18.7162)">
<stop offset="0.66" stop-color="#FAF7F6"/>
<stop offset="0.95" stop-color="#FAF7F6"/>
<stop offset="1" stop-color="#FAF7F6"/>
</radialGradient>
<radialGradient id="paint31_radial_357_2015" cx="0" cy="0" r="1" gradientUnits="userSpaceOnUse" gradientTransform="translate(38.5916 38.5424) rotate(-0.37) scale(18.625)">
<stop offset="0.66" stop-color="#F4EFED"/>
<stop offset="0.95" stop-color="#F4EFED"/>
<stop offset="1" stop-color="#F4EFED"/>
</radialGradient>
<radialGradient id="paint32_radial_357_2015" cx="0" cy="0" r="1" gradientUnits="userSpaceOnUse" gradientTransform="translate(38.5556 38.5082) rotate(-0.55) scale(18.5643 18.5643)">
<stop offset="0.66" stop-color="#EFE6E5"/>
<stop offset="0.95" stop-color="#EFE6E5"/>
<stop offset="1" stop-color="#EFE6E5"/>
</radialGradient>
<radialGradient id="paint33_radial_357_2015" cx="0" cy="0" r="1" gradientUnits="userSpaceOnUse" gradientTransform="translate(38.592 38.3714) rotate(-0.948018) scale(18.4232)">
<stop offset="0.66" stop-color="#EADEDC"/>
<stop offset="0.95" stop-color="#EADEDC"/>
<stop offset="1" stop-color="#EADEDC"/>
</radialGradient>
<radialGradient id="paint34_radial_357_2015" cx="0" cy="0" r="1" gradientUnits="userSpaceOnUse" gradientTransform="translate(38.5476 38.5113) rotate(-0.91) scale(18.382)">
<stop offset="0.66" stop-color="#E4D6D3"/>
<stop offset="0.95" stop-color="#E4D6D3"/>
<stop offset="1" stop-color="#E4D6D3"/>
</radialGradient>
<radialGradient id="paint35_radial_357_2015" cx="0" cy="0" r="1" gradientUnits="userSpaceOnUse" gradientTransform="translate(38.5584 38.5212) rotate(-1.1) scale(18.2908)">
<stop offset="0.66" stop-color="#DFCECA"/>
<stop offset="0.95" stop-color="#DFCECA"/>
<stop offset="1" stop-color="#DFCECA"/>
</radialGradient>
<radialGradient id="paint36_radial_357_2015" cx="0" cy="0" r="1" gradientUnits="userSpaceOnUse" gradientTransform="translate(38.564 38.6236) rotate(-1.1365) scale(18.2324)">
<stop offset="0.66" stop-color="#DAC5C2"/>
<stop offset="0.95" stop-color="#DAC5C2"/>
<stop offset="1" stop-color="#DAC5C2"/>
</radialGradient>
<radialGradient id="paint37_radial_357_2015" cx="0" cy="0" r="1" gradientUnits="userSpaceOnUse" gradientTransform="translate(38.5613 38.5301) rotate(-1.46) scale(18.1085)">
<stop offset="0.66" stop-color="#D4BDB9"/>
<stop offset="0.95" stop-color="#D4BDB9"/>
<stop offset="1" stop-color="#D4BDB9"/>
</radialGradient>
<radialGradient id="paint38_radial_357_2015" cx="0" cy="0" r="1" gradientUnits="userSpaceOnUse" gradientTransform="translate(38.5518 38.5106) rotate(-1.65) scale(18.0477)">
<stop offset="0.66" stop-color="#CFB5B0"/>
<stop offset="0.95" stop-color="#CFB5B0"/>
<stop offset="1" stop-color="#CFB5B0"/>
</radialGradient>
<linearGradient id="paint39_linear_357_2015" x1="39.3478" y1="66.1481" x2="37.7555" y2="10.8732" gradientUnits="userSpaceOnUse">
<stop stop-color="#E8DDDA"/>
<stop offset="0.19" stop-color="#EEE6E4"/>
<stop offset="0.67" stop-color="#FBF8F8"/>
<stop offset="1" stop-color="white"/>
</linearGradient>
</defs>
</svg>
