<svg width="78" height="76" viewBox="0 0 78 76" fill="none" xmlns="http://www.w3.org/2000/svg">
<path d="M62.0964 24.028C64.9534 28.6896 66.3641 34.0937 66.1502 39.5571C65.9363 45.0204 64.1074 50.2976 60.8948 54.7217C57.6821 59.1458 53.2299 62.5181 48.101 64.4122C42.9721 66.3063 37.3967 66.6373 32.0797 65.3633C26.7627 64.0892 21.9428 61.2674 18.2293 57.2544C14.5158 53.2415 12.0754 48.2177 11.2167 42.818C10.358 37.4184 11.1194 31.8853 13.4048 26.9184C15.6902 21.9514 19.3969 17.7736 24.0564 14.9129C30.3109 11.0825 37.8299 9.89091 44.9623 11.5999C52.0946 13.309 58.2571 17.7789 62.0964 24.028Z" fill="#1A62D7"/>
<g style="mix-blend-mode:screen" opacity="0.5">
<path opacity="0.05" d="M55.7766 28.3727C57.8707 31.7743 58.9095 35.7203 58.7619 39.7121C58.6142 43.7039 57.2866 47.5623 54.9468 50.7999C52.6071 54.0375 49.3602 56.5089 45.6164 57.9018C41.8727 59.2947 37.8 59.5467 33.9131 58.6259C30.0261 57.7051 26.4994 55.6528 23.7784 52.7284C21.0574 49.8039 19.2643 46.1386 18.6256 42.1954C17.987 38.2523 18.5315 34.2083 20.1903 30.5745C21.8491 26.9407 24.5478 23.8802 27.9454 21.7795C30.205 20.3825 32.7179 19.4448 35.3404 19.02C37.9628 18.5953 40.6433 18.6919 43.2283 19.3043C45.8134 19.9167 48.2523 21.0329 50.4055 22.589C52.5587 24.145 54.3839 26.1105 55.7766 28.3727Z" fill="url(#paint0_radial_357_1862)"/>
<path opacity="0.1" d="M55.7462 28.3424C57.8475 31.7437 58.8925 35.692 58.749 39.6875C58.6054 43.6829 57.2797 47.546 54.9396 50.7878C52.5995 54.0295 49.3503 56.5041 45.6033 57.8984C41.8562 59.2926 37.7797 59.5439 33.8897 58.6204C29.9998 57.6968 26.4713 55.64 23.7508 52.7102C21.0304 49.7804 19.2402 46.1094 18.6071 42.1618C17.9739 38.2141 18.5261 34.1674 20.1938 30.5338C21.8615 26.9001 24.5698 23.8429 27.9757 21.7492C30.2318 20.3576 32.74 19.4243 35.3569 19.0025C37.9738 18.5807 40.6482 18.6788 43.2272 19.2911C45.8062 19.9034 48.2393 21.0179 50.3874 22.571C52.5354 24.1241 54.3564 26.0852 55.7462 28.3424Z" fill="url(#paint1_radial_357_1862)"/>
<path opacity="0.14" d="M55.7158 28.3424C57.8112 31.7394 58.8518 35.6816 58.7061 39.6702C58.5604 43.6588 57.2349 47.5146 54.8972 50.7497C52.5596 53.9847 49.3149 56.4537 45.5737 57.8443C41.8325 59.2348 37.7629 59.4844 33.8799 58.5615C29.9968 57.6386 26.4747 55.5846 23.7592 52.6594C21.0438 49.7343 19.257 46.0694 18.6249 42.1285C17.9929 38.1876 18.544 34.1478 20.2085 30.5202C21.873 26.8926 24.5761 23.8402 27.9758 21.7492C30.2295 20.3584 32.7353 19.4256 35.3499 19.0043C37.9644 18.5829 40.6364 18.6813 43.213 19.2936C45.7895 19.906 48.22 21.0204 50.3654 22.5731C52.5108 24.1258 54.3289 26.0863 55.7158 28.3424Z" fill="url(#paint2_radial_357_1862)"/>
<path opacity="0.19" d="M55.7158 28.3424C57.8015 31.7353 58.8347 35.6702 58.6848 39.6501C58.5349 43.6299 57.2086 47.476 54.8736 50.7024C52.5386 53.9287 49.2996 56.3905 45.5659 57.7766C41.8323 59.1628 37.7715 59.4111 33.8968 58.4901C30.0221 57.5692 26.5073 55.5204 23.7966 52.6025C21.0859 49.6847 19.3009 46.0288 18.6673 42.0969C18.0336 38.165 18.5797 34.1334 20.2365 30.5118C21.8933 26.8901 24.5865 23.8408 27.9757 21.7492C30.2294 20.3584 32.7353 19.4256 35.3498 19.0043C37.9644 18.5829 40.6364 18.6813 43.2129 19.2936C45.7895 19.906 48.22 21.0204 50.3653 22.5731C52.5107 24.1258 54.3289 26.0863 55.7158 28.3424Z" fill="url(#paint3_radial_357_1862)"/>
<path opacity="0.24" d="M55.6855 28.312C57.7734 31.698 58.8103 35.6272 58.6652 39.6026C58.52 43.578 57.1994 47.4211 54.8701 50.6459C52.5409 53.8708 49.3077 56.3325 45.5794 57.7198C41.8511 59.1071 37.7951 59.3578 33.9244 58.44C30.0536 57.5222 26.542 55.4773 23.8334 52.5638C21.1249 49.6503 19.3411 45.999 18.7076 42.0717C18.0741 38.1444 18.6194 34.1175 20.2746 30.5001C21.9297 26.8827 24.6203 23.8374 28.0062 21.7491C32.549 18.9568 38.0137 18.0796 43.2022 19.3098C48.3908 20.54 52.8799 23.7773 55.6855 28.312Z" fill="url(#paint4_radial_357_1862)"/>
<path opacity="0.29" d="M55.6855 28.312C57.7734 31.6981 58.8103 35.6272 58.6652 39.6026C58.52 43.578 57.1994 47.4211 54.8701 50.646C52.5409 53.8708 49.3077 56.3325 45.5794 57.7198C41.8511 59.1072 37.7951 59.3578 33.9244 58.44C30.0536 57.5223 26.542 55.4773 23.8334 52.5638C21.1249 49.6503 19.3411 45.999 18.7076 42.0718C18.0741 38.1445 18.6194 34.1175 20.2746 30.5001C21.9297 26.8828 24.6203 23.8374 28.0062 21.7492C30.2545 20.3625 32.754 19.4323 35.3618 19.0117C37.9697 18.591 40.6348 18.6882 43.2051 19.2976C45.7754 19.907 48.2005 21.0168 50.3419 22.5635C52.4833 24.1102 54.299 26.0635 55.6855 28.312Z" fill="url(#paint5_radial_357_1862)"/>
<path opacity="0.33" d="M55.655 28.312C57.7406 31.6937 58.7762 35.6179 58.631 39.5883C58.4858 43.5586 57.1662 47.3967 54.8392 50.617C52.5123 53.8372 49.2824 56.2949 45.5584 57.6792C41.8343 59.0635 37.7833 59.3121 33.918 58.3936C30.0526 57.475 26.5465 55.4307 23.8432 52.5191C21.1399 49.6076 19.361 45.9597 18.7313 42.0369C18.1017 38.114 18.6498 34.0926 20.3061 30.4814C21.9625 26.8701 24.6527 23.8312 28.0365 21.7492C32.57 18.9598 38.0253 18.0843 43.204 19.3148C48.3827 20.5454 52.861 23.7815 55.655 28.312Z" fill="url(#paint6_radial_357_1862)"/>
<path opacity="0.38" d="M55.6248 28.2816C57.7089 31.6566 58.7452 35.5739 58.6027 39.538C58.4602 43.502 57.1453 47.3348 54.8242 50.5514C52.5032 53.7681 49.2803 56.2241 45.5633 57.6089C41.8462 58.9937 37.802 59.245 33.9421 58.331C30.0822 57.4171 26.5801 55.3789 23.8787 52.4743C21.1773 49.5698 19.398 45.9293 18.7658 42.0134C18.1337 38.0974 18.6771 34.082 20.3273 30.4749C21.9775 26.8679 24.6604 23.8313 28.0366 21.7492C32.5638 18.9667 38.0093 18.0919 43.1802 19.3163C48.3511 20.5407 52.826 23.7645 55.6248 28.2816Z" fill="url(#paint7_radial_357_1862)"/>
<path opacity="0.43" d="M55.6248 28.2816C57.7089 31.6566 58.7452 35.5739 58.6027 39.538C58.4602 43.502 57.1453 47.3348 54.8242 50.5514C52.5032 53.7681 49.2803 56.2241 45.5633 57.6089C41.8462 58.9937 37.802 59.245 33.9421 58.331C30.0822 57.4171 26.5801 55.3789 23.8787 52.4743C21.1773 49.5698 19.398 45.9293 18.7658 42.0134C18.1337 38.0974 18.6771 34.082 20.3273 30.4749C21.9775 26.8679 24.6604 23.8313 28.0366 21.7492C30.2761 20.3634 32.767 19.4331 35.3665 19.0114C37.9661 18.5897 40.6233 18.685 43.186 19.2918C45.7487 19.8986 48.1665 21.005 50.3009 22.5476C52.4354 24.0902 54.2445 26.0388 55.6248 28.2816Z" fill="url(#paint8_radial_357_1862)"/>
<path opacity="0.48" d="M55.5943 28.2816C57.6664 31.648 58.694 35.5531 58.5472 39.5034C58.4004 43.4536 57.0859 47.2717 54.7697 50.4751C52.4536 53.6784 49.2398 56.1233 45.5345 57.5006C41.8292 58.8779 37.7988 59.1259 33.9526 58.2131C30.1064 57.3004 26.6172 55.268 23.9258 52.3727C21.2344 49.4774 19.4618 45.8493 18.8319 41.9468C18.202 38.0443 18.7431 34.0427 20.3869 30.4477C22.0307 26.8527 24.7033 23.8256 28.067 21.7492C32.5848 18.9697 38.0209 18.0965 43.1819 19.3213C48.3429 20.546 52.8071 23.7686 55.5943 28.2816Z" fill="url(#paint9_radial_357_1862)"/>
<path opacity="0.52" d="M55.564 28.2512C57.6577 31.6168 58.7038 35.5287 58.5693 39.4901C58.4347 43.4515 57.1258 47.2834 54.8086 50.4992C52.4914 53.715 49.2707 56.1694 45.5555 57.5507C41.8403 58.932 37.7984 59.1777 33.9433 58.2568C30.0881 57.3358 26.5937 55.2897 23.904 52.3784C21.2142 49.467 19.4506 45.8219 18.8371 41.906C18.2236 37.9901 18.788 33.9803 20.4585 30.3859C22.129 26.7914 24.8302 23.7747 28.219 21.7188C32.715 18.9727 38.1153 18.1183 43.2395 19.3424C48.3636 20.5665 52.7947 23.7695 55.564 28.2512Z" fill="url(#paint10_radial_357_1862)"/>
<path opacity="0.57" d="M55.564 28.2513C57.6481 31.6127 58.6867 35.5174 58.548 39.47C58.4093 43.4227 57.0996 47.245 54.7851 50.4521C52.4705 53.6591 49.2554 56.1064 45.5478 57.4833C41.8401 58.8601 37.807 59.1046 33.9602 58.1856C30.1134 57.2667 26.6263 55.2257 23.9413 52.3217C21.2563 49.4177 19.4945 45.7815 18.8794 41.8746C18.2643 37.9677 18.8236 33.9661 20.4864 30.3775C22.1492 26.789 24.8406 23.7753 28.2189 21.7188C32.717 18.9808 38.1148 18.1309 43.2366 19.3545C48.3583 20.578 52.7892 23.7758 55.564 28.2513Z" fill="url(#paint11_radial_357_1862)"/>
<path opacity="0.62" d="M55.5334 28.2513C57.6079 31.6085 58.6391 35.506 58.4962 39.4499C58.3534 43.3938 57.0429 47.2065 54.731 50.4049C52.419 53.6032 49.2096 56.0433 45.5095 57.4157C41.8094 58.7882 37.7851 59.0314 33.9467 58.1144C30.1082 57.1975 26.6284 55.1617 23.9481 52.265C21.2678 49.3683 19.5078 45.7411 18.8911 41.8431C18.2744 37.9451 18.8287 33.9518 20.4839 30.3692C22.139 26.7866 24.8205 23.776 28.1884 21.7188C32.6864 18.9808 38.0842 18.1309 43.206 19.3545C48.3278 20.578 52.7586 23.7758 55.5334 28.2513Z" fill="url(#paint12_radial_357_1862)"/>
<path opacity="0.67" d="M55.5032 28.2208C57.5823 31.5757 58.6185 35.4724 58.4805 39.4169C58.3425 43.3613 57.0365 47.1761 54.7281 50.3775C52.4197 53.5789 49.2127 56.0229 45.5137 57.3996C41.8147 58.7764 37.7903 59.0239 33.9504 58.1109C30.1106 57.1979 26.6283 55.1654 23.9449 52.271C21.2615 49.3767 19.4978 45.7508 18.8774 41.853C18.257 37.9551 18.8078 33.9609 20.4601 30.3765C22.1123 26.792 24.7915 23.7788 28.1581 21.7188C32.6505 18.9699 38.0481 18.1108 43.1719 19.3291C48.2956 20.5475 52.7289 23.7442 55.5032 28.2208Z" fill="url(#paint13_radial_357_1862)"/>
<path opacity="0.71" d="M55.5032 28.2209C57.5726 31.5716 58.6014 35.4611 58.4592 39.3968C58.3171 43.3325 57.0103 47.1376 54.7045 50.3303C52.3987 53.523 49.1974 55.9597 45.5059 57.3321C41.8145 58.7045 37.7988 58.9507 33.9674 58.0397C30.1359 57.1286 26.6609 55.1013 23.9822 52.2142C21.3036 49.3272 19.5417 45.7103 18.9197 41.8215C18.2977 37.9326 18.8435 33.9466 20.4881 30.3681C22.1326 26.7896 24.8019 23.7795 28.1581 21.7188C32.6483 18.9619 38.0486 18.0981 43.1748 19.317C48.3009 20.5359 52.7344 23.7379 55.5032 28.2209Z" fill="url(#paint14_radial_357_1862)"/>
<path opacity="0.76" d="M55.4727 28.1905C57.5371 31.5348 58.5635 35.4161 58.422 39.3437C58.2805 43.2713 56.9775 47.0687 54.6777 50.2557C52.378 53.4427 49.1848 55.8762 45.5021 57.2484C41.8193 58.6206 37.8123 58.8699 33.9878 57.9648C30.1633 57.0597 26.6931 55.0408 24.0161 52.1634C21.339 49.286 19.5754 45.6794 18.9481 41.7997C18.3208 37.9199 18.8581 33.9413 20.4921 30.3669C22.1261 26.7926 24.7832 23.783 28.1277 21.7188C32.6142 18.9592 38.0118 18.0907 43.1376 19.3038C48.2633 20.5169 52.6991 23.7126 55.4727 28.1905Z" fill="url(#paint15_radial_357_1862)"/>
<path opacity="0.81" d="M55.4424 28.1905C57.4972 31.5306 58.5161 35.4047 58.3704 39.3235C58.2247 43.2423 56.921 47.0301 54.6238 50.2084C52.3267 53.3866 49.1392 55.8129 45.4639 57.1807C41.7887 58.5485 37.7905 58.7965 33.9744 57.8934C30.1583 56.9902 26.6954 54.9764 24.0231 52.1064C21.3508 49.2363 19.589 45.6387 18.9601 41.768C18.3313 37.8972 18.8636 33.9269 20.4899 30.3584C22.1162 26.79 24.7634 23.7836 28.0974 21.7188C30.3167 20.3443 32.7854 19.4214 35.3621 19.0027C37.9388 18.5841 40.5728 18.6781 43.1131 19.2793C45.6534 19.8805 48.0501 20.9771 50.1658 22.5063C52.2815 24.0354 54.0746 25.9671 55.4424 28.1905Z" fill="url(#paint16_radial_357_1862)"/>
<path opacity="0.86" d="M55.4424 28.1905C57.4972 31.5306 58.5161 35.4047 58.3704 39.3235C58.2247 43.2423 56.921 47.0301 54.6238 50.2084C52.3267 53.3866 49.1392 55.8129 45.4639 57.1807C41.7887 58.5485 37.7905 58.7965 33.9744 57.8934C30.1583 56.9902 26.6954 54.9764 24.0231 52.1064C21.3508 49.2363 19.589 45.6387 18.9601 41.768C18.3313 37.8972 18.8636 33.9269 20.4899 30.3584C22.1162 26.79 24.7634 23.7836 28.0974 21.7188C30.3167 20.3443 32.7854 19.4214 35.3621 19.0027C37.9388 18.5841 40.5728 18.6781 43.1131 19.2793C45.6534 19.8805 48.0501 20.9771 50.1658 22.5063C52.2815 24.0354 54.0746 25.9671 55.4424 28.1905Z" fill="url(#paint17_radial_357_1862)"/>
<path opacity="0.9" d="M55.4121 28.16C57.4618 31.4937 58.4782 35.3597 58.3332 39.2703C58.1881 43.181 56.888 46.9611 54.597 50.1337C52.3059 53.3063 49.1265 55.7292 45.46 57.0968C41.7934 58.4645 37.8039 58.7155 33.9948 57.8182C30.1857 56.921 26.7276 54.9157 24.057 52.0553C21.3863 49.1949 19.6227 45.6075 18.9886 41.7459C18.3545 37.8843 18.8783 33.9214 20.494 30.3571C22.1097 26.7929 24.7449 23.787 28.067 21.7188C30.2822 20.3349 32.7495 19.4035 35.3266 18.9783C37.9037 18.5531 40.5394 18.6425 43.0818 19.2413C45.6241 19.8402 48.0226 20.9367 50.139 22.4674C52.2553 23.9982 54.0475 25.933 55.4121 28.16Z" fill="url(#paint18_radial_357_1862)"/>
<path opacity="0.95" d="M55.3816 28.1601C57.4171 31.4918 58.421 35.3514 58.2669 39.2527C58.1129 43.154 56.8076 46.9224 54.5157 50.0832C52.2237 53.244 49.0476 55.6558 45.3875 57.0148C41.7273 58.3738 37.7468 58.6191 33.9474 57.7199C30.1481 56.8208 26.6998 54.8173 24.037 51.9619C21.3742 49.1064 19.6161 45.5269 18.9841 41.674C18.352 37.8212 18.8743 33.8675 20.4853 30.311C22.0962 26.7545 24.7236 23.7543 28.0365 21.6884C30.2535 20.3059 32.7225 19.3763 35.3008 18.9533C37.879 18.5304 40.5156 18.6224 43.0581 19.2241C45.6006 19.8259 47.9987 20.9254 50.1139 22.4591C52.2291 23.9929 54.0195 25.9305 55.3816 28.1601Z" fill="url(#paint19_radial_357_1862)"/>
<path d="M55.3818 28.1601C57.4354 31.4912 58.4548 35.3565 58.311 39.2671C58.1672 43.1777 56.8666 46.9578 54.5739 50.129C52.2811 53.3002 49.0992 55.7201 45.4308 57.0825C41.7623 58.4448 37.7722 58.6884 33.9653 57.7824C30.1584 56.8764 26.7058 54.8615 24.0443 51.9927C21.3828 49.1239 19.6321 45.5302 19.0137 41.6661C18.3953 37.802 18.9369 33.8414 20.5701 30.2852C22.2033 26.7291 24.8546 23.7373 28.1886 21.6884C32.6538 18.9444 38.0256 18.0846 43.1242 19.298C48.2228 20.5115 52.6314 23.6988 55.3818 28.1601Z" fill="url(#paint20_radial_357_1862)"/>
</g>
<path d="M55.3815 28.1601C57.4352 31.4912 58.4546 35.3565 58.3107 39.2671C58.1669 43.1777 56.8664 46.9578 54.5736 50.129C52.2809 53.3002 49.099 55.7201 45.4305 57.0825C41.7621 58.4448 37.772 58.6884 33.9651 57.7824C30.1582 56.8764 26.7055 54.8615 24.0441 51.9927C21.3826 49.1239 19.6319 45.5302 19.0135 41.6661C18.395 37.802 18.9367 33.8414 20.5699 30.2852C22.2031 26.7291 24.8544 23.7373 28.1884 21.6884C32.6536 18.9444 38.0253 18.0846 43.1239 19.298C48.2225 20.5115 52.6311 23.6988 55.3815 28.1601Z" fill="#1A62D7"/>
<path d="M30.3457 12.1177L32.4422 16.3106C32.5307 16.4751 32.6709 16.6058 32.8411 16.6827C33.0113 16.7596 33.2021 16.7783 33.384 16.736C36.3709 16.0162 39.4745 15.9231 42.4991 16.4625C42.6882 16.506 42.8866 16.481 43.0591 16.392C43.2315 16.303 43.3668 16.1557 43.441 15.9764L45.2336 11.6923C40.3258 10.4665 35.1755 10.6137 30.3457 12.1177Z" fill="#F0EEED"/>
<path d="M11.5688 32.4442L16.2479 32.6872C16.4099 32.6784 16.5656 32.6217 16.6954 32.5244C16.8252 32.427 16.9233 32.2934 16.9771 32.1403C17.8811 29.1869 19.392 26.4548 21.4131 24.1191C21.5315 23.973 21.5961 23.7907 21.5961 23.6026C21.5961 23.4145 21.5315 23.2322 21.4131 23.0861L18.6482 19.3185C15.1282 22.9609 12.6789 27.502 11.5688 32.4442Z" fill="#F0EEED"/>
<path d="M19.8027 58.8473L22.3549 54.9279C22.4733 54.7818 22.5379 54.5994 22.5379 54.4114C22.5379 54.2233 22.4733 54.0409 22.3549 53.8948C20.2563 51.6738 18.6331 49.0477 17.5847 46.1775C17.529 45.9931 17.4101 45.8342 17.249 45.7287C17.088 45.6232 16.8949 45.5777 16.7036 45.6002L12.0549 46.1471C13.4316 51.0076 16.1107 55.3993 19.8027 58.8473Z" fill="#F0EEED"/>
<path d="M46.7529 64.924L44.6564 60.7311C44.5679 60.5667 44.4277 60.4359 44.2575 60.359C44.0872 60.2822 43.8964 60.2634 43.7145 60.3058C40.7277 61.0255 37.6241 61.1186 34.5995 60.5792C34.4104 60.5357 34.2119 60.5607 34.0395 60.6497C33.8671 60.7387 33.7317 60.886 33.6576 61.0653L31.865 65.3494C36.7728 66.5752 41.9231 66.4281 46.7529 64.924Z" fill="#F0EEED"/>
<path d="M65.5905 44.5975L60.8506 44.2936C60.6643 44.2785 60.4783 44.3275 60.3236 44.4325C60.1689 44.5375 60.0547 44.6922 59.9999 44.8709C59.1283 47.8036 57.6593 50.5242 55.6855 52.8618C55.5671 53.0079 55.5024 53.1902 55.5024 53.3783C55.5024 53.5663 55.5671 53.7487 55.6855 53.8948L58.4807 57.6623C62.0021 54.0404 64.4614 49.5212 65.5905 44.5975Z" fill="#F0EEED"/>
<path d="M57.2958 18.1943L54.7436 22.1138C54.6252 22.2599 54.5605 22.4423 54.5605 22.6303C54.5605 22.8184 54.6252 23.0007 54.7436 23.1468C56.8422 25.3679 58.4654 27.994 59.5138 30.8642C59.5695 31.0486 59.6883 31.2074 59.8494 31.313C60.0105 31.4185 60.2036 31.464 60.3949 31.4415L65.0435 30.8946C63.6669 26.0341 60.9878 21.6424 57.2958 18.1943Z" fill="#F0EEED"/>
<path d="M25.8794 23.3595L26.9732 24.6963C27.6442 24.1389 28.3551 23.6311 29.1 23.1772C29.837 22.7126 30.609 22.3063 31.4092 21.9618L30.68 20.3819C29.8221 20.763 28.9899 21.1994 28.1885 21.6884C27.3823 22.1931 26.6109 22.7514 25.8794 23.3595Z" fill="#F0EEED"/>
<path d="M35.207 19.045L35.4805 20.7465C37.2038 20.5038 38.9527 20.5038 40.676 20.7465L40.828 19.045C38.9643 18.7719 37.0707 18.7719 35.207 19.045Z" fill="#F0EEED"/>
<path d="M44.7476 21.5973C46.3834 22.1802 47.9204 23.0102 49.3051 24.0583L50.3989 22.6303C48.8437 21.5271 47.1473 20.638 45.3552 19.9869L44.7476 21.5973Z" fill="#F0EEED"/>
<path d="M56.4753 40.6173L58.1768 40.7693C58.3967 38.9082 58.3455 37.0251 58.0249 35.1787L56.4753 35.4218C56.7181 37.1451 56.7181 38.894 56.4753 40.6173Z" fill="#F0EEED"/>
<path d="M55.3817 28.1601C54.877 27.3539 54.3187 26.5824 53.7107 25.851L52.3738 26.9448C52.9312 27.6158 53.439 28.3266 53.8929 29.0716C54.3575 29.8085 54.7639 30.5806 55.1083 31.3807L56.6882 30.6515C56.3071 29.7937 55.8707 28.9614 55.3817 28.1601Z" fill="#F0EEED"/>
<path d="M20.6535 36.4244L18.9216 36.2725C18.6485 38.1362 18.6485 40.0297 18.9216 41.8934L20.6231 41.6199C20.3751 39.8962 20.3853 38.1451 20.6535 36.4244Z" fill="#F0EEED"/>
<path d="M23.388 51.1907L24.7248 50.0969C24.1674 49.4258 23.6596 48.715 23.2057 47.97C22.7411 47.2331 22.3348 46.461 21.9903 45.6609L20.4104 46.3901C20.7915 47.248 21.2279 48.0802 21.7169 48.8815C22.2217 49.6877 22.7799 50.4592 23.388 51.1907Z" fill="#F0EEED"/>
<path d="M51.2192 53.6821L50.1254 52.3453C49.4544 52.9027 48.7436 53.4105 47.9986 53.8644C47.2617 54.329 46.4896 54.7354 45.6895 55.0798L46.4187 56.6597C47.2765 56.2786 48.1088 55.8422 48.9101 55.3532C49.7163 54.8485 50.4878 54.2902 51.2192 53.6821Z" fill="#F0EEED"/>
<path d="M20.0154 31.7149L21.6561 32.3226C22.239 30.6867 23.069 29.1498 24.1171 27.7651L22.6891 26.7321C21.5801 28.2666 20.6809 29.9424 20.0154 31.7149Z" fill="#F0EEED"/>
<path d="M57.1135 45.3267L55.4728 44.7191C54.8898 46.3549 54.0598 47.8919 53.0117 49.2766L54.4397 50.3096C55.5488 48.7751 56.448 47.0993 57.1135 45.3267Z" fill="#F0EEED"/>
<path d="M32.351 55.4444C30.7152 54.8614 29.1782 54.0315 27.7935 52.9833L26.7605 54.4114C28.295 55.5204 29.9708 56.4196 31.7434 57.0851L32.351 55.4444Z" fill="#F0EEED"/>
<path d="M41.9217 57.9966L41.6483 56.447C39.9249 56.6898 38.176 56.6898 36.4527 56.447L36.3008 58.1485C38.1718 58.3713 40.0654 58.3201 41.9217 57.9966Z" fill="#F0EEED"/>
<path d="M26.8211 16.9486L26.4262 18.6197C26.3894 18.6714 26.3339 18.7068 26.2714 18.7181C26.209 18.7295 26.1446 18.7159 26.0919 18.6804L24.4512 18.2854C24.3841 18.2708 24.3249 18.2314 24.2855 18.1751C24.2461 18.1188 24.2293 18.0497 24.2386 17.9816L24.6335 16.3105C24.6407 16.2742 24.6551 16.2397 24.676 16.2091C24.6969 16.1785 24.7238 16.1524 24.7551 16.1325C24.7863 16.1126 24.8213 16.0993 24.8578 16.0933C24.8944 16.0874 24.9318 16.0889 24.9678 16.0978L26.6085 16.4928C26.662 16.4911 26.7149 16.5051 26.7605 16.5331C26.8062 16.5611 26.8426 16.6019 26.8653 16.6505C26.8879 16.699 26.8958 16.7532 26.888 16.8062C26.8801 16.8592 26.8569 16.9087 26.8211 16.9486Z" fill="#F0EEED"/>
<path d="M13.9387 37.822L15.1844 39.007C15.2315 39.062 15.2573 39.132 15.2573 39.2044C15.2573 39.2769 15.2315 39.3469 15.1844 39.4019L13.9387 40.6173C13.9159 40.6431 13.8878 40.6639 13.8564 40.678C13.8249 40.6922 13.7909 40.6996 13.7564 40.6996C13.7219 40.6996 13.6878 40.6922 13.6564 40.678C13.6249 40.6639 13.5969 40.6431 13.5741 40.6173L12.3587 39.4627C12.3321 39.4372 12.3109 39.4065 12.2964 39.3726C12.2819 39.3386 12.2744 39.3021 12.2744 39.2652C12.2744 39.2283 12.2819 39.1918 12.2964 39.1578C12.3109 39.1239 12.3321 39.0932 12.3587 39.0677L13.5437 37.8524C13.5671 37.8237 13.5961 37.8 13.6289 37.7828C13.6617 37.7657 13.6977 37.7554 13.7347 37.7525C13.7716 37.7497 13.8087 37.7544 13.8438 37.7663C13.8789 37.7783 13.9111 37.7972 13.9387 37.822Z" fill="#F0EEED"/>
<path d="M25.6364 59.4854L27.2467 58.9992C27.3193 58.979 27.3967 58.9865 27.4641 59.0202C27.5315 59.0539 27.5839 59.1114 27.6113 59.1815L28.0974 60.8222C28.1164 60.8907 28.108 60.9639 28.074 61.0263C28.04 61.0887 27.983 61.1354 27.9151 61.1565L26.2744 61.6426C26.2336 61.635 26.1954 61.617 26.1635 61.5904C26.1316 61.5638 26.107 61.5295 26.0921 61.4907L25.606 59.85C25.5651 59.7962 25.5456 59.7292 25.5512 59.6618C25.5568 59.5945 25.5872 59.5317 25.6364 59.4854Z" fill="#F0EEED"/>
<path d="M50.3988 60.2145L50.7938 58.5434C50.8 58.5074 50.8144 58.4732 50.8357 58.4434C50.857 58.4137 50.8847 58.3891 50.9169 58.3716C50.949 58.3541 50.9847 58.344 51.0212 58.3422C51.0578 58.3404 51.0943 58.3469 51.128 58.3611L52.7687 58.7561C52.8358 58.7708 52.895 58.8102 52.9344 58.8665C52.9738 58.9228 52.9906 58.9919 52.9814 59.06L52.5864 60.731C52.5793 60.7674 52.5648 60.8019 52.5439 60.8325C52.523 60.8631 52.4961 60.8891 52.4649 60.909C52.4336 60.9289 52.3987 60.9423 52.3621 60.9482C52.3255 60.9542 52.2881 60.9527 52.2522 60.9437L50.3988 60.5487C50.3618 60.5009 50.3418 60.4421 50.3418 60.3816C50.3418 60.3212 50.3618 60.2624 50.3988 60.2145Z" fill="#F0EEED"/>
<path d="M63.1902 39.2196L61.9445 38.0347C61.8974 37.9796 61.8716 37.9096 61.8716 37.8372C61.8716 37.7647 61.8974 37.6947 61.9445 37.6397L63.1295 36.4243C63.1523 36.3985 63.1803 36.3778 63.2118 36.3636C63.2432 36.3494 63.2773 36.342 63.3118 36.342C63.3463 36.342 63.3804 36.3494 63.4118 36.3636C63.4432 36.3778 63.4713 36.3985 63.4941 36.4243L64.7398 37.6093C64.7664 37.6348 64.7877 37.6655 64.8022 37.6994C64.8166 37.7334 64.8241 37.7699 64.8241 37.8068C64.8241 37.8437 64.8166 37.8802 64.8022 37.9141C64.7877 37.9481 64.7664 37.9787 64.7398 38.0043L63.5548 39.2196C63.5047 39.2644 63.4398 39.2892 63.3725 39.2892C63.3053 39.2892 63.2404 39.2644 63.1902 39.2196Z" fill="#F0EEED"/>
<path d="M51.4622 17.5259L49.8519 18.012C49.7793 18.0322 49.7019 18.0248 49.6345 17.9911C49.5671 17.9574 49.5147 17.8999 49.4873 17.8297L49.0012 16.189C48.9822 16.1205 48.9906 16.0473 49.0246 15.985C49.0586 15.9226 49.1156 15.8759 49.1835 15.8548L50.8242 15.3686C50.8579 15.3544 50.8944 15.3479 50.9309 15.3497C50.9675 15.3515 51.0032 15.3616 51.0353 15.3791C51.0674 15.3966 51.0952 15.4212 51.1165 15.4509C51.1378 15.4807 51.1521 15.5149 51.1584 15.5509L51.6445 17.1916C51.6635 17.2601 51.6551 17.3333 51.6211 17.3957C51.5871 17.4581 51.5301 17.5048 51.4622 17.5259Z" fill="#F0EEED"/>
<g style="mix-blend-mode:multiply">
<path d="M55.3818 28.1601C57.4354 31.4912 58.4548 35.3565 58.311 39.2671C58.1672 43.1777 56.8666 46.9578 54.5739 50.129C52.2811 53.3002 49.0992 55.7201 45.4308 57.0825C41.7623 58.4448 37.7722 58.6884 33.9653 57.7824C30.1584 56.8764 26.7058 54.8615 24.0443 51.9927C21.3828 49.1239 19.6321 45.5302 19.0137 41.6661C18.3953 37.802 18.9369 33.8414 20.5701 30.2852C22.2033 26.7291 24.8546 23.7373 28.1886 21.6884C32.6538 18.9444 38.0256 18.0846 43.1242 19.298C48.2228 20.5115 52.6314 23.6988 55.3818 28.1601Z" fill="url(#paint21_radial_357_1862)"/>
<path opacity="0.89" d="M55.321 28.1905C57.3612 31.5063 58.3726 35.3525 58.2272 39.243C58.0818 43.1335 56.7863 46.8936 54.5044 50.0479C52.2224 53.2023 49.0565 55.6093 45.4069 56.9647C41.7572 58.3201 37.7877 58.563 34 57.6628C30.2123 56.7626 26.7765 54.7596 24.1269 51.9071C21.4773 49.0546 19.733 45.4806 19.1142 41.6368C18.4955 37.7931 19.0303 33.8522 20.6509 30.3123C22.2715 26.7725 24.9052 23.7925 28.219 21.7492C32.6686 19.015 38.0211 18.1577 43.1021 19.3653C48.183 20.5728 52.5774 23.7467 55.321 28.1905Z" fill="url(#paint22_radial_357_1862)"/>
<path opacity="0.78" d="M55.2601 28.2208C57.2965 31.5256 58.3072 35.36 58.1645 39.2391C58.0217 43.1183 56.732 46.868 54.4582 50.0142C52.1845 53.1603 49.029 55.5617 45.3906 56.9145C41.7521 58.2674 37.7943 58.511 34.0174 57.6146C30.2406 56.7181 26.8143 54.722 24.1719 51.8784C21.5295 49.0348 19.7896 45.4716 19.1722 41.6392C18.5548 37.8068 19.0877 33.8775 20.7034 30.3479C22.319 26.8183 24.945 23.8471 28.2493 21.8099C32.6832 19.0857 38.0165 18.2307 43.0798 19.4325C48.1431 20.6342 52.5233 23.7946 55.2601 28.2208Z" fill="url(#paint23_radial_357_1862)"/>
<path opacity="0.67" d="M55.1994 28.2816C57.2259 31.571 58.2316 35.3874 58.0894 39.2483C57.9471 43.1092 56.6633 46.8413 54.4003 49.9726C52.1372 53.104 48.9965 55.494 45.3752 56.8406C41.7539 58.1872 37.8147 58.4298 34.0555 57.5378C30.2964 56.6458 26.8861 54.6592 24.2559 51.8292C21.6257 48.9993 19.8936 45.453 19.2786 41.6387C18.6637 37.8244 19.1935 33.9134 20.801 30.4002C22.4086 26.887 25.0217 23.9293 28.31 21.9011C30.4932 20.5498 32.9217 19.6428 35.4562 19.2322C37.9907 18.8215 40.5814 18.9153 43.0795 19.5081C45.5777 20.1009 47.9343 21.181 50.0141 22.6866C52.0939 24.1922 53.856 26.0935 55.1994 28.2816Z" fill="url(#paint24_radial_357_1862)"/>
<path opacity="0.56" d="M55.1083 28.312C57.125 31.586 58.1257 35.3844 57.984 39.2271C57.8423 43.0698 56.5644 46.7841 54.312 49.9007C52.0596 53.0172 48.9337 55.396 45.3296 56.7363C41.7254 58.0766 37.8048 58.3182 34.0634 57.4306C30.3219 56.543 26.9276 54.5661 24.3096 51.7497C21.6915 48.9333 19.9672 45.4039 19.3547 41.6078C18.7422 37.8116 19.269 33.919 20.8684 30.4221C22.4678 26.9253 25.0681 23.9811 28.3405 21.9619C30.5148 20.6202 32.9321 19.7202 35.4544 19.3132C37.9767 18.9063 40.5544 19.0003 43.0403 19.5901C45.5262 20.1798 47.8715 21.2536 49.9422 22.7502C52.0129 24.2467 53.7684 26.1367 55.1083 28.312Z" fill="url(#paint25_radial_357_1862)"/>
<path opacity="0.44" d="M55.0476 28.3424C57.0605 31.6053 58.0606 35.3919 57.9215 39.2232C57.7824 43.0545 56.5103 46.7586 54.2661 49.867C52.0219 52.9753 48.9064 55.3484 45.3135 56.6862C41.7206 58.0239 37.8117 58.2662 34.0811 57.3824C30.3505 56.4986 26.9657 54.5284 24.3548 51.721C21.7439 48.9136 20.0242 45.395 19.413 41.6102C18.8018 37.8254 19.3266 33.9443 20.9211 30.4577C22.5156 26.9712 25.1082 24.0358 28.371 22.0227C30.5375 20.6859 32.9462 19.789 35.4594 19.3832C37.9725 18.9773 40.5411 19.0705 43.0182 19.6573C45.4954 20.2442 47.8327 21.3132 49.8968 22.8034C51.9608 24.2936 53.711 26.1758 55.0476 28.3424Z" fill="url(#paint26_radial_357_1862)"/>
<path opacity="0.33" d="M54.9867 28.3728C56.9957 31.6246 57.9953 35.3993 57.8588 39.2193C57.7223 43.0392 56.456 46.7329 54.22 49.8331C51.984 52.9333 48.8788 55.3008 45.2971 56.636C41.7155 57.9711 37.8183 58.2141 34.0986 57.3341C30.3788 56.4541 27.0036 54.4907 24.3999 51.6923C21.7961 48.8938 20.0808 45.386 19.471 41.6125C18.8611 37.8391 19.384 33.9695 20.9736 30.4933C22.5632 27.0171 25.1481 24.0904 28.4012 22.0834C30.5589 20.7475 32.9589 19.8505 35.4638 19.4436C37.9687 19.0367 40.5293 19.128 42.9988 19.7123C45.4684 20.2965 47.7984 21.3622 49.8555 22.8483C51.9126 24.3344 53.6563 26.2117 54.9867 28.3728Z" fill="url(#paint27_radial_357_1862)"/>
<path opacity="0.22" d="M54.9261 28.4336C56.9207 31.6724 57.9102 35.4299 57.7694 39.2311C57.6285 43.0322 56.3637 46.7062 54.1349 49.7886C51.906 52.8709 48.8133 55.2231 45.2476 56.5478C41.682 57.8724 37.8036 58.11 34.1029 57.2305C30.4022 56.351 27.0454 54.3939 24.457 51.6067C21.8686 48.8195 20.1648 45.3273 19.561 41.5718C18.9572 37.8163 19.4806 33.9661 21.065 30.508C22.6494 27.0499 25.2236 24.1393 28.4621 22.1442C30.6115 20.8153 33.0021 19.9238 35.4968 19.5207C37.9915 19.1176 40.5412 19.2109 42.9997 19.7952C45.4583 20.3795 47.7773 21.4433 49.8239 22.9257C51.8705 24.408 53.6043 26.2797 54.9261 28.4336Z" fill="url(#paint28_radial_357_1862)"/>
<path opacity="0.11" d="M54.8651 28.4639C56.856 31.6916 57.8448 35.4373 57.7066 39.2271C57.5684 43.0169 56.3094 46.6806 54.0888 49.7548C51.8681 52.8289 48.7857 55.1755 45.2313 56.4976C41.6769 57.8197 37.8102 58.058 34.1204 57.1823C30.4305 56.3066 27.0833 54.3562 24.502 51.578C21.9208 48.7997 20.2214 45.3183 19.619 41.5742C19.0165 37.83 19.538 33.9913 21.1175 30.5435C22.6969 27.0958 25.2634 24.1939 28.4923 22.2049C30.634 20.881 33.0159 19.9926 35.5015 19.5906C37.9871 19.1886 40.5276 19.281 42.9774 19.8624C45.4272 20.4438 47.7383 21.5029 49.7782 22.9788C51.8181 24.4548 53.5467 26.3188 54.8651 28.4639Z" fill="url(#paint29_radial_357_1862)"/>
<path opacity="0.11" d="M54.4702 28.7069C56.4201 31.8553 57.3921 35.5114 57.2633 39.2125C57.1345 42.9135 55.9107 46.4932 53.7466 49.4984C51.5826 52.5036 48.5757 54.7993 45.1064 56.0949C41.6372 57.3905 37.8615 57.6278 34.2574 56.7767C30.6532 55.9257 27.3825 54.0246 24.8592 51.314C22.3359 48.6033 20.6735 45.2051 20.0823 41.5493C19.4911 37.8935 19.9978 34.1445 21.5381 30.7767C23.0784 27.409 25.5832 24.5739 28.7355 22.6303C30.8226 21.3339 33.1453 20.4627 35.5701 20.0665C37.995 19.6703 40.4742 19.757 42.8654 20.3217C45.2566 20.8863 47.5128 21.9177 49.5042 23.3567C51.4957 24.7957 53.1834 26.6139 54.4702 28.7069Z" fill="url(#paint30_radial_357_1862)"/>
<path opacity="0.22" d="M54.4094 28.7373C56.3413 31.8728 57.3002 35.5106 57.165 39.191C57.0298 42.8714 55.8065 46.429 53.6498 49.4143C51.493 52.3996 48.4997 54.6784 45.0481 55.9628C41.5965 57.2472 37.8415 57.4795 34.2579 56.6303C30.6743 55.7811 27.4229 53.8886 24.9147 51.1919C22.4065 48.4952 20.7541 45.1154 20.1663 41.4798C19.5785 37.8442 20.0817 34.1159 21.6124 30.7662C23.143 27.4165 25.6324 24.5958 28.7659 22.6606C30.8483 21.3746 33.1637 20.5115 35.5799 20.1209C37.9961 19.7303 40.4655 19.8197 42.8471 20.384C45.2287 20.9484 47.4757 21.9766 49.4596 23.4099C51.4436 24.8432 53.1256 26.6535 54.4094 28.7373Z" fill="url(#paint31_radial_357_1862)"/>
<path opacity="0.33" d="M54.3486 28.7981C56.2757 31.9247 57.232 35.5527 57.0966 39.2229C56.9613 42.8932 55.7402 46.4409 53.588 49.417C51.4359 52.3931 48.4492 54.664 45.0061 55.9422C41.563 57.2205 37.818 57.4487 34.2451 56.5981C30.6722 55.7474 27.432 53.856 24.9343 51.1632C22.4366 48.4705 20.7938 45.0974 20.2137 41.4707C19.6337 37.8441 20.1424 34.1268 21.6755 30.7893C23.2086 27.4519 25.6973 24.6441 28.8265 22.7214C33.0177 20.1463 38.0596 19.3398 42.8449 20.4792C47.6301 21.6186 51.7676 24.6106 54.3486 28.7981Z" fill="url(#paint32_radial_357_1862)"/>
<path opacity="0.44" d="M47.1619 54.8723C56.1892 50.1188 59.6538 38.9472 54.9003 29.9198C50.1467 20.8925 38.9751 17.4279 29.9478 22.1814C20.9204 26.9349 17.4558 38.1066 22.2094 47.1339C26.9629 56.1613 38.1345 59.6259 47.1619 54.8723Z" fill="url(#paint33_radial_357_1862)"/>
<path opacity="0.56" d="M47.0092 54.8286C56.0207 50.1534 59.5361 39.0582 54.8609 30.0467C50.1858 21.0351 39.0906 17.5198 30.079 22.1949C21.0675 26.87 17.5521 37.9653 22.2273 46.9768C26.9024 55.9883 37.9976 59.5037 47.0092 54.8286Z" fill="url(#paint34_radial_357_1862)"/>
<path opacity="0.67" d="M46.9241 54.7761C55.9031 50.1476 59.4299 39.1166 54.8014 30.1376C50.173 21.1586 39.142 17.6318 30.163 22.2602C21.184 26.8887 17.6571 37.9197 22.2856 46.8987C26.914 55.8777 37.9451 59.4045 46.9241 54.7761Z" fill="url(#paint35_radial_357_1862)"/>
<path opacity="0.78" d="M46.8734 54.6979C55.8141 50.105 59.3387 39.1338 54.7458 30.1932C50.1528 21.2525 39.1817 17.7279 30.241 22.3208C21.3003 26.9137 17.7758 37.8849 22.3687 46.8256C26.9616 55.7662 37.9327 59.2908 46.8734 54.6979Z" fill="url(#paint36_radial_357_1862)"/>
<path opacity="0.89" d="M46.8024 54.6341C55.703 50.0735 59.2214 39.161 54.6608 30.2603C50.1002 21.3596 39.1877 17.8413 30.287 22.4019C21.3863 26.9625 17.868 37.875 22.4286 46.7757C26.9892 55.6763 37.9017 59.1947 46.8024 54.6341Z" fill="url(#paint37_radial_357_1862)"/>
<path d="M53.893 29.102C55.7601 32.1385 56.6846 35.6606 56.5494 39.2227C56.4141 42.7848 55.2254 46.2267 53.1334 49.1129C51.0415 51.9992 48.1404 54.2 44.7973 55.437C41.4541 56.674 37.8192 56.8915 34.3524 56.062C30.8856 55.2326 27.7428 53.3934 25.3216 50.7772C22.9003 48.161 21.3096 44.8854 20.7505 41.3649C20.1915 37.8444 20.6893 34.2371 22.181 30.9996C23.6727 27.7621 26.0912 25.0398 29.1305 23.1772C33.2008 20.6828 38.0947 19.9056 42.7375 21.0165C47.3803 22.1273 51.3925 25.0354 53.893 29.102Z" fill="url(#paint38_radial_357_1862)"/>
</g>
<path d="M53.8928 29.102C55.7599 32.1385 56.6843 35.6607 56.5491 39.2228C56.4139 42.7848 55.2251 46.2268 53.1332 49.113C51.0412 51.9993 48.1401 54.2001 44.797 55.4371C41.4539 56.6741 37.8189 56.8916 34.3522 56.0621C30.8854 55.2326 27.7425 53.3934 25.3213 50.7773C22.9001 48.1611 21.3093 44.8855 20.7503 41.365C20.1913 37.8444 20.6891 34.2372 22.1808 30.9997C23.6725 27.7621 26.091 25.0398 29.1303 23.1772C33.2006 20.6828 38.0945 19.9057 42.7373 21.0166C47.3801 22.1274 51.3923 25.0354 53.8928 29.102Z" fill="#1A62D7"/>
<g style="mix-blend-mode:multiply">
<path d="M53.893 29.102C55.7601 32.1385 56.6846 35.6606 56.5494 39.2227C56.4141 42.7848 55.2254 46.2267 53.1334 49.1129C51.0415 51.9992 48.1404 54.2 44.7973 55.437C41.4541 56.674 37.8192 56.8915 34.3524 56.062C30.8856 55.2326 27.7428 53.3934 25.3216 50.7772C22.9003 48.161 21.3096 44.8854 20.7505 41.3649C20.1915 37.8444 20.6893 34.2371 22.181 30.9996C23.6727 27.7621 26.0912 25.0398 29.1305 23.1772C33.2008 20.6828 38.0947 19.9056 42.7375 21.0165C47.3803 22.1273 51.3925 25.0354 53.893 29.102Z" fill="#EBEBEB"/>
<path opacity="0.95" d="M53.893 29.1019C55.7601 32.1384 56.6846 35.6606 56.5494 39.2226C56.4141 42.7847 55.2254 46.2266 53.1334 49.1129C51.0415 51.9991 48.1404 54.2 44.7973 55.437C41.4541 56.674 37.8192 56.8915 34.3524 56.062C30.8856 55.2325 27.7428 53.3933 25.3216 50.7771C22.9003 48.161 21.3096 44.8854 20.7505 41.3648C20.1915 37.8443 20.6893 34.2371 22.181 30.9995C23.6727 27.762 26.0912 25.0397 29.1305 23.1771C33.2029 20.6908 38.0942 19.9183 42.7346 21.0286C47.375 22.1389 51.387 25.0416 53.893 29.1019Z" fill="#ECECEC"/>
<path opacity="0.9" d="M53.8626 29.1019C55.7237 32.1342 56.6438 35.6502 56.5065 39.2054C56.3691 42.7606 55.1805 46.1951 53.091 49.0747C51.0015 51.9543 48.105 54.1496 44.7677 55.3828C41.4305 56.6161 37.8025 56.8319 34.3425 56.0031C30.8826 55.1742 27.7462 53.3379 25.33 50.7264C22.9138 48.1148 21.3264 44.8454 20.7684 41.3316C20.2105 37.8178 20.7072 34.2175 22.1957 30.986C23.6841 27.7545 26.0975 25.037 29.1305 23.1772C33.1961 20.6842 38.0854 19.9079 42.7232 21.019C47.3611 22.13 51.3679 25.0374 53.8626 29.1019Z" fill="#EDEDED"/>
<path opacity="0.86" d="M53.8322 29.102C55.6643 32.1413 56.5546 35.6554 56.3909 39.2005C56.2272 42.7456 55.0166 46.1626 52.9122 49.0202C50.8077 51.8777 47.9038 54.0476 44.5669 55.2559C41.2301 56.4641 37.6101 56.6565 34.164 55.8087C30.7179 54.961 27.6002 53.1111 25.2048 50.4927C22.8093 47.8743 21.2434 44.6048 20.7048 41.0971C20.1663 37.5893 20.6792 34.0007 22.1788 30.7842C23.6784 27.5678 26.0974 24.8678 29.1305 23.0253C31.1503 21.7983 33.3924 20.982 35.7284 20.6234C38.0643 20.2647 40.448 20.3707 42.7429 20.9353C45.0378 21.4998 47.1987 22.5118 49.1016 23.9132C51.0045 25.3147 52.6121 27.0779 53.8322 29.102Z" fill="#EEEEEE"/>
<path opacity="0.81" d="M53.8019 29.1019C55.628 32.137 56.514 35.6449 56.3482 39.1831C56.1823 42.7212 54.972 46.1309 52.87 48.9818C50.768 51.8327 47.8686 53.997 44.5377 55.2015C41.2067 56.406 37.5936 56.5968 34.1544 55.7497C30.7152 54.9026 27.604 53.0556 25.2135 50.4419C22.823 47.8281 21.2604 44.5648 20.723 41.0638C20.1855 37.5628 20.6972 33.9811 22.1936 30.7706C23.6899 27.5602 26.1038 24.865 29.1306 23.0253C31.1469 21.7949 33.3869 20.976 35.7213 20.6156C38.0557 20.2551 40.4383 20.3604 42.7318 20.9253C45.0253 21.4902 47.1843 22.5036 49.0843 23.9069C50.9843 25.3103 52.5876 27.0759 53.8019 29.1019Z" fill="#EFEFEF"/>
<path opacity="0.76" d="M53.8018 29.1019C55.6182 32.1327 56.4968 35.6334 56.3269 39.1627C56.1569 42.692 54.9459 46.0921 52.8466 48.9342C50.7473 51.7764 47.8536 53.9335 44.5303 55.1337C41.207 56.3339 37.6027 56.5234 34.1718 55.6783C30.7409 54.8333 27.637 52.9915 25.2512 50.3852C22.8654 47.7788 21.3046 44.5245 20.7655 41.0325C20.2263 37.5404 20.733 33.9669 22.2216 30.7624C23.7102 27.5579 26.1142 24.8657 29.1304 23.0253C31.1479 21.799 33.3877 20.9833 35.7213 20.6251C38.0549 20.2668 40.4362 20.3731 42.7286 20.9377C45.021 21.5023 47.1793 22.5142 49.0796 23.9153C50.9798 25.3163 52.5846 27.079 53.8018 29.1019Z" fill="#F0F0F0"/>
<path opacity="0.71" d="M53.7714 29.102C55.5915 32.1326 56.4731 35.6345 56.3051 39.1657C56.1372 42.6969 54.9271 46.0993 52.8276 48.9435C50.7281 51.7877 47.8332 53.9464 44.5082 55.1472C41.1832 56.348 37.577 56.5371 34.1446 55.6907C30.7123 54.8442 27.6075 53.0001 25.222 50.3911C22.8365 47.782 21.2773 44.5249 20.7409 41.0306C20.2045 37.5363 20.7151 33.9615 22.2082 30.7571C23.7013 27.5527 26.11 24.8622 29.1305 23.0253C31.1445 21.7957 33.3821 20.9773 35.7141 20.6172C38.0462 20.2572 40.4264 20.3628 42.7175 20.9277C45.0085 21.4927 47.1649 22.506 49.0622 23.909C50.9595 25.312 52.56 27.077 53.7714 29.102Z" fill="#F1F1F1"/>
<path opacity="0.67" d="M53.7411 29.1019C55.5552 32.1282 56.4325 35.624 56.2624 39.1482C56.0923 42.6725 54.8825 46.0675 52.7854 48.9051C50.6884 51.7427 47.7981 53.8958 44.479 55.0929C41.1599 56.2899 37.5606 56.4774 34.1351 55.6316C30.7096 54.7858 27.6112 52.9446 25.2308 50.3402C22.8503 47.7358 21.2943 44.4849 20.759 40.9974C20.2238 37.5098 20.7332 33.9419 22.223 30.7435C23.7128 27.5451 26.1164 24.8594 29.1306 23.0252C31.1422 21.7964 33.3775 20.9785 35.7072 20.6189C38.0369 20.2592 40.4148 20.365 42.7034 20.9301C44.9919 21.4952 47.1458 22.5083 49.0403 23.911C50.9349 25.3136 52.5326 27.0779 53.7411 29.1019Z" fill="#F2F2F2"/>
<path opacity="0.62" d="M53.7412 29.102C55.5456 32.1241 56.4155 35.6125 56.2413 39.1279C56.0671 42.6434 54.8566 46.0287 52.7623 48.8575C50.6679 51.6864 47.7833 53.8323 44.4718 55.0251C41.1603 56.2178 37.5699 56.404 34.1528 55.5603C30.7356 54.7166 27.6445 52.8806 25.2688 50.2836C22.893 47.6866 21.3387 44.4446 20.8018 40.9661C20.2648 37.4875 20.7692 33.9278 22.2512 30.7353C23.7333 27.5428 26.1269 24.8602 29.1306 23.0253C31.1434 21.8005 33.3786 20.9859 35.7074 20.6285C38.0363 20.271 40.4129 20.3778 42.7004 20.9426C44.9878 21.5074 47.1409 22.5191 49.0358 23.9194C50.9307 25.3198 52.5298 27.0811 53.7412 29.102Z" fill="#F3F3F3"/>
<path opacity="0.57" d="M53.7106 29.1019C55.509 32.1196 56.3746 35.6019 56.1983 39.1104C56.0219 42.6189 54.8117 45.9969 52.7198 48.8191C50.6279 51.6413 47.748 53.7816 44.4424 54.9706C41.1368 56.1597 37.5533 56.3443 34.143 55.5012C30.7327 54.6581 27.6481 52.825 25.2773 50.2327C22.9065 47.6403 21.3556 44.4046 20.8197 40.9328C20.2838 37.461 20.787 33.9082 22.2658 30.7217C23.7446 27.5352 26.1331 24.8573 29.1304 23.0253C31.1397 21.7971 33.3727 20.9798 35.7001 20.6205C38.0274 20.2613 40.4029 20.3674 42.689 20.9325C44.9751 21.4977 47.1264 22.5107 49.0183 23.913C50.9101 25.3153 52.505 27.079 53.7106 29.1019Z" fill="#F4F4F4"/>
<path opacity="0.52" d="M53.6803 29.102C55.4727 32.1153 56.3339 35.5914 56.1555 39.093C55.977 42.5946 54.767 45.9652 52.6776 48.7807C50.5882 51.5963 47.7128 53.731 44.4131 54.9163C41.1134 56.1016 37.5369 56.2846 34.1335 55.4421C30.7301 54.5997 27.6518 52.7695 25.2861 50.1819C22.9203 47.5942 21.3726 44.3647 20.8379 40.8996C20.3031 37.4345 20.8051 33.8886 22.2806 30.7081C23.7562 27.5276 26.1394 24.8546 29.1305 23.0253C31.1386 21.8019 33.3691 20.9884 35.6933 20.6318C38.0175 20.2751 40.3893 20.3824 42.6718 20.9474C44.9543 21.5123 47.1023 22.5238 48.9918 23.9235C50.8812 25.3231 52.4747 27.0831 53.6803 29.102Z" fill="#F5F5F5"/>
<path opacity="0.48" d="M53.6803 29.102C55.4727 32.1153 56.3339 35.5915 56.1555 39.093C55.977 42.5946 54.767 45.9652 52.6776 48.7808C50.5882 51.5963 47.7128 53.731 44.4131 54.9163C41.1134 56.1016 37.5369 56.2846 34.1335 55.4422C30.7301 54.5997 27.6518 52.7696 25.2861 50.1819C22.9203 47.5943 21.3726 44.3647 20.8379 40.8996C20.3031 37.4345 20.8051 33.8887 22.2806 30.7082C23.7562 27.5277 26.1394 24.8546 29.1305 23.0253C31.1363 21.7938 33.3671 20.9736 35.6929 20.6126C38.0188 20.2516 40.3932 20.3569 42.678 20.9225C44.9627 21.488 47.1121 22.5024 49.001 23.9067C50.8899 25.311 52.4806 27.077 53.6803 29.102Z" fill="#F5F5F5"/>
<path opacity="0.43" d="M53.65 28.9197C55.464 31.9151 56.351 35.3804 56.1995 38.879C56.0479 42.3776 54.8645 45.7532 52.7982 48.5806C50.732 51.4079 47.8753 53.5607 44.588 54.7677C41.3007 55.9747 37.7297 56.182 34.3248 55.3634C30.9199 54.5449 27.8333 52.7372 25.4538 50.1679C23.0743 47.5986 21.5082 44.3826 20.9528 40.925C20.3975 37.4674 20.8776 33.9228 22.3328 30.7376C23.7881 27.5523 26.1533 24.8689 29.1306 23.0253C31.1243 21.7907 33.3429 20.9636 35.6582 20.5917C37.9735 20.2198 40.3396 20.3105 42.6196 20.8586C44.8996 21.4067 47.0484 22.4014 48.9417 23.785C50.835 25.1686 52.4353 26.9138 53.65 28.9197Z" fill="#F6F6F6"/>
<path opacity="0.38" d="M53.6195 28.9197C55.4275 31.9108 56.3102 35.3699 56.1565 38.8616C56.0028 42.3533 54.8196 45.7215 52.7558 48.5423C50.692 51.363 47.8399 53.5101 44.5585 54.7134C41.2771 55.9167 37.713 56.1223 34.3149 55.3044C30.9169 54.4865 27.8368 52.6817 25.4623 50.117C23.0877 47.5524 21.525 44.3426 20.9707 40.8918C20.4165 37.4409 20.8955 33.9032 22.3475 30.724C23.7994 27.5448 26.1595 24.8661 29.1305 23.0253C31.1218 21.7914 33.3381 20.9648 35.6511 20.5933C37.9641 20.2219 40.3277 20.3128 42.6053 20.861C44.8829 21.4092 47.0291 22.4038 48.9197 23.787C50.8103 25.1703 52.4077 26.9148 53.6195 28.9197Z" fill="#F7F7F7"/>
<path opacity="0.33" d="M53.6196 28.8893C55.4321 31.8781 56.3199 35.3365 56.171 38.8288C56.0221 42.3211 54.8433 45.6914 52.783 48.5152C50.7227 51.3389 47.8729 53.49 44.5926 54.6975C41.3123 55.905 37.748 56.115 34.3486 55.301C30.9492 54.487 27.8666 52.6854 25.4889 50.1231C23.1113 47.5607 21.545 44.3522 20.9871 40.9015C20.4292 37.4508 20.9047 33.9121 22.3538 30.7311C23.8029 27.5501 26.1608 24.869 29.1305 23.0253C31.1212 21.7942 33.3358 20.9691 35.6467 20.5975C37.9577 20.2259 40.3193 20.3153 42.5955 20.8603C44.8718 21.4054 47.0177 22.3954 48.9097 23.7734C50.8017 25.1513 52.4024 26.89 53.6196 28.8893Z" fill="#F8F8F8"/>
<path opacity="0.29" d="M53.5891 28.8893C55.3957 31.8738 56.279 35.326 56.128 38.8114C55.9771 42.2969 54.7985 45.6597 52.7406 48.4769C50.6827 51.294 47.8375 53.4394 44.5631 54.6432C41.2887 55.847 37.7313 56.0553 34.3387 55.242C30.9462 54.4286 27.87 52.6299 25.4974 50.0722C23.1248 47.5145 21.5617 44.3122 21.005 40.8682C20.4482 37.4242 20.9226 33.8925 22.3685 30.7175C23.8143 27.5425 26.167 24.8662 29.1305 23.0253C31.1176 21.7908 33.33 20.963 35.6394 20.5896C37.9488 20.2163 40.3093 20.3049 42.5842 20.8503C44.8591 21.3957 47.0032 22.3871 48.8922 23.767C50.7813 25.1469 52.3777 26.888 53.5891 28.8893Z" fill="#F9F9F9"/>
<path opacity="0.24" d="M53.4372 28.8893C55.2659 31.8621 56.1724 35.3103 56.042 38.7982C55.9116 42.2861 54.7501 45.657 52.7045 48.485C50.6588 51.3129 47.8207 53.471 44.5489 54.6864C41.277 55.9019 37.7183 56.1201 34.3225 55.3136C30.9266 54.5071 27.8461 52.712 25.4702 50.1553C23.0943 47.5985 21.5296 44.3947 20.9739 40.949C20.4183 37.5032 20.8966 33.97 22.3483 30.796C23.8001 27.6219 26.1603 24.9495 29.1304 23.1164C31.1039 21.8938 33.2994 21.0731 35.591 20.7015C37.8825 20.33 40.2249 20.4149 42.4835 20.9513C44.7422 21.4877 46.8726 22.4651 48.7524 23.8274C50.6321 25.1896 52.2242 26.9099 53.4372 28.8893Z" fill="#FAFAFA"/>
<path opacity="0.19" d="M53.4373 28.8589C55.2653 31.8315 56.1696 35.28 56.0355 38.7672C55.9013 42.2543 54.7349 45.6232 52.6839 48.4466C50.633 51.2701 47.79 53.4211 44.5152 54.6269C41.2404 55.8327 37.6813 56.039 34.2891 55.2198C30.8969 54.4005 27.8243 52.5926 25.4608 50.0251C23.0972 47.4575 21.5493 44.2461 21.013 40.7978C20.4768 37.3495 20.9764 33.8196 22.4486 30.6556C23.9208 27.4916 26.2993 24.836 29.2825 23.0253C33.2627 20.6095 38.0373 19.867 42.5631 20.96C47.089 22.0531 50.9984 24.8928 53.4373 28.8589Z" fill="#FBFBFB"/>
<path opacity="0.14" d="M53.4371 28.8589C55.2687 31.8314 56.176 35.281 56.0439 38.77C55.9118 42.259 54.7463 45.6302 52.6951 48.4557C50.644 51.2812 47.7998 53.4338 44.5233 54.6402C41.2469 55.8467 37.6859 56.0526 34.2922 55.232C30.8985 54.4113 27.8251 52.6011 25.4619 50.0309C23.0986 47.4607 21.5522 44.2464 21.0187 40.7959C20.4852 37.3454 20.9887 33.8142 22.4654 30.6503C23.9421 27.4864 26.3253 24.8325 29.3127 23.0253C33.2882 20.6109 38.0581 19.8693 42.579 20.9625C47.1 22.0557 51.004 24.8948 53.4371 28.8589Z" fill="#FCFCFC"/>
<path opacity="0.1" d="M53.4372 28.8589C55.2592 31.8272 56.1591 35.2696 56.0228 38.7499C55.8866 42.2301 54.7203 45.5916 52.6718 48.4084C50.6233 51.2253 47.7848 53.3706 44.5159 54.5727C41.247 55.7748 37.6948 55.9795 34.3095 55.1608C30.9241 54.3422 27.858 52.5371 25.4995 49.9743C23.141 47.4114 21.5963 44.2061 21.0612 40.7646C20.5261 37.323 21.0246 33.8 22.4935 30.642C23.9625 27.484 26.3358 24.8332 29.3128 23.0253C33.2862 20.6028 38.0587 19.8565 42.5821 20.9503C47.1054 22.0441 51.0096 24.8886 53.4372 28.8589Z" fill="#FDFDFD"/>
<path opacity="0.05" d="M53.4372 28.8285C55.2446 31.7862 56.1347 35.2132 55.995 38.6765C55.8553 42.1399 54.6921 45.4841 52.6523 48.2866C50.6126 51.089 47.7879 53.2239 44.5352 54.4215C41.2825 55.6191 37.7478 55.8256 34.3778 55.0149C31.0077 54.2043 27.9537 52.4128 25.6015 49.8669C23.2493 47.3211 21.7045 44.1351 21.1625 40.7115C20.6204 37.288 21.1054 33.7807 22.5561 30.6327C24.0068 27.4847 26.358 24.8374 29.3128 23.0253C31.2774 21.8205 33.4602 21.0148 35.7364 20.6544C38.0126 20.294 40.3376 20.386 42.5783 20.925C44.8189 21.464 46.9313 22.4394 48.7946 23.7956C50.6579 25.1518 52.2355 26.862 53.4372 28.8285Z" fill="#FEFEFE"/>
</g>
<path d="M50.8849 30.925C52.3708 33.3748 53.0971 36.2101 52.9722 39.0727C52.8473 41.9352 51.8768 44.6964 50.1832 47.0075C48.4895 49.3186 46.1489 51.0759 43.4569 52.0572C40.765 53.0386 37.8426 53.2 35.059 52.521C32.2753 51.8421 29.7554 50.3533 27.8176 48.2427C25.8798 46.1322 24.611 43.4946 24.1717 40.6633C23.7323 37.8319 24.142 34.9339 25.3491 32.3353C26.5562 29.7367 28.5064 27.5543 30.9534 26.0637C32.5808 25.0723 34.3877 24.4116 36.2708 24.1194C38.1538 23.8272 40.076 23.9092 41.9273 24.3608C43.7786 24.8123 45.5227 25.6245 47.0598 26.7509C48.5968 27.8772 49.8967 29.2957 50.8849 30.925Z" fill="#F0EEED"/>
<g style="mix-blend-mode:multiply">
<path d="M62.0964 24.028C64.9534 28.6896 66.3641 34.0937 66.1502 39.5571C65.9363 45.0204 64.1074 50.2976 60.8948 54.7217C57.6821 59.1458 53.2299 62.5181 48.101 64.4122C42.9721 66.3063 37.3967 66.6373 32.0797 65.3633C26.7627 64.0892 21.9428 61.2674 18.2293 57.2544C14.5158 53.2415 12.0754 48.2177 11.2167 42.818C10.358 37.4184 11.1194 31.8853 13.4048 26.9184C15.6902 21.9514 19.3969 17.7736 24.0564 14.9129C30.3109 11.0825 37.8299 9.89091 44.9623 11.5999C52.0946 13.309 58.2571 17.7789 62.0964 24.028Z" fill="#E3E3E3"/>
<path opacity="0.95" d="M62.0358 23.9976C64.8808 28.6507 66.2827 34.0425 66.0646 39.4921C65.8465 44.9416 64.018 50.2042 60.8102 54.6149C57.6025 59.0257 53.1593 62.3868 48.0422 64.2734C42.925 66.1601 37.3635 66.4878 32.0602 65.215C26.757 63.9422 21.9499 61.1261 18.2464 57.1225C14.543 53.1188 12.1092 48.1073 11.2527 42.7211C10.3962 37.3349 11.1554 31.8157 13.4343 26.8608C15.7133 21.9059 19.4097 17.7376 24.0566 14.8826C27.1477 12.9834 30.5831 11.7125 34.166 11.1428C37.749 10.5731 41.4091 10.7156 44.9369 11.5623C48.4647 12.4089 51.7908 13.9431 54.7249 16.0769C57.659 18.2107 60.1433 20.9023 62.0358 23.9976Z" fill="#E4E4E4"/>
<path opacity="0.9" d="M62.0052 23.9672C64.8477 28.6158 66.2484 34.0028 66.0302 39.4472C65.8119 44.8917 63.9846 50.1493 60.7791 54.5555C57.5736 58.9617 53.1338 62.3187 48.0209 64.2023C42.908 66.0859 37.3515 66.4115 32.0536 65.138C26.7556 63.8644 21.9542 61.0489 18.256 57.0473C14.5578 53.0456 12.1289 48.0375 11.2763 42.6558C10.4236 37.274 11.1855 31.7604 13.4657 26.8115C15.7458 21.8627 19.4419 17.7009 24.0867 14.8522C27.1743 12.9585 30.6049 11.692 34.1823 11.1252C37.7597 10.5585 41.4138 10.7025 44.9355 11.5491C48.4572 12.3956 51.7775 13.9281 54.7065 16.0589C57.6355 18.1898 60.1156 20.8771 62.0052 23.9672Z" fill="#E6E6E6"/>
<path opacity="0.86" d="M61.9748 23.9672C64.8149 28.6114 66.2143 33.9934 65.996 39.4328C65.7777 44.8722 63.9514 50.1248 60.7482 54.5264C57.545 58.928 53.1086 62.2811 47.9999 64.1616C42.8912 66.0421 37.3397 66.3657 32.0471 65.0914C26.7546 63.8171 21.9587 61.0022 18.2658 57.0025C14.5729 53.0028 12.1488 47.998 11.3 42.6208C10.4513 37.2435 11.2159 31.7354 13.4973 26.7927C15.7787 21.85 19.4743 17.6947 24.1171 14.8522C27.2011 12.964 30.6269 11.7019 34.1988 11.1381C37.7707 10.5743 41.4187 10.7198 44.9344 11.5662C48.4501 12.4127 51.7645 13.9436 54.6884 16.0714C57.6122 18.1992 60.0882 20.8822 61.9748 23.9672Z" fill="#E7E7E7"/>
<path opacity="0.81" d="M61.9446 23.9368C64.7535 28.5442 66.1364 33.8796 65.9192 39.2713C65.7021 44.6631 63.8946 49.87 60.7243 54.2366C57.554 58.6031 53.1626 61.9341 48.1031 63.8102C43.0437 65.6862 37.5422 66.0233 32.2915 64.7792C27.0408 63.535 22.2756 60.7652 18.5958 56.8185C14.916 52.8717 12.4862 47.9244 11.6123 42.5996C10.7383 37.2747 11.4594 31.8104 13.6846 26.8944C15.9098 21.9785 19.5397 17.8309 24.1173 14.9737C27.1841 13.0594 30.6001 11.7723 34.1676 11.1868C37.7351 10.6013 41.3833 10.729 44.9011 11.5626C48.4189 12.3961 51.7365 13.9189 54.662 16.0429C57.5875 18.1669 60.0628 20.85 61.9446 23.9368Z" fill="#E8E8E8"/>
<path opacity="0.76" d="M61.8839 23.9065C64.7036 28.5135 66.0958 33.8524 65.8849 39.2498C65.6739 44.6471 63.8692 49.861 60.6984 54.2339C57.5276 58.6067 53.1328 61.9426 48.0684 63.8206C43.0039 65.6987 37.4967 66.0348 32.2415 64.7866C26.9862 63.5383 22.2184 60.7617 18.5393 56.8069C14.8603 52.8521 12.4349 47.8963 11.5691 42.5647C10.7034 37.2331 11.436 31.7645 13.6746 26.8488C15.9132 21.933 19.5574 17.7904 24.1477 14.9434C27.2109 13.0435 30.6196 11.7679 34.1776 11.1902C37.7357 10.6124 41.3728 10.7438 44.8799 11.5768C48.3869 12.4098 51.6947 13.9279 54.6129 16.0439C57.5311 18.1599 60.0021 20.832 61.8839 23.9065Z" fill="#EAEAEA"/>
<path opacity="0.71" d="M53.1466 61.4642C65.9615 53.4098 69.8206 36.492 61.7663 23.6771C53.712 10.8623 36.7941 7.00309 23.9792 15.0574C11.1644 23.1118 7.30521 40.0296 15.3596 52.8445C23.4139 65.6593 40.3317 69.5185 53.1466 61.4642Z" fill="#EBEBEB"/>
<path opacity="0.67" d="M52.6595 61.6466C65.5952 53.8525 69.7633 37.0478 61.9692 24.1121C54.1752 11.1765 37.3704 7.00837 24.4348 14.8024C11.4991 22.5965 7.33102 39.4012 15.1251 52.3369C22.9191 65.2725 39.7239 69.4406 52.6595 61.6466Z" fill="#ECECEC"/>
<path opacity="0.62" d="M52.1834 61.8606C65.257 54.3339 69.7536 37.634 62.2268 24.5603C54.7001 11.4867 38.0001 6.99012 24.9265 14.5169C11.8529 22.0437 7.3563 38.7436 14.8831 51.8172C22.4098 64.8908 39.1098 69.3874 52.1834 61.8606Z" fill="#EEEEEE"/>
<path opacity="0.57" d="M51.6568 62.0432C64.8582 54.8126 69.6986 38.2491 62.468 25.0476C55.2374 11.8462 38.6739 7.00582 25.4725 14.2364C12.271 21.467 7.43064 38.0305 14.6612 51.2319C21.8918 64.4334 38.4553 69.2738 51.6568 62.0432Z" fill="#EFEFEF"/>
<path opacity="0.52" d="M51.0914 62.2472C64.4386 55.3257 69.6477 38.8947 62.7262 25.5474C55.8047 12.2002 39.3736 6.99115 26.0264 13.9126C12.6792 20.8341 7.47011 37.2652 14.3916 50.6124C21.3131 63.9596 37.7442 69.1687 51.0914 62.2472Z" fill="#F0F0F0"/>
<path opacity="0.48" d="M50.503 62.4874C63.9969 55.8944 69.591 39.6108 62.998 26.117C56.405 12.6231 40.1214 7.02896 26.6275 13.622C13.1337 20.215 7.53954 36.4987 14.1326 49.9925C20.7256 63.4863 37.0092 69.0805 50.503 62.4874Z" fill="#F2F2F2"/>
<path opacity="0.43" d="M49.8418 62.6561C63.4677 56.4206 69.4587 40.3198 63.2232 26.694C56.9877 13.0682 40.8869 7.07713 27.2611 13.3126C13.6353 19.5481 7.64423 35.6489 13.8797 49.2747C20.1152 62.9006 36.216 68.8916 49.8418 62.6561Z" fill="#F3F3F3"/>
<path opacity="0.38" d="M49.1273 62.9308C62.8993 57.0679 69.3109 41.1507 63.448 27.3787C57.5851 13.6067 41.6679 7.19509 27.8959 13.058C14.1239 18.9209 7.71229 34.8381 13.5752 48.6101C19.4381 62.3821 35.3553 68.7937 49.1273 62.9308Z" fill="#F4F4F4"/>
<path opacity="0.33" d="M48.4217 63.1588C62.3364 57.6889 69.1822 41.9745 63.7123 28.0598C58.2424 14.1451 42.528 7.29921 28.6133 12.7691C14.6986 18.2391 7.85272 33.9534 13.3227 47.8682C18.7926 61.7829 34.507 68.6287 48.4217 63.1588Z" fill="#F6F6F6"/>
<path opacity="0.29" d="M47.6807 63.3129C61.7165 58.2597 68.9983 42.7851 63.9451 28.7493C58.8919 14.7136 43.4173 7.43174 29.3815 12.4849C15.3458 17.5381 8.06394 33.0128 13.1171 47.0485C18.1703 61.0843 33.645 68.3661 47.6807 63.3129Z" fill="#F7F7F7"/>
<path opacity="0.24" d="M46.8758 63.5098C61.0418 58.8878 68.7787 43.6572 64.1568 29.4913C59.5348 15.3253 44.3042 7.58833 30.1383 12.2103C15.9723 16.8322 8.23535 32.0628 12.8573 46.2288C17.4792 60.3947 32.7098 68.1317 46.8758 63.5098Z" fill="#F8F8F8"/>
<path opacity="0.19" d="M46.087 63.6664C60.3568 59.4937 68.542 44.5431 64.3692 30.2733C60.1965 16.0036 45.2459 7.81834 30.9761 11.9911C16.7064 16.1639 8.52112 31.1145 12.6939 45.3842C16.8667 59.654 31.8173 67.8392 46.087 63.6664Z" fill="#FAFAFA"/>
<path opacity="0.14" d="M45.3015 63.9108C59.7065 60.1981 68.3744 45.5109 64.6618 31.1058C60.9491 16.7008 46.2619 8.03287 31.8568 11.7455C17.4518 15.4581 8.78386 30.1454 12.4965 44.5505C16.2091 58.9555 30.8964 67.6234 45.3015 63.9108Z" fill="#FBFBFB"/>
<path opacity="0.1" d="M44.4169 63.9523C58.8906 60.7038 67.9905 46.3371 64.7419 31.8634C61.4934 17.3897 47.1267 8.28986 32.653 11.5384C18.1793 14.7869 9.07949 29.1536 12.328 43.6273C15.5765 58.101 29.9432 67.2008 44.4169 63.9523Z" fill="#FCFCFC"/>
<path opacity="0.05" d="M43.5456 63.9951C58.0837 61.2218 67.6209 47.1882 64.8477 32.6501C62.0744 18.112 48.0408 8.57481 33.5027 11.3481C18.9646 14.1214 9.42739 28.155 12.2007 42.6931C14.974 57.2311 29.0076 66.7684 43.5456 63.9951Z" fill="#FEFEFE"/>
</g>
<path style="mix-blend-mode:multiply" d="M62.0964 24.028C64.9534 28.6896 66.3641 34.0937 66.1502 39.5571C65.9363 45.0204 64.1074 50.2976 60.8948 54.7217C57.6821 59.1458 53.2299 62.5181 48.101 64.4122C42.9721 66.3063 37.3967 66.6373 32.0797 65.3633C26.7627 64.0892 21.9428 61.2674 18.2293 57.2544C14.5158 53.2415 12.0754 48.2177 11.2167 42.818C10.358 37.4184 11.1194 31.8853 13.4048 26.9184C15.6902 21.9514 19.3969 17.7736 24.0564 14.9129C30.3109 11.0825 37.8299 9.89091 44.9623 11.5999C52.0946 13.309 58.2571 17.7789 62.0964 24.028Z" fill="url(#paint39_linear_357_1862)"/>
<g style="mix-blend-mode:screen" opacity="0.5">
<path d="M62.0964 24.028C64.9534 28.6896 66.3641 34.0937 66.1502 39.5571C65.9363 45.0204 64.1074 50.2976 60.8948 54.7217C57.6821 59.1458 53.2299 62.5181 48.101 64.4122C42.9721 66.3063 37.3967 66.6373 32.0797 65.3633C26.7627 64.0892 21.9428 61.2674 18.2293 57.2544C14.5158 53.2415 12.0754 48.2177 11.2167 42.818C10.358 37.4184 11.1194 31.8853 13.4048 26.9184C15.6902 21.9514 19.3969 17.7736 24.0564 14.9129C30.3109 11.0825 37.8299 9.89091 44.9623 11.5999C52.0946 13.309 58.2571 17.7789 62.0964 24.028Z" fill="#BD7364"/>
<path opacity="0.95" d="M62.0356 24.0887C64.8805 28.7418 66.2825 34.1337 66.0644 39.5832C65.8462 45.0327 64.0178 50.2953 60.81 54.7061C57.6022 59.1168 53.1591 62.4779 48.042 64.3646C42.9248 66.2512 37.3633 66.5789 32.06 65.3061C26.7567 64.0333 21.9497 61.2172 18.2462 57.2136C14.5427 53.21 12.109 48.1985 11.2525 42.8123C10.396 37.4261 11.1552 31.9068 13.4341 26.9519C15.713 21.997 19.4094 17.8287 24.0563 14.9737C27.1475 13.0745 30.5829 11.8037 34.1658 11.2339C37.7487 10.6642 41.4089 10.8067 44.9366 11.6534C48.4644 12.5001 51.7906 14.0342 54.7246 16.168C57.6587 18.3019 60.1431 20.9935 62.0356 24.0887Z" fill="#B46E5F"/>
<path opacity="0.9" d="M62.0052 24.1494C64.8477 28.7981 66.2484 34.185 66.0302 39.6295C65.8119 45.074 63.9846 50.3315 60.7791 54.7377C57.5736 59.1439 53.1338 62.501 48.0209 64.3846C42.908 66.2682 37.3515 66.5938 32.0536 65.3202C26.7556 64.0467 21.9542 61.2312 18.256 57.2295C14.5578 53.2279 12.1289 48.2197 11.2763 42.838C10.4236 37.4563 11.1855 31.9426 13.4657 26.9938C15.7458 22.045 19.4419 17.8832 24.0867 15.0344C27.1743 13.1407 30.6049 11.8743 34.1823 11.3075C37.7597 10.7407 41.4138 10.8847 44.9355 11.7313C48.4572 12.5779 51.7775 14.1104 54.7065 16.2412C57.6355 18.372 60.1156 21.0593 62.0052 24.1494Z" fill="#AB685A"/>
<path opacity="0.86" d="M61.9749 24.2103C64.8379 28.8429 66.2626 34.2206 66.0685 39.6631C65.8745 45.1055 64.0704 50.3681 60.8847 54.7851C57.699 59.202 53.2747 62.5747 48.1716 64.4765C43.0686 66.3783 37.5161 66.7237 32.2166 65.469C26.9172 64.2144 22.109 61.416 18.4004 57.4279C14.6919 53.4399 12.2495 48.4415 11.3824 43.065C10.5153 37.6886 11.2625 32.1757 13.5293 27.224C15.7962 22.2723 19.4808 18.1042 24.1171 15.2472C30.3272 11.4203 37.8023 10.2148 44.9006 11.8953C51.9989 13.5759 58.1399 18.0052 61.9749 24.2103Z" fill="#A26356"/>
<path opacity="0.81" d="M61.9444 24.3014C64.734 28.9201 66.0949 34.2608 65.8557 39.6513C65.6164 45.0417 63.7878 50.2409 60.6001 54.5943C57.4123 58.9477 53.0078 62.2607 47.9412 64.1162C42.8745 65.9718 37.3721 66.2869 32.1268 65.0219C26.8814 63.757 22.1275 60.9685 18.4636 57.0075C14.7996 53.0465 12.3894 48.0901 11.5363 42.7622C10.6833 37.4343 11.4255 31.9731 13.6695 27.0662C15.9136 22.1592 19.5592 18.0259 24.1474 15.1864C27.2222 13.2836 30.6438 12.0095 34.2142 11.4378C37.7847 10.8661 41.433 11.0082 44.9482 11.8559C48.4633 12.7036 51.7754 14.2401 54.6928 16.3764C57.6102 18.5126 60.0749 21.2063 61.9444 24.3014Z" fill="#995D51"/>
<path opacity="0.76" d="M61.8838 24.3622C64.7072 28.9691 66.1025 34.3092 65.8936 39.7084C65.6847 45.1076 63.8809 50.3238 60.7099 54.6988C57.539 59.0737 53.143 62.4112 48.0769 64.2899C43.0108 66.1686 37.5017 66.5044 32.2449 65.2548C26.9882 64.0052 22.2195 61.2263 18.5407 57.2688C14.8619 53.3113 12.438 48.3527 11.575 43.0188C10.7119 37.685 11.4484 32.215 13.6914 27.2993C15.9345 22.3836 19.5835 18.2427 24.178 15.3991C27.2401 13.5039 30.6463 12.2323 34.2012 11.6571C37.756 11.0819 41.3895 11.2145 44.893 12.0473C48.3965 12.8801 51.7009 14.3967 54.6167 16.5101C57.5325 18.6234 60.0021 21.2918 61.8838 24.3622Z" fill="#90584C"/>
<path opacity="0.71" d="M55.7991 60.0365C67.5355 50.5053 69.3232 33.2646 59.7921 21.5282C50.261 9.79179 33.0203 8.00405 21.2838 17.5352C9.54744 27.0663 7.7597 44.307 17.2908 56.0434C26.8219 67.7798 44.0627 69.5676 55.7991 60.0365Z" fill="#875247"/>
<path opacity="0.67" d="M55.9087 59.8934C67.5473 50.2958 69.2019 33.0804 59.6044 21.4418C50.0068 9.80311 32.7914 8.14849 21.1528 17.7461C9.5141 27.3436 7.85948 44.559 17.4571 56.1977C27.0546 67.8363 44.27 69.491 55.9087 59.8934Z" fill="#7E4D43"/>
<path opacity="0.62" d="M56.0753 59.8072C67.6203 50.1232 69.129 32.9138 59.445 21.3688C49.761 9.82379 32.5516 8.31512 21.0066 17.9991C9.4616 27.683 7.95294 44.8925 17.6369 56.4375C27.3209 67.9825 44.5303 69.4911 56.0753 59.8072Z" fill="#75473E"/>
<path opacity="0.57" d="M56.2367 59.6136C67.6593 49.8371 68.9937 32.6518 59.2172 21.2292C49.4406 9.80663 32.2554 8.47223 20.8328 18.2487C9.41022 28.0253 8.07582 45.2105 17.8523 56.6331C27.6288 68.0557 44.8141 69.3901 56.2367 59.6136Z" fill="#6C4239"/>
<path opacity="0.52" d="M56.4647 59.4447C67.7631 49.5502 68.9011 32.3701 59.0067 21.0718C49.1123 9.77352 31.9322 8.63543 20.6339 18.5298C9.33561 28.4242 8.19752 45.6043 18.0919 56.9027C27.9863 68.201 45.1664 69.3391 56.4647 59.4447Z" fill="#633C34"/>
<path opacity="0.48" d="M56.7131 59.2203C67.8649 49.1862 68.771 32.0115 58.7369 20.8597C48.7028 9.70785 31.5281 8.80176 20.3763 18.8359C9.22445 28.87 8.31835 46.0446 18.3525 57.1965C28.3866 68.3483 45.5612 69.2544 56.7131 59.2203Z" fill="#5A3730"/>
<path opacity="0.43" d="M57.0339 58.9008C67.9969 48.7098 68.6227 31.5612 58.4317 20.5983C48.2408 9.63533 31.0922 9.00951 20.1292 19.2005C9.16627 29.3914 8.54046 46.5401 18.7314 57.503C28.9224 68.4659 46.071 69.0917 57.0339 58.9008Z" fill="#51312B"/>
<path opacity="0.38" d="M57.3856 58.5545C68.1351 48.1628 68.4253 31.0245 58.0337 20.2749C47.642 9.52533 30.5037 9.23515 19.7541 19.6268C9.00454 30.0184 8.71437 47.1568 19.106 57.9063C29.4976 68.6559 46.636 68.9461 57.3856 58.5545Z" fill="#482C26"/>
<path opacity="0.33" d="M57.6942 58.2628C68.2426 47.7144 68.2426 30.612 57.6942 20.0637C47.1458 9.51526 30.0435 9.51526 19.4951 20.0637C8.94667 30.612 8.94667 47.7144 19.4951 58.2628C30.0435 68.8112 47.1458 68.8112 57.6942 58.2628Z" fill="#3F2621"/>
<path opacity="0.29" d="M58.3611 57.5159C68.4911 46.588 67.8443 29.5171 56.9163 19.3871C45.9884 9.2571 28.9176 9.90395 18.7876 20.8319C8.65755 31.7598 9.3044 48.8306 20.2323 58.9607C31.1603 69.0907 48.2311 68.4438 58.3611 57.5159Z" fill="#36211D"/>
<path opacity="0.24" d="M59.022 56.7621C68.6953 45.472 67.3847 28.4779 56.0946 18.8046C44.8046 9.13126 27.8105 10.4419 18.1371 21.7319C8.46384 33.0219 9.77445 50.0161 21.0645 59.6894C32.3545 69.3627 49.3487 68.0521 59.022 56.7621Z" fill="#2D1B18"/>
<path opacity="0.19" d="M59.8665 55.7098C68.9337 43.9486 66.7497 27.0639 54.9885 17.9967C43.2273 8.92955 26.3426 11.1135 17.2754 22.8747C8.20829 34.6359 10.3922 51.5206 22.1534 60.5878C33.9146 69.6549 50.7994 67.471 59.8665 55.7098Z" fill="#241613"/>
<path opacity="0.14" d="M60.9051 54.2138C69.1176 41.881 65.7775 25.2257 53.4447 17.0132C41.1119 8.80069 24.4566 12.1408 16.2441 24.4736C8.03159 36.8064 11.3717 53.4617 23.7045 61.6742C36.0373 69.8867 52.6926 66.5466 60.9051 54.2138Z" fill="#1B100E"/>
<path opacity="0.1" d="M62.1676 52.0851C69.1888 39.0563 64.3186 22.8026 51.2898 15.7814C38.261 8.76029 22.0073 13.6305 14.9861 26.6593C7.96497 39.6881 12.8351 55.9418 25.8639 62.9629C38.8927 69.9841 55.1465 65.1139 62.1676 52.0851Z" fill="#120B0A"/>
<path opacity="0.05" d="M63.4897 49.1604C68.873 35.4099 62.09 19.899 48.3395 14.5158C34.589 9.1326 19.0781 15.9156 13.6949 29.6661C8.31171 43.4165 15.0947 58.9274 28.8452 64.3106C42.5956 69.6939 58.1065 62.9109 63.4897 49.1604Z" fill="#090505"/>
</g>
<defs>
<radialGradient id="paint0_radial_357_1862" cx="0" cy="0" r="1" gradientUnits="userSpaceOnUse" gradientTransform="translate(38.558 38.9692) rotate(-0.08) scale(20.205 20.205)">
<stop offset="0.66" stop-color="#090505"/>
<stop offset="0.95" stop-color="#090505"/>
<stop offset="1" stop-color="#090505"/>
</radialGradient>
<radialGradient id="paint1_radial_357_1862" cx="0" cy="0" r="1" gradientUnits="userSpaceOnUse" gradientTransform="translate(38.5667 38.9634) rotate(-0.16) scale(20.205 20.205)">
<stop offset="0.66" stop-color="#120B0A"/>
<stop offset="0.95" stop-color="#120B0A"/>
<stop offset="1" stop-color="#120B0A"/>
</radialGradient>
<radialGradient id="paint2_radial_357_1862" cx="0" cy="0" r="1" gradientUnits="userSpaceOnUse" gradientTransform="translate(38.5753 38.9289) rotate(-0.24) scale(20.1746 20.1746)">
<stop offset="0.66" stop-color="#1B100E"/>
<stop offset="0.95" stop-color="#1B100E"/>
<stop offset="1" stop-color="#1B100E"/>
</radialGradient>
<radialGradient id="paint3_radial_357_1862" cx="0" cy="0" r="1" gradientUnits="userSpaceOnUse" gradientTransform="translate(38.5483 38.9007) rotate(-0.31) scale(20.1442 20.1442)">
<stop offset="0.66" stop-color="#241613"/>
<stop offset="0.95" stop-color="#241613"/>
<stop offset="1" stop-color="#241613"/>
</radialGradient>
<radialGradient id="paint4_radial_357_1862" cx="0" cy="0" r="1" gradientUnits="userSpaceOnUse" gradientTransform="translate(38.5566 38.8693) rotate(-0.39) scale(20.1138)">
<stop offset="0.66" stop-color="#2D1B18"/>
<stop offset="0.95" stop-color="#2D1B18"/>
<stop offset="1" stop-color="#2D1B18"/>
</radialGradient>
<radialGradient id="paint5_radial_357_1862" cx="0" cy="0" r="1" gradientUnits="userSpaceOnUse" gradientTransform="translate(38.6158 38.828) rotate(-0.572939) scale(20.1148 20.1148)">
<stop offset="0.66" stop-color="#36211D"/>
<stop offset="0.95" stop-color="#36211D"/>
<stop offset="1" stop-color="#36211D"/>
</radialGradient>
<radialGradient id="paint6_radial_357_1862" cx="0" cy="0" r="1" gradientUnits="userSpaceOnUse" gradientTransform="translate(38.5728 38.8422) rotate(-0.55) scale(20.0834)">
<stop offset="0.66" stop-color="#3F2621"/>
<stop offset="0.95" stop-color="#3F2621"/>
<stop offset="1" stop-color="#3F2621"/>
</radialGradient>
<radialGradient id="paint7_radial_357_1862" cx="0" cy="0" r="1" gradientUnits="userSpaceOnUse" gradientTransform="translate(38.5238 38.8404) rotate(-0.572939) scale(20.0541)">
<stop offset="0.66" stop-color="#482C26"/>
<stop offset="0.95" stop-color="#482C26"/>
<stop offset="1" stop-color="#482C26"/>
</radialGradient>
<radialGradient id="paint8_radial_357_1862" cx="0" cy="0" r="1" gradientUnits="userSpaceOnUse" gradientTransform="translate(38.4931 38.8465) rotate(-0.572939) scale(20.0237 20.0237)">
<stop offset="0.66" stop-color="#51312B"/>
<stop offset="0.95" stop-color="#51312B"/>
<stop offset="1" stop-color="#51312B"/>
</radialGradient>
<radialGradient id="paint9_radial_357_1862" cx="0" cy="0" r="1" gradientUnits="userSpaceOnUse" gradientTransform="translate(38.5655 38.7685) rotate(-0.79) scale(20.0227 20.0227)">
<stop offset="0.66" stop-color="#5A3730"/>
<stop offset="0.95" stop-color="#5A3730"/>
<stop offset="1" stop-color="#5A3730"/>
</radialGradient>
<radialGradient id="paint10_radial_357_1862" cx="0" cy="0" r="1" gradientUnits="userSpaceOnUse" gradientTransform="translate(38.5679 38.7509) rotate(-0.86) scale(19.9923 19.9923)">
<stop offset="0.66" stop-color="#633C34"/>
<stop offset="0.95" stop-color="#633C34"/>
<stop offset="1" stop-color="#633C34"/>
</radialGradient>
<radialGradient id="paint11_radial_357_1862" cx="0" cy="0" r="1" gradientUnits="userSpaceOnUse" gradientTransform="translate(38.5444 38.7012) rotate(-0.94) scale(19.9619)">
<stop offset="0.66" stop-color="#6C4239"/>
<stop offset="0.95" stop-color="#6C4239"/>
<stop offset="1" stop-color="#6C4239"/>
</radialGradient>
<radialGradient id="paint12_radial_357_1862" cx="0" cy="0" r="1" gradientUnits="userSpaceOnUse" gradientTransform="translate(38.5515 38.7134) rotate(-1.02) scale(19.9619 19.9619)">
<stop offset="0.66" stop-color="#75473E"/>
<stop offset="0.95" stop-color="#75473E"/>
<stop offset="1" stop-color="#75473E"/>
</radialGradient>
<radialGradient id="paint13_radial_357_1862" cx="0" cy="0" r="1" gradientUnits="userSpaceOnUse" gradientTransform="translate(38.5839 38.6563) rotate(-1.14576) scale(19.9355)">
<stop offset="0.66" stop-color="#7E4D43"/>
<stop offset="0.95" stop-color="#7E4D43"/>
<stop offset="1" stop-color="#7E4D43"/>
</radialGradient>
<radialGradient id="paint14_radial_357_1862" cx="0" cy="0" r="1" gradientUnits="userSpaceOnUse" gradientTransform="translate(38.5647 38.6517) rotate(-1.18) scale(19.9011)">
<stop offset="0.66" stop-color="#875247"/>
<stop offset="0.95" stop-color="#875247"/>
<stop offset="1" stop-color="#875247"/>
</radialGradient>
<radialGradient id="paint15_radial_357_1862" cx="0" cy="0" r="1" gradientUnits="userSpaceOnUse" gradientTransform="translate(38.5412 38.6392) rotate(-1.26) scale(19.8707)">
<stop offset="0.66" stop-color="#90584C"/>
<stop offset="0.95" stop-color="#90584C"/>
<stop offset="1" stop-color="#90584C"/>
</radialGradient>
<radialGradient id="paint16_radial_357_1862" cx="0" cy="0" r="1" gradientUnits="userSpaceOnUse" gradientTransform="translate(38.4593 38.6934) rotate(-1.14576) scale(19.8747)">
<stop offset="0.66" stop-color="#995D51"/>
<stop offset="0.95" stop-color="#995D51"/>
<stop offset="1" stop-color="#995D51"/>
</radialGradient>
<radialGradient id="paint17_radial_357_1862" cx="0" cy="0" r="1" gradientUnits="userSpaceOnUse" gradientTransform="translate(38.5487 38.5905) rotate(-1.41) scale(19.8404)">
<stop offset="0.66" stop-color="#A26356"/>
<stop offset="0.95" stop-color="#A26356"/>
<stop offset="1" stop-color="#A26356"/>
</radialGradient>
<radialGradient id="paint18_radial_357_1862" cx="0" cy="0" r="1" gradientUnits="userSpaceOnUse" gradientTransform="translate(38.5545 38.5821) rotate(-1.49) scale(19.81 19.81)">
<stop offset="0.66" stop-color="#AB685A"/>
<stop offset="0.95" stop-color="#AB685A"/>
<stop offset="1" stop-color="#AB685A"/>
</radialGradient>
<radialGradient id="paint19_radial_357_1862" cx="0" cy="0" r="1" gradientUnits="userSpaceOnUse" gradientTransform="translate(38.5601 38.5451) rotate(-1.57) scale(19.7796)">
<stop offset="0.66" stop-color="#B46E5F"/>
<stop offset="0.95" stop-color="#B46E5F"/>
<stop offset="1" stop-color="#B46E5F"/>
</radialGradient>
<radialGradient id="paint20_radial_357_1862" cx="0" cy="0" r="1" gradientUnits="userSpaceOnUse" gradientTransform="translate(38.5354 38.5106) rotate(-1.65) scale(19.7796)">
<stop offset="0.66" stop-color="#BD7364"/>
<stop offset="0.95" stop-color="#BD7364"/>
<stop offset="1" stop-color="#BD7364"/>
</radialGradient>
<radialGradient id="paint21_radial_357_1862" cx="0" cy="0" r="1" gradientUnits="userSpaceOnUse" gradientTransform="translate(38.5354 38.5106) rotate(-1.65) scale(19.7796)">
<stop offset="0.66" stop-color="#CFB5B0"/>
<stop offset="0.95" stop-color="#CFB5B0"/>
<stop offset="1" stop-color="#CFB5B0"/>
</radialGradient>
<radialGradient id="paint22_radial_357_1862" cx="0" cy="0" r="1" gradientUnits="userSpaceOnUse" gradientTransform="translate(38.6986 38.4604) rotate(-1.71836) scale(19.6973)">
<stop offset="0.66" stop-color="#D4BDB9"/>
<stop offset="0.95" stop-color="#D4BDB9"/>
<stop offset="1" stop-color="#D4BDB9"/>
</radialGradient>
<radialGradient id="paint23_radial_357_1862" cx="0" cy="0" r="1" gradientUnits="userSpaceOnUse" gradientTransform="translate(38.548 38.5457) rotate(-1.28) scale(19.6277)">
<stop offset="0.66" stop-color="#DAC5C2"/>
<stop offset="0.95" stop-color="#DAC5C2"/>
<stop offset="1" stop-color="#DAC5C2"/>
</radialGradient>
<radialGradient id="paint24_radial_357_1862" cx="0" cy="0" r="1" gradientUnits="userSpaceOnUse" gradientTransform="translate(38.5808 38.5044) rotate(-1.14576) scale(19.5404 19.5404)">
<stop offset="0.66" stop-color="#DFCECA"/>
<stop offset="0.95" stop-color="#DFCECA"/>
<stop offset="1" stop-color="#DFCECA"/>
</radialGradient>
<radialGradient id="paint25_radial_357_1862" cx="0" cy="0" r="1" gradientUnits="userSpaceOnUse" gradientTransform="translate(38.5624 38.5227) rotate(-0.92) scale(19.4758 19.4758)">
<stop offset="0.66" stop-color="#E4D6D3"/>
<stop offset="0.95" stop-color="#E4D6D3"/>
<stop offset="1" stop-color="#E4D6D3"/>
</radialGradient>
<radialGradient id="paint26_radial_357_1862" cx="0" cy="0" r="1" gradientUnits="userSpaceOnUse" gradientTransform="translate(38.5338 38.5434) rotate(-0.73) scale(19.3846)">
<stop offset="0.66" stop-color="#EADEDC"/>
<stop offset="0.95" stop-color="#EADEDC"/>
<stop offset="1" stop-color="#EADEDC"/>
</radialGradient>
<radialGradient id="paint27_radial_357_1862" cx="0" cy="0" r="1" gradientUnits="userSpaceOnUse" gradientTransform="translate(38.5393 38.5082) rotate(-0.55) scale(19.3239 19.3238)">
<stop offset="0.66" stop-color="#EFE6E5"/>
<stop offset="0.95" stop-color="#EFE6E5"/>
<stop offset="1" stop-color="#EFE6E5"/>
</radialGradient>
<radialGradient id="paint28_radial_357_1862" cx="0" cy="0" r="1" gradientUnits="userSpaceOnUse" gradientTransform="translate(38.6737 38.4552) rotate(-0.572939) scale(19.264)">
<stop offset="0.66" stop-color="#F4EFED"/>
<stop offset="0.95" stop-color="#F4EFED"/>
<stop offset="1" stop-color="#F4EFED"/>
</radialGradient>
<radialGradient id="paint29_radial_357_1862" cx="0" cy="0" r="1" gradientUnits="userSpaceOnUse" gradientTransform="translate(38.5447 38.4991) rotate(-0.18) scale(19.1719)">
<stop offset="0.66" stop-color="#FAF7F6"/>
<stop offset="0.95" stop-color="#FAF7F6"/>
<stop offset="1" stop-color="#FAF7F6"/>
</radialGradient>
<radialGradient id="paint30_radial_357_1862" cx="0" cy="0" r="1" gradientUnits="userSpaceOnUse" gradientTransform="translate(38.5448 38.499) rotate(-0.18) scale(18.7162 18.7162)">
<stop offset="0.66" stop-color="#FAF7F6"/>
<stop offset="0.95" stop-color="#FAF7F6"/>
<stop offset="1" stop-color="#FAF7F6"/>
</radialGradient>
<radialGradient id="paint31_radial_357_1862" cx="0" cy="0" r="1" gradientUnits="userSpaceOnUse" gradientTransform="translate(38.5752 38.5424) rotate(-0.37) scale(18.625)">
<stop offset="0.66" stop-color="#F4EFED"/>
<stop offset="0.95" stop-color="#F4EFED"/>
<stop offset="1" stop-color="#F4EFED"/>
</radialGradient>
<radialGradient id="paint32_radial_357_1862" cx="0" cy="0" r="1" gradientUnits="userSpaceOnUse" gradientTransform="translate(38.5392 38.5082) rotate(-0.55) scale(18.5643 18.5643)">
<stop offset="0.66" stop-color="#EFE6E5"/>
<stop offset="0.95" stop-color="#EFE6E5"/>
<stop offset="1" stop-color="#EFE6E5"/>
</radialGradient>
<radialGradient id="paint33_radial_357_1862" cx="0" cy="0" r="1" gradientUnits="userSpaceOnUse" gradientTransform="translate(38.5756 38.3714) rotate(-0.948018) scale(18.4232)">
<stop offset="0.66" stop-color="#EADEDC"/>
<stop offset="0.95" stop-color="#EADEDC"/>
<stop offset="1" stop-color="#EADEDC"/>
</radialGradient>
<radialGradient id="paint34_radial_357_1862" cx="0" cy="0" r="1" gradientUnits="userSpaceOnUse" gradientTransform="translate(38.5312 38.5113) rotate(-0.91) scale(18.382)">
<stop offset="0.66" stop-color="#E4D6D3"/>
<stop offset="0.95" stop-color="#E4D6D3"/>
<stop offset="1" stop-color="#E4D6D3"/>
</radialGradient>
<radialGradient id="paint35_radial_357_1862" cx="0" cy="0" r="1" gradientUnits="userSpaceOnUse" gradientTransform="translate(38.542 38.5212) rotate(-1.1) scale(18.2908)">
<stop offset="0.66" stop-color="#DFCECA"/>
<stop offset="0.95" stop-color="#DFCECA"/>
<stop offset="1" stop-color="#DFCECA"/>
</radialGradient>
<radialGradient id="paint36_radial_357_1862" cx="0" cy="0" r="1" gradientUnits="userSpaceOnUse" gradientTransform="translate(38.5476 38.6236) rotate(-1.1365) scale(18.2324)">
<stop offset="0.66" stop-color="#DAC5C2"/>
<stop offset="0.95" stop-color="#DAC5C2"/>
<stop offset="1" stop-color="#DAC5C2"/>
</radialGradient>
<radialGradient id="paint37_radial_357_1862" cx="0" cy="0" r="1" gradientUnits="userSpaceOnUse" gradientTransform="translate(38.545 38.5301) rotate(-1.46) scale(18.1085)">
<stop offset="0.66" stop-color="#D4BDB9"/>
<stop offset="0.95" stop-color="#D4BDB9"/>
<stop offset="1" stop-color="#D4BDB9"/>
</radialGradient>
<radialGradient id="paint38_radial_357_1862" cx="0" cy="0" r="1" gradientUnits="userSpaceOnUse" gradientTransform="translate(38.5354 38.5106) rotate(-1.65) scale(18.0477)">
<stop offset="0.66" stop-color="#CFB5B0"/>
<stop offset="0.95" stop-color="#CFB5B0"/>
<stop offset="1" stop-color="#CFB5B0"/>
</radialGradient>
<linearGradient id="paint39_linear_357_1862" x1="39.3314" y1="66.1481" x2="37.7392" y2="10.8732" gradientUnits="userSpaceOnUse">
<stop stop-color="#E8DDDA"/>
<stop offset="0.19" stop-color="#EEE6E4"/>
<stop offset="0.67" stop-color="#FBF8F8"/>
<stop offset="1" stop-color="white"/>
</linearGradient>
</defs>
</svg>
