<svg width="78" height="76" viewBox="0 0 78 76" fill="none" xmlns="http://www.w3.org/2000/svg">
<path d="M62.0798 24.028C64.9368 28.6896 66.3475 34.0937 66.1336 39.5571C65.9197 45.0204 64.0908 50.2976 60.8782 54.7217C57.6655 59.1458 53.2133 62.5181 48.0844 64.4122C42.9555 66.3063 37.3801 66.6373 32.0631 65.3633C26.7461 64.0892 21.9262 61.2674 18.2127 57.2544C14.4992 53.2415 12.0588 48.2177 11.2001 42.818C10.3414 37.4184 11.1028 31.8853 13.3882 26.9184C15.6736 21.9514 19.3803 17.7736 24.0398 14.9129C30.2943 11.0825 37.8133 9.89091 44.9457 11.5999C52.078 13.309 58.2405 17.7789 62.0798 24.028Z" fill="#239B47"/>
<g style="mix-blend-mode:screen" opacity="0.5">
<path opacity="0.05" d="M55.76 28.3727C57.8541 31.7743 58.8929 35.7203 58.7453 39.7121C58.5976 43.7039 57.27 47.5623 54.9302 50.7999C52.5905 54.0375 49.3436 56.5089 45.5998 57.9018C41.8561 59.2947 37.7834 59.5467 33.8965 58.6259C30.0095 57.7051 26.4828 55.6528 23.7618 52.7284C21.0408 49.8039 19.2477 46.1386 18.609 42.1954C17.9704 38.2523 18.5149 34.2083 20.1737 30.5745C21.8325 26.9407 24.5312 23.8802 27.9288 21.7795C30.1884 20.3825 32.7013 19.4448 35.3238 19.02C37.9462 18.5953 40.6267 18.6919 43.2117 19.3043C45.7968 19.9167 48.2357 21.0329 50.3889 22.589C52.5421 24.145 54.3673 26.1105 55.76 28.3727Z" fill="url(#paint0_radial_357_1709)"/>
<path opacity="0.1" d="M55.7296 28.3424C57.8309 31.7437 58.8759 35.692 58.7324 39.6875C58.5888 43.6829 57.2631 47.546 54.923 50.7878C52.5829 54.0295 49.3337 56.5041 45.5867 57.8984C41.8396 59.2926 37.7631 59.5439 33.8731 58.6204C29.9832 57.6968 26.4547 55.64 23.7342 52.7102C21.0138 49.7804 19.2236 46.1094 18.5905 42.1618C17.9573 38.2141 18.5095 34.1674 20.1772 30.5338C21.8449 26.9001 24.5532 23.8429 27.9591 21.7492C30.2152 20.3576 32.7234 19.4243 35.3403 19.0025C37.9572 18.5807 40.6316 18.6788 43.2106 19.2911C45.7896 19.9034 48.2227 21.0179 50.3708 22.571C52.5188 24.1241 54.3398 26.0852 55.7296 28.3424Z" fill="url(#paint1_radial_357_1709)"/>
<path opacity="0.14" d="M55.6992 28.3424C57.7946 31.7394 58.8352 35.6816 58.6895 39.6702C58.5438 43.6588 57.2183 47.5146 54.8806 50.7497C52.543 53.9847 49.2983 56.4537 45.5571 57.8443C41.8159 59.2348 37.7463 59.4844 33.8633 58.5615C29.9802 57.6386 26.4581 55.5846 23.7426 52.6594C21.0272 49.7343 19.2404 46.0694 18.6083 42.1285C17.9763 38.1876 18.5274 34.1478 20.1919 30.5202C21.8564 26.8926 24.5595 23.8402 27.9592 21.7492C30.2129 20.3584 32.7187 19.4256 35.3333 19.0043C37.9478 18.5829 40.6198 18.6813 43.1964 19.2936C45.7729 19.906 48.2034 21.0204 50.3488 22.5731C52.4942 24.1258 54.3123 26.0863 55.6992 28.3424Z" fill="url(#paint2_radial_357_1709)"/>
<path opacity="0.19" d="M55.6992 28.3424C57.7849 31.7353 58.8181 35.6702 58.6682 39.6501C58.5183 43.6299 57.192 47.476 54.857 50.7024C52.522 53.9287 49.283 56.3905 45.5493 57.7766C41.8157 59.1628 37.7549 59.4111 33.8802 58.4901C30.0055 57.5692 26.4907 55.5204 23.78 52.6025C21.0693 49.6847 19.2843 46.0288 18.6507 42.0969C18.017 38.165 18.5631 34.1334 20.2199 30.5118C21.8767 26.8901 24.5699 23.8408 27.9591 21.7492C30.2128 20.3584 32.7187 19.4256 35.3332 19.0043C37.9478 18.5829 40.6198 18.6813 43.1963 19.2936C45.7729 19.906 48.2034 21.0204 50.3487 22.5731C52.4941 24.1258 54.3123 26.0863 55.6992 28.3424Z" fill="url(#paint3_radial_357_1709)"/>
<path opacity="0.24" d="M55.6689 28.312C57.7568 31.698 58.7937 35.6272 58.6486 39.6026C58.5034 43.578 57.1828 47.4211 54.8535 50.6459C52.5243 53.8708 49.2911 56.3325 45.5628 57.7198C41.8345 59.1071 37.7785 59.3578 33.9078 58.44C30.037 57.5222 26.5254 55.4773 23.8168 52.5638C21.1083 49.6503 19.3245 45.999 18.691 42.0717C18.0575 38.1444 18.6028 34.1175 20.258 30.5001C21.9131 26.8827 24.6037 23.8374 27.9896 21.7491C32.5324 18.9568 37.9971 18.0796 43.1856 19.3098C48.3742 20.54 52.8633 23.7773 55.6689 28.312Z" fill="url(#paint4_radial_357_1709)"/>
<path opacity="0.29" d="M55.6689 28.312C57.7568 31.6981 58.7937 35.6272 58.6486 39.6026C58.5034 43.578 57.1828 47.4211 54.8535 50.646C52.5243 53.8708 49.2911 56.3325 45.5628 57.7198C41.8345 59.1072 37.7785 59.3578 33.9078 58.44C30.037 57.5223 26.5254 55.4773 23.8168 52.5638C21.1083 49.6503 19.3245 45.999 18.691 42.0718C18.0575 38.1445 18.6028 34.1175 20.258 30.5001C21.9131 26.8828 24.6037 23.8374 27.9896 21.7492C30.2379 20.3625 32.7374 19.4323 35.3452 19.0117C37.9531 18.591 40.6182 18.6882 43.1885 19.2976C45.7588 19.907 48.1839 21.0168 50.3253 22.5635C52.4667 24.1102 54.2824 26.0635 55.6689 28.312Z" fill="url(#paint5_radial_357_1709)"/>
<path opacity="0.33" d="M55.6384 28.312C57.724 31.6937 58.7596 35.6179 58.6144 39.5883C58.4692 43.5586 57.1496 47.3967 54.8226 50.617C52.4957 53.8372 49.2658 56.2949 45.5418 57.6792C41.8177 59.0635 37.7667 59.3121 33.9014 58.3936C30.036 57.475 26.5299 55.4307 23.8266 52.5191C21.1233 49.6076 19.3443 45.9597 18.7147 42.0369C18.0851 38.114 18.6332 34.0926 20.2895 30.4814C21.9459 26.8701 24.6361 23.8312 28.0199 21.7492C32.5534 18.9598 38.0087 18.0843 43.1874 19.3148C48.3661 20.5454 52.8444 23.7815 55.6384 28.312Z" fill="url(#paint6_radial_357_1709)"/>
<path opacity="0.38" d="M55.6082 28.2816C57.6923 31.6566 58.7286 35.5739 58.5861 39.538C58.4436 43.502 57.1287 47.3348 54.8076 50.5514C52.4866 53.7681 49.2637 56.2241 45.5467 57.6089C41.8296 58.9937 37.7854 59.245 33.9255 58.331C30.0656 57.4171 26.5635 55.3789 23.8621 52.4743C21.1607 49.5698 19.3814 45.9293 18.7492 42.0134C18.1171 38.0974 18.6605 34.082 20.3107 30.4749C21.9609 26.8679 24.6438 23.8313 28.02 21.7492C32.5472 18.9667 37.9927 18.0919 43.1636 19.3163C48.3345 20.5407 52.8094 23.7645 55.6082 28.2816Z" fill="url(#paint7_radial_357_1709)"/>
<path opacity="0.43" d="M55.6082 28.2816C57.6923 31.6566 58.7286 35.5739 58.5861 39.538C58.4436 43.502 57.1287 47.3348 54.8076 50.5514C52.4866 53.7681 49.2637 56.2241 45.5467 57.6089C41.8296 58.9937 37.7854 59.245 33.9255 58.331C30.0656 57.4171 26.5635 55.3789 23.8621 52.4743C21.1607 49.5698 19.3814 45.9293 18.7492 42.0134C18.1171 38.0974 18.6605 34.082 20.3107 30.4749C21.9609 26.8679 24.6438 23.8313 28.02 21.7492C30.2595 20.3634 32.7504 19.4331 35.3499 19.0114C37.9495 18.5897 40.6067 18.685 43.1694 19.2918C45.7321 19.8986 48.1499 21.005 50.2843 22.5476C52.4188 24.0902 54.2279 26.0388 55.6082 28.2816Z" fill="url(#paint8_radial_357_1709)"/>
<path opacity="0.48" d="M55.5777 28.2816C57.6498 31.648 58.6774 35.5531 58.5306 39.5034C58.3838 43.4536 57.0693 47.2717 54.7531 50.4751C52.437 53.6784 49.2232 56.1233 45.5179 57.5006C41.8126 58.8779 37.7822 59.1259 33.936 58.2131C30.0898 57.3004 26.6006 55.268 23.9092 52.3727C21.2178 49.4774 19.4452 45.8493 18.8153 41.9468C18.1854 38.0443 18.7265 34.0427 20.3703 30.4477C22.0141 26.8527 24.6867 23.8256 28.0504 21.7492C32.5682 18.9697 38.0043 18.0965 43.1653 19.3213C48.3263 20.546 52.7905 23.7686 55.5777 28.2816Z" fill="url(#paint9_radial_357_1709)"/>
<path opacity="0.52" d="M55.5474 28.2512C57.6411 31.6168 58.6872 35.5287 58.5527 39.4901C58.4181 43.4515 57.1092 47.2834 54.792 50.4992C52.4748 53.715 49.2541 56.1694 45.5389 57.5507C41.8237 58.932 37.7818 59.1777 33.9267 58.2568C30.0715 57.3358 26.5771 55.2897 23.8874 52.3784C21.1976 49.467 19.434 45.8219 18.8205 41.906C18.207 37.9901 18.7714 33.9803 20.4419 30.3859C22.1124 26.7914 24.8136 23.7747 28.2024 21.7188C32.6984 18.9727 38.0987 18.1183 43.2229 19.3424C48.347 20.5665 52.7781 23.7695 55.5474 28.2512Z" fill="url(#paint10_radial_357_1709)"/>
<path opacity="0.57" d="M55.5474 28.2513C57.6315 31.6127 58.6701 35.5174 58.5314 39.47C58.3927 43.4227 57.083 47.245 54.7685 50.4521C52.4539 53.6591 49.2388 56.1064 45.5312 57.4833C41.8235 58.8601 37.7904 59.1046 33.9436 58.1856C30.0968 57.2667 26.6097 55.2257 23.9247 52.3217C21.2397 49.4177 19.4779 45.7815 18.8628 41.8746C18.2477 37.9677 18.807 33.9661 20.4698 30.3775C22.1326 26.789 24.824 23.7753 28.2023 21.7188C32.7004 18.9808 38.0982 18.1309 43.22 19.3545C48.3417 20.578 52.7726 23.7758 55.5474 28.2513Z" fill="url(#paint11_radial_357_1709)"/>
<path opacity="0.62" d="M55.5168 28.2513C57.5913 31.6085 58.6225 35.506 58.4796 39.4499C58.3368 43.3938 57.0263 47.2065 54.7144 50.4049C52.4024 53.6032 49.193 56.0433 45.4929 57.4157C41.7928 58.7882 37.7685 59.0314 33.9301 58.1144C30.0916 57.1975 26.6118 55.1617 23.9315 52.265C21.2512 49.3683 19.4912 45.7411 18.8745 41.8431C18.2578 37.9451 18.8121 33.9518 20.4673 30.3692C22.1224 26.7866 24.8039 23.776 28.1718 21.7188C32.6698 18.9808 38.0676 18.1309 43.1894 19.3545C48.3112 20.578 52.742 23.7758 55.5168 28.2513Z" fill="url(#paint12_radial_357_1709)"/>
<path opacity="0.67" d="M55.4866 28.2208C57.5657 31.5757 58.6019 35.4724 58.4639 39.4169C58.3259 43.3613 57.0199 47.1761 54.7115 50.3775C52.4031 53.5789 49.1961 56.0229 45.4971 57.3996C41.7981 58.7764 37.7737 59.0239 33.9338 58.1109C30.094 57.1979 26.6117 55.1654 23.9283 52.271C21.2449 49.3767 19.4812 45.7508 18.8608 41.853C18.2404 37.9551 18.7912 33.9609 20.4435 30.3765C22.0957 26.792 24.7749 23.7788 28.1415 21.7188C32.6339 18.9699 38.0315 18.1108 43.1553 19.3291C48.279 20.5475 52.7123 23.7442 55.4866 28.2208Z" fill="url(#paint13_radial_357_1709)"/>
<path opacity="0.71" d="M55.4866 28.2209C57.556 31.5716 58.5848 35.4611 58.4426 39.3968C58.3005 43.3325 56.9937 47.1376 54.6879 50.3303C52.3821 53.523 49.1808 55.9597 45.4893 57.3321C41.7979 58.7045 37.7822 58.9507 33.9508 58.0397C30.1193 57.1286 26.6443 55.1013 23.9656 52.2142C21.2869 49.3272 19.5251 45.7103 18.9031 41.8215C18.2811 37.9326 18.8269 33.9466 20.4715 30.3681C22.116 26.7896 24.7853 23.7795 28.1415 21.7188C32.6317 18.9619 38.032 18.0981 43.1582 19.317C48.2843 20.5359 52.7178 23.7379 55.4866 28.2209Z" fill="url(#paint14_radial_357_1709)"/>
<path opacity="0.76" d="M55.4561 28.1905C57.5205 31.5348 58.5469 35.4161 58.4054 39.3437C58.2639 43.2713 56.9609 47.0687 54.6611 50.2557C52.3614 53.4427 49.1682 55.8762 45.4854 57.2484C41.8027 58.6206 37.7957 58.8699 33.9712 57.9648C30.1467 57.0597 26.6765 55.0408 23.9995 52.1634C21.3224 49.286 19.5588 45.6794 18.9315 41.7997C18.3042 37.9199 18.8415 33.9413 20.4755 30.3669C22.1094 26.7926 24.7666 23.783 28.1111 21.7188C32.5976 18.9592 37.9952 18.0907 43.121 19.3038C48.2467 20.5169 52.6825 23.7126 55.4561 28.1905Z" fill="url(#paint15_radial_357_1709)"/>
<path opacity="0.81" d="M55.4258 28.1905C57.4806 31.5306 58.4995 35.4047 58.3538 39.3235C58.2081 43.2423 56.9044 47.0301 54.6072 50.2084C52.3101 53.3866 49.1226 55.8129 45.4473 57.1807C41.7721 58.5485 37.7739 58.7965 33.9578 57.8934C30.1417 56.9902 26.6788 54.9764 24.0065 52.1064C21.3342 49.2363 19.5724 45.6387 18.9435 41.768C18.3147 37.8972 18.847 33.9269 20.4733 30.3584C22.0996 26.79 24.7468 23.7836 28.0808 21.7188C30.3001 20.3443 32.7688 19.4214 35.3455 19.0027C37.9222 18.5841 40.5562 18.6781 43.0965 19.2793C45.6368 19.8805 48.0334 20.9771 50.1492 22.5063C52.2649 24.0354 54.058 25.9671 55.4258 28.1905Z" fill="url(#paint16_radial_357_1709)"/>
<path opacity="0.86" d="M55.4258 28.1905C57.4806 31.5306 58.4995 35.4047 58.3538 39.3235C58.2081 43.2423 56.9044 47.0301 54.6072 50.2084C52.3101 53.3866 49.1226 55.8129 45.4473 57.1807C41.7721 58.5485 37.7739 58.7965 33.9578 57.8934C30.1417 56.9902 26.6788 54.9764 24.0065 52.1064C21.3342 49.2363 19.5724 45.6387 18.9435 41.768C18.3147 37.8972 18.847 33.9269 20.4733 30.3584C22.0996 26.79 24.7468 23.7836 28.0808 21.7188C30.3001 20.3443 32.7688 19.4214 35.3455 19.0027C37.9222 18.5841 40.5562 18.6781 43.0965 19.2793C45.6368 19.8805 48.0334 20.9771 50.1492 22.5063C52.2649 24.0354 54.058 25.9671 55.4258 28.1905Z" fill="url(#paint17_radial_357_1709)"/>
<path opacity="0.9" d="M55.3955 28.16C57.4452 31.4937 58.4616 35.3597 58.3166 39.2703C58.1715 43.181 56.8714 46.9611 54.5804 50.1337C52.2893 53.3063 49.1099 55.7292 45.4434 57.0968C41.7768 58.4645 37.7873 58.7155 33.9782 57.8182C30.1691 56.921 26.711 54.9157 24.0404 52.0553C21.3697 49.1949 19.6061 45.6075 18.972 41.7459C18.3379 37.8843 18.8617 33.9214 20.4774 30.3571C22.0931 26.7929 24.7283 23.787 28.0504 21.7188C30.2656 20.3349 32.7329 19.4035 35.31 18.9783C37.8871 18.5531 40.5228 18.6425 43.0652 19.2413C45.6075 19.8402 48.006 20.9367 50.1224 22.4674C52.2387 23.9982 54.0309 25.933 55.3955 28.16Z" fill="url(#paint18_radial_357_1709)"/>
<path opacity="0.95" d="M55.365 28.1601C57.4005 31.4918 58.4044 35.3514 58.2503 39.2527C58.0962 43.154 56.791 46.9224 54.4991 50.0832C52.2071 53.244 49.031 55.6558 45.3709 57.0148C41.7107 58.3738 37.7302 58.6191 33.9308 57.7199C30.1315 56.8208 26.6832 54.8173 24.0204 51.9619C21.3576 49.1064 19.5995 45.5269 18.9675 41.674C18.3354 37.8212 18.8577 33.8675 20.4687 30.311C22.0796 26.7545 24.707 23.7543 28.0199 21.6884C30.2369 20.3059 32.7059 19.3763 35.2842 18.9533C37.8624 18.5304 40.499 18.6224 43.0415 19.2241C45.584 19.8259 47.9821 20.9254 50.0973 22.4591C52.2125 23.9929 54.0029 25.9305 55.365 28.1601Z" fill="url(#paint19_radial_357_1709)"/>
<path d="M55.3652 28.1601C57.4188 31.4912 58.4382 35.3565 58.2944 39.2671C58.1506 43.1777 56.85 46.9578 54.5573 50.129C52.2645 53.3002 49.0826 55.7201 45.4142 57.0825C41.7457 58.4448 37.7556 58.6884 33.9487 57.7824C30.1418 56.8764 26.6892 54.8615 24.0277 51.9927C21.3662 49.1239 19.6155 45.5302 18.9971 41.6661C18.3787 37.802 18.9203 33.8414 20.5535 30.2852C22.1867 26.7291 24.838 23.7373 28.172 21.6884C32.6372 18.9444 38.009 18.0846 43.1076 19.298C48.2062 20.5115 52.6148 23.6988 55.3652 28.1601Z" fill="url(#paint20_radial_357_1709)"/>
</g>
<path d="M55.3649 28.1601C57.4186 31.4912 58.438 35.3565 58.2941 39.2671C58.1503 43.1777 56.8498 46.9578 54.557 50.129C52.2643 53.3002 49.0824 55.7201 45.4139 57.0825C41.7455 58.4448 37.7554 58.6884 33.9485 57.7824C30.1416 56.8764 26.6889 54.8615 24.0275 51.9927C21.366 49.1239 19.6153 45.5302 18.9969 41.6661C18.3784 37.802 18.9201 33.8414 20.5533 30.2852C22.1865 26.7291 24.8378 23.7373 28.1718 21.6884C32.637 18.9444 38.0087 18.0846 43.1073 19.298C48.2059 20.5115 52.6145 23.6988 55.3649 28.1601Z" fill="#239B47"/>
<path d="M30.3291 12.1177L32.4256 16.3106C32.5141 16.4751 32.6543 16.6058 32.8245 16.6827C32.9947 16.7596 33.1855 16.7783 33.3674 16.736C36.3543 16.0162 39.4578 15.9231 42.4825 16.4625C42.6716 16.506 42.87 16.481 43.0425 16.392C43.2149 16.303 43.3502 16.1557 43.4244 15.9764L45.217 11.6923C40.3092 10.4665 35.1589 10.6137 30.3291 12.1177Z" fill="#F0EEED"/>
<path d="M11.5522 32.4442L16.2313 32.6872C16.3933 32.6784 16.549 32.6217 16.6788 32.5244C16.8086 32.427 16.9067 32.2934 16.9605 32.1403C17.8645 29.1869 19.3754 26.4548 21.3965 24.1191C21.5149 23.973 21.5795 23.7907 21.5795 23.6026C21.5795 23.4145 21.5149 23.2322 21.3965 23.0861L18.6316 19.3185C15.1116 22.9609 12.6623 27.502 11.5522 32.4442Z" fill="#F0EEED"/>
<path d="M19.7861 58.8473L22.3383 54.9279C22.4567 54.7818 22.5213 54.5994 22.5213 54.4114C22.5213 54.2233 22.4567 54.0409 22.3383 53.8948C20.2397 51.6738 18.6165 49.0477 17.5681 46.1775C17.5124 45.9931 17.3935 45.8342 17.2324 45.7287C17.0714 45.6232 16.8783 45.5777 16.687 45.6002L12.0383 46.1471C13.415 51.0076 16.0941 55.3993 19.7861 58.8473Z" fill="#F0EEED"/>
<path d="M46.7363 64.924L44.6398 60.7311C44.5513 60.5667 44.4111 60.4359 44.2409 60.359C44.0706 60.2822 43.8798 60.2634 43.6979 60.3058C40.7111 61.0255 37.6075 61.1186 34.5829 60.5792C34.3938 60.5357 34.1953 60.5607 34.0229 60.6497C33.8505 60.7387 33.7151 60.886 33.641 61.0653L31.8484 65.3494C36.7562 66.5752 41.9065 66.4281 46.7363 64.924Z" fill="#F0EEED"/>
<path d="M65.5739 44.5975L60.834 44.2936C60.6477 44.2785 60.4617 44.3275 60.307 44.4325C60.1523 44.5375 60.0381 44.6922 59.9833 44.8709C59.1117 47.8036 57.6427 50.5242 55.6689 52.8618C55.5505 53.0079 55.4858 53.1902 55.4858 53.3783C55.4858 53.5663 55.5505 53.7487 55.6689 53.8948L58.4641 57.6623C61.9855 54.0404 64.4448 49.5212 65.5739 44.5975Z" fill="#F0EEED"/>
<path d="M57.2792 18.1943L54.727 22.1138C54.6086 22.2599 54.5439 22.4423 54.5439 22.6303C54.5439 22.8184 54.6086 23.0007 54.727 23.1468C56.8256 25.3679 58.4488 27.994 59.4972 30.8642C59.5529 31.0486 59.6717 31.2074 59.8328 31.313C59.9939 31.4185 60.187 31.464 60.3783 31.4415L65.0269 30.8946C63.6503 26.0341 60.9712 21.6424 57.2792 18.1943Z" fill="#F0EEED"/>
<path d="M25.8628 23.3595L26.9566 24.6963C27.6276 24.1389 28.3385 23.6311 29.0834 23.1772C29.8204 22.7126 30.5924 22.3063 31.3926 21.9618L30.6634 20.3819C29.8055 20.763 28.9733 21.1994 28.1719 21.6884C27.3657 22.1931 26.5943 22.7514 25.8628 23.3595Z" fill="#F0EEED"/>
<path d="M35.1904 19.045L35.4639 20.7465C37.1872 20.5038 38.9361 20.5038 40.6594 20.7465L40.8114 19.045C38.9477 18.7719 37.0541 18.7719 35.1904 19.045Z" fill="#F0EEED"/>
<path d="M44.731 21.5973C46.3668 22.1802 47.9038 23.0102 49.2885 24.0583L50.3823 22.6303C48.8271 21.5271 47.1307 20.638 45.3386 19.9869L44.731 21.5973Z" fill="#F0EEED"/>
<path d="M56.4587 40.6173L58.1602 40.7693C58.3801 38.9082 58.3289 37.0251 58.0083 35.1787L56.4587 35.4218C56.7015 37.1451 56.7015 38.894 56.4587 40.6173Z" fill="#F0EEED"/>
<path d="M55.3651 28.1601C54.8604 27.3539 54.3021 26.5824 53.694 25.851L52.3572 26.9448C52.9146 27.6158 53.4224 28.3266 53.8763 29.0716C54.3409 29.8085 54.7473 30.5806 55.0917 31.3807L56.6716 30.6515C56.2905 29.7937 55.8541 28.9614 55.3651 28.1601Z" fill="#F0EEED"/>
<path d="M20.6369 36.4244L18.905 36.2725C18.6319 38.1362 18.6319 40.0297 18.905 41.8934L20.6065 41.6199C20.3585 39.8962 20.3687 38.1451 20.6369 36.4244Z" fill="#F0EEED"/>
<path d="M23.3714 51.1907L24.7082 50.0969C24.1508 49.4258 23.643 48.715 23.1891 47.97C22.7245 47.2331 22.3182 46.461 21.9737 45.6609L20.3938 46.3901C20.7749 47.248 21.2113 48.0802 21.7003 48.8815C22.2051 49.6877 22.7633 50.4592 23.3714 51.1907Z" fill="#F0EEED"/>
<path d="M51.2026 53.6821L50.1088 52.3453C49.4378 52.9027 48.727 53.4105 47.982 53.8644C47.2451 54.329 46.473 54.7354 45.6729 55.0798L46.4021 56.6597C47.2599 56.2786 48.0922 55.8422 48.8935 55.3532C49.6997 54.8485 50.4712 54.2902 51.2026 53.6821Z" fill="#F0EEED"/>
<path d="M19.9988 31.7149L21.6395 32.3226C22.2224 30.6867 23.0524 29.1498 24.1005 27.7651L22.6725 26.7321C21.5635 28.2666 20.6643 29.9424 19.9988 31.7149Z" fill="#F0EEED"/>
<path d="M57.0969 45.3267L55.4562 44.7191C54.8732 46.3549 54.0432 47.8919 52.9951 49.2766L54.4231 50.3096C55.5322 48.7751 56.4314 47.0993 57.0969 45.3267Z" fill="#F0EEED"/>
<path d="M32.3344 55.4444C30.6986 54.8614 29.1616 54.0315 27.7769 52.9833L26.7439 54.4114C28.2784 55.5204 29.9542 56.4196 31.7268 57.0851L32.3344 55.4444Z" fill="#F0EEED"/>
<path d="M41.9051 57.9966L41.6317 56.447C39.9083 56.6898 38.1594 56.6898 36.4361 56.447L36.2842 58.1485C38.1552 58.3713 40.0488 58.3201 41.9051 57.9966Z" fill="#F0EEED"/>
<path d="M26.8045 16.9486L26.4096 18.6197C26.3728 18.6714 26.3173 18.7068 26.2548 18.7181C26.1924 18.7295 26.128 18.7159 26.0753 18.6804L24.4346 18.2854C24.3675 18.2708 24.3083 18.2314 24.2689 18.1751C24.2295 18.1188 24.2127 18.0497 24.222 17.9816L24.6169 16.3105C24.6241 16.2742 24.6385 16.2397 24.6594 16.2091C24.6803 16.1785 24.7072 16.1524 24.7385 16.1325C24.7697 16.1126 24.8047 16.0993 24.8412 16.0933C24.8778 16.0874 24.9152 16.0889 24.9512 16.0978L26.5919 16.4928C26.6454 16.4911 26.6983 16.5051 26.7439 16.5331C26.7896 16.5611 26.826 16.6019 26.8487 16.6505C26.8713 16.699 26.8792 16.7532 26.8714 16.8062C26.8635 16.8592 26.8403 16.9087 26.8045 16.9486Z" fill="#F0EEED"/>
<path d="M13.9221 37.822L15.1678 39.007C15.2149 39.062 15.2407 39.132 15.2407 39.2044C15.2407 39.2769 15.2149 39.3469 15.1678 39.4019L13.9221 40.6173C13.8993 40.6431 13.8712 40.6639 13.8398 40.678C13.8083 40.6922 13.7743 40.6996 13.7398 40.6996C13.7053 40.6996 13.6712 40.6922 13.6398 40.678C13.6083 40.6639 13.5803 40.6431 13.5575 40.6173L12.3421 39.4627C12.3155 39.4372 12.2943 39.4065 12.2798 39.3726C12.2653 39.3386 12.2578 39.3021 12.2578 39.2652C12.2578 39.2283 12.2653 39.1918 12.2798 39.1578C12.2943 39.1239 12.3155 39.0932 12.3421 39.0677L13.5271 37.8524C13.5505 37.8237 13.5795 37.8 13.6123 37.7828C13.6451 37.7657 13.6811 37.7554 13.7181 37.7525C13.755 37.7497 13.7921 37.7544 13.8272 37.7663C13.8623 37.7783 13.8945 37.7972 13.9221 37.822Z" fill="#F0EEED"/>
<path d="M25.6198 59.4854L27.2301 58.9992C27.3027 58.979 27.3801 58.9865 27.4475 59.0202C27.5149 59.0539 27.5673 59.1114 27.5947 59.1815L28.0808 60.8222C28.0998 60.8907 28.0914 60.9639 28.0574 61.0263C28.0234 61.0887 27.9664 61.1354 27.8985 61.1565L26.2578 61.6426C26.217 61.635 26.1788 61.617 26.1469 61.5904C26.115 61.5638 26.0904 61.5295 26.0755 61.4907L25.5894 59.85C25.5485 59.7962 25.529 59.7292 25.5346 59.6618C25.5402 59.5945 25.5706 59.5317 25.6198 59.4854Z" fill="#F0EEED"/>
<path d="M50.3822 60.2145L50.7772 58.5434C50.7834 58.5074 50.7978 58.4732 50.8191 58.4434C50.8404 58.4137 50.8681 58.3891 50.9003 58.3716C50.9324 58.3541 50.9681 58.344 51.0046 58.3422C51.0412 58.3404 51.0777 58.3469 51.1114 58.3611L52.7521 58.7561C52.8192 58.7708 52.8784 58.8102 52.9178 58.8665C52.9572 58.9228 52.974 58.9919 52.9648 59.06L52.5698 60.731C52.5627 60.7674 52.5482 60.8019 52.5273 60.8325C52.5064 60.8631 52.4795 60.8891 52.4483 60.909C52.417 60.9289 52.3821 60.9423 52.3455 60.9482C52.3089 60.9542 52.2715 60.9527 52.2356 60.9437L50.3822 60.5487C50.3452 60.5009 50.3252 60.4421 50.3252 60.3816C50.3252 60.3212 50.3452 60.2624 50.3822 60.2145Z" fill="#F0EEED"/>
<path d="M63.1736 39.2196L61.9279 38.0347C61.8808 37.9796 61.855 37.9096 61.855 37.8372C61.855 37.7647 61.8808 37.6947 61.9279 37.6397L63.1129 36.4243C63.1357 36.3985 63.1637 36.3778 63.1952 36.3636C63.2266 36.3494 63.2607 36.342 63.2952 36.342C63.3297 36.342 63.3638 36.3494 63.3952 36.3636C63.4266 36.3778 63.4547 36.3985 63.4775 36.4243L64.7232 37.6093C64.7498 37.6348 64.7711 37.6655 64.7855 37.6994C64.8 37.7334 64.8075 37.7699 64.8075 37.8068C64.8075 37.8437 64.8 37.8802 64.7855 37.9141C64.7711 37.9481 64.7498 37.9787 64.7232 38.0043L63.5382 39.2196C63.4881 39.2644 63.4232 39.2892 63.3559 39.2892C63.2887 39.2892 63.2238 39.2644 63.1736 39.2196Z" fill="#F0EEED"/>
<path d="M51.4456 17.5259L49.8353 18.012C49.7627 18.0322 49.6853 18.0248 49.6179 17.9911C49.5505 17.9574 49.4981 17.8999 49.4707 17.8297L48.9846 16.189C48.9656 16.1205 48.974 16.0473 49.008 15.985C49.042 15.9226 49.099 15.8759 49.1669 15.8548L50.8076 15.3686C50.8413 15.3544 50.8778 15.3479 50.9143 15.3497C50.9509 15.3515 50.9866 15.3616 51.0187 15.3791C51.0508 15.3966 51.0786 15.4212 51.0999 15.4509C51.1212 15.4807 51.1355 15.5149 51.1418 15.5509L51.6279 17.1916C51.6469 17.2601 51.6385 17.3333 51.6045 17.3957C51.5705 17.4581 51.5135 17.5048 51.4456 17.5259Z" fill="#F0EEED"/>
<g style="mix-blend-mode:multiply">
<path d="M55.3652 28.1601C57.4188 31.4912 58.4382 35.3565 58.2944 39.2671C58.1506 43.1777 56.85 46.9578 54.5573 50.129C52.2645 53.3002 49.0826 55.7201 45.4142 57.0825C41.7457 58.4448 37.7556 58.6884 33.9487 57.7824C30.1418 56.8764 26.6892 54.8615 24.0277 51.9927C21.3662 49.1239 19.6155 45.5302 18.9971 41.6661C18.3787 37.802 18.9203 33.8414 20.5535 30.2852C22.1867 26.7291 24.838 23.7373 28.172 21.6884C32.6372 18.9444 38.009 18.0846 43.1076 19.298C48.2062 20.5115 52.6148 23.6988 55.3652 28.1601Z" fill="url(#paint21_radial_357_1709)"/>
<path opacity="0.89" d="M55.3044 28.1905C57.3446 31.5063 58.356 35.3525 58.2106 39.243C58.0652 43.1335 56.7697 46.8936 54.4878 50.0479C52.2058 53.2023 49.0399 55.6093 45.3903 56.9647C41.7406 58.3201 37.7711 58.563 33.9834 57.6628C30.1957 56.7626 26.7599 54.7596 24.1103 51.9071C21.4607 49.0546 19.7164 45.4806 19.0976 41.6368C18.4789 37.7931 19.0137 33.8522 20.6343 30.3123C22.2549 26.7725 24.8886 23.7925 28.2024 21.7492C32.652 19.015 38.0045 18.1577 43.0855 19.3653C48.1664 20.5728 52.5608 23.7467 55.3044 28.1905Z" fill="url(#paint22_radial_357_1709)"/>
<path opacity="0.78" d="M55.2435 28.2208C57.2799 31.5256 58.2906 35.36 58.1479 39.2391C58.0051 43.1183 56.7154 46.868 54.4416 50.0142C52.1679 53.1603 49.0124 55.5617 45.374 56.9145C41.7355 58.2674 37.7777 58.511 34.0008 57.6146C30.224 56.7181 26.7977 54.722 24.1553 51.8784C21.5129 49.0348 19.773 45.4716 19.1556 41.6392C18.5382 37.8068 19.0711 33.8775 20.6867 30.3479C22.3024 26.8183 24.9284 23.8471 28.2327 21.8099C32.6666 19.0857 37.9999 18.2307 43.0632 19.4325C48.1265 20.6342 52.5067 23.7946 55.2435 28.2208Z" fill="url(#paint23_radial_357_1709)"/>
<path opacity="0.67" d="M55.1828 28.2816C57.2093 31.571 58.215 35.3874 58.0728 39.2483C57.9305 43.1092 56.6467 46.8413 54.3837 49.9726C52.1206 53.104 48.9799 55.494 45.3586 56.8406C41.7373 58.1872 37.7981 58.4298 34.0389 57.5378C30.2798 56.6458 26.8695 54.6592 24.2393 51.8292C21.6091 48.9993 19.877 45.453 19.262 41.6387C18.6471 37.8244 19.1769 33.9134 20.7844 30.4002C22.392 26.887 25.0051 23.9293 28.2934 21.9011C30.4766 20.5498 32.9051 19.6428 35.4396 19.2322C37.9741 18.8215 40.5648 18.9153 43.0629 19.5081C45.5611 20.1009 47.9177 21.181 49.9975 22.6866C52.0773 24.1922 53.8394 26.0935 55.1828 28.2816Z" fill="url(#paint24_radial_357_1709)"/>
<path opacity="0.56" d="M55.0917 28.312C57.1084 31.586 58.1091 35.3844 57.9674 39.2271C57.8257 43.0698 56.5478 46.7841 54.2954 49.9007C52.043 53.0172 48.9171 55.396 45.313 56.7363C41.7088 58.0766 37.7882 58.3182 34.0468 57.4306C30.3053 56.543 26.911 54.5661 24.293 51.7497C21.6749 48.9333 19.9506 45.4039 19.3381 41.6078C18.7256 37.8116 19.2524 33.919 20.8518 30.4221C22.4512 26.9253 25.0515 23.9811 28.3239 21.9619C30.4982 20.6202 32.9155 19.7202 35.4378 19.3132C37.9601 18.9063 40.5378 19.0003 43.0237 19.5901C45.5096 20.1798 47.8549 21.2536 49.9256 22.7502C51.9963 24.2467 53.7518 26.1367 55.0917 28.312Z" fill="url(#paint25_radial_357_1709)"/>
<path opacity="0.44" d="M55.031 28.3424C57.0439 31.6053 58.044 35.3919 57.9049 39.2232C57.7658 43.0545 56.4937 46.7586 54.2495 49.867C52.0053 52.9753 48.8898 55.3484 45.2969 56.6862C41.704 58.0239 37.7951 58.2662 34.0645 57.3824C30.3339 56.4986 26.9491 54.5284 24.3382 51.721C21.7273 48.9136 20.0076 45.395 19.3964 41.6102C18.7852 37.8254 19.31 33.9443 20.9045 30.4577C22.499 26.9712 25.0916 24.0358 28.3544 22.0227C30.5209 20.6859 32.9296 19.789 35.4428 19.3832C37.9559 18.9773 40.5245 19.0705 43.0016 19.6573C45.4788 20.2442 47.8161 21.3132 49.8802 22.8034C51.9442 24.2936 53.6944 26.1758 55.031 28.3424Z" fill="url(#paint26_radial_357_1709)"/>
<path opacity="0.33" d="M54.9701 28.3728C56.9791 31.6246 57.9786 35.3993 57.8422 39.2193C57.7057 43.0392 56.4394 46.7329 54.2034 49.8331C51.9674 52.9333 48.8622 55.3008 45.2805 56.636C41.6989 57.9711 37.8017 58.2141 34.082 57.3341C30.3622 56.4541 26.987 54.4907 24.3833 51.6923C21.7795 48.8938 20.0642 45.386 19.4544 41.6125C18.8445 37.8391 19.3674 33.9695 20.957 30.4933C22.5466 27.0171 25.1315 24.0904 28.3846 22.0834C30.5423 20.7475 32.9423 19.8505 35.4472 19.4436C37.9521 19.0367 40.5127 19.128 42.9822 19.7123C45.4518 20.2965 47.7818 21.3622 49.8389 22.8483C51.896 24.3344 53.6397 26.2117 54.9701 28.3728Z" fill="url(#paint27_radial_357_1709)"/>
<path opacity="0.22" d="M54.9095 28.4336C56.9041 31.6724 57.8936 35.4299 57.7528 39.2311C57.6119 43.0322 56.3471 46.7062 54.1183 49.7886C51.8894 52.8709 48.7966 55.2231 45.231 56.5478C41.6654 57.8724 37.787 58.11 34.0863 57.2305C30.3856 56.351 27.0288 54.3939 24.4404 51.6067C21.852 48.8195 20.1482 45.3273 19.5444 41.5718C18.9406 37.8163 19.464 33.9661 21.0484 30.508C22.6328 27.0499 25.207 24.1393 28.4455 22.1442C30.5949 20.8153 32.9855 19.9238 35.4802 19.5207C37.9749 19.1176 40.5246 19.2109 42.9831 19.7952C45.4417 20.3795 47.7607 21.4433 49.8073 22.9257C51.8539 24.408 53.5877 26.2797 54.9095 28.4336Z" fill="url(#paint28_radial_357_1709)"/>
<path opacity="0.11" d="M54.8485 28.4639C56.8394 31.6916 57.8282 35.4373 57.69 39.2271C57.5518 43.0169 56.2928 46.6806 54.0722 49.7548C51.8515 52.8289 48.7691 55.1755 45.2147 56.4976C41.6603 57.8197 37.7936 58.058 34.1038 57.1823C30.4139 56.3066 27.0667 54.3562 24.4854 51.578C21.9042 48.7997 20.2048 45.3183 19.6024 41.5742C18.9999 37.83 19.5214 33.9913 21.1009 30.5435C22.6803 27.0958 25.2468 24.1939 28.4757 22.2049C30.6174 20.881 32.9993 19.9926 35.4849 19.5906C37.9705 19.1886 40.511 19.281 42.9608 19.8624C45.4106 20.4438 47.7217 21.5029 49.7616 22.9788C51.8015 24.4548 53.5301 26.3188 54.8485 28.4639Z" fill="url(#paint29_radial_357_1709)"/>
<path opacity="0.11" d="M54.4536 28.7069C56.4035 31.8553 57.3755 35.5114 57.2467 39.2125C57.1179 42.9135 55.8941 46.4932 53.73 49.4984C51.566 52.5036 48.5591 54.7993 45.0898 56.0949C41.6206 57.3905 37.8449 57.6278 34.2408 56.7767C30.6366 55.9257 27.3659 54.0246 24.8426 51.314C22.3193 48.6033 20.6569 45.2051 20.0657 41.5493C19.4745 37.8935 19.9812 34.1445 21.5215 30.7767C23.0618 27.409 25.5666 24.5739 28.7189 22.6303C30.806 21.3339 33.1287 20.4627 35.5535 20.0665C37.9784 19.6703 40.4576 19.757 42.8488 20.3217C45.24 20.8863 47.4961 21.9177 49.4876 23.3567C51.4791 24.7957 53.1668 26.6139 54.4536 28.7069Z" fill="url(#paint30_radial_357_1709)"/>
<path opacity="0.22" d="M54.3928 28.7373C56.3247 31.8728 57.2836 35.5106 57.1484 39.191C57.0132 42.8714 55.7899 46.429 53.6332 49.4143C51.4764 52.3996 48.4831 54.6784 45.0315 55.9628C41.5799 57.2472 37.8249 57.4795 34.2413 56.6303C30.6577 55.7811 27.4063 53.8886 24.8981 51.1919C22.3899 48.4952 20.7374 45.1154 20.1497 41.4798C19.5619 37.8442 20.0651 34.1159 21.5958 30.7662C23.1264 27.4165 25.6158 24.5958 28.7492 22.6606C30.8317 21.3746 33.1471 20.5115 35.5633 20.1209C37.9795 19.7303 40.4489 19.8197 42.8305 20.384C45.2121 20.9484 47.4591 21.9766 49.443 23.4099C51.427 24.8432 53.109 26.6535 54.3928 28.7373Z" fill="url(#paint31_radial_357_1709)"/>
<path opacity="0.33" d="M54.332 28.7981C56.2591 31.9247 57.2154 35.5527 57.08 39.2229C56.9446 42.8932 55.7236 46.4409 53.5714 49.417C51.4193 52.3931 48.4326 54.664 44.9895 55.9422C41.5464 57.2205 37.8014 57.4487 34.2285 56.5981C30.6556 55.7474 27.4154 53.856 24.9177 51.1632C22.42 48.4705 20.7772 45.0974 20.1971 41.4707C19.6171 37.8441 20.1258 34.1268 21.6589 30.7893C23.192 27.4519 25.6807 24.6441 28.8099 22.7214C33.0011 20.1463 38.043 19.3398 42.8283 20.4792C47.6135 21.6186 51.751 24.6106 54.332 28.7981Z" fill="url(#paint32_radial_357_1709)"/>
<path opacity="0.44" d="M47.1453 54.8723C56.1726 50.1188 59.6372 38.9472 54.8837 29.9198C50.1301 20.8925 38.9585 17.4279 29.9312 22.1814C20.9038 26.9349 17.4392 38.1066 22.1927 47.1339C26.9463 56.1613 38.1179 59.6259 47.1453 54.8723Z" fill="url(#paint33_radial_357_1709)"/>
<path opacity="0.56" d="M46.9926 54.8286C56.0041 50.1534 59.5195 39.0582 54.8443 30.0467C50.1692 21.0351 39.074 17.5198 30.0624 22.1949C21.0509 26.87 17.5355 37.9653 22.2107 46.9768C26.8858 55.9883 37.981 59.5037 46.9926 54.8286Z" fill="url(#paint34_radial_357_1709)"/>
<path opacity="0.67" d="M46.9075 54.7761C55.8865 50.1476 59.4133 39.1166 54.7848 30.1376C50.1564 21.1586 39.1254 17.6318 30.1464 22.2602C21.1673 26.8887 17.6405 37.9197 22.269 46.8987C26.8974 55.8777 37.9285 59.4045 46.9075 54.7761Z" fill="url(#paint35_radial_357_1709)"/>
<path opacity="0.78" d="M46.8568 54.6979C55.7975 50.105 59.3221 39.1338 54.7292 30.1932C50.1362 21.2525 39.1651 17.7279 30.2244 22.3208C21.2837 26.9137 17.7592 37.8849 22.3521 46.8256C26.945 55.7662 37.9161 59.2908 46.8568 54.6979Z" fill="url(#paint36_radial_357_1709)"/>
<path opacity="0.89" d="M46.7858 54.6341C55.6864 50.0735 59.2048 39.161 54.6442 30.2603C50.0836 21.3596 39.1711 17.8413 30.2704 22.4019C21.3697 26.9625 17.8514 37.875 22.412 46.7757C26.9726 55.6763 37.8851 59.1947 46.7858 54.6341Z" fill="url(#paint37_radial_357_1709)"/>
<path d="M53.8764 29.102C55.7435 32.1385 56.668 35.6606 56.5328 39.2227C56.3975 42.7848 55.2088 46.2267 53.1168 49.1129C51.0249 51.9992 48.1238 54.2 44.7807 55.437C41.4375 56.674 37.8026 56.8915 34.3358 56.062C30.869 55.2326 27.7262 53.3934 25.305 50.7772C22.8837 48.161 21.293 44.8854 20.7339 41.3649C20.1749 37.8444 20.6727 34.2371 22.1644 30.9996C23.6561 27.7621 26.0746 25.0398 29.1139 23.1772C33.1842 20.6828 38.0781 19.9056 42.7209 21.0165C47.3637 22.1273 51.3759 25.0354 53.8764 29.102Z" fill="url(#paint38_radial_357_1709)"/>
</g>
<path d="M53.8762 29.102C55.7433 32.1385 56.6677 35.6607 56.5325 39.2228C56.3973 42.7848 55.2085 46.2268 53.1166 49.113C51.0246 51.9993 48.1235 54.2001 44.7804 55.4371C41.4373 56.6741 37.8023 56.8916 34.3356 56.0621C30.8688 55.2326 27.7259 53.3934 25.3047 50.7773C22.8835 48.1611 21.2927 44.8855 20.7337 41.365C20.1747 37.8444 20.6725 34.2372 22.1642 30.9997C23.6559 27.7621 26.0744 25.0398 29.1137 23.1772C33.184 20.6828 38.0779 19.9057 42.7207 21.0166C47.3635 22.1274 51.3757 25.0354 53.8762 29.102Z" fill="#239B47"/>
<g style="mix-blend-mode:multiply">
<path d="M53.8764 29.102C55.7435 32.1385 56.668 35.6606 56.5328 39.2227C56.3975 42.7848 55.2088 46.2267 53.1168 49.1129C51.0249 51.9992 48.1238 54.2 44.7807 55.437C41.4375 56.674 37.8026 56.8915 34.3358 56.062C30.869 55.2326 27.7262 53.3934 25.305 50.7772C22.8837 48.161 21.293 44.8854 20.7339 41.3649C20.1749 37.8444 20.6727 34.2371 22.1644 30.9996C23.6561 27.7621 26.0746 25.0398 29.1139 23.1772C33.1842 20.6828 38.0781 19.9056 42.7209 21.0165C47.3637 22.1273 51.3759 25.0354 53.8764 29.102Z" fill="#EBEBEB"/>
<path opacity="0.95" d="M53.8764 29.1019C55.7435 32.1384 56.668 35.6606 56.5328 39.2226C56.3975 42.7847 55.2088 46.2266 53.1168 49.1129C51.0249 51.9991 48.1238 54.2 44.7807 55.437C41.4375 56.674 37.8026 56.8915 34.3358 56.062C30.869 55.2325 27.7262 53.3933 25.305 50.7771C22.8837 48.161 21.293 44.8854 20.7339 41.3648C20.1749 37.8443 20.6727 34.2371 22.1644 30.9995C23.6561 27.762 26.0746 25.0397 29.1139 23.1771C33.1863 20.6908 38.0776 19.9183 42.718 21.0286C47.3584 22.1389 51.3704 25.0416 53.8764 29.1019Z" fill="#ECECEC"/>
<path opacity="0.9" d="M53.846 29.1019C55.7071 32.1342 56.6272 35.6502 56.4899 39.2054C56.3525 42.7606 55.1639 46.1951 53.0744 49.0747C50.9849 51.9543 48.0884 54.1496 44.7511 55.3828C41.4139 56.6161 37.7859 56.8319 34.3259 56.0031C30.866 55.1742 27.7296 53.3379 25.3134 50.7264C22.8972 48.1148 21.3098 44.8454 20.7518 41.3316C20.1939 37.8178 20.6906 34.2175 22.1791 30.986C23.6675 27.7545 26.0809 25.037 29.1139 23.1772C33.1795 20.6842 38.0688 19.9079 42.7066 21.019C47.3445 22.13 51.3513 25.0374 53.846 29.1019Z" fill="#EDEDED"/>
<path opacity="0.86" d="M53.8156 29.102C55.6477 32.1413 56.538 35.6554 56.3743 39.2005C56.2106 42.7456 55 46.1626 52.8956 49.0202C50.7911 51.8777 47.8871 54.0476 44.5503 55.2559C41.2135 56.4641 37.5935 56.6565 34.1474 55.8087C30.7013 54.961 27.5836 53.1111 25.1881 50.4927C22.7927 47.8743 21.2268 44.6048 20.6882 41.0971C20.1496 37.5893 20.6626 34.0007 22.1622 30.7842C23.6618 27.5678 26.0808 24.8678 29.1139 23.0253C31.1337 21.7983 33.3758 20.982 35.7118 20.6234C38.0477 20.2647 40.4314 20.3707 42.7263 20.9353C45.0212 21.4998 47.1821 22.5118 49.085 23.9132C50.9879 25.3147 52.5955 27.0779 53.8156 29.102Z" fill="#EEEEEE"/>
<path opacity="0.81" d="M53.7853 29.1019C55.6114 32.137 56.4974 35.6449 56.3316 39.1831C56.1657 42.7212 54.9554 46.1309 52.8534 48.9818C50.7514 51.8327 47.852 53.997 44.5211 55.2015C41.1901 56.406 37.577 56.5968 34.1378 55.7497C30.6986 54.9026 27.5874 53.0556 25.1969 50.4419C22.8064 47.8281 21.2438 44.5648 20.7064 41.0638C20.1689 37.5628 20.6806 33.9811 22.177 30.7706C23.6733 27.5602 26.0872 24.865 29.114 23.0253C31.1303 21.7949 33.3703 20.976 35.7047 20.6156C38.0391 20.2551 40.4217 20.3604 42.7152 20.9253C45.0087 21.4902 47.1677 22.5036 49.0677 23.9069C50.9677 25.3103 52.571 27.0759 53.7853 29.1019Z" fill="#EFEFEF"/>
<path opacity="0.76" d="M53.7852 29.1019C55.6016 32.1327 56.4802 35.6334 56.3103 39.1627C56.1403 42.692 54.9293 46.0921 52.83 48.9342C50.7307 51.7764 47.837 53.9335 44.5137 55.1337C41.1904 56.3339 37.5861 56.5234 34.1552 55.6783C30.7243 54.8333 27.6204 52.9915 25.2346 50.3852C22.8488 47.7788 21.288 44.5245 20.7489 41.0325C20.2097 37.5404 20.7164 33.9669 22.205 30.7624C23.6936 27.5579 26.0976 24.8657 29.1138 23.0253C31.1313 21.799 33.3711 20.9833 35.7047 20.6251C38.0383 20.2668 40.4196 20.3731 42.712 20.9377C45.0044 21.5023 47.1627 22.5142 49.063 23.9153C50.9632 25.3163 52.568 27.079 53.7852 29.1019Z" fill="#F0F0F0"/>
<path opacity="0.71" d="M53.7548 29.102C55.5749 32.1326 56.4565 35.6345 56.2885 39.1657C56.1206 42.6969 54.9105 46.0993 52.811 48.9435C50.7115 51.7877 47.8166 53.9464 44.4916 55.1472C41.1666 56.348 37.5604 56.5371 34.128 55.6907C30.6957 54.8442 27.5909 53.0001 25.2054 50.3911C22.8199 47.782 21.2607 44.5249 20.7243 41.0306C20.1879 37.5363 20.6985 33.9615 22.1916 30.7571C23.6847 27.5527 26.0934 24.8622 29.1139 23.0253C31.1279 21.7957 33.3655 20.9773 35.6975 20.6172C38.0296 20.2572 40.4098 20.3628 42.7009 20.9277C44.9919 21.4927 47.1483 22.506 49.0456 23.909C50.9429 25.312 52.5434 27.077 53.7548 29.102Z" fill="#F1F1F1"/>
<path opacity="0.67" d="M53.7245 29.1019C55.5386 32.1282 56.4159 35.624 56.2458 39.1482C56.0757 42.6725 54.8658 46.0675 52.7688 48.9051C50.6718 51.7427 47.7815 53.8958 44.4624 55.0929C41.1433 56.2899 37.544 56.4774 34.1185 55.6316C30.693 54.7858 27.5946 52.9446 25.2142 50.3402C22.8337 47.7358 21.2777 44.4849 20.7424 40.9974C20.2072 37.5098 20.7166 33.9419 22.2064 30.7435C23.6962 27.5451 26.0998 24.8594 29.114 23.0252C31.1256 21.7964 33.3609 20.9785 35.6906 20.6189C38.0203 20.2592 40.3982 20.365 42.6868 20.9301C44.9753 21.4952 47.1292 22.5083 49.0237 23.911C50.9183 25.3136 52.516 27.0779 53.7245 29.1019Z" fill="#F2F2F2"/>
<path opacity="0.62" d="M53.7246 29.102C55.529 32.1241 56.3989 35.6125 56.2247 39.1279C56.0505 42.6434 54.84 46.0287 52.7457 48.8575C50.6513 51.6864 47.7667 53.8323 44.4552 55.0251C41.1437 56.2178 37.5533 56.404 34.1362 55.5603C30.719 54.7166 27.6279 52.8806 25.2522 50.2836C22.8764 47.6866 21.3221 44.4446 20.7852 40.9661C20.2482 37.4875 20.7526 33.9278 22.2346 30.7353C23.7167 27.5428 26.1103 24.8602 29.114 23.0253C31.1268 21.8005 33.362 20.9859 35.6908 20.6285C38.0197 20.271 40.3963 20.3778 42.6838 20.9426C44.9712 21.5074 47.1243 22.5191 49.0192 23.9194C50.9141 25.3198 52.5132 27.0811 53.7246 29.102Z" fill="#F3F3F3"/>
<path opacity="0.57" d="M53.694 29.1019C55.4924 32.1196 56.358 35.6019 56.1817 39.1104C56.0053 42.6189 54.7951 45.9969 52.7032 48.8191C50.6113 51.6413 47.7314 53.7816 44.4258 54.9706C41.1202 56.1597 37.5367 56.3443 34.1264 55.5012C30.7161 54.6581 27.6315 52.825 25.2607 50.2327C22.8899 47.6403 21.339 44.4046 20.8031 40.9328C20.2672 37.461 20.7704 33.9082 22.2492 30.7217C23.728 27.5352 26.1165 24.8573 29.1138 23.0253C31.1231 21.7971 33.3561 20.9798 35.6835 20.6205C38.0108 20.2613 40.3863 20.3674 42.6724 20.9325C44.9585 21.4977 47.1098 22.5107 49.0017 23.913C50.8935 25.3153 52.4884 27.079 53.694 29.1019Z" fill="#F4F4F4"/>
<path opacity="0.52" d="M53.6637 29.102C55.4561 32.1153 56.3173 35.5914 56.1389 39.093C55.9604 42.5946 54.7504 45.9652 52.661 48.7807C50.5716 51.5963 47.6962 53.731 44.3965 54.9163C41.0968 56.1016 37.5203 56.2846 34.1169 55.4421C30.7135 54.5997 27.6352 52.7695 25.2695 50.1819C22.9037 47.5942 21.356 44.3647 20.8213 40.8996C20.2865 37.4345 20.7885 33.8886 22.264 30.7081C23.7396 27.5276 26.1228 24.8546 29.1139 23.0253C31.122 21.8019 33.3525 20.9884 35.6767 20.6318C38.0009 20.2751 40.3727 20.3824 42.6552 20.9474C44.9377 21.5123 47.0857 22.5238 48.9752 23.9235C50.8646 25.3231 52.4581 27.0831 53.6637 29.102Z" fill="#F5F5F5"/>
<path opacity="0.48" d="M53.6637 29.102C55.4561 32.1153 56.3173 35.5915 56.1389 39.093C55.9604 42.5946 54.7504 45.9652 52.661 48.7808C50.5716 51.5963 47.6962 53.731 44.3965 54.9163C41.0968 56.1016 37.5203 56.2846 34.1169 55.4422C30.7135 54.5997 27.6352 52.7696 25.2695 50.1819C22.9037 47.5943 21.356 44.3647 20.8213 40.8996C20.2865 37.4345 20.7885 33.8887 22.264 30.7082C23.7396 27.5277 26.1228 24.8546 29.1139 23.0253C31.1197 21.7938 33.3505 20.9736 35.6763 20.6126C38.0022 20.2516 40.3766 20.3569 42.6614 20.9225C44.9461 21.488 47.0955 22.5024 48.9844 23.9067C50.8733 25.311 52.464 27.077 53.6637 29.102Z" fill="#F5F5F5"/>
<path opacity="0.43" d="M53.6334 28.9197C55.4474 31.9151 56.3344 35.3804 56.1829 38.879C56.0313 42.3776 54.8479 45.7532 52.7816 48.5806C50.7154 51.4079 47.8587 53.5607 44.5714 54.7677C41.2841 55.9747 37.7131 56.182 34.3082 55.3634C30.9033 54.5449 27.8167 52.7372 25.4372 50.1679C23.0577 47.5986 21.4916 44.3826 20.9362 40.925C20.3809 37.4674 20.861 33.9228 22.3162 30.7376C23.7715 27.5523 26.1367 24.8689 29.114 23.0253C31.1077 21.7907 33.3263 20.9636 35.6416 20.5917C37.9569 20.2198 40.323 20.3105 42.603 20.8586C44.883 21.4067 47.0318 22.4014 48.9251 23.785C50.8184 25.1686 52.4187 26.9138 53.6334 28.9197Z" fill="#F6F6F6"/>
<path opacity="0.38" d="M53.6029 28.9197C55.4109 31.9108 56.2936 35.3699 56.1399 38.8616C55.9862 42.3533 54.803 45.7215 52.7392 48.5423C50.6754 51.363 47.8233 53.5101 44.5419 54.7134C41.2605 55.9167 37.6964 56.1223 34.2983 55.3044C30.9003 54.4865 27.8202 52.6817 25.4456 50.117C23.0711 47.5524 21.5084 44.3426 20.9541 40.8918C20.3999 37.4409 20.8789 33.9032 22.3309 30.724C23.7828 27.5448 26.1429 24.8661 29.1139 23.0253C31.1052 21.7914 33.3215 20.9648 35.6345 20.5933C37.9475 20.2219 40.3111 20.3128 42.5887 20.861C44.8663 21.4092 47.0125 22.4038 48.9031 23.787C50.7937 25.1703 52.3911 26.9148 53.6029 28.9197Z" fill="#F7F7F7"/>
<path opacity="0.33" d="M53.603 28.8893C55.4155 31.8781 56.3033 35.3365 56.1544 38.8288C56.0055 42.3211 54.8267 45.6914 52.7664 48.5152C50.7061 51.3389 47.8563 53.49 44.576 54.6975C41.2957 55.905 37.7314 56.115 34.332 55.301C30.9326 54.487 27.85 52.6854 25.4723 50.1231C23.0947 47.5607 21.5284 44.3522 20.9705 40.9015C20.4126 37.4508 20.8881 33.9121 22.3372 30.7311C23.7863 27.5501 26.1442 24.869 29.1139 23.0253C31.1046 21.7942 33.3192 20.9691 35.6301 20.5975C37.9411 20.2259 40.3027 20.3153 42.5789 20.8603C44.8552 21.4054 47.0011 22.3954 48.8931 23.7734C50.7851 25.1513 52.3858 26.89 53.603 28.8893Z" fill="#F8F8F8"/>
<path opacity="0.29" d="M53.5725 28.8893C55.3791 31.8738 56.2624 35.326 56.1114 38.8114C55.9605 42.2969 54.7819 45.6597 52.724 48.4769C50.6661 51.294 47.8209 53.4394 44.5465 54.6432C41.272 55.847 37.7147 56.0553 34.3221 55.242C30.9296 54.4286 27.8534 52.6299 25.4808 50.0722C23.1082 47.5145 21.5451 44.3122 20.9884 40.8682C20.4316 37.4242 20.906 33.8925 22.3519 30.7175C23.7977 27.5425 26.1504 24.8662 29.1139 23.0253C31.101 21.7908 33.3134 20.963 35.6228 20.5896C37.9322 20.2163 40.2927 20.3049 42.5676 20.8503C44.8425 21.3957 46.9866 22.3871 48.8756 23.767C50.7647 25.1469 52.3611 26.888 53.5725 28.8893Z" fill="#F9F9F9"/>
<path opacity="0.24" d="M53.4206 28.8893C55.2493 31.8621 56.1558 35.3103 56.0254 38.7982C55.895 42.2861 54.7335 45.657 52.6879 48.485C50.6422 51.3129 47.8041 53.471 44.5323 54.6864C41.2604 55.9019 37.7017 56.1201 34.3059 55.3136C30.91 54.5071 27.8295 52.712 25.4536 50.1553C23.0777 47.5985 21.513 44.3947 20.9573 40.949C20.4017 37.5032 20.88 33.97 22.3317 30.796C23.7835 27.6219 26.1436 24.9495 29.1138 23.1164C31.0873 21.8938 33.2828 21.0731 35.5744 20.7015C37.8659 20.33 40.2083 20.4149 42.4669 20.9513C44.7256 21.4877 46.856 22.4651 48.7358 23.8274C50.6155 25.1896 52.2076 26.9099 53.4206 28.8893Z" fill="#FAFAFA"/>
<path opacity="0.19" d="M53.4207 28.8589C55.2487 31.8315 56.153 35.28 56.0189 38.7672C55.8847 42.2543 54.7183 45.6232 52.6673 48.4466C50.6164 51.2701 47.7734 53.4211 44.4986 54.6269C41.2238 55.8327 37.6647 56.039 34.2725 55.2198C30.8803 54.4005 27.8077 52.5926 25.4441 50.0251C23.0806 47.4575 21.5327 44.2461 20.9964 40.7978C20.4602 37.3495 20.9598 33.8196 22.432 30.6556C23.9042 27.4916 26.2827 24.836 29.2659 23.0253C33.2461 20.6095 38.0207 19.867 42.5465 20.96C47.0724 22.0531 50.9818 24.8928 53.4207 28.8589Z" fill="#FBFBFB"/>
<path opacity="0.14" d="M53.4205 28.8589C55.2521 31.8314 56.1594 35.281 56.0273 38.77C55.8952 42.259 54.7297 45.6302 52.6785 48.4557C50.6274 51.2812 47.7832 53.4338 44.5067 54.6402C41.2303 55.8467 37.6693 56.0526 34.2756 55.232C30.8819 54.4113 27.8085 52.6011 25.4453 50.0309C23.082 47.4607 21.5356 44.2464 21.0021 40.7959C20.4686 37.3454 20.9721 33.8142 22.4488 30.6503C23.9255 27.4864 26.3087 24.8325 29.2961 23.0253C33.2716 20.6109 38.0415 19.8693 42.5624 20.9625C47.0834 22.0557 50.9874 24.8948 53.4205 28.8589Z" fill="#FCFCFC"/>
<path opacity="0.1" d="M53.4206 28.8589C55.2426 31.8272 56.1425 35.2696 56.0062 38.7499C55.87 42.2301 54.7037 45.5916 52.6552 48.4084C50.6067 51.2253 47.7682 53.3706 44.4993 54.5727C41.2304 55.7748 37.6782 55.9795 34.2929 55.1608C30.9075 54.3422 27.8414 52.5371 25.4829 49.9743C23.1244 47.4114 21.5797 44.2061 21.0446 40.7646C20.5095 37.323 21.008 33.8 22.4769 30.642C23.9459 27.484 26.3192 24.8332 29.2962 23.0253C33.2696 20.6028 38.0421 19.8565 42.5655 20.9503C47.0888 22.0441 50.993 24.8886 53.4206 28.8589Z" fill="#FDFDFD"/>
<path opacity="0.05" d="M53.4206 28.8285C55.228 31.7862 56.1181 35.2132 55.9784 38.6765C55.8387 42.1399 54.6755 45.4841 52.6357 48.2866C50.596 51.089 47.7713 53.2239 44.5186 54.4215C41.2659 55.6191 37.7312 55.8256 34.3612 55.0149C30.9911 54.2043 27.9371 52.4128 25.5849 49.8669C23.2327 47.3211 21.6879 44.1351 21.1459 40.7115C20.6038 37.288 21.0888 33.7807 22.5395 30.6327C23.9902 27.4847 26.3414 24.8374 29.2962 23.0253C31.2608 21.8205 33.4436 21.0148 35.7198 20.6544C37.996 20.294 40.321 20.386 42.5617 20.925C44.8023 21.464 46.9147 22.4394 48.778 23.7956C50.6413 25.1518 52.2189 26.862 53.4206 28.8285Z" fill="#FEFEFE"/>
</g>
<path d="M50.8683 30.925C52.3542 33.3748 53.0805 36.2101 52.9556 39.0727C52.8307 41.9352 51.8602 44.6964 50.1666 47.0075C48.4729 49.3186 46.1323 51.0759 43.4403 52.0572C40.7484 53.0386 37.826 53.2 35.0424 52.521C32.2587 51.8421 29.7388 50.3533 27.801 48.2427C25.8632 46.1322 24.5944 43.4946 24.1551 40.6633C23.7157 37.8319 24.1254 34.9339 25.3325 32.3353C26.5396 29.7367 28.4898 27.5543 30.9368 26.0637C32.5642 25.0723 34.3711 24.4116 36.2542 24.1194C38.1372 23.8272 40.0594 23.9092 41.9107 24.3608C43.762 24.8123 45.5061 25.6245 47.0432 26.7509C48.5802 27.8772 49.8801 29.2957 50.8683 30.925Z" fill="#F0EEED"/>
<g style="mix-blend-mode:multiply">
<path d="M62.0798 24.028C64.9368 28.6896 66.3475 34.0937 66.1336 39.5571C65.9197 45.0204 64.0908 50.2976 60.8782 54.7217C57.6655 59.1458 53.2133 62.5181 48.0844 64.4122C42.9555 66.3063 37.3801 66.6373 32.0631 65.3633C26.7461 64.0892 21.9262 61.2674 18.2127 57.2544C14.4992 53.2415 12.0588 48.2177 11.2001 42.818C10.3414 37.4184 11.1028 31.8853 13.3882 26.9184C15.6736 21.9514 19.3803 17.7736 24.0398 14.9129C30.2943 11.0825 37.8133 9.89091 44.9457 11.5999C52.078 13.309 58.2405 17.7789 62.0798 24.028Z" fill="#E3E3E3"/>
<path opacity="0.95" d="M62.0192 23.9976C64.8642 28.6507 66.2661 34.0425 66.048 39.4921C65.8299 44.9416 64.0014 50.2042 60.7936 54.6149C57.5859 59.0257 53.1427 62.3868 48.0256 64.2734C42.9084 66.1601 37.3469 66.4878 32.0436 65.215C26.7404 63.9422 21.9333 61.1261 18.2298 57.1225C14.5264 53.1188 12.0926 48.1073 11.2361 42.7211C10.3796 37.3349 11.1388 31.8157 13.4177 26.8608C15.6967 21.9059 19.3931 17.7376 24.04 14.8826C27.1311 12.9834 30.5665 11.7125 34.1494 11.1428C37.7324 10.5731 41.3925 10.7156 44.9203 11.5623C48.4481 12.4089 51.7742 13.9431 54.7083 16.0769C57.6424 18.2107 60.1267 20.9023 62.0192 23.9976Z" fill="#E4E4E4"/>
<path opacity="0.9" d="M61.9886 23.9672C64.8311 28.6158 66.2318 34.0028 66.0136 39.4472C65.7953 44.8917 63.968 50.1493 60.7625 54.5555C57.557 58.9617 53.1172 62.3187 48.0043 64.2023C42.8914 66.0859 37.3349 66.4115 32.037 65.138C26.739 63.8644 21.9376 61.0489 18.2394 57.0473C14.5412 53.0456 12.1123 48.0375 11.2597 42.6558C10.407 37.274 11.1689 31.7604 13.4491 26.8115C15.7292 21.8627 19.4253 17.7009 24.0701 14.8522C27.1577 12.9585 30.5883 11.692 34.1657 11.1252C37.7431 10.5585 41.3972 10.7025 44.9189 11.5491C48.4406 12.3956 51.7609 13.9281 54.6899 16.0589C57.6189 18.1898 60.099 20.8771 61.9886 23.9672Z" fill="#E6E6E6"/>
<path opacity="0.86" d="M61.9582 23.9672C64.7983 28.6114 66.1977 33.9934 65.9794 39.4328C65.7611 44.8722 63.9348 50.1248 60.7316 54.5264C57.5284 58.928 53.092 62.2811 47.9833 64.1616C42.8746 66.0421 37.3231 66.3657 32.0305 65.0914C26.738 63.8171 21.9421 61.0022 18.2492 57.0025C14.5563 53.0028 12.1322 47.998 11.2834 42.6208C10.4347 37.2435 11.1993 31.7354 13.4807 26.7927C15.7621 21.85 19.4577 17.6947 24.1005 14.8522C27.1845 12.964 30.6103 11.7019 34.1822 11.1381C37.7541 10.5743 41.4021 10.7198 44.9178 11.5662C48.4335 12.4127 51.7479 13.9436 54.6718 16.0714C57.5956 18.1992 60.0716 20.8822 61.9582 23.9672Z" fill="#E7E7E7"/>
<path opacity="0.81" d="M61.928 23.9368C64.7369 28.5442 66.1198 33.8796 65.9026 39.2713C65.6855 44.6631 63.8779 49.87 60.7077 54.2366C57.5374 58.6031 53.146 61.9341 48.0865 63.8102C43.0271 65.6862 37.5256 66.0233 32.2749 64.7792C27.0242 63.535 22.259 60.7652 18.5792 56.8185C14.8994 52.8717 12.4696 47.9244 11.5957 42.5996C10.7217 37.2747 11.4427 31.8104 13.668 26.8944C15.8932 21.9785 19.5231 17.8309 24.1007 14.9737C27.1675 13.0594 30.5835 11.7723 34.151 11.1868C37.7185 10.6013 41.3667 10.729 44.8845 11.5626C48.4023 12.3961 51.7199 13.9189 54.6454 16.0429C57.5709 18.1669 60.0462 20.85 61.928 23.9368Z" fill="#E8E8E8"/>
<path opacity="0.76" d="M61.8673 23.9065C64.687 28.5135 66.0792 33.8524 65.8683 39.2498C65.6573 44.6471 63.8526 49.861 60.6818 54.2339C57.511 58.6067 53.1162 61.9426 48.0518 63.8206C42.9873 65.6987 37.4801 66.0348 32.2249 64.7866C26.9696 63.5383 22.2018 60.7617 18.5227 56.8069C14.8437 52.8521 12.4183 47.8963 11.5525 42.5647C10.6868 37.2331 11.4194 31.7645 13.658 26.8488C15.8966 21.933 19.5408 17.7904 24.1311 14.9434C27.1943 13.0435 30.603 11.7679 34.161 11.1902C37.7191 10.6124 41.3562 10.7438 44.8633 11.5768C48.3703 12.4098 51.6781 13.9279 54.5963 16.0439C57.5145 18.1599 59.9855 20.832 61.8673 23.9065Z" fill="#EAEAEA"/>
<path opacity="0.71" d="M53.13 61.4642C65.9449 53.4098 69.804 36.492 61.7497 23.6771C53.6953 10.8623 36.7775 7.00309 23.9626 15.0574C11.1478 23.1118 7.28861 40.0296 15.343 52.8445C23.3973 65.6593 40.3151 69.5185 53.13 61.4642Z" fill="#EBEBEB"/>
<path opacity="0.67" d="M52.6429 61.6466C65.5786 53.8525 69.7467 37.0478 61.9526 24.1121C54.1586 11.1765 37.3538 7.00837 24.4182 14.8024C11.4825 22.5965 7.31442 39.4012 15.1085 52.3369C22.9025 65.2725 39.7073 69.4406 52.6429 61.6466Z" fill="#ECECEC"/>
<path opacity="0.62" d="M52.1668 61.8606C65.2404 54.3339 69.737 37.634 62.2102 24.5603C54.6834 11.4867 37.9835 6.99012 24.9099 14.5169C11.8363 22.0437 7.33969 38.7436 14.8665 51.8172C22.3932 64.8908 39.0932 69.3874 52.1668 61.8606Z" fill="#EEEEEE"/>
<path opacity="0.57" d="M51.6402 62.0432C64.8416 54.8126 69.682 38.2491 62.4514 25.0476C55.2208 11.8462 38.6573 7.00582 25.4559 14.2364C12.2544 21.467 7.41404 38.0305 14.6446 51.2319C21.8752 64.4334 38.4387 69.2738 51.6402 62.0432Z" fill="#EFEFEF"/>
<path opacity="0.52" d="M51.0748 62.2472C64.422 55.3257 69.6311 38.8947 62.7096 25.5474C55.7881 12.2002 39.357 6.99115 26.0098 13.9126C12.6626 20.8341 7.45351 37.2652 14.375 50.6124C21.2965 63.9596 37.7276 69.1687 51.0748 62.2472Z" fill="#F0F0F0"/>
<path opacity="0.48" d="M50.4864 62.4874C63.9803 55.8944 69.5744 39.6108 62.9814 26.117C56.3884 12.6231 40.1048 7.02896 26.6109 13.622C13.1171 20.215 7.52294 36.4987 14.116 49.9925C20.709 63.4863 36.9926 69.0805 50.4864 62.4874Z" fill="#F2F2F2"/>
<path opacity="0.43" d="M49.8252 62.6561C63.4511 56.4206 69.4421 40.3198 63.2066 26.694C56.9711 13.0682 40.8703 7.07713 27.2445 13.3126C13.6187 19.5481 7.62763 35.6489 13.8631 49.2747C20.0986 62.9006 36.1994 68.8916 49.8252 62.6561Z" fill="#F3F3F3"/>
<path opacity="0.38" d="M49.1107 62.9308C62.8827 57.0679 69.2943 41.1507 63.4314 27.3787C57.5685 13.6067 41.6513 7.19509 27.8793 13.058C14.1073 18.9209 7.69569 34.8381 13.5586 48.6101C19.4215 62.3821 35.3387 68.7937 49.1107 62.9308Z" fill="#F4F4F4"/>
<path opacity="0.33" d="M48.4051 63.1588C62.3198 57.6889 69.1656 41.9745 63.6957 28.0598C58.2258 14.1451 42.5114 7.29921 28.5967 12.7691C14.682 18.2391 7.83611 33.9534 13.306 47.8682C18.776 61.7829 34.4904 68.6287 48.4051 63.1588Z" fill="#F6F6F6"/>
<path opacity="0.29" d="M47.6641 63.3129C61.6999 58.2597 68.9817 42.7851 63.9285 28.7493C58.8753 14.7136 43.4007 7.43174 29.3649 12.4849C15.3292 17.5381 8.04734 33.0128 13.1005 47.0485C18.1537 61.0843 33.6284 68.3661 47.6641 63.3129Z" fill="#F7F7F7"/>
<path opacity="0.24" d="M46.8592 63.5098C61.0252 58.8878 68.7621 43.6572 64.1402 29.4913C59.5182 15.3253 44.2876 7.58833 30.1217 12.2103C15.9557 16.8322 8.21875 32.0628 12.8407 46.2288C17.4626 60.3947 32.6932 68.1317 46.8592 63.5098Z" fill="#F8F8F8"/>
<path opacity="0.19" d="M46.0704 63.6664C60.3402 59.4937 68.5254 44.5431 64.3526 30.2733C60.1799 16.0036 45.2293 7.81834 30.9595 11.9911C16.6897 16.1639 8.50452 31.1145 12.6773 45.3842C16.8501 59.654 31.8007 67.8392 46.0704 63.6664Z" fill="#FAFAFA"/>
<path opacity="0.14" d="M45.2849 63.9108C59.6899 60.1981 68.3578 45.5109 64.6452 31.1058C60.9325 16.7008 46.2452 8.03287 31.8402 11.7455C17.4352 15.4581 8.76726 30.1454 12.4799 44.5505C16.1925 58.9555 30.8798 67.6234 45.2849 63.9108Z" fill="#FBFBFB"/>
<path opacity="0.1" d="M44.4003 63.9523C58.874 60.7038 67.9739 46.3371 64.7253 31.8634C61.4768 17.3897 47.1101 8.28986 32.6364 11.5384C18.1627 14.7869 9.06289 29.1536 12.3114 43.6273C15.5599 58.101 29.9266 67.2008 44.4003 63.9523Z" fill="#FCFCFC"/>
<path opacity="0.05" d="M43.529 63.9951C58.0671 61.2218 67.6043 47.1882 64.8311 32.6501C62.0578 18.112 48.0242 8.57481 33.4861 11.3481C18.948 14.1214 9.41079 28.155 12.1841 42.6931C14.9574 57.2311 28.991 66.7684 43.529 63.9951Z" fill="#FEFEFE"/>
</g>
<path style="mix-blend-mode:multiply" d="M62.0798 24.028C64.9368 28.6896 66.3475 34.0937 66.1336 39.5571C65.9197 45.0204 64.0908 50.2976 60.8782 54.7217C57.6655 59.1458 53.2133 62.5181 48.0844 64.4122C42.9555 66.3063 37.3801 66.6373 32.0631 65.3633C26.7461 64.0892 21.9262 61.2674 18.2127 57.2544C14.4992 53.2415 12.0588 48.2177 11.2001 42.818C10.3414 37.4184 11.1028 31.8853 13.3882 26.9184C15.6736 21.9514 19.3803 17.7736 24.0398 14.9129C30.2943 11.0825 37.8133 9.89091 44.9457 11.5999C52.078 13.309 58.2405 17.7789 62.0798 24.028Z" fill="url(#paint39_linear_357_1709)"/>
<g style="mix-blend-mode:screen" opacity="0.5">
<path d="M62.0798 24.028C64.9368 28.6896 66.3475 34.0937 66.1336 39.5571C65.9197 45.0204 64.0908 50.2976 60.8782 54.7217C57.6655 59.1458 53.2133 62.5181 48.0844 64.4122C42.9555 66.3063 37.3801 66.6373 32.0631 65.3633C26.7461 64.0892 21.9262 61.2674 18.2127 57.2544C14.4992 53.2415 12.0588 48.2177 11.2001 42.818C10.3414 37.4184 11.1028 31.8853 13.3882 26.9184C15.6736 21.9514 19.3803 17.7736 24.0398 14.9129C30.2943 11.0825 37.8133 9.89091 44.9457 11.5999C52.078 13.309 58.2405 17.7789 62.0798 24.028Z" fill="#BD7364"/>
<path opacity="0.95" d="M62.019 24.0887C64.8639 28.7418 66.2659 34.1337 66.0478 39.5832C65.8296 45.0327 64.0012 50.2953 60.7934 54.7061C57.5856 59.1168 53.1425 62.4779 48.0254 64.3646C42.9082 66.2512 37.3467 66.5789 32.0434 65.3061C26.7401 64.0333 21.9331 61.2172 18.2296 57.2136C14.5261 53.21 12.0924 48.1985 11.2359 42.8123C10.3794 37.4261 11.1386 31.9068 13.4175 26.9519C15.6964 21.997 19.3928 17.8287 24.0397 14.9737C27.1309 13.0745 30.5663 11.8037 34.1492 11.2339C37.7321 10.6642 41.3923 10.8067 44.92 11.6534C48.4478 12.5001 51.7739 14.0342 54.708 16.168C57.6421 18.3019 60.1265 20.9935 62.019 24.0887Z" fill="#B46E5F"/>
<path opacity="0.9" d="M61.9886 24.1494C64.8311 28.7981 66.2318 34.185 66.0136 39.6295C65.7953 45.074 63.968 50.3315 60.7625 54.7377C57.557 59.1439 53.1172 62.501 48.0043 64.3846C42.8914 66.2682 37.3349 66.5938 32.037 65.3202C26.739 64.0467 21.9376 61.2312 18.2394 57.2295C14.5412 53.2279 12.1123 48.2197 11.2597 42.838C10.407 37.4563 11.1689 31.9426 13.4491 26.9938C15.7292 22.045 19.4253 17.8832 24.0701 15.0344C27.1577 13.1407 30.5883 11.8743 34.1657 11.3075C37.7431 10.7407 41.3972 10.8847 44.9189 11.7313C48.4406 12.5779 51.7609 14.1104 54.6899 16.2412C57.6189 18.372 60.099 21.0593 61.9886 24.1494Z" fill="#AB685A"/>
<path opacity="0.86" d="M61.9583 24.2103C64.8213 28.8429 66.246 34.2206 66.0519 39.6631C65.8579 45.1055 64.0538 50.3681 60.8681 54.7851C57.6824 59.202 53.2581 62.5747 48.155 64.4765C43.052 66.3783 37.4995 66.7237 32.2 65.469C26.9006 64.2144 22.0924 61.416 18.3838 57.4279C14.6753 53.4399 12.2329 48.4415 11.3658 43.065C10.4987 37.6886 11.2459 32.1757 13.5127 27.224C15.7796 22.2723 19.4642 18.1042 24.1005 15.2472C30.3106 11.4203 37.7857 10.2148 44.884 11.8953C51.9823 13.5759 58.1233 18.0052 61.9583 24.2103Z" fill="#A26356"/>
<path opacity="0.81" d="M61.9278 24.3014C64.7174 28.9201 66.0783 34.2608 65.8391 39.6513C65.5998 45.0417 63.7712 50.2409 60.5835 54.5943C57.3957 58.9477 52.9912 62.2607 47.9246 64.1162C42.8579 65.9718 37.3555 66.2869 32.1102 65.0219C26.8648 63.757 22.1109 60.9685 18.447 57.0075C14.783 53.0465 12.3728 48.0901 11.5197 42.7622C10.6666 37.4343 11.4089 31.9731 13.6529 27.0662C15.897 22.1592 19.5426 18.0259 24.1308 15.1864C27.2056 13.2836 30.6272 12.0095 34.1976 11.4378C37.768 10.8661 41.4164 11.0082 44.9316 11.8559C48.4467 12.7036 51.7588 14.2401 54.6762 16.3764C57.5936 18.5126 60.0583 21.2063 61.9278 24.3014Z" fill="#995D51"/>
<path opacity="0.76" d="M61.8672 24.3622C64.6906 28.9691 66.0859 34.3092 65.877 39.7084C65.6681 45.1076 63.8643 50.3238 60.6933 54.6988C57.5224 59.0737 53.1264 62.4112 48.0603 64.2899C42.9942 66.1686 37.4851 66.5044 32.2283 65.2548C26.9716 64.0052 22.2029 61.2263 18.5241 57.2688C14.8453 53.3113 12.4214 48.3527 11.5584 43.0188C10.6953 37.685 11.4318 32.215 13.6748 27.2993C15.9179 22.3836 19.5669 18.2427 24.1614 15.3991C27.2235 13.5039 30.6297 12.2323 34.1846 11.6571C37.7394 11.0819 41.3729 11.2145 44.8764 12.0473C48.3798 12.8801 51.6843 14.3967 54.6001 16.5101C57.5159 18.6234 59.9855 21.2918 61.8672 24.3622Z" fill="#90584C"/>
<path opacity="0.71" d="M55.7825 60.0365C67.5189 50.5053 69.3066 33.2646 59.7755 21.5282C50.2444 9.79179 33.0037 8.00405 21.2672 17.5352C9.53084 27.0663 7.7431 44.307 17.2742 56.0434C26.8053 67.7798 44.0461 69.5676 55.7825 60.0365Z" fill="#875247"/>
<path opacity="0.67" d="M55.8921 59.8934C67.5307 50.2958 69.1853 33.0804 59.5878 21.4418C49.9902 9.80311 32.7748 8.14849 21.1362 17.7461C9.4975 27.3436 7.84288 44.559 17.4405 56.1977C27.038 67.8363 44.2534 69.491 55.8921 59.8934Z" fill="#7E4D43"/>
<path opacity="0.62" d="M56.0587 59.8072C67.6037 50.1232 69.1124 32.9138 59.4284 21.3688C49.7444 9.82379 32.535 8.31512 20.99 17.9991C9.445 27.683 7.93634 44.8925 17.6203 56.4375C27.3043 67.9825 44.5137 69.4911 56.0587 59.8072Z" fill="#75473E"/>
<path opacity="0.57" d="M56.2201 59.6136C67.6427 49.8371 68.9771 32.6518 59.2006 21.2292C49.424 9.80663 32.2388 8.47223 20.8162 18.2487C9.39362 28.0253 8.05922 45.2105 17.8357 56.6331C27.6122 68.0557 44.7975 69.3901 56.2201 59.6136Z" fill="#6C4239"/>
<path opacity="0.52" d="M56.4481 59.4447C67.7465 49.5502 68.8845 32.3701 58.9901 21.0718C49.0957 9.77352 31.9156 8.63543 20.6173 18.5298C9.31901 28.4242 8.18091 45.6043 18.0753 56.9027C27.9697 68.201 45.1498 69.3391 56.4481 59.4447Z" fill="#633C34"/>
<path opacity="0.48" d="M56.6965 59.2203C67.8483 49.1862 68.7544 32.0115 58.7203 20.8597C48.6862 9.70785 31.5115 8.80176 20.3597 18.8359C9.20784 28.87 8.30175 46.0446 18.3359 57.1965C28.37 68.3483 45.5446 69.2544 56.6965 59.2203Z" fill="#5A3730"/>
<path opacity="0.43" d="M57.0173 58.9008C67.9803 48.7098 68.6061 31.5612 58.4151 20.5983C48.2242 9.63533 31.0755 9.00951 20.1126 19.2005C9.14967 29.3914 8.52386 46.5401 18.7148 57.503C28.9058 68.4659 46.0544 69.0917 57.0173 58.9008Z" fill="#51312B"/>
<path opacity="0.38" d="M57.369 58.5545C68.1185 48.1628 68.4087 31.0245 58.0171 20.2749C47.6254 9.52533 30.4871 9.23515 19.7375 19.6268C8.98794 30.0184 8.69777 47.1568 19.0894 57.9063C29.481 68.6559 46.6194 68.9461 57.369 58.5545Z" fill="#482C26"/>
<path opacity="0.33" d="M57.6776 58.2628C68.226 47.7144 68.226 30.612 57.6776 20.0637C47.1292 9.51526 30.0269 9.51526 19.4785 20.0637C8.93007 30.612 8.93007 47.7144 19.4785 58.2628C30.0269 68.8112 47.1292 68.8112 57.6776 58.2628Z" fill="#3F2621"/>
<path opacity="0.29" d="M58.3445 57.5159C68.4745 46.588 67.8277 29.5171 56.8997 19.3871C45.9718 9.2571 28.901 9.90395 18.771 20.8319C8.64095 31.7598 9.28779 48.8306 20.2157 58.9607C31.1437 69.0907 48.2145 68.4438 58.3445 57.5159Z" fill="#36211D"/>
<path opacity="0.24" d="M59.0054 56.7621C68.6787 45.472 67.3681 28.4779 56.078 18.8046C44.788 9.13126 27.7939 10.4419 18.1205 21.7319C8.44724 33.0219 9.75785 50.0161 21.0479 59.6894C32.3379 69.3627 49.3321 68.0521 59.0054 56.7621Z" fill="#2D1B18"/>
<path opacity="0.19" d="M59.8499 55.7098C68.9171 43.9486 66.7331 27.0639 54.9719 17.9967C43.2107 8.92955 26.326 11.1135 17.2588 22.8747C8.19169 34.6359 10.3756 51.5206 22.1368 60.5878C33.898 69.6549 50.7828 67.471 59.8499 55.7098Z" fill="#241613"/>
<path opacity="0.14" d="M60.8885 54.2138C69.101 41.881 65.7609 25.2257 53.4281 17.0132C41.0953 8.80069 24.44 12.1408 16.2275 24.4736C8.01499 36.8064 11.3551 53.4617 23.6879 61.6742C36.0207 69.8867 52.676 66.5466 60.8885 54.2138Z" fill="#1B100E"/>
<path opacity="0.1" d="M62.151 52.0851C69.1722 39.0563 64.302 22.8026 51.2732 15.7814C38.2444 8.76029 21.9907 13.6305 14.9695 26.6593C7.94836 39.6881 12.8185 55.9418 25.8473 62.9629C38.8761 69.9841 55.1299 65.1139 62.151 52.0851Z" fill="#120B0A"/>
<path opacity="0.05" d="M63.4731 49.1604C68.8564 35.4099 62.0734 19.899 48.3229 14.5158C34.5724 9.1326 19.0615 15.9156 13.6783 29.6661C8.29511 43.4165 15.0781 58.9274 28.8286 64.3106C42.579 69.6939 58.0899 62.9109 63.4731 49.1604Z" fill="#090505"/>
</g>
<defs>
<radialGradient id="paint0_radial_357_1709" cx="0" cy="0" r="1" gradientUnits="userSpaceOnUse" gradientTransform="translate(38.5414 38.9692) rotate(-0.08) scale(20.205 20.205)">
<stop offset="0.66" stop-color="#090505"/>
<stop offset="0.95" stop-color="#090505"/>
<stop offset="1" stop-color="#090505"/>
</radialGradient>
<radialGradient id="paint1_radial_357_1709" cx="0" cy="0" r="1" gradientUnits="userSpaceOnUse" gradientTransform="translate(38.5501 38.9634) rotate(-0.16) scale(20.205 20.205)">
<stop offset="0.66" stop-color="#120B0A"/>
<stop offset="0.95" stop-color="#120B0A"/>
<stop offset="1" stop-color="#120B0A"/>
</radialGradient>
<radialGradient id="paint2_radial_357_1709" cx="0" cy="0" r="1" gradientUnits="userSpaceOnUse" gradientTransform="translate(38.5587 38.9289) rotate(-0.24) scale(20.1746 20.1746)">
<stop offset="0.66" stop-color="#1B100E"/>
<stop offset="0.95" stop-color="#1B100E"/>
<stop offset="1" stop-color="#1B100E"/>
</radialGradient>
<radialGradient id="paint3_radial_357_1709" cx="0" cy="0" r="1" gradientUnits="userSpaceOnUse" gradientTransform="translate(38.5317 38.9007) rotate(-0.31) scale(20.1442 20.1442)">
<stop offset="0.66" stop-color="#241613"/>
<stop offset="0.95" stop-color="#241613"/>
<stop offset="1" stop-color="#241613"/>
</radialGradient>
<radialGradient id="paint4_radial_357_1709" cx="0" cy="0" r="1" gradientUnits="userSpaceOnUse" gradientTransform="translate(38.54 38.8693) rotate(-0.39) scale(20.1138)">
<stop offset="0.66" stop-color="#2D1B18"/>
<stop offset="0.95" stop-color="#2D1B18"/>
<stop offset="1" stop-color="#2D1B18"/>
</radialGradient>
<radialGradient id="paint5_radial_357_1709" cx="0" cy="0" r="1" gradientUnits="userSpaceOnUse" gradientTransform="translate(38.5992 38.828) rotate(-0.572939) scale(20.1148 20.1148)">
<stop offset="0.66" stop-color="#36211D"/>
<stop offset="0.95" stop-color="#36211D"/>
<stop offset="1" stop-color="#36211D"/>
</radialGradient>
<radialGradient id="paint6_radial_357_1709" cx="0" cy="0" r="1" gradientUnits="userSpaceOnUse" gradientTransform="translate(38.5562 38.8422) rotate(-0.55) scale(20.0834)">
<stop offset="0.66" stop-color="#3F2621"/>
<stop offset="0.95" stop-color="#3F2621"/>
<stop offset="1" stop-color="#3F2621"/>
</radialGradient>
<radialGradient id="paint7_radial_357_1709" cx="0" cy="0" r="1" gradientUnits="userSpaceOnUse" gradientTransform="translate(38.5072 38.8404) rotate(-0.572939) scale(20.0541)">
<stop offset="0.66" stop-color="#482C26"/>
<stop offset="0.95" stop-color="#482C26"/>
<stop offset="1" stop-color="#482C26"/>
</radialGradient>
<radialGradient id="paint8_radial_357_1709" cx="0" cy="0" r="1" gradientUnits="userSpaceOnUse" gradientTransform="translate(38.4765 38.8465) rotate(-0.572939) scale(20.0237 20.0237)">
<stop offset="0.66" stop-color="#51312B"/>
<stop offset="0.95" stop-color="#51312B"/>
<stop offset="1" stop-color="#51312B"/>
</radialGradient>
<radialGradient id="paint9_radial_357_1709" cx="0" cy="0" r="1" gradientUnits="userSpaceOnUse" gradientTransform="translate(38.5489 38.7685) rotate(-0.79) scale(20.0227 20.0227)">
<stop offset="0.66" stop-color="#5A3730"/>
<stop offset="0.95" stop-color="#5A3730"/>
<stop offset="1" stop-color="#5A3730"/>
</radialGradient>
<radialGradient id="paint10_radial_357_1709" cx="0" cy="0" r="1" gradientUnits="userSpaceOnUse" gradientTransform="translate(38.5513 38.7509) rotate(-0.86) scale(19.9923 19.9923)">
<stop offset="0.66" stop-color="#633C34"/>
<stop offset="0.95" stop-color="#633C34"/>
<stop offset="1" stop-color="#633C34"/>
</radialGradient>
<radialGradient id="paint11_radial_357_1709" cx="0" cy="0" r="1" gradientUnits="userSpaceOnUse" gradientTransform="translate(38.5278 38.7012) rotate(-0.94) scale(19.9619)">
<stop offset="0.66" stop-color="#6C4239"/>
<stop offset="0.95" stop-color="#6C4239"/>
<stop offset="1" stop-color="#6C4239"/>
</radialGradient>
<radialGradient id="paint12_radial_357_1709" cx="0" cy="0" r="1" gradientUnits="userSpaceOnUse" gradientTransform="translate(38.5349 38.7134) rotate(-1.02) scale(19.9619 19.9619)">
<stop offset="0.66" stop-color="#75473E"/>
<stop offset="0.95" stop-color="#75473E"/>
<stop offset="1" stop-color="#75473E"/>
</radialGradient>
<radialGradient id="paint13_radial_357_1709" cx="0" cy="0" r="1" gradientUnits="userSpaceOnUse" gradientTransform="translate(38.5673 38.6563) rotate(-1.14576) scale(19.9355)">
<stop offset="0.66" stop-color="#7E4D43"/>
<stop offset="0.95" stop-color="#7E4D43"/>
<stop offset="1" stop-color="#7E4D43"/>
</radialGradient>
<radialGradient id="paint14_radial_357_1709" cx="0" cy="0" r="1" gradientUnits="userSpaceOnUse" gradientTransform="translate(38.5481 38.6517) rotate(-1.18) scale(19.9011)">
<stop offset="0.66" stop-color="#875247"/>
<stop offset="0.95" stop-color="#875247"/>
<stop offset="1" stop-color="#875247"/>
</radialGradient>
<radialGradient id="paint15_radial_357_1709" cx="0" cy="0" r="1" gradientUnits="userSpaceOnUse" gradientTransform="translate(38.5246 38.6392) rotate(-1.26) scale(19.8707)">
<stop offset="0.66" stop-color="#90584C"/>
<stop offset="0.95" stop-color="#90584C"/>
<stop offset="1" stop-color="#90584C"/>
</radialGradient>
<radialGradient id="paint16_radial_357_1709" cx="0" cy="0" r="1" gradientUnits="userSpaceOnUse" gradientTransform="translate(38.4427 38.6934) rotate(-1.14576) scale(19.8747)">
<stop offset="0.66" stop-color="#995D51"/>
<stop offset="0.95" stop-color="#995D51"/>
<stop offset="1" stop-color="#995D51"/>
</radialGradient>
<radialGradient id="paint17_radial_357_1709" cx="0" cy="0" r="1" gradientUnits="userSpaceOnUse" gradientTransform="translate(38.5321 38.5905) rotate(-1.41) scale(19.8404)">
<stop offset="0.66" stop-color="#A26356"/>
<stop offset="0.95" stop-color="#A26356"/>
<stop offset="1" stop-color="#A26356"/>
</radialGradient>
<radialGradient id="paint18_radial_357_1709" cx="0" cy="0" r="1" gradientUnits="userSpaceOnUse" gradientTransform="translate(38.5379 38.5821) rotate(-1.49) scale(19.81 19.81)">
<stop offset="0.66" stop-color="#AB685A"/>
<stop offset="0.95" stop-color="#AB685A"/>
<stop offset="1" stop-color="#AB685A"/>
</radialGradient>
<radialGradient id="paint19_radial_357_1709" cx="0" cy="0" r="1" gradientUnits="userSpaceOnUse" gradientTransform="translate(38.5435 38.5451) rotate(-1.57) scale(19.7796)">
<stop offset="0.66" stop-color="#B46E5F"/>
<stop offset="0.95" stop-color="#B46E5F"/>
<stop offset="1" stop-color="#B46E5F"/>
</radialGradient>
<radialGradient id="paint20_radial_357_1709" cx="0" cy="0" r="1" gradientUnits="userSpaceOnUse" gradientTransform="translate(38.5188 38.5106) rotate(-1.65) scale(19.7796)">
<stop offset="0.66" stop-color="#BD7364"/>
<stop offset="0.95" stop-color="#BD7364"/>
<stop offset="1" stop-color="#BD7364"/>
</radialGradient>
<radialGradient id="paint21_radial_357_1709" cx="0" cy="0" r="1" gradientUnits="userSpaceOnUse" gradientTransform="translate(38.5188 38.5106) rotate(-1.65) scale(19.7796)">
<stop offset="0.66" stop-color="#CFB5B0"/>
<stop offset="0.95" stop-color="#CFB5B0"/>
<stop offset="1" stop-color="#CFB5B0"/>
</radialGradient>
<radialGradient id="paint22_radial_357_1709" cx="0" cy="0" r="1" gradientUnits="userSpaceOnUse" gradientTransform="translate(38.682 38.4604) rotate(-1.71836) scale(19.6973)">
<stop offset="0.66" stop-color="#D4BDB9"/>
<stop offset="0.95" stop-color="#D4BDB9"/>
<stop offset="1" stop-color="#D4BDB9"/>
</radialGradient>
<radialGradient id="paint23_radial_357_1709" cx="0" cy="0" r="1" gradientUnits="userSpaceOnUse" gradientTransform="translate(38.5314 38.5457) rotate(-1.28) scale(19.6277)">
<stop offset="0.66" stop-color="#DAC5C2"/>
<stop offset="0.95" stop-color="#DAC5C2"/>
<stop offset="1" stop-color="#DAC5C2"/>
</radialGradient>
<radialGradient id="paint24_radial_357_1709" cx="0" cy="0" r="1" gradientUnits="userSpaceOnUse" gradientTransform="translate(38.5642 38.5044) rotate(-1.14576) scale(19.5404 19.5404)">
<stop offset="0.66" stop-color="#DFCECA"/>
<stop offset="0.95" stop-color="#DFCECA"/>
<stop offset="1" stop-color="#DFCECA"/>
</radialGradient>
<radialGradient id="paint25_radial_357_1709" cx="0" cy="0" r="1" gradientUnits="userSpaceOnUse" gradientTransform="translate(38.5458 38.5227) rotate(-0.92) scale(19.4758 19.4758)">
<stop offset="0.66" stop-color="#E4D6D3"/>
<stop offset="0.95" stop-color="#E4D6D3"/>
<stop offset="1" stop-color="#E4D6D3"/>
</radialGradient>
<radialGradient id="paint26_radial_357_1709" cx="0" cy="0" r="1" gradientUnits="userSpaceOnUse" gradientTransform="translate(38.5172 38.5434) rotate(-0.73) scale(19.3846)">
<stop offset="0.66" stop-color="#EADEDC"/>
<stop offset="0.95" stop-color="#EADEDC"/>
<stop offset="1" stop-color="#EADEDC"/>
</radialGradient>
<radialGradient id="paint27_radial_357_1709" cx="0" cy="0" r="1" gradientUnits="userSpaceOnUse" gradientTransform="translate(38.5227 38.5082) rotate(-0.55) scale(19.3239 19.3238)">
<stop offset="0.66" stop-color="#EFE6E5"/>
<stop offset="0.95" stop-color="#EFE6E5"/>
<stop offset="1" stop-color="#EFE6E5"/>
</radialGradient>
<radialGradient id="paint28_radial_357_1709" cx="0" cy="0" r="1" gradientUnits="userSpaceOnUse" gradientTransform="translate(38.6571 38.4552) rotate(-0.572939) scale(19.264)">
<stop offset="0.66" stop-color="#F4EFED"/>
<stop offset="0.95" stop-color="#F4EFED"/>
<stop offset="1" stop-color="#F4EFED"/>
</radialGradient>
<radialGradient id="paint29_radial_357_1709" cx="0" cy="0" r="1" gradientUnits="userSpaceOnUse" gradientTransform="translate(38.5281 38.4991) rotate(-0.18) scale(19.1719)">
<stop offset="0.66" stop-color="#FAF7F6"/>
<stop offset="0.95" stop-color="#FAF7F6"/>
<stop offset="1" stop-color="#FAF7F6"/>
</radialGradient>
<radialGradient id="paint30_radial_357_1709" cx="0" cy="0" r="1" gradientUnits="userSpaceOnUse" gradientTransform="translate(38.5282 38.499) rotate(-0.18) scale(18.7162 18.7162)">
<stop offset="0.66" stop-color="#FAF7F6"/>
<stop offset="0.95" stop-color="#FAF7F6"/>
<stop offset="1" stop-color="#FAF7F6"/>
</radialGradient>
<radialGradient id="paint31_radial_357_1709" cx="0" cy="0" r="1" gradientUnits="userSpaceOnUse" gradientTransform="translate(38.5586 38.5424) rotate(-0.37) scale(18.625)">
<stop offset="0.66" stop-color="#F4EFED"/>
<stop offset="0.95" stop-color="#F4EFED"/>
<stop offset="1" stop-color="#F4EFED"/>
</radialGradient>
<radialGradient id="paint32_radial_357_1709" cx="0" cy="0" r="1" gradientUnits="userSpaceOnUse" gradientTransform="translate(38.5226 38.5082) rotate(-0.55) scale(18.5643 18.5643)">
<stop offset="0.66" stop-color="#EFE6E5"/>
<stop offset="0.95" stop-color="#EFE6E5"/>
<stop offset="1" stop-color="#EFE6E5"/>
</radialGradient>
<radialGradient id="paint33_radial_357_1709" cx="0" cy="0" r="1" gradientUnits="userSpaceOnUse" gradientTransform="translate(38.559 38.3714) rotate(-0.948018) scale(18.4232)">
<stop offset="0.66" stop-color="#EADEDC"/>
<stop offset="0.95" stop-color="#EADEDC"/>
<stop offset="1" stop-color="#EADEDC"/>
</radialGradient>
<radialGradient id="paint34_radial_357_1709" cx="0" cy="0" r="1" gradientUnits="userSpaceOnUse" gradientTransform="translate(38.5146 38.5113) rotate(-0.91) scale(18.382)">
<stop offset="0.66" stop-color="#E4D6D3"/>
<stop offset="0.95" stop-color="#E4D6D3"/>
<stop offset="1" stop-color="#E4D6D3"/>
</radialGradient>
<radialGradient id="paint35_radial_357_1709" cx="0" cy="0" r="1" gradientUnits="userSpaceOnUse" gradientTransform="translate(38.5254 38.5212) rotate(-1.1) scale(18.2908)">
<stop offset="0.66" stop-color="#DFCECA"/>
<stop offset="0.95" stop-color="#DFCECA"/>
<stop offset="1" stop-color="#DFCECA"/>
</radialGradient>
<radialGradient id="paint36_radial_357_1709" cx="0" cy="0" r="1" gradientUnits="userSpaceOnUse" gradientTransform="translate(38.531 38.6236) rotate(-1.1365) scale(18.2324)">
<stop offset="0.66" stop-color="#DAC5C2"/>
<stop offset="0.95" stop-color="#DAC5C2"/>
<stop offset="1" stop-color="#DAC5C2"/>
</radialGradient>
<radialGradient id="paint37_radial_357_1709" cx="0" cy="0" r="1" gradientUnits="userSpaceOnUse" gradientTransform="translate(38.5283 38.5301) rotate(-1.46) scale(18.1085)">
<stop offset="0.66" stop-color="#D4BDB9"/>
<stop offset="0.95" stop-color="#D4BDB9"/>
<stop offset="1" stop-color="#D4BDB9"/>
</radialGradient>
<radialGradient id="paint38_radial_357_1709" cx="0" cy="0" r="1" gradientUnits="userSpaceOnUse" gradientTransform="translate(38.5188 38.5106) rotate(-1.65) scale(18.0477)">
<stop offset="0.66" stop-color="#CFB5B0"/>
<stop offset="0.95" stop-color="#CFB5B0"/>
<stop offset="1" stop-color="#CFB5B0"/>
</radialGradient>
<linearGradient id="paint39_linear_357_1709" x1="39.3148" y1="66.1481" x2="37.7226" y2="10.8732" gradientUnits="userSpaceOnUse">
<stop stop-color="#E8DDDA"/>
<stop offset="0.19" stop-color="#EEE6E4"/>
<stop offset="0.67" stop-color="#FBF8F8"/>
<stop offset="1" stop-color="white"/>
</linearGradient>
</defs>
</svg>
