<svg width="78" height="76" viewBox="0 0 78 76" fill="none" xmlns="http://www.w3.org/2000/svg">
<path d="M63.0466 24.028C65.9036 28.6896 67.3143 34.0937 67.1004 39.5571C66.8865 45.0204 65.0576 50.2976 61.845 54.7217C58.6323 59.1458 54.1801 62.5181 49.0512 64.4122C43.9223 66.3063 38.3469 66.6373 33.0299 65.3633C27.7129 64.0892 22.893 61.2674 19.1795 57.2544C15.466 53.2415 13.0256 48.2177 12.1669 42.818C11.3082 37.4184 12.0696 31.8853 14.355 26.9184C16.6404 21.9514 20.3471 17.7736 25.0066 14.9129C31.2611 11.0825 38.7801 9.89091 45.9125 11.5999C53.0448 13.309 59.2073 17.7789 63.0466 24.028Z" fill="#D30202"/>
<g style="mix-blend-mode:screen" opacity="0.5">
<path opacity="0.05" d="M56.7268 28.3727C58.8209 31.7743 59.8597 35.7203 59.7121 39.7121C59.5644 43.7039 58.2368 47.5623 55.897 50.7999C53.5573 54.0375 50.3104 56.5089 46.5666 57.9018C42.8229 59.2947 38.7502 59.5467 34.8633 58.6259C30.9763 57.7051 27.4495 55.6528 24.7286 52.7284C22.0076 49.8039 20.2145 46.1386 19.5758 42.1954C18.9372 38.2523 19.4817 34.2083 21.1405 30.5745C22.7993 26.9407 25.498 23.8802 28.8956 21.7795C31.1552 20.3825 33.6681 19.4448 36.2906 19.02C38.913 18.5953 41.5935 18.6919 44.1785 19.3043C46.7636 19.9167 49.2025 21.0329 51.3557 22.589C53.5089 24.145 55.3341 26.1105 56.7268 28.3727Z" fill="url(#paint0_radial_354_1403)"/>
<path opacity="0.1" d="M56.6964 28.3424C58.7977 31.7437 59.8427 35.692 59.6992 39.6875C59.5556 43.6829 58.2299 47.546 55.8898 50.7878C53.5497 54.0295 50.3005 56.5041 46.5535 57.8984C42.8064 59.2926 38.7299 59.5439 34.8399 58.6204C30.95 57.6968 27.4215 55.64 24.701 52.7102C21.9806 49.7804 20.1904 46.1094 19.5573 42.1618C18.9241 38.2141 19.4763 34.1674 21.144 30.5338C22.8117 26.9001 25.52 23.8429 28.9259 21.7492C31.182 20.3576 33.6902 19.4243 36.3071 19.0025C38.924 18.5807 41.5984 18.6788 44.1774 19.2911C46.7564 19.9034 49.1895 21.0179 51.3376 22.571C53.4856 24.1241 55.3066 26.0852 56.6964 28.3424Z" fill="url(#paint1_radial_354_1403)"/>
<path opacity="0.14" d="M56.666 28.3424C58.7614 31.7394 59.802 35.6816 59.6563 39.6702C59.5106 43.6588 58.185 47.5146 55.8474 50.7497C53.5098 53.9847 50.2651 56.4537 46.5239 57.8443C42.7827 59.2348 38.7131 59.4844 34.8301 58.5615C30.947 57.6386 27.4249 55.5846 24.7094 52.6594C21.994 49.7343 20.2072 46.0694 19.5751 42.1285C18.9431 38.1876 19.4942 34.1478 21.1587 30.5202C22.8232 26.8926 25.5263 23.8402 28.926 21.7492C31.1797 20.3584 33.6855 19.4256 36.3001 19.0043C38.9146 18.5829 41.5866 18.6813 44.1632 19.2936C46.7397 19.906 49.1702 21.0204 51.3156 22.5731C53.4609 24.1258 55.2791 26.0863 56.666 28.3424Z" fill="url(#paint2_radial_354_1403)"/>
<path opacity="0.19" d="M56.666 28.3424C58.7517 31.7353 59.7849 35.6702 59.635 39.6501C59.4851 43.6299 58.1588 47.476 55.8238 50.7024C53.4888 53.9287 50.2498 56.3905 46.5161 57.7766C42.7825 59.1628 38.7217 59.4111 34.847 58.4901C30.9723 57.5692 27.4575 55.5204 24.7468 52.6025C22.0361 49.6847 20.2511 46.0288 19.6175 42.0969C18.9838 38.165 19.5299 34.1334 21.1867 30.5118C22.8435 26.8901 25.5367 23.8408 28.9259 21.7492C31.1796 20.3584 33.6855 19.4256 36.3 19.0043C38.9146 18.5829 41.5866 18.6813 44.1631 19.2936C46.7397 19.906 49.1701 21.0204 51.3155 22.5731C53.4609 24.1258 55.2791 26.0863 56.666 28.3424Z" fill="url(#paint3_radial_354_1403)"/>
<path opacity="0.24" d="M56.6357 28.312C58.7236 31.698 59.7605 35.6272 59.6154 39.6026C59.4702 43.578 58.1496 47.4211 55.8203 50.6459C53.4911 53.8708 50.2579 56.3325 46.5296 57.7198C42.8013 59.1071 38.7453 59.3578 34.8746 58.44C31.0038 57.5222 27.4922 55.4773 24.7836 52.5638C22.0751 49.6503 20.2913 45.999 19.6578 42.0717C19.0243 38.1444 19.5696 34.1175 21.2248 30.5001C22.8799 26.8827 25.5705 23.8374 28.9564 21.7491C33.4992 18.9568 38.9639 18.0796 44.1524 19.3098C49.341 20.54 53.8301 23.7773 56.6357 28.312Z" fill="url(#paint4_radial_354_1403)"/>
<path opacity="0.29" d="M56.6357 28.312C58.7236 31.6981 59.7605 35.6272 59.6154 39.6026C59.4702 43.578 58.1496 47.4211 55.8203 50.646C53.4911 53.8708 50.2579 56.3325 46.5296 57.7198C42.8013 59.1072 38.7453 59.3578 34.8746 58.44C31.0038 57.5223 27.4922 55.4773 24.7836 52.5638C22.0751 49.6503 20.2913 45.999 19.6578 42.0718C19.0243 38.1445 19.5696 34.1175 21.2248 30.5001C22.8799 26.8828 25.5705 23.8374 28.9564 21.7492C31.2047 20.3625 33.7042 19.4323 36.312 19.0117C38.9199 18.591 41.585 18.6882 44.1553 19.2976C46.7256 19.907 49.1507 21.0168 51.2921 22.5635C53.4335 24.1102 55.2492 26.0635 56.6357 28.312Z" fill="url(#paint5_radial_354_1403)"/>
<path opacity="0.33" d="M56.6052 28.312C58.6908 31.6937 59.7264 35.6179 59.5812 39.5883C59.436 43.5586 58.1164 47.3967 55.7894 50.617C53.4625 53.8372 50.2326 56.2949 46.5086 57.6792C42.7845 59.0635 38.7335 59.3121 34.8682 58.3936C31.0028 57.475 27.4967 55.4307 24.7934 52.5191C22.0901 49.6076 20.3111 45.9597 19.6815 42.0369C19.0519 38.114 19.6 34.0926 21.2563 30.4814C22.9127 26.8701 25.6029 23.8312 28.9867 21.7492C33.5202 18.9598 38.9755 18.0843 44.1542 19.3148C49.3328 20.5454 53.8112 23.7815 56.6052 28.312Z" fill="url(#paint6_radial_354_1403)"/>
<path opacity="0.38" d="M56.575 28.2816C58.6591 31.6566 59.6954 35.5739 59.5529 39.538C59.4104 43.502 58.0955 47.3348 55.7744 50.5514C53.4534 53.7681 50.2305 56.2241 46.5135 57.6089C42.7964 58.9937 38.7522 59.245 34.8923 58.331C31.0324 57.4171 27.5303 55.3789 24.8289 52.4743C22.1275 49.5698 20.3482 45.9293 19.716 42.0134C19.0839 38.0974 19.6273 34.082 21.2775 30.4749C22.9277 26.8679 25.6106 23.8313 28.9868 21.7492C33.514 18.9667 38.9595 18.0919 44.1304 19.3163C49.3013 20.5407 53.7762 23.7645 56.575 28.2816Z" fill="url(#paint7_radial_354_1403)"/>
<path opacity="0.43" d="M56.575 28.2816C58.6591 31.6566 59.6954 35.5739 59.5529 39.538C59.4104 43.502 58.0955 47.3348 55.7744 50.5514C53.4534 53.7681 50.2305 56.2241 46.5135 57.6089C42.7964 58.9937 38.7522 59.245 34.8923 58.331C31.0324 57.4171 27.5303 55.3789 24.8289 52.4743C22.1275 49.5698 20.3482 45.9293 19.716 42.0134C19.0839 38.0974 19.6273 34.082 21.2775 30.4749C22.9277 26.8679 25.6106 23.8313 28.9868 21.7492C31.2263 20.3634 33.7172 19.4331 36.3167 19.0114C38.9163 18.5897 41.5735 18.685 44.1362 19.2918C46.6988 19.8986 49.1166 21.005 51.2511 22.5476C53.3855 24.0902 55.1947 26.0388 56.575 28.2816Z" fill="url(#paint8_radial_354_1403)"/>
<path opacity="0.48" d="M56.5445 28.2816C58.6166 31.648 59.6442 35.5531 59.4974 39.5034C59.3506 43.4536 58.0361 47.2717 55.7199 50.4751C53.4038 53.6784 50.19 56.1233 46.4847 57.5006C42.7794 58.8779 38.749 59.1259 34.9028 58.2131C31.0566 57.3004 27.5674 55.268 24.876 52.3727C22.1846 49.4774 20.412 45.8493 19.7821 41.9468C19.1522 38.0443 19.6933 34.0427 21.3371 30.4477C22.9809 26.8527 25.6535 23.8256 29.0172 21.7492C33.535 18.9697 38.9711 18.0965 44.1321 19.3213C49.2931 20.546 53.7573 23.7686 56.5445 28.2816Z" fill="url(#paint9_radial_354_1403)"/>
<path opacity="0.52" d="M56.5142 28.2512C58.6079 31.6168 59.654 35.5287 59.5195 39.4901C59.3849 43.4515 58.076 47.2834 55.7588 50.4992C53.4416 53.715 50.2209 56.1694 46.5057 57.5507C42.7905 58.932 38.7486 59.1777 34.8935 58.2568C31.0383 57.3358 27.5439 55.2897 24.8542 52.3784C22.1644 49.467 20.4008 45.8219 19.7873 41.906C19.1738 37.9901 19.7382 33.9803 21.4087 30.3859C23.0791 26.7914 25.7804 23.7747 29.1692 21.7188C33.6652 18.9727 39.0655 18.1183 44.1897 19.3424C49.3138 20.5665 53.7449 23.7695 56.5142 28.2512Z" fill="url(#paint10_radial_354_1403)"/>
<path opacity="0.57" d="M56.5142 28.2513C58.5983 31.6127 59.6369 35.5174 59.4982 39.47C59.3595 43.4227 58.0498 47.245 55.7353 50.4521C53.4207 53.6591 50.2056 56.1064 46.498 57.4833C42.7903 58.8601 38.7572 59.1046 34.9104 58.1856C31.0636 57.2667 27.5765 55.2257 24.8915 52.3217C22.2065 49.4177 20.4447 45.7815 19.8296 41.8746C19.2145 37.9677 19.7738 33.9661 21.4366 30.3775C23.0994 26.789 25.7908 23.7753 29.1691 21.7188C33.6672 18.9808 39.065 18.1309 44.1868 19.3545C49.3085 20.578 53.7394 23.7758 56.5142 28.2513Z" fill="url(#paint11_radial_354_1403)"/>
<path opacity="0.62" d="M56.4836 28.2513C58.5581 31.6085 59.5893 35.506 59.4464 39.4499C59.3036 43.3938 57.9931 47.2065 55.6812 50.4049C53.3692 53.6032 50.1598 56.0433 46.4597 57.4157C42.7596 58.7882 38.7353 59.0314 34.8969 58.1144C31.0584 57.1975 27.5785 55.1617 24.8983 52.265C22.218 49.3683 20.458 45.7411 19.8413 41.8431C19.2246 37.9451 19.7789 33.9518 21.4341 30.3692C23.0892 26.7866 25.7706 23.776 29.1386 21.7188C33.6366 18.9808 39.0344 18.1309 44.1562 19.3545C49.278 20.578 53.7088 23.7758 56.4836 28.2513Z" fill="url(#paint12_radial_354_1403)"/>
<path opacity="0.67" d="M56.4534 28.2208C58.5325 31.5757 59.5687 35.4724 59.4307 39.4169C59.2927 43.3613 57.9867 47.1761 55.6783 50.3775C53.3699 53.5789 50.1629 56.0229 46.4639 57.3996C42.7649 58.7764 38.7405 59.0239 34.9006 58.1109C31.0608 57.1979 27.5785 55.1654 24.8951 52.271C22.2117 49.3767 20.448 45.7508 19.8276 41.853C19.2072 37.9551 19.758 33.9609 21.4103 30.3765C23.0625 26.792 25.7417 23.7788 29.1083 21.7188C33.6006 18.9699 38.9983 18.1108 44.1221 19.3291C49.2458 20.5475 53.6791 23.7442 56.4534 28.2208Z" fill="url(#paint13_radial_354_1403)"/>
<path opacity="0.71" d="M56.4534 28.2209C58.5228 31.5716 59.5516 35.4611 59.4094 39.3968C59.2673 43.3325 57.9605 47.1376 55.6547 50.3303C53.3489 53.523 50.1476 55.9597 46.4561 57.3321C42.7647 58.7045 38.749 58.9507 34.9176 58.0397C31.0861 57.1286 27.6111 55.1013 24.9324 52.2142C22.2537 49.3272 20.4919 45.7103 19.8699 41.8215C19.2479 37.9326 19.7937 33.9466 21.4383 30.3681C23.0828 26.7896 25.7521 23.7795 29.1083 21.7188C33.5985 18.9619 38.9988 18.0981 44.125 19.317C49.2511 20.5359 53.6846 23.7379 56.4534 28.2209Z" fill="url(#paint14_radial_354_1403)"/>
<path opacity="0.76" d="M56.4229 28.1905C58.4873 31.5348 59.5137 35.4161 59.3722 39.3437C59.2307 43.2713 57.9277 47.0687 55.6279 50.2557C53.3282 53.4427 50.135 55.8762 46.4522 57.2484C42.7695 58.6206 38.7625 58.8699 34.938 57.9648C31.1135 57.0597 27.6433 55.0408 24.9663 52.1634C22.2892 49.286 20.5256 45.6794 19.8983 41.7997C19.271 37.9199 19.8083 33.9413 21.4423 30.3669C23.0762 26.7926 25.7334 23.783 29.0779 21.7188C33.5644 18.9592 38.962 18.0907 44.0878 19.3038C49.2135 20.5169 53.6493 23.7126 56.4229 28.1905Z" fill="url(#paint15_radial_354_1403)"/>
<path opacity="0.81" d="M56.3926 28.1905C58.4474 31.5306 59.4663 35.4047 59.3206 39.3235C59.1749 43.2423 57.8712 47.0301 55.574 50.2084C53.2769 53.3866 50.0894 55.8129 46.4141 57.1807C42.7389 58.5485 38.7407 58.7965 34.9246 57.8934C31.1085 56.9902 27.6456 54.9764 24.9733 52.1064C22.301 49.2363 20.5392 45.6387 19.9103 41.768C19.2815 37.8972 19.8138 33.9269 21.4401 30.3584C23.0664 26.79 25.7136 23.7836 29.0476 21.7188C31.2669 20.3443 33.7356 19.4214 36.3123 19.0027C38.889 18.5841 41.523 18.6781 44.0633 19.2793C46.6036 19.8805 49.0002 20.9771 51.116 22.5063C53.2317 24.0354 55.0248 25.9671 56.3926 28.1905Z" fill="url(#paint16_radial_354_1403)"/>
<path opacity="0.86" d="M56.3926 28.1905C58.4474 31.5306 59.4663 35.4047 59.3206 39.3235C59.1749 43.2423 57.8712 47.0301 55.574 50.2084C53.2769 53.3866 50.0894 55.8129 46.4141 57.1807C42.7389 58.5485 38.7407 58.7965 34.9246 57.8934C31.1085 56.9902 27.6456 54.9764 24.9733 52.1064C22.301 49.2363 20.5392 45.6387 19.9103 41.768C19.2815 37.8972 19.8138 33.9269 21.4401 30.3584C23.0664 26.79 25.7136 23.7836 29.0476 21.7188C31.2669 20.3443 33.7356 19.4214 36.3123 19.0027C38.889 18.5841 41.523 18.6781 44.0633 19.2793C46.6036 19.8805 49.0002 20.9771 51.116 22.5063C53.2317 24.0354 55.0248 25.9671 56.3926 28.1905Z" fill="url(#paint17_radial_354_1403)"/>
<path opacity="0.9" d="M56.3623 28.16C58.412 31.4937 59.4284 35.3597 59.2834 39.2703C59.1383 43.181 57.8382 46.9611 55.5472 50.1337C53.2561 53.3063 50.0767 55.7292 46.4102 57.0968C42.7436 58.4645 38.7541 58.7155 34.945 57.8182C31.1359 56.921 27.6778 54.9157 25.0072 52.0553C22.3365 49.1949 20.5729 45.6075 19.9388 41.7459C19.3047 37.8843 19.8285 33.9214 21.4442 30.3571C23.0599 26.7929 25.6951 23.787 29.0172 21.7188C31.2324 20.3349 33.6997 19.4035 36.2768 18.9783C38.8539 18.5531 41.4896 18.6425 44.032 19.2413C46.5743 19.8402 48.9728 20.9367 51.0892 22.4674C53.2055 23.9982 54.9977 25.933 56.3623 28.16Z" fill="url(#paint18_radial_354_1403)"/>
<path opacity="0.95" d="M56.3318 28.1601C58.3673 31.4918 59.3712 35.3514 59.2171 39.2527C59.063 43.154 57.7578 46.9224 55.4659 50.0832C53.1739 53.244 49.9978 55.6558 46.3377 57.0148C42.6775 58.3738 38.697 58.6191 34.8976 57.7199C31.0983 56.8208 27.65 54.8173 24.9872 51.9619C22.3244 49.1064 20.5663 45.5269 19.9342 41.674C19.3022 37.8212 19.8245 33.8675 21.4355 30.311C23.0464 26.7545 25.6738 23.7543 28.9867 21.6884C31.2037 20.3059 33.6727 19.3763 36.251 18.9533C38.8292 18.5304 41.4658 18.6224 44.0083 19.2241C46.5508 19.8259 48.9489 20.9254 51.0641 22.4591C53.1793 23.9929 54.9697 25.9305 56.3318 28.1601Z" fill="url(#paint19_radial_354_1403)"/>
<path d="M56.332 28.1601C58.3856 31.4912 59.405 35.3565 59.2612 39.2671C59.1174 43.1777 57.8168 46.9578 55.5241 50.129C53.2313 53.3002 50.0494 55.7201 46.381 57.0825C42.7125 58.4448 38.7224 58.6884 34.9155 57.7824C31.1086 56.8764 27.656 54.8615 24.9945 51.9927C22.333 49.1239 20.5823 45.5302 19.9639 41.6661C19.3455 37.802 19.8871 33.8414 21.5203 30.2852C23.1535 26.7291 25.8048 23.7373 29.1388 21.6884C33.604 18.9444 38.9758 18.0846 44.0744 19.298C49.173 20.5115 53.5816 23.6988 56.332 28.1601Z" fill="url(#paint20_radial_354_1403)"/>
</g>
<path d="M56.3317 28.1601C58.3854 31.4912 59.4048 35.3565 59.2609 39.2671C59.1171 43.1777 57.8166 46.9578 55.5238 50.129C53.2311 53.3002 50.0492 55.7201 46.3807 57.0825C42.7123 58.4448 38.7222 58.6884 34.9153 57.7824C31.1084 56.8764 27.6557 54.8615 24.9943 51.9927C22.3328 49.1239 20.5821 45.5302 19.9637 41.6661C19.3452 37.802 19.8869 33.8414 21.5201 30.2852C23.1533 26.7291 25.8046 23.7373 29.1386 21.6884C33.6038 18.9444 38.9755 18.0846 44.0741 19.298C49.1727 20.5115 53.5813 23.6988 56.3317 28.1601Z" fill="#D30202"/>
<path d="M31.2959 12.1177L33.3924 16.3106C33.4809 16.4751 33.6211 16.6058 33.7913 16.6827C33.9615 16.7596 34.1523 16.7783 34.3342 16.736C37.3211 16.0162 40.4246 15.9231 43.4493 16.4625C43.6384 16.506 43.8368 16.481 44.0093 16.392C44.1817 16.303 44.317 16.1557 44.3911 15.9764L46.1838 11.6923C41.276 10.4665 36.1257 10.6137 31.2959 12.1177Z" fill="#F0EEED"/>
<path d="M12.519 32.4442L17.1981 32.6872C17.3601 32.6784 17.5158 32.6217 17.6456 32.5244C17.7754 32.427 17.8734 32.2934 17.9273 32.1403C18.8313 29.1869 20.3422 26.4548 22.3633 24.1191C22.4817 23.973 22.5463 23.7907 22.5463 23.6026C22.5463 23.4145 22.4817 23.2322 22.3633 23.0861L19.5984 19.3185C16.0784 22.9609 13.6291 27.502 12.519 32.4442Z" fill="#F0EEED"/>
<path d="M20.7529 58.8473L23.3051 54.9279C23.4235 54.7818 23.4881 54.5994 23.4881 54.4114C23.4881 54.2233 23.4235 54.0409 23.3051 53.8948C21.2065 51.6738 19.5833 49.0477 18.5349 46.1775C18.4792 45.9931 18.3603 45.8342 18.1992 45.7287C18.0382 45.6232 17.8451 45.5777 17.6538 45.6002L13.0051 46.1471C14.3818 51.0076 17.0609 55.3993 20.7529 58.8473Z" fill="#F0EEED"/>
<path d="M47.7031 64.924L45.6066 60.7311C45.5181 60.5667 45.3779 60.4359 45.2077 60.359C45.0374 60.2822 44.8466 60.2634 44.6647 60.3058C41.6779 61.0255 38.5743 61.1186 35.5497 60.5792C35.3606 60.5357 35.1621 60.5607 34.9897 60.6497C34.8172 60.7387 34.6819 60.886 34.6078 61.0653L32.8152 65.3494C37.723 66.5752 42.8733 66.4281 47.7031 64.924Z" fill="#F0EEED"/>
<path d="M66.5407 44.5975L61.8008 44.2936C61.6145 44.2785 61.4285 44.3275 61.2738 44.4325C61.1191 44.5375 61.0049 44.6922 60.9501 44.8709C60.0785 47.8036 58.6095 50.5242 56.6357 52.8618C56.5173 53.0079 56.4526 53.1902 56.4526 53.3783C56.4526 53.5663 56.5173 53.7487 56.6357 53.8948L59.4309 57.6623C62.9523 54.0404 65.4116 49.5212 66.5407 44.5975Z" fill="#F0EEED"/>
<path d="M58.246 18.1943L55.6938 22.1138C55.5754 22.2599 55.5107 22.4423 55.5107 22.6303C55.5107 22.8184 55.5754 23.0007 55.6938 23.1468C57.7924 25.3679 59.4156 27.994 60.464 30.8642C60.5197 31.0486 60.6385 31.2074 60.7996 31.313C60.9607 31.4185 61.1538 31.464 61.3451 31.4415L65.9937 30.8946C64.6171 26.0341 61.938 21.6424 58.246 18.1943Z" fill="#F0EEED"/>
<path d="M26.8296 23.3595L27.9234 24.6963C28.5944 24.1389 29.3053 23.6311 30.0502 23.1772C30.7872 22.7126 31.5592 22.3063 32.3594 21.9618L31.6302 20.3819C30.7723 20.763 29.9401 21.1994 29.1387 21.6884C28.3325 22.1931 27.5611 22.7514 26.8296 23.3595Z" fill="#F0EEED"/>
<path d="M36.1572 19.045L36.4307 20.7465C38.154 20.5038 39.9029 20.5038 41.6262 20.7465L41.7782 19.045C39.9145 18.7719 38.0209 18.7719 36.1572 19.045Z" fill="#F0EEED"/>
<path d="M45.6978 21.5973C47.3336 22.1802 48.8706 23.0102 50.2553 24.0583L51.3491 22.6303C49.7939 21.5271 48.0975 20.638 46.3054 19.9869L45.6978 21.5973Z" fill="#F0EEED"/>
<path d="M57.4255 40.6173L59.127 40.7693C59.3469 38.9082 59.2957 37.0251 58.9751 35.1787L57.4255 35.4218C57.6683 37.1451 57.6683 38.894 57.4255 40.6173Z" fill="#F0EEED"/>
<path d="M56.3319 28.1601C55.8272 27.3539 55.2689 26.5824 54.6608 25.851L53.324 26.9448C53.8814 27.6158 54.3892 28.3266 54.8431 29.0716C55.3077 29.8085 55.7141 30.5806 56.0585 31.3807L57.6384 30.6515C57.2573 29.7937 56.8209 28.9614 56.3319 28.1601Z" fill="#F0EEED"/>
<path d="M21.6037 36.4244L19.8718 36.2725C19.5987 38.1362 19.5987 40.0297 19.8718 41.8934L21.5733 41.6199C21.3253 39.8962 21.3355 38.1451 21.6037 36.4244Z" fill="#F0EEED"/>
<path d="M24.3382 51.1907L25.675 50.0969C25.1176 49.4258 24.6098 48.715 24.1559 47.97C23.6913 47.2331 23.2849 46.461 22.9405 45.6609L21.3606 46.3901C21.7417 47.248 22.1781 48.0802 22.6671 48.8815C23.1718 49.6877 23.7301 50.4592 24.3382 51.1907Z" fill="#F0EEED"/>
<path d="M52.1694 53.6821L51.0756 52.3453C50.4046 52.9027 49.6938 53.4105 48.9488 53.8644C48.2119 54.329 47.4398 54.7354 46.6396 55.0798L47.3688 56.6597C48.2267 56.2786 49.059 55.8422 49.8603 55.3532C50.6665 54.8485 51.438 54.2902 52.1694 53.6821Z" fill="#F0EEED"/>
<path d="M20.9656 31.7149L22.6063 32.3226C23.1892 30.6867 24.0192 29.1498 25.0673 27.7651L23.6393 26.7321C22.5302 28.2666 21.6311 29.9424 20.9656 31.7149Z" fill="#F0EEED"/>
<path d="M58.0637 45.3267L56.423 44.7191C55.84 46.3549 55.01 47.8919 53.9619 49.2766L55.3899 50.3096C56.499 48.7751 57.3982 47.0993 58.0637 45.3267Z" fill="#F0EEED"/>
<path d="M33.3012 55.4444C31.6654 54.8614 30.1284 54.0315 28.7437 52.9833L27.7107 54.4114C29.2452 55.5204 30.921 56.4196 32.6936 57.0851L33.3012 55.4444Z" fill="#F0EEED"/>
<path d="M42.8719 57.9966L42.5985 56.447C40.8751 56.6898 39.1262 56.6898 37.4029 56.447L37.251 58.1485C39.122 58.3713 41.0156 58.3201 42.8719 57.9966Z" fill="#F0EEED"/>
<path d="M27.7713 16.9486L27.3764 18.6197C27.3396 18.6714 27.2841 18.7068 27.2216 18.7181C27.1592 18.7295 27.0948 18.7159 27.0421 18.6804L25.4014 18.2854C25.3343 18.2708 25.2751 18.2314 25.2357 18.1751C25.1963 18.1188 25.1795 18.0497 25.1887 17.9816L25.5837 16.3105C25.5909 16.2742 25.6053 16.2397 25.6262 16.2091C25.6471 16.1785 25.674 16.1524 25.7052 16.1325C25.7365 16.1126 25.7715 16.0993 25.808 16.0933C25.8446 16.0874 25.882 16.0889 25.918 16.0978L27.5587 16.4928C27.6122 16.4911 27.6651 16.5051 27.7107 16.5331C27.7564 16.5611 27.7928 16.6019 27.8155 16.6505C27.8381 16.699 27.846 16.7532 27.8382 16.8062C27.8303 16.8592 27.8071 16.9087 27.7713 16.9486Z" fill="#F0EEED"/>
<path d="M14.8889 37.822L16.1346 39.007C16.1817 39.062 16.2075 39.132 16.2075 39.2044C16.2075 39.2769 16.1817 39.3469 16.1346 39.4019L14.8889 40.6173C14.8661 40.6431 14.838 40.6639 14.8066 40.678C14.7751 40.6922 14.741 40.6996 14.7066 40.6996C14.6721 40.6996 14.638 40.6922 14.6066 40.678C14.5751 40.6639 14.5471 40.6431 14.5243 40.6173L13.3089 39.4627C13.2823 39.4372 13.2611 39.4065 13.2466 39.3726C13.2321 39.3386 13.2246 39.3021 13.2246 39.2652C13.2246 39.2283 13.2321 39.1918 13.2466 39.1578C13.2611 39.1239 13.2823 39.0932 13.3089 39.0677L14.4939 37.8524C14.5173 37.8237 14.5463 37.8 14.5791 37.7828C14.6119 37.7657 14.6479 37.7554 14.6849 37.7525C14.7218 37.7497 14.7589 37.7544 14.794 37.7663C14.8291 37.7783 14.8613 37.7972 14.8889 37.822Z" fill="#F0EEED"/>
<path d="M26.5866 59.4854L28.1969 58.9992C28.2695 58.979 28.3469 58.9865 28.4143 59.0202C28.4817 59.0539 28.5341 59.1114 28.5615 59.1815L29.0476 60.8222C29.0666 60.8907 29.0582 60.9639 29.0242 61.0263C28.9902 61.0887 28.9332 61.1354 28.8653 61.1565L27.2246 61.6426C27.1838 61.635 27.1456 61.617 27.1137 61.5904C27.0818 61.5638 27.0572 61.5295 27.0423 61.4907L26.5562 59.85C26.5153 59.7962 26.4958 59.7292 26.5014 59.6618C26.507 59.5945 26.5374 59.5317 26.5866 59.4854Z" fill="#F0EEED"/>
<path d="M51.349 60.2145L51.744 58.5434C51.7502 58.5074 51.7646 58.4732 51.7859 58.4434C51.8072 58.4137 51.8349 58.3891 51.8671 58.3716C51.8992 58.3541 51.9349 58.344 51.9714 58.3422C52.008 58.3404 52.0445 58.3469 52.0782 58.3611L53.7189 58.7561C53.786 58.7708 53.8452 58.8102 53.8846 58.8665C53.924 58.9228 53.9408 58.9919 53.9316 59.06L53.5366 60.731C53.5295 60.7674 53.515 60.8019 53.4941 60.8325C53.4732 60.8631 53.4463 60.8891 53.4151 60.909C53.3838 60.9289 53.3489 60.9423 53.3123 60.9482C53.2757 60.9542 53.2383 60.9527 53.2024 60.9437L51.349 60.5487C51.312 60.5009 51.292 60.4421 51.292 60.3816C51.292 60.3212 51.312 60.2624 51.349 60.2145Z" fill="#F0EEED"/>
<path d="M64.1404 39.2196L62.8947 38.0347C62.8476 37.9796 62.8218 37.9096 62.8218 37.8372C62.8218 37.7647 62.8476 37.6947 62.8947 37.6397L64.0797 36.4243C64.1025 36.3985 64.1305 36.3778 64.162 36.3636C64.1934 36.3494 64.2275 36.342 64.262 36.342C64.2965 36.342 64.3305 36.3494 64.362 36.3636C64.3934 36.3778 64.4215 36.3985 64.4443 36.4243L65.69 37.6093C65.7166 37.6348 65.7379 37.6655 65.7523 37.6994C65.7668 37.7334 65.7743 37.7699 65.7743 37.8068C65.7743 37.8437 65.7668 37.8802 65.7523 37.9141C65.7379 37.9481 65.7166 37.9787 65.69 38.0043L64.505 39.2196C64.4549 39.2644 64.39 39.2892 64.3227 39.2892C64.2555 39.2892 64.1906 39.2644 64.1404 39.2196Z" fill="#F0EEED"/>
<path d="M52.4124 17.5259L50.8021 18.012C50.7295 18.0322 50.6521 18.0248 50.5847 17.9911C50.5173 17.9574 50.4649 17.8999 50.4375 17.8297L49.9514 16.189C49.9324 16.1205 49.9408 16.0473 49.9748 15.985C50.0088 15.9226 50.0658 15.8759 50.1337 15.8548L51.7744 15.3686C51.8081 15.3544 51.8446 15.3479 51.8811 15.3497C51.9177 15.3515 51.9534 15.3616 51.9855 15.3791C52.0176 15.3966 52.0454 15.4212 52.0667 15.4509C52.088 15.4807 52.1023 15.5149 52.1086 15.5509L52.5947 17.1916C52.6137 17.2601 52.6053 17.3333 52.5713 17.3957C52.5372 17.4581 52.4803 17.5048 52.4124 17.5259Z" fill="#F0EEED"/>
<g style="mix-blend-mode:multiply">
<path d="M56.332 28.1601C58.3856 31.4912 59.405 35.3565 59.2612 39.2671C59.1174 43.1777 57.8168 46.9578 55.5241 50.129C53.2313 53.3002 50.0494 55.7201 46.381 57.0825C42.7125 58.4448 38.7224 58.6884 34.9155 57.7824C31.1086 56.8764 27.656 54.8615 24.9945 51.9927C22.333 49.1239 20.5823 45.5302 19.9639 41.6661C19.3455 37.802 19.8871 33.8414 21.5203 30.2852C23.1535 26.7291 25.8048 23.7373 29.1388 21.6884C33.604 18.9444 38.9758 18.0846 44.0744 19.298C49.173 20.5115 53.5816 23.6988 56.332 28.1601Z" fill="url(#paint21_radial_354_1403)"/>
<path opacity="0.89" d="M56.2712 28.1905C58.3114 31.5063 59.3228 35.3525 59.1774 39.243C59.032 43.1335 57.7365 46.8936 55.4546 50.0479C53.1726 53.2023 50.0067 55.6093 46.3571 56.9647C42.7074 58.3201 38.7379 58.563 34.9502 57.6628C31.1625 56.7626 27.7267 54.7596 25.0771 51.9071C22.4275 49.0546 20.6832 45.4806 20.0644 41.6368C19.4457 37.7931 19.9805 33.8522 21.6011 30.3123C23.2217 26.7725 25.8554 23.7925 29.1692 21.7492C33.6188 19.015 38.9713 18.1577 44.0523 19.3653C49.1332 20.5728 53.5276 23.7467 56.2712 28.1905Z" fill="url(#paint22_radial_354_1403)"/>
<path opacity="0.78" d="M56.2103 28.2208C58.2467 31.5256 59.2574 35.36 59.1147 39.2391C58.9719 43.1183 57.6822 46.868 55.4084 50.0142C53.1347 53.1603 49.9792 55.5617 46.3407 56.9145C42.7023 58.2674 38.7445 58.511 34.9676 57.6146C31.1908 56.7181 27.7645 54.722 25.1221 51.8784C22.4797 49.0348 20.7398 45.4716 20.1224 41.6392C19.505 37.8068 20.0379 33.8775 21.6535 30.3479C23.2692 26.8183 25.8952 23.8471 29.1995 21.8099C33.6334 19.0857 38.9667 18.2307 44.03 19.4325C49.0933 20.6342 53.4735 23.7946 56.2103 28.2208Z" fill="url(#paint23_radial_354_1403)"/>
<path opacity="0.67" d="M56.1495 28.2816C58.1761 31.571 59.1818 35.3874 59.0396 39.2483C58.8973 43.1092 57.6135 46.8413 55.3505 49.9726C53.0874 53.104 49.9467 55.494 46.3254 56.8406C42.7041 58.1872 38.7649 58.4298 35.0057 57.5378C31.2466 56.6458 27.8363 54.6592 25.2061 51.8292C22.5759 48.9993 20.8438 45.453 20.2288 41.6387C19.6139 37.8244 20.1437 33.9134 21.7512 30.4002C23.3588 26.887 25.9719 23.9293 29.2602 21.9011C31.4434 20.5498 33.8719 19.6428 36.4064 19.2322C38.9409 18.8215 41.5316 18.9153 44.0297 19.5081C46.5279 20.1009 48.8845 21.181 50.9643 22.6866C53.0441 24.1922 54.8062 26.0935 56.1495 28.2816Z" fill="url(#paint24_radial_354_1403)"/>
<path opacity="0.56" d="M56.0585 28.312C58.0752 31.586 59.0759 35.3844 58.9342 39.2271C58.7925 43.0698 57.5146 46.7841 55.2622 49.9007C53.0098 53.0172 49.8839 55.396 46.2798 56.7363C42.6756 58.0766 38.755 58.3182 35.0136 57.4306C31.2721 56.543 27.8778 54.5661 25.2598 51.7497C22.6417 48.9333 20.9174 45.4039 20.3049 41.6078C19.6924 37.8116 20.2192 33.919 21.8186 30.4221C23.418 26.9253 26.0183 23.9811 29.2907 21.9619C31.465 20.6202 33.8823 19.7202 36.4046 19.3132C38.9269 18.9063 41.5046 19.0003 43.9905 19.5901C46.4764 20.1798 48.8217 21.2536 50.8924 22.7502C52.9631 24.2467 54.7186 26.1367 56.0585 28.312Z" fill="url(#paint25_radial_354_1403)"/>
<path opacity="0.44" d="M55.9978 28.3424C58.0107 31.6053 59.0108 35.3919 58.8717 39.2232C58.7326 43.0545 57.4605 46.7586 55.2163 49.867C52.9721 52.9753 49.8566 55.3484 46.2637 56.6862C42.6708 58.0239 38.7619 58.2662 35.0313 57.3824C31.3007 56.4986 27.9159 54.5284 25.305 51.721C22.6941 48.9136 20.9744 45.395 20.3632 41.6102C19.752 37.8254 20.2768 33.9443 21.8713 30.4577C23.4658 26.9712 26.0584 24.0358 29.3212 22.0227C31.4877 20.6859 33.8964 19.789 36.4096 19.3832C38.9227 18.9773 41.4913 19.0705 43.9684 19.6573C46.4456 20.2442 48.7829 21.3132 50.847 22.8034C52.911 24.2936 54.6612 26.1758 55.9978 28.3424Z" fill="url(#paint26_radial_354_1403)"/>
<path opacity="0.33" d="M55.9369 28.3728C57.9459 31.6246 58.9454 35.3993 58.809 39.2193C58.6725 43.0392 57.4062 46.7329 55.1702 49.8331C52.9342 52.9333 49.829 55.3008 46.2473 56.636C42.6657 57.9711 38.7685 58.2141 35.0488 57.3341C31.329 56.4541 27.9538 54.4907 25.3501 51.6923C22.7463 48.8938 21.031 45.386 20.4211 41.6125C19.8113 37.8391 20.3342 33.9695 21.9238 30.4933C23.5134 27.0171 26.0983 24.0904 29.3514 22.0834C31.5091 20.7475 33.9091 19.8505 36.414 19.4436C38.9189 19.0367 41.4795 19.128 43.949 19.7123C46.4186 20.2965 48.7486 21.3622 50.8057 22.8483C52.8628 24.3344 54.6065 26.2117 55.9369 28.3728Z" fill="url(#paint27_radial_354_1403)"/>
<path opacity="0.22" d="M55.8763 28.4336C57.8709 31.6724 58.8604 35.4299 58.7196 39.2311C58.5787 43.0322 57.3139 46.7062 55.0851 49.7886C52.8562 52.8709 49.7634 55.2231 46.1978 56.5478C42.6322 57.8724 38.7538 58.11 35.0531 57.2305C31.3524 56.351 27.9956 54.3939 25.4072 51.6067C22.8188 48.8195 21.115 45.3273 20.5112 41.5718C19.9074 37.8163 20.4308 33.9661 22.0152 30.508C23.5996 27.0499 26.1738 24.1393 29.4123 22.1442C31.5617 20.8153 33.9523 19.9238 36.447 19.5207C38.9417 19.1176 41.4914 19.2109 43.9499 19.7952C46.4085 20.3795 48.7275 21.4433 50.7741 22.9257C52.8207 24.408 54.5545 26.2797 55.8763 28.4336Z" fill="url(#paint28_radial_354_1403)"/>
<path opacity="0.11" d="M55.8153 28.4639C57.8062 31.6916 58.795 35.4373 58.6568 39.2271C58.5186 43.0169 57.2596 46.6806 55.039 49.7548C52.8183 52.8289 49.7359 55.1755 46.1815 56.4976C42.6271 57.8197 38.7604 58.058 35.0706 57.1823C31.3807 56.3066 28.0335 54.3562 25.4522 51.578C22.871 48.7997 21.1716 45.3183 20.5692 41.5742C19.9667 37.83 20.4882 33.9913 22.0677 30.5435C23.6471 27.0958 26.2136 24.1939 29.4425 22.2049C31.5842 20.881 33.9661 19.9926 36.4517 19.5906C38.9373 19.1886 41.4778 19.281 43.9276 19.8624C46.3774 20.4438 48.6885 21.5029 50.7284 22.9788C52.7683 24.4548 54.4969 26.3188 55.8153 28.4639Z" fill="url(#paint29_radial_354_1403)"/>
<path opacity="0.11" d="M55.4204 28.7069C57.3703 31.8553 58.3423 35.5114 58.2135 39.2125C58.0847 42.9135 56.8609 46.4932 54.6968 49.4984C52.5328 52.5036 49.5259 54.7993 46.0566 56.0949C42.5874 57.3905 38.8117 57.6278 35.2075 56.7767C31.6034 55.9257 28.3327 54.0246 25.8094 51.314C23.2861 48.6033 21.6237 45.2051 21.0325 41.5493C20.4413 37.8935 20.948 34.1445 22.4883 30.7767C24.0286 27.409 26.5334 24.5739 29.6857 22.6303C31.7728 21.3339 34.0955 20.4627 36.5203 20.0665C38.9452 19.6703 41.4244 19.757 43.8156 20.3217C46.2068 20.8863 48.4629 21.9177 50.4544 23.3567C52.4459 24.7957 54.1336 26.6139 55.4204 28.7069Z" fill="url(#paint30_radial_354_1403)"/>
<path opacity="0.22" d="M55.3596 28.7373C57.2915 31.8728 58.2504 35.5106 58.1152 39.191C57.98 42.8714 56.7567 46.429 54.6 49.4143C52.4432 52.3996 49.4499 54.6784 45.9983 55.9628C42.5467 57.2472 38.7917 57.4795 35.2081 56.6303C31.6245 55.7811 28.3731 53.8886 25.8649 51.1919C23.3567 48.4952 21.7042 45.1154 21.1164 41.4798C20.5287 37.8442 21.0319 34.1159 22.5626 30.7662C24.0932 27.4165 26.5826 24.5958 29.716 22.6606C31.7985 21.3746 34.1139 20.5115 36.5301 20.1209C38.9463 19.7303 41.4157 19.8197 43.7973 20.384C46.1789 20.9484 48.4259 21.9766 50.4098 23.4099C52.3938 24.8432 54.0758 26.6535 55.3596 28.7373Z" fill="url(#paint31_radial_354_1403)"/>
<path opacity="0.33" d="M55.2988 28.7981C57.2259 31.9247 58.1822 35.5527 58.0468 39.2229C57.9114 42.8932 56.6904 46.4409 54.5382 49.417C52.3861 52.3931 49.3994 54.664 45.9563 55.9422C42.5132 57.2205 38.7682 57.4487 35.1953 56.5981C31.6224 55.7474 28.3822 53.856 25.8845 51.1632C23.3868 48.4705 21.744 45.0974 21.1639 41.4707C20.5838 37.8441 21.0925 34.1268 22.6257 30.7893C24.1588 27.4519 26.6475 24.6441 29.7767 22.7214C33.9679 20.1463 39.0098 19.3398 43.795 20.4792C48.5803 21.6186 52.7178 24.6106 55.2988 28.7981Z" fill="url(#paint32_radial_354_1403)"/>
<path opacity="0.44" d="M48.1121 54.8723C57.1394 50.1188 60.604 38.9472 55.8505 29.9198C51.0969 20.8925 39.9253 17.4279 30.898 22.1814C21.8706 26.9349 18.406 38.1066 23.1595 47.1339C27.9131 56.1613 39.0847 59.6259 48.1121 54.8723Z" fill="url(#paint33_radial_354_1403)"/>
<path opacity="0.56" d="M47.9594 54.8286C56.9709 50.1534 60.4863 39.0582 55.8111 30.0467C51.136 21.0351 40.0408 17.5198 31.0292 22.1949C22.0177 26.87 18.5023 37.9653 23.1775 46.9768C27.8526 55.9883 38.9478 59.5037 47.9594 54.8286Z" fill="url(#paint34_radial_354_1403)"/>
<path opacity="0.67" d="M47.8743 54.7761C56.8533 50.1476 60.3801 39.1166 55.7516 30.1376C51.1232 21.1586 40.0921 17.6318 31.1131 22.2602C22.1341 26.8887 18.6073 37.9197 23.2358 46.8987C27.8642 55.8777 38.8953 59.4045 47.8743 54.7761Z" fill="url(#paint35_radial_354_1403)"/>
<path opacity="0.78" d="M47.8236 54.6979C56.7643 50.105 60.2889 39.1338 55.6959 30.1932C51.103 21.2525 40.1319 17.7279 31.1912 22.3208C22.2505 26.9137 18.726 37.8849 23.3189 46.8256C27.9118 55.7662 38.8829 59.2908 47.8236 54.6979Z" fill="url(#paint36_radial_354_1403)"/>
<path opacity="0.89" d="M47.7526 54.6341C56.6532 50.0735 60.1716 39.161 55.611 30.2603C51.0504 21.3596 40.1379 17.8413 31.2372 22.4019C22.3365 26.9625 18.8182 37.875 23.3788 46.7757C27.9394 55.6763 38.8519 59.1947 47.7526 54.6341Z" fill="url(#paint37_radial_354_1403)"/>
<path d="M54.8432 29.102C56.7103 32.1385 57.6348 35.6606 57.4996 39.2227C57.3643 42.7848 56.1756 46.2267 54.0836 49.1129C51.9917 51.9992 49.0906 54.2 45.7474 55.437C42.4043 56.674 38.7694 56.8915 35.3026 56.062C31.8358 55.2326 28.693 53.3934 26.2718 50.7772C23.8505 48.161 22.2598 44.8854 21.7007 41.3649C21.1417 37.8444 21.6395 34.2371 23.1312 30.9996C24.6229 27.7621 27.0414 25.0398 30.0807 23.1772C34.151 20.6828 39.0449 19.9056 43.6877 21.0165C48.3305 22.1273 52.3427 25.0354 54.8432 29.102Z" fill="url(#paint38_radial_354_1403)"/>
</g>
<path d="M54.843 29.102C56.7101 32.1385 57.6345 35.6607 57.4993 39.2228C57.3641 42.7848 56.1753 46.2268 54.0834 49.113C51.9914 51.9993 49.0903 54.2001 45.7472 55.4371C42.4041 56.6741 38.7691 56.8916 35.3023 56.0621C31.8356 55.2326 28.6927 53.3934 26.2715 50.7773C23.8503 48.1611 22.2595 44.8855 21.7005 41.365C21.1415 37.8444 21.6393 34.2372 23.131 30.9997C24.6227 27.7621 27.0412 25.0398 30.0805 23.1772C34.1508 20.6828 39.0447 19.9057 43.6875 21.0166C48.3303 22.1274 52.3425 25.0354 54.843 29.102Z" fill="#D30202"/>
<g style="mix-blend-mode:multiply">
<path d="M54.8432 29.102C56.7103 32.1385 57.6348 35.6606 57.4996 39.2227C57.3643 42.7848 56.1756 46.2267 54.0836 49.1129C51.9917 51.9992 49.0906 54.2 45.7474 55.437C42.4043 56.674 38.7694 56.8915 35.3026 56.062C31.8358 55.2326 28.693 53.3934 26.2718 50.7772C23.8505 48.161 22.2598 44.8854 21.7007 41.3649C21.1417 37.8444 21.6395 34.2371 23.1312 30.9996C24.6229 27.7621 27.0414 25.0398 30.0807 23.1772C34.151 20.6828 39.0449 19.9056 43.6877 21.0165C48.3305 22.1273 52.3427 25.0354 54.8432 29.102Z" fill="#EBEBEB"/>
<path opacity="0.95" d="M54.8432 29.1019C56.7103 32.1384 57.6348 35.6606 57.4996 39.2226C57.3643 42.7847 56.1756 46.2266 54.0836 49.1129C51.9917 51.9991 49.0906 54.2 45.7474 55.437C42.4043 56.674 38.7694 56.8915 35.3026 56.062C31.8358 55.2325 28.693 53.3933 26.2718 50.7771C23.8505 48.161 22.2598 44.8854 21.7007 41.3648C21.1417 37.8443 21.6395 34.2371 23.1312 30.9995C24.6229 27.762 27.0414 25.0397 30.0807 23.1771C34.1531 20.6908 39.0444 19.9183 43.6848 21.0286C48.3252 22.1389 52.3372 25.0416 54.8432 29.1019Z" fill="#ECECEC"/>
<path opacity="0.9" d="M54.8128 29.1019C56.6739 32.1342 57.594 35.6502 57.4567 39.2054C57.3193 42.7606 56.1307 46.1951 54.0412 49.0747C51.9517 51.9543 49.0552 54.1496 45.7179 55.3828C42.3807 56.6161 38.7527 56.8319 35.2927 56.0031C31.8328 55.1742 28.6964 53.3379 26.2802 50.7264C23.864 48.1148 22.2765 44.8454 21.7186 41.3316C21.1607 37.8178 21.6574 34.2175 23.1459 30.986C24.6343 27.7545 27.0477 25.037 30.0807 23.1772C34.1463 20.6842 39.0356 19.9079 43.6734 21.019C48.3113 22.13 52.3181 25.0374 54.8128 29.1019Z" fill="#EDEDED"/>
<path opacity="0.86" d="M54.7824 29.102C56.6145 32.1413 57.5048 35.6554 57.3411 39.2005C57.1774 42.7456 55.9668 46.1626 53.8624 49.0202C51.7579 51.8777 48.8539 54.0476 45.5171 55.2559C42.1803 56.4641 38.5602 56.6565 35.1141 55.8087C31.668 54.961 28.5504 53.1111 26.1549 50.4927C23.7595 47.8743 22.1936 44.6048 21.655 41.0971C21.1164 37.5893 21.6293 34.0007 23.129 30.7842C24.6286 27.5678 27.0476 24.8678 30.0807 23.0253C32.1005 21.7983 34.3426 20.982 36.6785 20.6234C39.0145 20.2647 41.3982 20.3707 43.6931 20.9353C45.988 21.4998 48.1489 22.5118 50.0518 23.9132C51.9547 25.3147 53.5623 27.0779 54.7824 29.102Z" fill="#EEEEEE"/>
<path opacity="0.81" d="M54.7521 29.1019C56.5782 32.137 57.4642 35.6449 57.2983 39.1831C57.1325 42.7212 55.9222 46.1309 53.8202 48.9818C51.7182 51.8327 48.8188 53.997 45.4879 55.2015C42.1569 56.406 38.5438 56.5968 35.1046 55.7497C31.6654 54.9026 28.5542 53.0556 26.1637 50.4419C23.7732 47.8281 22.2106 44.5648 21.6732 41.0638C21.1357 37.5628 21.6474 33.9811 23.1438 30.7706C24.6401 27.5602 27.054 24.865 30.0808 23.0253C32.0971 21.7949 34.3371 20.976 36.6715 20.6156C39.0059 20.2551 41.3885 20.3604 43.682 20.9253C45.9755 21.4902 48.1345 22.5036 50.0345 23.9069C51.9345 25.3103 53.5378 27.0759 54.7521 29.1019Z" fill="#EFEFEF"/>
<path opacity="0.76" d="M54.7519 29.1019C56.5684 32.1327 57.447 35.6334 57.2771 39.1627C57.1071 42.692 55.8961 46.0921 53.7968 48.9342C51.6975 51.7764 48.8038 53.9335 45.4805 55.1337C42.1572 56.3339 38.5529 56.5234 35.122 55.6783C31.6911 54.8333 28.5872 52.9915 26.2014 50.3852C23.8156 47.7788 22.2548 44.5245 21.7157 41.0325C21.1765 37.5404 21.6832 33.9669 23.1718 30.7624C24.6604 27.5579 27.0644 24.8657 30.0806 23.0253C32.0981 21.799 34.3379 20.9833 36.6715 20.6251C39.0051 20.2668 41.3864 20.3731 43.6788 20.9377C45.9712 21.5023 48.1295 22.5142 50.0298 23.9153C51.93 25.3163 53.5348 27.079 54.7519 29.1019Z" fill="#F0F0F0"/>
<path opacity="0.71" d="M54.7216 29.102C56.5417 32.1326 57.4233 35.6345 57.2553 39.1657C57.0874 42.6969 55.8773 46.0993 53.7778 48.9435C51.6783 51.7877 48.7834 53.9464 45.4584 55.1472C42.1334 56.348 38.5272 56.5371 35.0948 55.6907C31.6625 54.8442 28.5577 53.0001 26.1722 50.3911C23.7867 47.782 22.2275 44.5249 21.6911 41.0306C21.1547 37.5363 21.6653 33.9615 23.1584 30.7571C24.6515 27.5527 27.0602 24.8622 30.0807 23.0253C32.0947 21.7957 34.3323 20.9773 36.6643 20.6172C38.9964 20.2572 41.3766 20.3628 43.6677 20.9277C45.9587 21.4927 48.1151 22.506 50.0124 23.909C51.9097 25.312 53.5102 27.077 54.7216 29.102Z" fill="#F1F1F1"/>
<path opacity="0.67" d="M54.6913 29.1019C56.5054 32.1282 57.3827 35.624 57.2126 39.1482C57.0425 42.6725 55.8326 46.0675 53.7356 48.9051C51.6386 51.7427 48.7483 53.8958 45.4292 55.0929C42.11 56.2899 38.5108 56.4774 35.0853 55.6316C31.6598 54.7858 28.5614 52.9446 26.181 50.3402C23.8005 47.7358 22.2445 44.4849 21.7092 40.9974C21.174 37.5098 21.6834 33.9419 23.1732 30.7435C24.663 27.5451 27.0666 24.8594 30.0808 23.0252C32.0924 21.7964 34.3277 20.9785 36.6574 20.6189C38.9871 20.2592 41.365 20.365 43.6536 20.9301C45.9421 21.4952 48.096 22.5083 49.9905 23.911C51.8851 25.3136 53.4828 27.0779 54.6913 29.1019Z" fill="#F2F2F2"/>
<path opacity="0.62" d="M54.6914 29.102C56.4958 32.1241 57.3657 35.6125 57.1915 39.1279C57.0173 42.6434 55.8068 46.0287 53.7125 48.8575C51.6181 51.6864 48.7335 53.8323 45.422 55.0251C42.1105 56.2178 38.5201 56.404 35.103 55.5603C31.6858 54.7166 28.5947 52.8806 26.219 50.2836C23.8432 47.6866 22.2889 44.4446 21.752 40.9661C21.215 37.4875 21.7193 33.9278 23.2014 30.7353C24.6835 27.5428 27.0771 24.8602 30.0808 23.0253C32.0936 21.8005 34.3288 20.9859 36.6576 20.6285C38.9865 20.271 41.3631 20.3778 43.6505 20.9426C45.938 21.5074 48.0911 22.5191 49.986 23.9194C51.8809 25.3198 53.48 27.0811 54.6914 29.102Z" fill="#F3F3F3"/>
<path opacity="0.57" d="M54.6608 29.1019C56.4592 32.1196 57.3248 35.6019 57.1485 39.1104C56.9721 42.6189 55.7619 45.9969 53.67 48.8191C51.5781 51.6413 48.6982 53.7816 45.3926 54.9706C42.087 56.1597 38.5035 56.3443 35.0932 55.5012C31.6829 54.6581 28.5983 52.825 26.2275 50.2327C23.8567 47.6403 22.3058 44.4046 21.7699 40.9328C21.234 37.461 21.7372 33.9082 23.216 30.7217C24.6948 27.5352 27.0833 24.8573 30.0806 23.0253C32.0899 21.7971 34.3229 20.9798 36.6503 20.6205C38.9776 20.2613 41.3531 20.3674 43.6392 20.9325C45.9253 21.4977 48.0766 22.5107 49.9685 23.913C51.8603 25.3153 53.4552 27.079 54.6608 29.1019Z" fill="#F4F4F4"/>
<path opacity="0.52" d="M54.6305 29.102C56.4229 32.1153 57.2841 35.5914 57.1057 39.093C56.9272 42.5946 55.7172 45.9652 53.6278 48.7807C51.5384 51.5963 48.663 53.731 45.3633 54.9163C42.0636 56.1016 38.4871 56.2846 35.0837 55.4421C31.6803 54.5997 28.602 52.7695 26.2363 50.1819C23.8705 47.5942 22.3228 44.3647 21.7881 40.8996C21.2533 37.4345 21.7553 33.8886 23.2308 30.7081C24.7064 27.5276 27.0896 24.8546 30.0807 23.0253C32.0888 21.8019 34.3193 20.9884 36.6435 20.6318C38.9677 20.2751 41.3395 20.3824 43.622 20.9474C45.9045 21.5123 48.0525 22.5238 49.942 23.9235C51.8314 25.3231 53.4249 27.0831 54.6305 29.102Z" fill="#F5F5F5"/>
<path opacity="0.48" d="M54.6305 29.102C56.4229 32.1153 57.2841 35.5915 57.1057 39.093C56.9272 42.5946 55.7172 45.9652 53.6278 48.7808C51.5384 51.5963 48.663 53.731 45.3633 54.9163C42.0636 56.1016 38.4871 56.2846 35.0837 55.4422C31.6803 54.5997 28.602 52.7696 26.2363 50.1819C23.8705 47.5943 22.3228 44.3647 21.7881 40.8996C21.2533 37.4345 21.7553 33.8887 23.2308 30.7082C24.7064 27.5277 27.0896 24.8546 30.0807 23.0253C32.0865 21.7938 34.3173 20.9736 36.6431 20.6126C38.969 20.2516 41.3434 20.3569 43.6282 20.9225C45.9129 21.488 48.0623 22.5024 49.9512 23.9067C51.8401 25.311 53.4308 27.077 54.6305 29.102Z" fill="#F5F5F5"/>
<path opacity="0.43" d="M54.6002 28.9197C56.4142 31.9151 57.3012 35.3804 57.1497 38.879C56.9981 42.3776 55.8147 45.7532 53.7484 48.5806C51.6822 51.4079 48.8255 53.5607 45.5382 54.7677C42.2509 55.9747 38.6799 56.182 35.275 55.3634C31.8701 54.5449 28.7835 52.7372 26.404 50.1679C24.0245 47.5986 22.4584 44.3826 21.903 40.925C21.3477 37.4674 21.8278 33.9228 23.283 30.7376C24.7383 27.5523 27.1035 24.8689 30.0808 23.0253C32.0745 21.7907 34.2931 20.9636 36.6084 20.5917C38.9237 20.2198 41.2898 20.3105 43.5698 20.8586C45.8498 21.4067 47.9986 22.4014 49.8919 23.785C51.7852 25.1686 53.3855 26.9138 54.6002 28.9197Z" fill="#F6F6F6"/>
<path opacity="0.38" d="M54.5697 28.9197C56.3777 31.9108 57.2604 35.3699 57.1067 38.8616C56.953 42.3533 55.7698 45.7215 53.706 48.5423C51.6422 51.363 48.7901 53.5101 45.5087 54.7134C42.2273 55.9167 38.6632 56.1223 35.2651 55.3044C31.8671 54.4865 28.787 52.6817 26.4124 50.117C24.0379 47.5524 22.4752 44.3426 21.9209 40.8918C21.3667 37.4409 21.8457 33.9032 23.2977 30.724C24.7496 27.5448 27.1097 24.8661 30.0807 23.0253C32.072 21.7914 34.2883 20.9648 36.6013 20.5933C38.9142 20.2219 41.2779 20.3128 43.5555 20.861C45.833 21.4092 47.9792 22.4038 49.8699 23.787C51.7605 25.1703 53.3579 26.9148 54.5697 28.9197Z" fill="#F7F7F7"/>
<path opacity="0.33" d="M54.5698 28.8893C56.3823 31.8781 57.2701 35.3365 57.1212 38.8288C56.9723 42.3211 55.7935 45.6914 53.7332 48.5152C51.6729 51.3389 48.8231 53.49 45.5428 54.6975C42.2625 55.905 38.6982 56.115 35.2988 55.301C31.8994 54.487 28.8168 52.6854 26.4391 50.1231C24.0615 47.5607 22.4951 44.3522 21.9373 40.9015C21.3794 37.4508 21.8549 33.9121 23.304 30.7311C24.7531 27.5501 27.111 24.869 30.0807 23.0253C32.0714 21.7942 34.286 20.9691 36.5969 20.5975C38.9079 20.2259 41.2695 20.3153 43.5457 20.8603C45.822 21.4054 47.9679 22.3954 49.8599 23.7734C51.7519 25.1513 53.3526 26.89 54.5698 28.8893Z" fill="#F8F8F8"/>
<path opacity="0.29" d="M54.5393 28.8893C56.3459 31.8738 57.2292 35.326 57.0782 38.8114C56.9273 42.2969 55.7487 45.6597 53.6908 48.4769C51.6329 51.294 48.7877 53.4394 45.5133 54.6432C42.2388 55.847 38.6815 56.0553 35.2889 55.242C31.8964 54.4286 28.8202 52.6299 26.4476 50.0722C24.075 47.5145 22.5119 44.3122 21.9552 40.8682C21.3984 37.4242 21.8728 33.8925 23.3187 30.7175C24.7645 27.5425 27.1172 24.8662 30.0807 23.0253C32.0678 21.7908 34.2802 20.963 36.5896 20.5896C38.899 20.2163 41.2595 20.3049 43.5344 20.8503C45.8093 21.3957 47.9534 22.3871 49.8424 23.767C51.7315 25.1469 53.3279 26.888 54.5393 28.8893Z" fill="#F9F9F9"/>
<path opacity="0.24" d="M54.3874 28.8893C56.2161 31.8621 57.1226 35.3103 56.9922 38.7982C56.8618 42.2861 55.7003 45.657 53.6547 48.485C51.609 51.3129 48.7709 53.471 45.4991 54.6864C42.2272 55.9019 38.6685 56.1201 35.2727 55.3136C31.8768 54.5071 28.7963 52.712 26.4204 50.1553C24.0445 47.5985 22.4798 44.3947 21.9241 40.949C21.3685 37.5032 21.8468 33.97 23.2985 30.796C24.7503 27.6219 27.1104 24.9495 30.0806 23.1164C32.0541 21.8938 34.2496 21.0731 36.5412 20.7015C38.8327 20.33 41.1751 20.4149 43.4337 20.9513C45.6924 21.4877 47.8228 22.4651 49.7026 23.8274C51.5823 25.1896 53.1744 26.9099 54.3874 28.8893Z" fill="#FAFAFA"/>
<path opacity="0.19" d="M54.3875 28.8589C56.2155 31.8315 57.1198 35.28 56.9856 38.7672C56.8515 42.2543 55.6851 45.6232 53.6341 48.4466C51.5832 51.2701 48.7402 53.4211 45.4654 54.6269C42.1906 55.8327 38.6315 56.039 35.2393 55.2198C31.8471 54.4005 28.7745 52.5926 26.4109 50.0251C24.0474 47.4575 22.4995 44.2461 21.9632 40.7978C21.427 37.3495 21.9266 33.8196 23.3988 30.6556C24.871 27.4916 27.2495 24.836 30.2327 23.0253C34.2129 20.6095 38.9874 19.867 43.5133 20.96C48.0392 22.0531 51.9486 24.8928 54.3875 28.8589Z" fill="#FBFBFB"/>
<path opacity="0.14" d="M54.3873 28.8589C56.2189 31.8314 57.1262 35.281 56.9941 38.77C56.862 42.259 55.6965 45.6302 53.6453 48.4557C51.5942 51.2812 48.75 53.4338 45.4735 54.6402C42.1971 55.8467 38.6361 56.0526 35.2424 55.232C31.8487 54.4113 28.7753 52.6011 26.4121 50.0309C24.0488 47.4607 22.5024 44.2464 21.9689 40.7959C21.4354 37.3454 21.9389 33.8142 23.4156 30.6503C24.8923 27.4864 27.2755 24.8325 30.2629 23.0253C34.2384 20.6109 39.0083 19.8693 43.5292 20.9625C48.0502 22.0557 51.9541 24.8948 54.3873 28.8589Z" fill="#FCFCFC"/>
<path opacity="0.1" d="M54.3874 28.8589C56.2094 31.8272 57.1093 35.2696 56.973 38.7499C56.8368 42.2301 55.6705 45.5916 53.622 48.4084C51.5735 51.2253 48.735 53.3706 45.4661 54.5727C42.1972 55.7748 38.645 55.9795 35.2597 55.1608C31.8743 54.3422 28.8082 52.5371 26.4497 49.9743C24.0912 47.4114 22.5465 44.2061 22.0114 40.7646C21.4763 37.323 21.9748 33.8 23.4437 30.642C24.9127 27.484 27.286 24.8332 30.263 23.0253C34.2364 20.6028 39.0089 19.8565 43.5322 20.9503C48.0556 22.0441 51.9598 24.8886 54.3874 28.8589Z" fill="#FDFDFD"/>
<path opacity="0.05" d="M54.3874 28.8285C56.1948 31.7862 57.0849 35.2132 56.9452 38.6765C56.8055 42.1399 55.6423 45.4841 53.6025 48.2866C51.5628 51.089 48.7381 53.2239 45.4854 54.4215C42.2327 55.6191 38.698 55.8256 35.328 55.0149C31.9579 54.2043 28.9039 52.4128 26.5517 49.8669C24.1995 47.3211 22.6547 44.1351 22.1127 40.7115C21.5706 37.288 22.0556 33.7807 23.5063 30.6327C24.9569 27.4847 27.3082 24.8374 30.263 23.0253C32.2276 21.8205 34.4104 21.0148 36.6866 20.6544C38.9628 20.294 41.2878 20.386 43.5285 20.925C45.7691 21.464 47.8815 22.4394 49.7448 23.7956C51.6081 25.1518 53.1857 26.862 54.3874 28.8285Z" fill="#FEFEFE"/>
</g>
<path d="M51.8351 30.925C53.321 33.3748 54.0473 36.2101 53.9224 39.0727C53.7975 41.9352 52.827 44.6964 51.1333 47.0075C49.4397 49.3186 47.0991 51.0759 44.4071 52.0572C41.7152 53.0386 38.7928 53.2 36.0092 52.521C33.2255 51.8421 30.7056 50.3533 28.7678 48.2427C26.83 46.1322 25.5612 43.4946 25.1219 40.6633C24.6825 37.8319 25.0922 34.9339 26.2993 32.3353C27.5064 29.7367 29.4566 27.5543 31.9036 26.0637C33.531 25.0723 35.3379 24.4116 37.221 24.1194C39.104 23.8272 41.0262 23.9092 42.8775 24.3608C44.7288 24.8123 46.4729 25.6245 48.01 26.7509C49.547 27.8772 50.8469 29.2957 51.8351 30.925Z" fill="#F0EEED"/>
<g style="mix-blend-mode:multiply">
<path d="M63.0466 24.028C65.9036 28.6896 67.3143 34.0937 67.1004 39.5571C66.8865 45.0204 65.0576 50.2976 61.845 54.7217C58.6323 59.1458 54.1801 62.5181 49.0512 64.4122C43.9223 66.3063 38.3469 66.6373 33.0299 65.3633C27.7129 64.0892 22.893 61.2674 19.1795 57.2544C15.466 53.2415 13.0256 48.2177 12.1669 42.818C11.3082 37.4184 12.0696 31.8853 14.355 26.9184C16.6404 21.9514 20.3471 17.7736 25.0066 14.9129C31.2611 11.0825 38.7801 9.89091 45.9125 11.5999C53.0448 13.309 59.2073 17.7789 63.0466 24.028Z" fill="#E3E3E3"/>
<path opacity="0.95" d="M62.986 23.9976C65.831 28.6507 67.2329 34.0425 67.0148 39.4921C66.7967 44.9416 64.9682 50.2042 61.7604 54.6149C58.5527 59.0257 54.1095 62.3868 48.9924 64.2734C43.8752 66.1601 38.3137 66.4878 33.0104 65.215C27.7071 63.9422 22.9001 61.1261 19.1966 57.1225C15.4932 53.1188 13.0594 48.1073 12.2029 42.7211C11.3464 37.3349 12.1056 31.8157 14.3845 26.8608C16.6635 21.9059 20.3599 17.7376 25.0068 14.8826C28.0979 12.9834 31.5333 11.7125 35.1162 11.1428C38.6992 10.5731 42.3593 10.7156 45.8871 11.5623C49.4149 12.4089 52.741 13.9431 55.6751 16.0769C58.6091 18.2107 61.0935 20.9023 62.986 23.9976Z" fill="#E4E4E4"/>
<path opacity="0.9" d="M62.9554 23.9672C65.7979 28.6158 67.1986 34.0028 66.9804 39.4472C66.7621 44.8917 64.9348 50.1493 61.7293 54.5555C58.5238 58.9617 54.084 62.3187 48.9711 64.2023C43.8582 66.0859 38.3017 66.4115 33.0038 65.138C27.7058 63.8644 22.9044 61.0489 19.2062 57.0473C15.508 53.0456 13.0791 48.0375 12.2265 42.6558C11.3738 37.274 12.1357 31.7604 14.4159 26.8115C16.696 21.8627 20.3921 17.7009 25.0369 14.8522C28.1245 12.9585 31.5551 11.692 35.1325 11.1252C38.7099 10.5585 42.364 10.7025 45.8857 11.5491C49.4074 12.3956 52.7277 13.9281 55.6567 16.0589C58.5857 18.1898 61.0658 20.8771 62.9554 23.9672Z" fill="#E6E6E6"/>
<path opacity="0.86" d="M62.925 23.9672C65.7651 28.6114 67.1645 33.9934 66.9462 39.4328C66.7279 44.8722 64.9016 50.1248 61.6984 54.5264C58.4952 58.928 54.0588 62.2811 48.9501 64.1616C43.8414 66.0421 38.2899 66.3657 32.9973 65.0914C27.7048 63.8171 22.9089 61.0022 19.216 57.0025C15.5231 53.0028 13.099 47.998 12.2502 42.6208C11.4015 37.2435 12.1661 31.7354 14.4475 26.7927C16.7289 21.85 20.4245 17.6947 25.0673 14.8522C28.1513 12.964 31.5771 11.7019 35.149 11.1381C38.7209 10.5743 42.3689 10.7198 45.8846 11.5662C49.4003 12.4127 52.7147 13.9436 55.6386 16.0714C58.5624 18.1992 61.0384 20.8822 62.925 23.9672Z" fill="#E7E7E7"/>
<path opacity="0.81" d="M62.8948 23.9368C65.7037 28.5442 67.0866 33.8796 66.8694 39.2713C66.6523 44.6631 64.8447 49.87 61.6744 54.2366C58.5042 58.6031 54.1128 61.9341 49.0533 63.8102C43.9939 65.6862 38.4924 66.0233 33.2417 64.7792C27.991 63.535 23.2258 60.7652 19.546 56.8185C15.8662 52.8717 13.4364 47.9244 12.5624 42.5996C11.6885 37.2747 12.4095 31.8104 14.6348 26.8944C16.86 21.9785 20.4899 17.8309 25.0675 14.9737C28.1343 13.0594 31.5503 11.7723 35.1178 11.1868C38.6853 10.6013 42.3335 10.729 45.8513 11.5626C49.3691 12.3961 52.6867 13.9189 55.6122 16.0429C58.5377 18.1669 61.013 20.85 62.8948 23.9368Z" fill="#E8E8E8"/>
<path opacity="0.76" d="M62.8341 23.9065C65.6538 28.5135 67.046 33.8524 66.8351 39.2498C66.6241 44.6471 64.8194 49.861 61.6486 54.2339C58.4778 58.6067 54.083 61.9426 49.0186 63.8206C43.9541 65.6987 38.4469 66.0348 33.1917 64.7866C27.9364 63.5383 23.1685 60.7617 19.4895 56.8069C15.8105 52.8521 13.3851 47.8963 12.5193 42.5647C11.6536 37.2331 12.3862 31.7645 14.6248 26.8488C16.8633 21.933 20.5076 17.7904 25.0979 14.9434C28.1611 13.0435 31.5698 11.7679 35.1278 11.1902C38.6859 10.6124 42.323 10.7438 45.8301 11.5768C49.3371 12.4098 52.6449 13.9279 55.5631 16.0439C58.4813 18.1599 60.9523 20.832 62.8341 23.9065Z" fill="#EAEAEA"/>
<path opacity="0.71" d="M54.0968 61.4642C66.9117 53.4098 70.7708 36.492 62.7165 23.6771C54.6621 10.8623 37.7443 7.00309 24.9294 15.0574C12.1146 23.1118 8.25541 40.0296 16.3098 52.8445C24.3641 65.6593 41.2819 69.5185 54.0968 61.4642Z" fill="#EBEBEB"/>
<path opacity="0.67" d="M53.6097 61.6466C66.5454 53.8525 70.7135 37.0478 62.9194 24.1121C55.1254 11.1765 38.3206 7.00837 25.385 14.8024C12.4493 22.5965 8.28122 39.4012 16.0753 52.3369C23.8693 65.2725 40.6741 69.4406 53.6097 61.6466Z" fill="#ECECEC"/>
<path opacity="0.62" d="M53.1336 61.8606C66.2072 54.3339 70.7038 37.634 63.177 24.5603C55.6502 11.4867 38.9503 6.99012 25.8767 14.5169C12.8031 22.0437 8.30649 38.7436 15.8333 51.8172C23.36 64.8908 40.06 69.3874 53.1336 61.8606Z" fill="#EEEEEE"/>
<path opacity="0.57" d="M52.607 62.0432C65.8084 54.8126 70.6488 38.2491 63.4182 25.0476C56.1876 11.8462 39.6241 7.00582 26.4227 14.2364C13.2212 21.467 8.38084 38.0305 15.6114 51.2319C22.842 64.4334 39.4055 69.2738 52.607 62.0432Z" fill="#EFEFEF"/>
<path opacity="0.52" d="M52.0416 62.2472C65.3888 55.3257 70.5979 38.8947 63.6764 25.5474C56.7549 12.2002 40.3238 6.99115 26.9766 13.9126C13.6294 20.8341 8.42031 37.2652 15.3418 50.6124C22.2633 63.9596 38.6944 69.1687 52.0416 62.2472Z" fill="#F0F0F0"/>
<path opacity="0.48" d="M51.4532 62.4874C64.9471 55.8944 70.5412 39.6108 63.9482 26.117C57.3552 12.6231 41.0715 7.02896 27.5777 13.622C14.0839 20.215 8.48973 36.4987 15.0828 49.9925C21.6758 63.4863 37.9594 69.0805 51.4532 62.4874Z" fill="#F2F2F2"/>
<path opacity="0.43" d="M50.792 62.6561C64.4178 56.4206 70.4089 40.3198 64.1734 26.694C57.9379 13.0682 41.8371 7.07713 28.2113 13.3126C14.5855 19.5481 8.59443 35.6489 14.8299 49.2747C21.0654 62.9006 37.1662 68.8916 50.792 62.6561Z" fill="#F3F3F3"/>
<path opacity="0.38" d="M50.0775 62.9308C63.8495 57.0679 70.2611 41.1507 64.3982 27.3787C58.5353 13.6067 42.6181 7.19509 28.8461 13.058C15.0741 18.9209 8.66249 34.8381 14.5254 48.6101C20.3883 62.3821 36.3055 68.7937 50.0775 62.9308Z" fill="#F4F4F4"/>
<path opacity="0.33" d="M49.3719 63.1588C63.2866 57.6889 70.1324 41.9745 64.6625 28.0598C59.1926 14.1451 43.4782 7.29921 29.5635 12.7691C15.6488 18.2391 8.80291 33.9534 14.2728 47.8682C19.7428 61.7829 35.4571 68.6287 49.3719 63.1588Z" fill="#F6F6F6"/>
<path opacity="0.29" d="M48.6309 63.3129C62.6667 58.2597 69.9485 42.7851 64.8953 28.7493C59.8421 14.7136 44.3675 7.43174 30.3317 12.4849C16.296 17.5381 9.01414 33.0128 14.0673 47.0485C19.1205 61.0843 34.5952 68.3661 48.6309 63.3129Z" fill="#F7F7F7"/>
<path opacity="0.24" d="M47.826 63.5098C61.992 58.8878 69.7289 43.6572 65.107 29.4913C60.485 15.3253 45.2544 7.58833 31.0885 12.2103C16.9225 16.8322 9.18554 32.0628 13.8075 46.2288C18.4294 60.3947 33.66 68.1317 47.826 63.5098Z" fill="#F8F8F8"/>
<path opacity="0.19" d="M47.0372 63.6664C61.307 59.4937 69.4922 44.5431 65.3194 30.2733C61.1467 16.0036 46.1961 7.81834 31.9263 11.9911C17.6565 16.1639 9.47132 31.1145 13.6441 45.3842C17.8169 59.654 32.7675 67.8392 47.0372 63.6664Z" fill="#FAFAFA"/>
<path opacity="0.14" d="M46.2517 63.9108C60.6567 60.1981 69.3246 45.5109 65.612 31.1058C61.8993 16.7008 47.212 8.03287 32.807 11.7455C18.402 15.4581 9.73405 30.1454 13.4467 44.5505C17.1593 58.9555 31.8466 67.6234 46.2517 63.9108Z" fill="#FBFBFB"/>
<path opacity="0.1" d="M45.3671 63.9523C59.8408 60.7038 68.9407 46.3371 65.6921 31.8634C62.4436 17.3897 48.0769 8.28986 33.6032 11.5384C19.1295 14.7869 10.0297 29.1536 13.2782 43.6273C16.5267 58.101 30.8934 67.2008 45.3671 63.9523Z" fill="#FCFCFC"/>
<path opacity="0.05" d="M44.4958 63.9951C59.0339 61.2218 68.5711 47.1882 65.7979 32.6501C63.0246 18.112 48.991 8.57481 34.4529 11.3481C19.9148 14.1214 10.3776 28.155 13.1509 42.6931C15.9242 57.2311 29.9578 66.7684 44.4958 63.9951Z" fill="#FEFEFE"/>
</g>
<path style="mix-blend-mode:multiply" d="M63.0466 24.028C65.9036 28.6896 67.3143 34.0937 67.1004 39.5571C66.8865 45.0204 65.0576 50.2976 61.845 54.7217C58.6323 59.1458 54.1801 62.5181 49.0512 64.4122C43.9223 66.3063 38.3469 66.6373 33.0299 65.3633C27.7129 64.0892 22.893 61.2674 19.1795 57.2544C15.466 53.2415 13.0256 48.2177 12.1669 42.818C11.3082 37.4184 12.0696 31.8853 14.355 26.9184C16.6404 21.9514 20.3471 17.7736 25.0066 14.9129C31.2611 11.0825 38.7801 9.89091 45.9125 11.5999C53.0448 13.309 59.2073 17.7789 63.0466 24.028Z" fill="url(#paint39_linear_354_1403)"/>
<g style="mix-blend-mode:screen" opacity="0.5">
<path d="M63.0466 24.028C65.9036 28.6896 67.3143 34.0937 67.1004 39.5571C66.8865 45.0204 65.0576 50.2976 61.845 54.7217C58.6323 59.1458 54.1801 62.5181 49.0512 64.4122C43.9223 66.3063 38.3469 66.6373 33.0299 65.3633C27.7129 64.0892 22.893 61.2674 19.1795 57.2544C15.466 53.2415 13.0256 48.2177 12.1669 42.818C11.3082 37.4184 12.0696 31.8853 14.355 26.9184C16.6404 21.9514 20.3471 17.7736 25.0066 14.9129C31.2611 11.0825 38.7801 9.89091 45.9125 11.5999C53.0448 13.309 59.2073 17.7789 63.0466 24.028Z" fill="#BD7364"/>
<path opacity="0.95" d="M62.9858 24.0887C65.8307 28.7418 67.2327 34.1337 67.0146 39.5832C66.7964 45.0327 64.968 50.2953 61.7602 54.7061C58.5524 59.1168 54.1093 62.4779 48.9921 64.3646C43.875 66.2512 38.3135 66.5789 33.0102 65.3061C27.7069 64.0333 22.8999 61.2172 19.1964 57.2136C15.4929 53.21 13.0592 48.1985 12.2027 42.8123C11.3462 37.4261 12.1054 31.9068 14.3843 26.9519C16.6632 21.997 20.3596 17.8287 25.0065 14.9737C28.0977 13.0745 31.533 11.8037 35.116 11.2339C38.6989 10.6642 42.3591 10.8067 45.8868 11.6534C49.4146 12.5001 52.7407 14.0342 55.6748 16.168C58.6089 18.3019 61.0933 20.9935 62.9858 24.0887Z" fill="#B46E5F"/>
<path opacity="0.9" d="M62.9554 24.1494C65.7979 28.7981 67.1986 34.185 66.9804 39.6295C66.7621 45.074 64.9348 50.3315 61.7293 54.7377C58.5238 59.1439 54.084 62.501 48.9711 64.3846C43.8582 66.2682 38.3017 66.5938 33.0038 65.3202C27.7058 64.0467 22.9044 61.2312 19.2062 57.2295C15.508 53.2279 13.0791 48.2197 12.2265 42.838C11.3738 37.4563 12.1357 31.9426 14.4159 26.9938C16.696 22.045 20.3921 17.8832 25.0369 15.0344C28.1245 13.1407 31.5551 11.8743 35.1325 11.3075C38.7099 10.7407 42.364 10.8847 45.8857 11.7313C49.4074 12.5779 52.7277 14.1104 55.6567 16.2412C58.5857 18.372 61.0658 21.0593 62.9554 24.1494Z" fill="#AB685A"/>
<path opacity="0.86" d="M62.9251 24.2103C65.7881 28.8429 67.2128 34.2206 67.0187 39.6631C66.8247 45.1055 65.0206 50.3681 61.8349 54.7851C58.6492 59.202 54.2249 62.5747 49.1218 64.4765C44.0188 66.3783 38.4663 66.7237 33.1668 65.469C27.8674 64.2144 23.0592 61.416 19.3506 57.4279C15.642 53.4399 13.1997 48.4415 12.3326 43.065C11.4655 37.6886 12.2127 32.1757 14.4795 27.224C16.7464 22.2723 20.431 18.1042 25.0673 15.2472C31.2774 11.4203 38.7525 10.2148 45.8508 11.8953C52.9491 13.5759 59.0901 18.0052 62.9251 24.2103Z" fill="#A26356"/>
<path opacity="0.81" d="M62.8946 24.3014C65.6842 28.9201 67.0451 34.2608 66.8058 39.6513C66.5666 45.0417 64.738 50.2409 61.5502 54.5943C58.3625 58.9477 53.958 62.2607 48.8914 64.1162C43.8247 65.9718 38.3223 66.2869 33.077 65.0219C27.8316 63.757 23.0777 60.9685 19.4138 57.0075C15.7498 53.0465 13.3396 48.0901 12.4865 42.7622C11.6334 37.4343 12.3757 31.9731 14.6197 27.0662C16.8638 22.1592 20.5094 18.0259 25.0976 15.1864C28.1724 13.2836 31.594 12.0095 35.1644 11.4378C38.7348 10.8661 42.3832 11.0082 45.8984 11.8559C49.4135 12.7036 52.7256 14.2401 55.643 16.3764C58.5604 18.5126 61.0251 21.2063 62.8946 24.3014Z" fill="#995D51"/>
<path opacity="0.76" d="M62.834 24.3622C65.6574 28.9691 67.0527 34.3092 66.8438 39.7084C66.6349 45.1076 64.8311 50.3238 61.6601 54.6988C58.4892 59.0737 54.0932 62.4112 49.0271 64.2899C43.961 66.1686 38.4519 66.5044 33.1951 65.2548C27.9384 64.0052 23.1697 61.2263 19.4909 57.2688C15.8121 53.3113 13.3882 48.3527 12.5252 43.0188C11.6621 37.685 12.3986 32.215 14.6416 27.2993C16.8847 22.3836 20.5337 18.2427 25.1282 15.3991C28.1903 13.5039 31.5965 12.2323 35.1514 11.6571C38.7062 11.0819 42.3397 11.2145 45.8432 12.0473C49.3466 12.8801 52.6511 14.3967 55.5669 16.5101C58.4827 18.6234 60.9523 21.2918 62.834 24.3622Z" fill="#90584C"/>
<path opacity="0.71" d="M56.7493 60.0365C68.4857 50.5053 70.2734 33.2646 60.7423 21.5282C51.2112 9.79179 33.9704 8.00405 22.234 17.5352C10.4976 27.0663 8.70989 44.307 18.241 56.0434C27.7721 67.7798 45.0129 69.5676 56.7493 60.0365Z" fill="#875247"/>
<path opacity="0.67" d="M56.8589 59.8934C68.4975 50.2958 70.1521 33.0804 60.5546 21.4418C50.957 9.80311 33.7416 8.14849 22.1029 17.7461C10.4643 27.3436 8.80967 44.559 18.4073 56.1977C28.0048 67.8363 45.2202 69.491 56.8589 59.8934Z" fill="#7E4D43"/>
<path opacity="0.62" d="M57.0255 59.8072C68.5705 50.1232 70.0792 32.9138 60.3952 21.3688C50.7112 9.82379 33.5018 8.31512 21.9568 17.9991C10.4118 27.683 8.90314 44.8925 18.5871 56.4375C28.2711 67.9825 45.4805 69.4911 57.0255 59.8072Z" fill="#75473E"/>
<path opacity="0.57" d="M57.1869 59.6136C68.6095 49.8371 69.9439 32.6518 60.1674 21.2292C50.3908 9.80663 33.2056 8.47223 21.783 18.2487C10.3604 28.0253 9.02601 45.2105 18.8025 56.6331C28.579 68.0557 45.7643 69.3901 57.1869 59.6136Z" fill="#6C4239"/>
<path opacity="0.52" d="M57.4149 59.4447C68.7133 49.5502 69.8513 32.3701 59.9569 21.0718C50.0625 9.77352 32.8824 8.63543 21.5841 18.5298C10.2858 28.4242 9.14771 45.6043 19.0421 56.9027C28.9365 68.201 46.1166 69.3391 57.4149 59.4447Z" fill="#633C34"/>
<path opacity="0.48" d="M57.6633 59.2203C68.8151 49.1862 69.7212 32.0115 59.6871 20.8597C49.653 9.70785 32.4783 8.80176 21.3265 18.8359C10.1746 28.87 9.26854 46.0446 19.3027 57.1965C29.3368 68.3483 46.5114 69.2544 57.6633 59.2203Z" fill="#5A3730"/>
<path opacity="0.43" d="M57.9841 58.9008C68.9471 48.7098 69.5729 31.5612 59.3819 20.5983C49.191 9.63533 32.0423 9.00951 21.0794 19.2005C10.1165 29.3914 9.49065 46.5401 19.6816 57.503C29.8726 68.4659 47.0212 69.0917 57.9841 58.9008Z" fill="#51312B"/>
<path opacity="0.38" d="M58.3358 58.5545C69.0853 48.1628 69.3755 31.0245 58.9839 20.2749C48.5922 9.52533 31.4539 9.23515 20.7043 19.6268C9.95474 30.0184 9.66456 47.1568 20.0562 57.9063C30.4478 68.6559 47.5862 68.9461 58.3358 58.5545Z" fill="#482C26"/>
<path opacity="0.33" d="M58.6444 58.2628C69.1928 47.7144 69.1928 30.612 58.6444 20.0637C48.096 9.51526 30.9936 9.51526 20.4453 20.0637C9.89686 30.612 9.89687 47.7144 20.4453 58.2628C30.9937 68.8112 48.096 68.8112 58.6444 58.2628Z" fill="#3F2621"/>
<path opacity="0.29" d="M59.3113 57.5159C69.4413 46.588 68.7945 29.5171 57.8665 19.3871C46.9386 9.2571 29.8678 9.90395 19.7378 20.8319C9.60775 31.7598 10.2546 48.8306 21.1825 58.9607C32.1105 69.0907 49.1813 68.4438 59.3113 57.5159Z" fill="#36211D"/>
<path opacity="0.24" d="M59.9722 56.7621C69.6455 45.472 68.3349 28.4779 57.0448 18.8046C45.7548 9.13126 28.7607 10.4419 19.0873 21.7319C9.41403 33.0219 10.7246 50.0161 22.0147 59.6894C33.3047 69.3627 50.2989 68.0521 59.9722 56.7621Z" fill="#2D1B18"/>
<path opacity="0.19" d="M60.8167 55.7098C69.8839 43.9486 67.6999 27.0639 55.9387 17.9967C44.1775 8.92955 27.2928 11.1135 18.2256 22.8747C9.15849 34.6359 11.3424 51.5206 23.1036 60.5878C34.8648 69.6549 51.7496 67.471 60.8167 55.7098Z" fill="#241613"/>
<path opacity="0.14" d="M61.8553 54.2138C70.0678 41.881 66.7277 25.2257 54.3949 17.0132C42.0621 8.80069 25.4068 12.1408 17.1943 24.4736C8.98178 36.8064 12.3219 53.4617 24.6547 61.6742C36.9875 69.8867 53.6428 66.5466 61.8553 54.2138Z" fill="#1B100E"/>
<path opacity="0.1" d="M63.1178 52.0851C70.139 39.0563 65.2688 22.8026 52.24 15.7814C39.2112 8.76029 22.9575 13.6305 15.9363 26.6593C8.91516 39.6881 13.7853 55.9418 26.8141 62.9629C39.8429 69.9841 56.0966 65.1139 63.1178 52.0851Z" fill="#120B0A"/>
<path opacity="0.05" d="M64.4399 49.1604C69.8232 35.4099 63.0402 19.899 49.2897 14.5158C35.5392 9.1326 20.0283 15.9156 14.6451 29.6661C9.2619 43.4165 16.0449 58.9274 29.7954 64.3106C43.5458 69.6939 59.0567 62.9109 64.4399 49.1604Z" fill="#090505"/>
</g>
<defs>
<radialGradient id="paint0_radial_354_1403" cx="0" cy="0" r="1" gradientUnits="userSpaceOnUse" gradientTransform="translate(39.5082 38.9692) rotate(-0.08) scale(20.205 20.205)">
<stop offset="0.66" stop-color="#090505"/>
<stop offset="0.95" stop-color="#090505"/>
<stop offset="1" stop-color="#090505"/>
</radialGradient>
<radialGradient id="paint1_radial_354_1403" cx="0" cy="0" r="1" gradientUnits="userSpaceOnUse" gradientTransform="translate(39.5169 38.9634) rotate(-0.16) scale(20.205 20.205)">
<stop offset="0.66" stop-color="#120B0A"/>
<stop offset="0.95" stop-color="#120B0A"/>
<stop offset="1" stop-color="#120B0A"/>
</radialGradient>
<radialGradient id="paint2_radial_354_1403" cx="0" cy="0" r="1" gradientUnits="userSpaceOnUse" gradientTransform="translate(39.5255 38.9289) rotate(-0.24) scale(20.1746 20.1746)">
<stop offset="0.66" stop-color="#1B100E"/>
<stop offset="0.95" stop-color="#1B100E"/>
<stop offset="1" stop-color="#1B100E"/>
</radialGradient>
<radialGradient id="paint3_radial_354_1403" cx="0" cy="0" r="1" gradientUnits="userSpaceOnUse" gradientTransform="translate(39.4985 38.9007) rotate(-0.31) scale(20.1442 20.1442)">
<stop offset="0.66" stop-color="#241613"/>
<stop offset="0.95" stop-color="#241613"/>
<stop offset="1" stop-color="#241613"/>
</radialGradient>
<radialGradient id="paint4_radial_354_1403" cx="0" cy="0" r="1" gradientUnits="userSpaceOnUse" gradientTransform="translate(39.5068 38.8693) rotate(-0.39) scale(20.1138)">
<stop offset="0.66" stop-color="#2D1B18"/>
<stop offset="0.95" stop-color="#2D1B18"/>
<stop offset="1" stop-color="#2D1B18"/>
</radialGradient>
<radialGradient id="paint5_radial_354_1403" cx="0" cy="0" r="1" gradientUnits="userSpaceOnUse" gradientTransform="translate(39.566 38.828) rotate(-0.572939) scale(20.1148 20.1148)">
<stop offset="0.66" stop-color="#36211D"/>
<stop offset="0.95" stop-color="#36211D"/>
<stop offset="1" stop-color="#36211D"/>
</radialGradient>
<radialGradient id="paint6_radial_354_1403" cx="0" cy="0" r="1" gradientUnits="userSpaceOnUse" gradientTransform="translate(39.523 38.8422) rotate(-0.55) scale(20.0834)">
<stop offset="0.66" stop-color="#3F2621"/>
<stop offset="0.95" stop-color="#3F2621"/>
<stop offset="1" stop-color="#3F2621"/>
</radialGradient>
<radialGradient id="paint7_radial_354_1403" cx="0" cy="0" r="1" gradientUnits="userSpaceOnUse" gradientTransform="translate(39.474 38.8404) rotate(-0.572939) scale(20.0541)">
<stop offset="0.66" stop-color="#482C26"/>
<stop offset="0.95" stop-color="#482C26"/>
<stop offset="1" stop-color="#482C26"/>
</radialGradient>
<radialGradient id="paint8_radial_354_1403" cx="0" cy="0" r="1" gradientUnits="userSpaceOnUse" gradientTransform="translate(39.4433 38.8465) rotate(-0.572939) scale(20.0237 20.0237)">
<stop offset="0.66" stop-color="#51312B"/>
<stop offset="0.95" stop-color="#51312B"/>
<stop offset="1" stop-color="#51312B"/>
</radialGradient>
<radialGradient id="paint9_radial_354_1403" cx="0" cy="0" r="1" gradientUnits="userSpaceOnUse" gradientTransform="translate(39.5157 38.7685) rotate(-0.79) scale(20.0227 20.0227)">
<stop offset="0.66" stop-color="#5A3730"/>
<stop offset="0.95" stop-color="#5A3730"/>
<stop offset="1" stop-color="#5A3730"/>
</radialGradient>
<radialGradient id="paint10_radial_354_1403" cx="0" cy="0" r="1" gradientUnits="userSpaceOnUse" gradientTransform="translate(39.5181 38.7509) rotate(-0.86) scale(19.9923 19.9923)">
<stop offset="0.66" stop-color="#633C34"/>
<stop offset="0.95" stop-color="#633C34"/>
<stop offset="1" stop-color="#633C34"/>
</radialGradient>
<radialGradient id="paint11_radial_354_1403" cx="0" cy="0" r="1" gradientUnits="userSpaceOnUse" gradientTransform="translate(39.4946 38.7012) rotate(-0.94) scale(19.9619)">
<stop offset="0.66" stop-color="#6C4239"/>
<stop offset="0.95" stop-color="#6C4239"/>
<stop offset="1" stop-color="#6C4239"/>
</radialGradient>
<radialGradient id="paint12_radial_354_1403" cx="0" cy="0" r="1" gradientUnits="userSpaceOnUse" gradientTransform="translate(39.5017 38.7134) rotate(-1.02) scale(19.9619 19.9619)">
<stop offset="0.66" stop-color="#75473E"/>
<stop offset="0.95" stop-color="#75473E"/>
<stop offset="1" stop-color="#75473E"/>
</radialGradient>
<radialGradient id="paint13_radial_354_1403" cx="0" cy="0" r="1" gradientUnits="userSpaceOnUse" gradientTransform="translate(39.5341 38.6563) rotate(-1.14576) scale(19.9355)">
<stop offset="0.66" stop-color="#7E4D43"/>
<stop offset="0.95" stop-color="#7E4D43"/>
<stop offset="1" stop-color="#7E4D43"/>
</radialGradient>
<radialGradient id="paint14_radial_354_1403" cx="0" cy="0" r="1" gradientUnits="userSpaceOnUse" gradientTransform="translate(39.5149 38.6517) rotate(-1.18) scale(19.9011)">
<stop offset="0.66" stop-color="#875247"/>
<stop offset="0.95" stop-color="#875247"/>
<stop offset="1" stop-color="#875247"/>
</radialGradient>
<radialGradient id="paint15_radial_354_1403" cx="0" cy="0" r="1" gradientUnits="userSpaceOnUse" gradientTransform="translate(39.4914 38.6392) rotate(-1.26) scale(19.8707)">
<stop offset="0.66" stop-color="#90584C"/>
<stop offset="0.95" stop-color="#90584C"/>
<stop offset="1" stop-color="#90584C"/>
</radialGradient>
<radialGradient id="paint16_radial_354_1403" cx="0" cy="0" r="1" gradientUnits="userSpaceOnUse" gradientTransform="translate(39.4095 38.6934) rotate(-1.14576) scale(19.8747)">
<stop offset="0.66" stop-color="#995D51"/>
<stop offset="0.95" stop-color="#995D51"/>
<stop offset="1" stop-color="#995D51"/>
</radialGradient>
<radialGradient id="paint17_radial_354_1403" cx="0" cy="0" r="1" gradientUnits="userSpaceOnUse" gradientTransform="translate(39.4989 38.5905) rotate(-1.41) scale(19.8404)">
<stop offset="0.66" stop-color="#A26356"/>
<stop offset="0.95" stop-color="#A26356"/>
<stop offset="1" stop-color="#A26356"/>
</radialGradient>
<radialGradient id="paint18_radial_354_1403" cx="0" cy="0" r="1" gradientUnits="userSpaceOnUse" gradientTransform="translate(39.5047 38.5821) rotate(-1.49) scale(19.81 19.81)">
<stop offset="0.66" stop-color="#AB685A"/>
<stop offset="0.95" stop-color="#AB685A"/>
<stop offset="1" stop-color="#AB685A"/>
</radialGradient>
<radialGradient id="paint19_radial_354_1403" cx="0" cy="0" r="1" gradientUnits="userSpaceOnUse" gradientTransform="translate(39.5103 38.5451) rotate(-1.57) scale(19.7796)">
<stop offset="0.66" stop-color="#B46E5F"/>
<stop offset="0.95" stop-color="#B46E5F"/>
<stop offset="1" stop-color="#B46E5F"/>
</radialGradient>
<radialGradient id="paint20_radial_354_1403" cx="0" cy="0" r="1" gradientUnits="userSpaceOnUse" gradientTransform="translate(39.4856 38.5106) rotate(-1.65) scale(19.7796)">
<stop offset="0.66" stop-color="#BD7364"/>
<stop offset="0.95" stop-color="#BD7364"/>
<stop offset="1" stop-color="#BD7364"/>
</radialGradient>
<radialGradient id="paint21_radial_354_1403" cx="0" cy="0" r="1" gradientUnits="userSpaceOnUse" gradientTransform="translate(39.4856 38.5106) rotate(-1.65) scale(19.7796)">
<stop offset="0.66" stop-color="#CFB5B0"/>
<stop offset="0.95" stop-color="#CFB5B0"/>
<stop offset="1" stop-color="#CFB5B0"/>
</radialGradient>
<radialGradient id="paint22_radial_354_1403" cx="0" cy="0" r="1" gradientUnits="userSpaceOnUse" gradientTransform="translate(39.6488 38.4604) rotate(-1.71836) scale(19.6973)">
<stop offset="0.66" stop-color="#D4BDB9"/>
<stop offset="0.95" stop-color="#D4BDB9"/>
<stop offset="1" stop-color="#D4BDB9"/>
</radialGradient>
<radialGradient id="paint23_radial_354_1403" cx="0" cy="0" r="1" gradientUnits="userSpaceOnUse" gradientTransform="translate(39.4982 38.5457) rotate(-1.28) scale(19.6277)">
<stop offset="0.66" stop-color="#DAC5C2"/>
<stop offset="0.95" stop-color="#DAC5C2"/>
<stop offset="1" stop-color="#DAC5C2"/>
</radialGradient>
<radialGradient id="paint24_radial_354_1403" cx="0" cy="0" r="1" gradientUnits="userSpaceOnUse" gradientTransform="translate(39.531 38.5044) rotate(-1.14576) scale(19.5404 19.5404)">
<stop offset="0.66" stop-color="#DFCECA"/>
<stop offset="0.95" stop-color="#DFCECA"/>
<stop offset="1" stop-color="#DFCECA"/>
</radialGradient>
<radialGradient id="paint25_radial_354_1403" cx="0" cy="0" r="1" gradientUnits="userSpaceOnUse" gradientTransform="translate(39.5126 38.5227) rotate(-0.92) scale(19.4758 19.4758)">
<stop offset="0.66" stop-color="#E4D6D3"/>
<stop offset="0.95" stop-color="#E4D6D3"/>
<stop offset="1" stop-color="#E4D6D3"/>
</radialGradient>
<radialGradient id="paint26_radial_354_1403" cx="0" cy="0" r="1" gradientUnits="userSpaceOnUse" gradientTransform="translate(39.484 38.5434) rotate(-0.73) scale(19.3846)">
<stop offset="0.66" stop-color="#EADEDC"/>
<stop offset="0.95" stop-color="#EADEDC"/>
<stop offset="1" stop-color="#EADEDC"/>
</radialGradient>
<radialGradient id="paint27_radial_354_1403" cx="0" cy="0" r="1" gradientUnits="userSpaceOnUse" gradientTransform="translate(39.4895 38.5082) rotate(-0.55) scale(19.3239 19.3238)">
<stop offset="0.66" stop-color="#EFE6E5"/>
<stop offset="0.95" stop-color="#EFE6E5"/>
<stop offset="1" stop-color="#EFE6E5"/>
</radialGradient>
<radialGradient id="paint28_radial_354_1403" cx="0" cy="0" r="1" gradientUnits="userSpaceOnUse" gradientTransform="translate(39.6239 38.4552) rotate(-0.572939) scale(19.264)">
<stop offset="0.66" stop-color="#F4EFED"/>
<stop offset="0.95" stop-color="#F4EFED"/>
<stop offset="1" stop-color="#F4EFED"/>
</radialGradient>
<radialGradient id="paint29_radial_354_1403" cx="0" cy="0" r="1" gradientUnits="userSpaceOnUse" gradientTransform="translate(39.4949 38.4991) rotate(-0.18) scale(19.1719)">
<stop offset="0.66" stop-color="#FAF7F6"/>
<stop offset="0.95" stop-color="#FAF7F6"/>
<stop offset="1" stop-color="#FAF7F6"/>
</radialGradient>
<radialGradient id="paint30_radial_354_1403" cx="0" cy="0" r="1" gradientUnits="userSpaceOnUse" gradientTransform="translate(39.495 38.499) rotate(-0.18) scale(18.7162 18.7162)">
<stop offset="0.66" stop-color="#FAF7F6"/>
<stop offset="0.95" stop-color="#FAF7F6"/>
<stop offset="1" stop-color="#FAF7F6"/>
</radialGradient>
<radialGradient id="paint31_radial_354_1403" cx="0" cy="0" r="1" gradientUnits="userSpaceOnUse" gradientTransform="translate(39.5254 38.5424) rotate(-0.37) scale(18.625)">
<stop offset="0.66" stop-color="#F4EFED"/>
<stop offset="0.95" stop-color="#F4EFED"/>
<stop offset="1" stop-color="#F4EFED"/>
</radialGradient>
<radialGradient id="paint32_radial_354_1403" cx="0" cy="0" r="1" gradientUnits="userSpaceOnUse" gradientTransform="translate(39.4894 38.5082) rotate(-0.55) scale(18.5643 18.5643)">
<stop offset="0.66" stop-color="#EFE6E5"/>
<stop offset="0.95" stop-color="#EFE6E5"/>
<stop offset="1" stop-color="#EFE6E5"/>
</radialGradient>
<radialGradient id="paint33_radial_354_1403" cx="0" cy="0" r="1" gradientUnits="userSpaceOnUse" gradientTransform="translate(39.5258 38.3714) rotate(-0.948018) scale(18.4232)">
<stop offset="0.66" stop-color="#EADEDC"/>
<stop offset="0.95" stop-color="#EADEDC"/>
<stop offset="1" stop-color="#EADEDC"/>
</radialGradient>
<radialGradient id="paint34_radial_354_1403" cx="0" cy="0" r="1" gradientUnits="userSpaceOnUse" gradientTransform="translate(39.4814 38.5113) rotate(-0.91) scale(18.382)">
<stop offset="0.66" stop-color="#E4D6D3"/>
<stop offset="0.95" stop-color="#E4D6D3"/>
<stop offset="1" stop-color="#E4D6D3"/>
</radialGradient>
<radialGradient id="paint35_radial_354_1403" cx="0" cy="0" r="1" gradientUnits="userSpaceOnUse" gradientTransform="translate(39.4922 38.5212) rotate(-1.1) scale(18.2908)">
<stop offset="0.66" stop-color="#DFCECA"/>
<stop offset="0.95" stop-color="#DFCECA"/>
<stop offset="1" stop-color="#DFCECA"/>
</radialGradient>
<radialGradient id="paint36_radial_354_1403" cx="0" cy="0" r="1" gradientUnits="userSpaceOnUse" gradientTransform="translate(39.4978 38.6236) rotate(-1.1365) scale(18.2324)">
<stop offset="0.66" stop-color="#DAC5C2"/>
<stop offset="0.95" stop-color="#DAC5C2"/>
<stop offset="1" stop-color="#DAC5C2"/>
</radialGradient>
<radialGradient id="paint37_radial_354_1403" cx="0" cy="0" r="1" gradientUnits="userSpaceOnUse" gradientTransform="translate(39.4951 38.5301) rotate(-1.46) scale(18.1085)">
<stop offset="0.66" stop-color="#D4BDB9"/>
<stop offset="0.95" stop-color="#D4BDB9"/>
<stop offset="1" stop-color="#D4BDB9"/>
</radialGradient>
<radialGradient id="paint38_radial_354_1403" cx="0" cy="0" r="1" gradientUnits="userSpaceOnUse" gradientTransform="translate(39.4856 38.5106) rotate(-1.65) scale(18.0477)">
<stop offset="0.66" stop-color="#CFB5B0"/>
<stop offset="0.95" stop-color="#CFB5B0"/>
<stop offset="1" stop-color="#CFB5B0"/>
</radialGradient>
<linearGradient id="paint39_linear_354_1403" x1="40.2816" y1="66.1481" x2="38.6894" y2="10.8732" gradientUnits="userSpaceOnUse">
<stop stop-color="#E8DDDA"/>
<stop offset="0.19" stop-color="#EEE6E4"/>
<stop offset="0.67" stop-color="#FBF8F8"/>
<stop offset="1" stop-color="white"/>
</linearGradient>
</defs>
</svg>
