<svg width="78" height="76" viewBox="0 0 78 76" fill="none" xmlns="http://www.w3.org/2000/svg">
<path d="M62.0632 24.028C64.9202 28.6896 66.3309 34.0937 66.117 39.5571C65.9031 45.0204 64.0742 50.2976 60.8616 54.7217C57.6489 59.1458 53.1967 62.5181 48.0678 64.4122C42.9389 66.3063 37.3635 66.6373 32.0465 65.3633C26.7295 64.0892 21.9096 61.2674 18.1961 57.2544C14.4826 53.2415 12.0422 48.2177 11.1835 42.818C10.3248 37.4184 11.0862 31.8853 13.3716 26.9184C15.657 21.9514 19.3637 17.7736 24.0232 14.9129C30.2777 11.0825 37.7967 9.89091 44.9291 11.5999C52.0614 13.309 58.2239 17.7789 62.0632 24.028Z" fill="#FF9800"/>
<g style="mix-blend-mode:screen" opacity="0.5">
<path opacity="0.05" d="M55.7434 28.3727C57.8375 31.7743 58.8763 35.7203 58.7287 39.7121C58.581 43.7039 57.2534 47.5623 54.9136 50.7999C52.5739 54.0375 49.327 56.5089 45.5832 57.9018C41.8395 59.2947 37.7668 59.5467 33.8799 58.6259C29.9929 57.7051 26.4661 55.6528 23.7452 52.7284C21.0242 49.8039 19.2311 46.1386 18.5924 42.1954C17.9538 38.2523 18.4983 34.2083 20.1571 30.5745C21.8159 26.9407 24.5146 23.8802 27.9122 21.7795C30.1718 20.3825 32.6847 19.4448 35.3072 19.02C37.9296 18.5953 40.6101 18.6919 43.1951 19.3043C45.7802 19.9167 48.2191 21.0329 50.3723 22.589C52.5255 24.145 54.3507 26.1105 55.7434 28.3727Z" fill="url(#paint0_radial_357_1556)"/>
<path opacity="0.1" d="M55.713 28.3424C57.8143 31.7437 58.8593 35.692 58.7158 39.6875C58.5722 43.6829 57.2465 47.546 54.9064 50.7878C52.5663 54.0295 49.3171 56.5041 45.5701 57.8984C41.823 59.2926 37.7465 59.5439 33.8565 58.6204C29.9666 57.6968 26.4381 55.64 23.7176 52.7102C20.9972 49.7804 19.207 46.1094 18.5739 42.1618C17.9407 38.2141 18.4929 34.1674 20.1606 30.5338C21.8283 26.9001 24.5366 23.8429 27.9425 21.7492C30.1986 20.3576 32.7068 19.4243 35.3237 19.0025C37.9406 18.5807 40.615 18.6788 43.194 19.2911C45.773 19.9034 48.2061 21.0179 50.3542 22.571C52.5022 24.1241 54.3232 26.0852 55.713 28.3424Z" fill="url(#paint1_radial_357_1556)"/>
<path opacity="0.14" d="M55.6826 28.3424C57.778 31.7394 58.8186 35.6816 58.6729 39.6702C58.5272 43.6588 57.2016 47.5146 54.864 50.7497C52.5264 53.9847 49.2817 56.4537 45.5405 57.8443C41.7993 59.2348 37.7297 59.4844 33.8467 58.5615C29.9636 57.6386 26.4415 55.5846 23.726 52.6594C21.0106 49.7343 19.2238 46.0694 18.5917 42.1285C17.9597 38.1876 18.5108 34.1478 20.1753 30.5202C21.8398 26.8926 24.5429 23.8402 27.9426 21.7492C30.1963 20.3584 32.7021 19.4256 35.3167 19.0043C37.9312 18.5829 40.6032 18.6813 43.1798 19.2936C45.7563 19.906 48.1868 21.0204 50.3322 22.5731C52.4776 24.1258 54.2957 26.0863 55.6826 28.3424Z" fill="url(#paint2_radial_357_1556)"/>
<path opacity="0.19" d="M55.6826 28.3424C57.7683 31.7353 58.8015 35.6702 58.6516 39.6501C58.5017 43.6299 57.1754 47.476 54.8404 50.7024C52.5054 53.9287 49.2664 56.3905 45.5327 57.7766C41.7991 59.1628 37.7383 59.4111 33.8636 58.4901C29.9889 57.5692 26.4741 55.5204 23.7634 52.6025C21.0527 49.6847 19.2677 46.0288 18.6341 42.0969C18.0004 38.165 18.5465 34.1334 20.2033 30.5118C21.8601 26.8901 24.5533 23.8408 27.9425 21.7492C30.1962 20.3584 32.7021 19.4256 35.3166 19.0043C37.9312 18.5829 40.6032 18.6813 43.1797 19.2936C45.7563 19.906 48.1867 21.0204 50.3321 22.5731C52.4775 24.1258 54.2957 26.0863 55.6826 28.3424Z" fill="url(#paint3_radial_357_1556)"/>
<path opacity="0.24" d="M55.6523 28.312C57.7402 31.698 58.7771 35.6272 58.632 39.6026C58.4868 43.578 57.1662 47.4211 54.8369 50.6459C52.5077 53.8708 49.2745 56.3325 45.5462 57.7198C41.8179 59.1071 37.7619 59.3578 33.8912 58.44C30.0204 57.5222 26.5088 55.4773 23.8002 52.5638C21.0917 49.6503 19.3079 45.999 18.6744 42.0717C18.0409 38.1444 18.5862 34.1175 20.2414 30.5001C21.8965 26.8827 24.5871 23.8374 27.973 21.7491C32.5158 18.9568 37.9805 18.0796 43.169 19.3098C48.3576 20.54 52.8467 23.7773 55.6523 28.312Z" fill="url(#paint4_radial_357_1556)"/>
<path opacity="0.29" d="M55.6523 28.312C57.7402 31.6981 58.7771 35.6272 58.632 39.6026C58.4868 43.578 57.1662 47.4211 54.8369 50.646C52.5077 53.8708 49.2745 56.3325 45.5462 57.7198C41.8179 59.1072 37.7619 59.3578 33.8912 58.44C30.0204 57.5223 26.5088 55.4773 23.8002 52.5638C21.0917 49.6503 19.3079 45.999 18.6744 42.0718C18.0409 38.1445 18.5862 34.1175 20.2414 30.5001C21.8965 26.8828 24.5871 23.8374 27.973 21.7492C30.2213 20.3625 32.7208 19.4323 35.3286 19.0117C37.9365 18.591 40.6016 18.6882 43.1719 19.2976C45.7422 19.907 48.1673 21.0168 50.3087 22.5635C52.4501 24.1102 54.2658 26.0635 55.6523 28.312Z" fill="url(#paint5_radial_357_1556)"/>
<path opacity="0.33" d="M55.6218 28.312C57.7074 31.6937 58.743 35.6179 58.5978 39.5883C58.4526 43.5586 57.133 47.3967 54.806 50.617C52.4791 53.8372 49.2492 56.2949 45.5252 57.6792C41.8011 59.0635 37.7501 59.3121 33.8848 58.3936C30.0194 57.475 26.5133 55.4307 23.81 52.5191C21.1067 49.6076 19.3277 45.9597 18.6981 42.0369C18.0685 38.114 18.6166 34.0926 20.2729 30.4814C21.9293 26.8701 24.6195 23.8312 28.0033 21.7492C32.5368 18.9598 37.9921 18.0843 43.1708 19.3148C48.3495 20.5454 52.8278 23.7815 55.6218 28.312Z" fill="url(#paint6_radial_357_1556)"/>
<path opacity="0.38" d="M55.5916 28.2816C57.6757 31.6566 58.712 35.5739 58.5695 39.538C58.427 43.502 57.1121 47.3348 54.791 50.5514C52.47 53.7681 49.2471 56.2241 45.5301 57.6089C41.813 58.9937 37.7688 59.245 33.9089 58.331C30.049 57.4171 26.5469 55.3789 23.8455 52.4743C21.1441 49.5698 19.3648 45.9293 18.7326 42.0134C18.1005 38.0974 18.6439 34.082 20.2941 30.4749C21.9443 26.8679 24.6272 23.8313 28.0034 21.7492C32.5306 18.9667 37.9761 18.0919 43.147 19.3163C48.3179 20.5407 52.7928 23.7645 55.5916 28.2816Z" fill="url(#paint7_radial_357_1556)"/>
<path opacity="0.43" d="M55.5916 28.2816C57.6757 31.6566 58.712 35.5739 58.5695 39.538C58.427 43.502 57.1121 47.3348 54.791 50.5514C52.47 53.7681 49.2471 56.2241 45.5301 57.6089C41.813 58.9937 37.7688 59.245 33.9089 58.331C30.049 57.4171 26.5469 55.3789 23.8455 52.4743C21.1441 49.5698 19.3648 45.9293 18.7326 42.0134C18.1005 38.0974 18.6439 34.082 20.2941 30.4749C21.9443 26.8679 24.6272 23.8313 28.0034 21.7492C30.2429 20.3634 32.7338 19.4331 35.3333 19.0114C37.9329 18.5897 40.5901 18.685 43.1528 19.2918C45.7155 19.8986 48.1332 21.005 50.2677 22.5476C52.4021 24.0902 54.2113 26.0388 55.5916 28.2816Z" fill="url(#paint8_radial_357_1556)"/>
<path opacity="0.48" d="M55.5611 28.2816C57.6332 31.648 58.6608 35.5531 58.514 39.5034C58.3672 43.4536 57.0527 47.2717 54.7365 50.4751C52.4204 53.6784 49.2066 56.1233 45.5013 57.5006C41.796 58.8779 37.7656 59.1259 33.9194 58.2131C30.0732 57.3004 26.584 55.268 23.8926 52.3727C21.2012 49.4774 19.4286 45.8493 18.7987 41.9468C18.1688 38.0443 18.7099 34.0427 20.3537 30.4477C21.9975 26.8527 24.6701 23.8256 28.0338 21.7492C32.5516 18.9697 37.9877 18.0965 43.1487 19.3213C48.3097 20.546 52.7739 23.7686 55.5611 28.2816Z" fill="url(#paint9_radial_357_1556)"/>
<path opacity="0.52" d="M55.5308 28.2512C57.6245 31.6168 58.6706 35.5287 58.5361 39.4901C58.4015 43.4515 57.0926 47.2834 54.7754 50.4992C52.4582 53.715 49.2375 56.1694 45.5223 57.5507C41.8071 58.932 37.7652 59.1777 33.9101 58.2568C30.0549 57.3358 26.5605 55.2897 23.8708 52.3784C21.181 49.467 19.4174 45.8219 18.8039 41.906C18.1904 37.9901 18.7548 33.9803 20.4253 30.3859C22.0958 26.7914 24.797 23.7747 28.1858 21.7188C32.6818 18.9727 38.0821 18.1183 43.2063 19.3424C48.3304 20.5665 52.7615 23.7695 55.5308 28.2512Z" fill="url(#paint10_radial_357_1556)"/>
<path opacity="0.57" d="M55.5308 28.2513C57.6149 31.6127 58.6535 35.5174 58.5148 39.47C58.3761 43.4227 57.0664 47.245 54.7519 50.4521C52.4373 53.6591 49.2222 56.1064 45.5146 57.4833C41.8069 58.8601 37.7738 59.1046 33.927 58.1856C30.0802 57.2667 26.5931 55.2257 23.9081 52.3217C21.2231 49.4177 19.4613 45.7815 18.8462 41.8746C18.2311 37.9677 18.7904 33.9661 20.4532 30.3775C22.116 26.789 24.8074 23.7753 28.1857 21.7188C32.6838 18.9808 38.0816 18.1309 43.2034 19.3545C48.3251 20.578 52.756 23.7758 55.5308 28.2513Z" fill="url(#paint11_radial_357_1556)"/>
<path opacity="0.62" d="M55.5002 28.2513C57.5747 31.6085 58.6059 35.506 58.463 39.4499C58.3202 43.3938 57.0097 47.2065 54.6978 50.4049C52.3858 53.6032 49.1764 56.0433 45.4763 57.4157C41.7762 58.7882 37.7519 59.0314 33.9135 58.1144C30.075 57.1975 26.5951 55.1617 23.9149 52.265C21.2346 49.3683 19.4746 45.7411 18.8579 41.8431C18.2412 37.9451 18.7955 33.9518 20.4507 30.3692C22.1058 26.7866 24.7873 23.776 28.1552 21.7188C32.6532 18.9808 38.051 18.1309 43.1728 19.3545C48.2946 20.578 52.7254 23.7758 55.5002 28.2513Z" fill="url(#paint12_radial_357_1556)"/>
<path opacity="0.67" d="M55.47 28.2208C57.5491 31.5757 58.5853 35.4724 58.4473 39.4169C58.3093 43.3613 57.0033 47.1761 54.6949 50.3775C52.3865 53.5789 49.1795 56.0229 45.4805 57.3996C41.7815 58.7764 37.7571 59.0239 33.9172 58.1109C30.0774 57.1979 26.5951 55.1654 23.9117 52.271C21.2283 49.3767 19.4646 45.7508 18.8442 41.853C18.2238 37.9551 18.7746 33.9609 20.4269 30.3765C22.0791 26.792 24.7583 23.7788 28.1249 21.7188C32.6172 18.9699 38.0149 18.1108 43.1387 19.3291C48.2624 20.5475 52.6957 23.7442 55.47 28.2208Z" fill="url(#paint13_radial_357_1556)"/>
<path opacity="0.71" d="M55.47 28.2209C57.5394 31.5716 58.5682 35.4611 58.426 39.3968C58.2839 43.3325 56.9771 47.1376 54.6713 50.3303C52.3655 53.523 49.1642 55.9597 45.4727 57.3321C41.7813 58.7045 37.7656 58.9507 33.9342 58.0397C30.1027 57.1286 26.6277 55.1013 23.949 52.2142C21.2703 49.3272 19.5085 45.7103 18.8865 41.8215C18.2645 37.9326 18.8103 33.9466 20.4549 30.3681C22.0994 26.7896 24.7687 23.7795 28.1249 21.7188C32.6151 18.9619 38.0154 18.0981 43.1416 19.317C48.2677 20.5359 52.7012 23.7379 55.47 28.2209Z" fill="url(#paint14_radial_357_1556)"/>
<path opacity="0.76" d="M55.4395 28.1905C57.5039 31.5348 58.5303 35.4161 58.3888 39.3437C58.2473 43.2713 56.9443 47.0687 54.6445 50.2557C52.3448 53.4427 49.1516 55.8762 45.4688 57.2484C41.7861 58.6206 37.7791 58.8699 33.9546 57.9648C30.1301 57.0597 26.6599 55.0408 23.9829 52.1634C21.3058 49.286 19.5422 45.6794 18.9149 41.7997C18.2876 37.9199 18.8249 33.9413 20.4589 30.3669C22.0928 26.7926 24.75 23.783 28.0945 21.7188C32.581 18.9592 37.9786 18.0907 43.1044 19.3038C48.2301 20.5169 52.6659 23.7126 55.4395 28.1905Z" fill="url(#paint15_radial_357_1556)"/>
<path opacity="0.81" d="M55.4092 28.1905C57.464 31.5306 58.4829 35.4047 58.3372 39.3235C58.1915 43.2423 56.8878 47.0301 54.5906 50.2084C52.2935 53.3866 49.106 55.8129 45.4307 57.1807C41.7555 58.5485 37.7573 58.7965 33.9412 57.8934C30.1251 56.9902 26.6622 54.9764 23.9899 52.1064C21.3176 49.2363 19.5558 45.6387 18.9269 41.768C18.2981 37.8972 18.8304 33.9269 20.4567 30.3584C22.083 26.79 24.7302 23.7836 28.0642 21.7188C30.2835 20.3443 32.7522 19.4214 35.3289 19.0027C37.9056 18.5841 40.5396 18.6781 43.0799 19.2793C45.6202 19.8805 48.0168 20.9771 50.1326 22.5063C52.2483 24.0354 54.0414 25.9671 55.4092 28.1905Z" fill="url(#paint16_radial_357_1556)"/>
<path opacity="0.86" d="M55.4092 28.1905C57.464 31.5306 58.4829 35.4047 58.3372 39.3235C58.1915 43.2423 56.8878 47.0301 54.5906 50.2084C52.2935 53.3866 49.106 55.8129 45.4307 57.1807C41.7555 58.5485 37.7573 58.7965 33.9412 57.8934C30.1251 56.9902 26.6622 54.9764 23.9899 52.1064C21.3176 49.2363 19.5558 45.6387 18.9269 41.768C18.2981 37.8972 18.8304 33.9269 20.4567 30.3584C22.083 26.79 24.7302 23.7836 28.0642 21.7188C30.2835 20.3443 32.7522 19.4214 35.3289 19.0027C37.9056 18.5841 40.5396 18.6781 43.0799 19.2793C45.6202 19.8805 48.0168 20.9771 50.1326 22.5063C52.2483 24.0354 54.0414 25.9671 55.4092 28.1905Z" fill="url(#paint17_radial_357_1556)"/>
<path opacity="0.9" d="M55.3789 28.16C57.4286 31.4937 58.445 35.3597 58.3 39.2703C58.1549 43.181 56.8548 46.9611 54.5638 50.1337C52.2727 53.3063 49.0933 55.7292 45.4268 57.0968C41.7602 58.4645 37.7707 58.7155 33.9616 57.8182C30.1525 56.921 26.6944 54.9157 24.0238 52.0553C21.3531 49.1949 19.5895 45.6075 18.9554 41.7459C18.3213 37.8843 18.8451 33.9214 20.4608 30.3571C22.0765 26.7929 24.7117 23.787 28.0338 21.7188C30.249 20.3349 32.7163 19.4035 35.2934 18.9783C37.8705 18.5531 40.5062 18.6425 43.0486 19.2413C45.5909 19.8402 47.9894 20.9367 50.1058 22.4674C52.2221 23.9982 54.0143 25.933 55.3789 28.16Z" fill="url(#paint18_radial_357_1556)"/>
<path opacity="0.95" d="M55.3484 28.1601C57.3839 31.4918 58.3878 35.3514 58.2337 39.2527C58.0796 43.154 56.7744 46.9224 54.4825 50.0832C52.1905 53.244 49.0144 55.6558 45.3543 57.0148C41.6941 58.3738 37.7136 58.6191 33.9142 57.7199C30.1149 56.8208 26.6666 54.8173 24.0038 51.9619C21.341 49.1064 19.5829 45.5269 18.9508 41.674C18.3188 37.8212 18.8411 33.8675 20.4521 30.311C22.063 26.7545 24.6904 23.7543 28.0033 21.6884C30.2203 20.3059 32.6893 19.3763 35.2676 18.9533C37.8458 18.5304 40.4824 18.6224 43.0249 19.2241C45.5674 19.8259 47.9655 20.9254 50.0807 22.4591C52.1959 23.9929 53.9863 25.9305 55.3484 28.1601Z" fill="url(#paint19_radial_357_1556)"/>
<path d="M55.3486 28.1601C57.4022 31.4912 58.4216 35.3565 58.2778 39.2671C58.134 43.1777 56.8334 46.9578 54.5407 50.129C52.2479 53.3002 49.066 55.7201 45.3976 57.0825C41.7291 58.4448 37.739 58.6884 33.9321 57.7824C30.1252 56.8764 26.6726 54.8615 24.0111 51.9927C21.3496 49.1239 19.5989 45.5302 18.9805 41.6661C18.3621 37.802 18.9037 33.8414 20.5369 30.2852C22.1701 26.7291 24.8214 23.7373 28.1554 21.6884C32.6206 18.9444 37.9924 18.0846 43.091 19.298C48.1896 20.5115 52.5982 23.6988 55.3486 28.1601Z" fill="url(#paint20_radial_357_1556)"/>
</g>
<path d="M55.3483 28.1601C57.402 31.4912 58.4214 35.3565 58.2775 39.2671C58.1337 43.1777 56.8332 46.9578 54.5404 50.129C52.2477 53.3002 49.0658 55.7201 45.3973 57.0825C41.7289 58.4448 37.7388 58.6884 33.9319 57.7824C30.125 56.8764 26.6723 54.8615 24.0109 51.9927C21.3494 49.1239 19.5987 45.5302 18.9803 41.6661C18.3618 37.802 18.9035 33.8414 20.5367 30.2852C22.1699 26.7291 24.8212 23.7373 28.1552 21.6884C32.6204 18.9444 37.9921 18.0846 43.0907 19.298C48.1893 20.5115 52.5979 23.6988 55.3483 28.1601Z" fill="#FF9800"/>
<path d="M30.3125 12.1177L32.409 16.3106C32.4975 16.4751 32.6377 16.6058 32.8079 16.6827C32.9781 16.7596 33.1689 16.7783 33.3508 16.736C36.3377 16.0162 39.4412 15.9231 42.4659 16.4625C42.655 16.506 42.8534 16.481 43.0259 16.392C43.1983 16.303 43.3336 16.1557 43.4078 15.9764L45.2004 11.6923C40.2926 10.4665 35.1423 10.6137 30.3125 12.1177Z" fill="#F0EEED"/>
<path d="M11.5356 32.4442L16.2147 32.6872C16.3767 32.6784 16.5324 32.6217 16.6622 32.5244C16.792 32.427 16.89 32.2934 16.9439 32.1403C17.8479 29.1869 19.3588 26.4548 21.3799 24.1191C21.4983 23.973 21.5629 23.7907 21.5629 23.6026C21.5629 23.4145 21.4983 23.2322 21.3799 23.0861L18.615 19.3185C15.095 22.9609 12.6457 27.502 11.5356 32.4442Z" fill="#F0EEED"/>
<path d="M19.7695 58.8473L22.3217 54.9279C22.4401 54.7818 22.5047 54.5994 22.5047 54.4114C22.5047 54.2233 22.4401 54.0409 22.3217 53.8948C20.2231 51.6738 18.5999 49.0477 17.5515 46.1775C17.4958 45.9931 17.3769 45.8342 17.2158 45.7287C17.0548 45.6232 16.8617 45.5777 16.6704 45.6002L12.0217 46.1471C13.3984 51.0076 16.0775 55.3993 19.7695 58.8473Z" fill="#F0EEED"/>
<path d="M46.7197 64.924L44.6232 60.7311C44.5347 60.5667 44.3945 60.4359 44.2243 60.359C44.054 60.2822 43.8632 60.2634 43.6813 60.3058C40.6945 61.0255 37.5909 61.1186 34.5663 60.5792C34.3772 60.5357 34.1787 60.5607 34.0063 60.6497C33.8339 60.7387 33.6985 60.886 33.6244 61.0653L31.8318 65.3494C36.7396 66.5752 41.8899 66.4281 46.7197 64.924Z" fill="#F0EEED"/>
<path d="M65.5573 44.5975L60.8174 44.2936C60.6311 44.2785 60.4451 44.3275 60.2904 44.4325C60.1357 44.5375 60.0215 44.6922 59.9667 44.8709C59.0951 47.8036 57.6261 50.5242 55.6523 52.8618C55.5339 53.0079 55.4692 53.1902 55.4692 53.3783C55.4692 53.5663 55.5339 53.7487 55.6523 53.8948L58.4475 57.6623C61.9689 54.0404 64.4282 49.5212 65.5573 44.5975Z" fill="#F0EEED"/>
<path d="M57.2626 18.1943L54.7104 22.1138C54.592 22.2599 54.5273 22.4423 54.5273 22.6303C54.5273 22.8184 54.592 23.0007 54.7104 23.1468C56.809 25.3679 58.4322 27.994 59.4806 30.8642C59.5363 31.0486 59.6551 31.2074 59.8162 31.313C59.9773 31.4185 60.1704 31.464 60.3617 31.4415L65.0103 30.8946C63.6337 26.0341 60.9546 21.6424 57.2626 18.1943Z" fill="#F0EEED"/>
<path d="M25.8462 23.3595L26.94 24.6963C27.611 24.1389 28.3219 23.6311 29.0668 23.1772C29.8038 22.7126 30.5758 22.3063 31.376 21.9618L30.6468 20.3819C29.7889 20.763 28.9567 21.1994 28.1553 21.6884C27.3491 22.1931 26.5777 22.7514 25.8462 23.3595Z" fill="#F0EEED"/>
<path d="M35.1738 19.045L35.4473 20.7465C37.1706 20.5038 38.9195 20.5038 40.6428 20.7465L40.7948 19.045C38.9311 18.7719 37.0375 18.7719 35.1738 19.045Z" fill="#F0EEED"/>
<path d="M44.7144 21.5973C46.3502 22.1802 47.8872 23.0102 49.2719 24.0583L50.3657 22.6303C48.8105 21.5271 47.1141 20.638 45.322 19.9869L44.7144 21.5973Z" fill="#F0EEED"/>
<path d="M56.4421 40.6173L58.1436 40.7693C58.3635 38.9082 58.3123 37.0251 57.9917 35.1787L56.4421 35.4218C56.6849 37.1451 56.6849 38.894 56.4421 40.6173Z" fill="#F0EEED"/>
<path d="M55.3485 28.1601C54.8438 27.3539 54.2855 26.5824 53.6774 25.851L52.3406 26.9448C52.898 27.6158 53.4058 28.3266 53.8597 29.0716C54.3243 29.8085 54.7307 30.5806 55.0751 31.3807L56.655 30.6515C56.2739 29.7937 55.8375 28.9614 55.3485 28.1601Z" fill="#F0EEED"/>
<path d="M20.6203 36.4244L18.8884 36.2725C18.6153 38.1362 18.6153 40.0297 18.8884 41.8934L20.5899 41.6199C20.3419 39.8962 20.3521 38.1451 20.6203 36.4244Z" fill="#F0EEED"/>
<path d="M23.3548 51.1907L24.6916 50.0969C24.1342 49.4258 23.6264 48.715 23.1725 47.97C22.7079 47.2331 22.3016 46.461 21.9571 45.6609L20.3772 46.3901C20.7583 47.248 21.1947 48.0802 21.6837 48.8815C22.1884 49.6877 22.7467 50.4592 23.3548 51.1907Z" fill="#F0EEED"/>
<path d="M51.186 53.6821L50.0922 52.3453C49.4212 52.9027 48.7104 53.4105 47.9654 53.8644C47.2285 54.329 46.4564 54.7354 45.6562 55.0798L46.3855 56.6597C47.2433 56.2786 48.0756 55.8422 48.8769 55.3532C49.6831 54.8485 50.4546 54.2902 51.186 53.6821Z" fill="#F0EEED"/>
<path d="M19.9822 31.7149L21.6229 32.3226C22.2058 30.6867 23.0358 29.1498 24.0839 27.7651L22.6559 26.7321C21.5468 28.2666 20.6477 29.9424 19.9822 31.7149Z" fill="#F0EEED"/>
<path d="M57.0803 45.3267L55.4396 44.7191C54.8566 46.3549 54.0266 47.8919 52.9785 49.2766L54.4065 50.3096C55.5156 48.7751 56.4148 47.0993 57.0803 45.3267Z" fill="#F0EEED"/>
<path d="M32.3178 55.4444C30.682 54.8614 29.145 54.0315 27.7603 52.9833L26.7273 54.4114C28.2618 55.5204 29.9376 56.4196 31.7102 57.0851L32.3178 55.4444Z" fill="#F0EEED"/>
<path d="M41.8885 57.9966L41.6151 56.447C39.8917 56.6898 38.1428 56.6898 36.4195 56.447L36.2676 58.1485C38.1386 58.3713 40.0322 58.3201 41.8885 57.9966Z" fill="#F0EEED"/>
<path d="M26.7879 16.9486L26.393 18.6197C26.3562 18.6714 26.3007 18.7068 26.2382 18.7181C26.1758 18.7295 26.1114 18.7159 26.0587 18.6804L24.418 18.2854C24.3509 18.2708 24.2917 18.2314 24.2523 18.1751C24.2129 18.1188 24.1961 18.0497 24.2054 17.9816L24.6003 16.3105C24.6075 16.2742 24.6219 16.2397 24.6428 16.2091C24.6637 16.1785 24.6906 16.1524 24.7218 16.1325C24.7531 16.1126 24.7881 16.0993 24.8246 16.0933C24.8612 16.0874 24.8986 16.0889 24.9346 16.0978L26.5753 16.4928C26.6288 16.4911 26.6817 16.5051 26.7273 16.5331C26.773 16.5611 26.8094 16.6019 26.8321 16.6505C26.8547 16.699 26.8626 16.7532 26.8548 16.8062C26.8469 16.8592 26.8237 16.9087 26.7879 16.9486Z" fill="#F0EEED"/>
<path d="M13.9055 37.822L15.1512 39.007C15.1983 39.062 15.2241 39.132 15.2241 39.2044C15.2241 39.2769 15.1983 39.3469 15.1512 39.4019L13.9055 40.6173C13.8827 40.6431 13.8546 40.6639 13.8232 40.678C13.7917 40.6922 13.7576 40.6996 13.7232 40.6996C13.6887 40.6996 13.6546 40.6922 13.6232 40.678C13.5917 40.6639 13.5637 40.6431 13.5409 40.6173L12.3255 39.4627C12.2989 39.4372 12.2777 39.4065 12.2632 39.3726C12.2487 39.3386 12.2412 39.3021 12.2412 39.2652C12.2412 39.2283 12.2487 39.1918 12.2632 39.1578C12.2777 39.1239 12.2989 39.0932 12.3255 39.0677L13.5105 37.8524C13.5339 37.8237 13.5629 37.8 13.5957 37.7828C13.6285 37.7657 13.6645 37.7554 13.7015 37.7525C13.7384 37.7497 13.7755 37.7544 13.8106 37.7663C13.8457 37.7783 13.8779 37.7972 13.9055 37.822Z" fill="#F0EEED"/>
<path d="M25.6032 59.4854L27.2135 58.9992C27.2861 58.979 27.3635 58.9865 27.4309 59.0202C27.4983 59.0539 27.5507 59.1114 27.5781 59.1815L28.0642 60.8222C28.0832 60.8907 28.0748 60.9639 28.0408 61.0263C28.0068 61.0887 27.9498 61.1354 27.8819 61.1565L26.2412 61.6426C26.2004 61.635 26.1622 61.617 26.1303 61.5904C26.0984 61.5638 26.0738 61.5295 26.0589 61.4907L25.5728 59.85C25.5319 59.7962 25.5124 59.7292 25.518 59.6618C25.5236 59.5945 25.554 59.5317 25.6032 59.4854Z" fill="#F0EEED"/>
<path d="M50.3656 60.2145L50.7606 58.5434C50.7668 58.5074 50.7812 58.4732 50.8025 58.4434C50.8238 58.4137 50.8515 58.3891 50.8837 58.3716C50.9158 58.3541 50.9515 58.344 50.988 58.3422C51.0246 58.3404 51.0611 58.3469 51.0948 58.3611L52.7355 58.7561C52.8026 58.7708 52.8618 58.8102 52.9012 58.8665C52.9406 58.9228 52.9574 58.9919 52.9482 59.06L52.5532 60.731C52.5461 60.7674 52.5316 60.8019 52.5107 60.8325C52.4898 60.8631 52.4629 60.8891 52.4317 60.909C52.4004 60.9289 52.3655 60.9423 52.3289 60.9482C52.2923 60.9542 52.2549 60.9527 52.219 60.9437L50.3656 60.5487C50.3286 60.5009 50.3086 60.4421 50.3086 60.3816C50.3086 60.3212 50.3286 60.2624 50.3656 60.2145Z" fill="#F0EEED"/>
<path d="M63.157 39.2196L61.9113 38.0347C61.8642 37.9796 61.8384 37.9096 61.8384 37.8372C61.8384 37.7647 61.8642 37.6947 61.9113 37.6397L63.0963 36.4243C63.1191 36.3985 63.1471 36.3778 63.1786 36.3636C63.21 36.3494 63.2441 36.342 63.2786 36.342C63.3131 36.342 63.3471 36.3494 63.3786 36.3636C63.41 36.3778 63.4381 36.3985 63.4609 36.4243L64.7066 37.6093C64.7332 37.6348 64.7545 37.6655 64.7689 37.6994C64.7834 37.7334 64.7909 37.7699 64.7909 37.8068C64.7909 37.8437 64.7834 37.8802 64.7689 37.9141C64.7545 37.9481 64.7332 37.9787 64.7066 38.0043L63.5216 39.2196C63.4715 39.2644 63.4066 39.2892 63.3393 39.2892C63.2721 39.2892 63.2072 39.2644 63.157 39.2196Z" fill="#F0EEED"/>
<path d="M51.429 17.5259L49.8187 18.012C49.7461 18.0322 49.6687 18.0248 49.6013 17.9911C49.5339 17.9574 49.4815 17.8999 49.4541 17.8297L48.968 16.189C48.949 16.1205 48.9574 16.0473 48.9914 15.985C49.0254 15.9226 49.0824 15.8759 49.1503 15.8548L50.791 15.3686C50.8247 15.3544 50.8612 15.3479 50.8977 15.3497C50.9343 15.3515 50.97 15.3616 51.0021 15.3791C51.0342 15.3966 51.062 15.4212 51.0833 15.4509C51.1046 15.4807 51.1189 15.5149 51.1252 15.5509L51.6113 17.1916C51.6303 17.2601 51.6219 17.3333 51.5879 17.3957C51.5538 17.4581 51.4969 17.5048 51.429 17.5259Z" fill="#F0EEED"/>
<g style="mix-blend-mode:multiply">
<path d="M55.3486 28.1601C57.4022 31.4912 58.4216 35.3565 58.2778 39.2671C58.134 43.1777 56.8334 46.9578 54.5407 50.129C52.2479 53.3002 49.066 55.7201 45.3976 57.0825C41.7291 58.4448 37.739 58.6884 33.9321 57.7824C30.1252 56.8764 26.6726 54.8615 24.0111 51.9927C21.3496 49.1239 19.5989 45.5302 18.9805 41.6661C18.3621 37.802 18.9037 33.8414 20.5369 30.2852C22.1701 26.7291 24.8214 23.7373 28.1554 21.6884C32.6206 18.9444 37.9924 18.0846 43.091 19.298C48.1896 20.5115 52.5982 23.6988 55.3486 28.1601Z" fill="url(#paint21_radial_357_1556)"/>
<path opacity="0.89" d="M55.2878 28.1905C57.328 31.5063 58.3394 35.3525 58.194 39.243C58.0486 43.1335 56.7531 46.8936 54.4712 50.0479C52.1892 53.2023 49.0233 55.6093 45.3737 56.9647C41.724 58.3201 37.7545 58.563 33.9668 57.6628C30.1791 56.7626 26.7433 54.7596 24.0937 51.9071C21.4441 49.0546 19.6998 45.4806 19.081 41.6368C18.4623 37.7931 18.9971 33.8522 20.6177 30.3123C22.2383 26.7725 24.872 23.7925 28.1858 21.7492C32.6354 19.015 37.9879 18.1577 43.0689 19.3653C48.1498 20.5728 52.5442 23.7467 55.2878 28.1905Z" fill="url(#paint22_radial_357_1556)"/>
<path opacity="0.78" d="M55.2269 28.2208C57.2633 31.5256 58.274 35.36 58.1313 39.2391C57.9885 43.1183 56.6988 46.868 54.425 50.0142C52.1513 53.1603 48.9958 55.5617 45.3573 56.9145C41.7189 58.2674 37.7611 58.511 33.9842 57.6146C30.2074 56.7181 26.7811 54.722 24.1387 51.8784C21.4963 49.0348 19.7564 45.4716 19.139 41.6392C18.5216 37.8068 19.0545 33.8775 20.6701 30.3479C22.2858 26.8183 24.9118 23.8471 28.2161 21.8099C32.65 19.0857 37.9833 18.2307 43.0466 19.4325C48.1099 20.6342 52.4901 23.7946 55.2269 28.2208Z" fill="url(#paint23_radial_357_1556)"/>
<path opacity="0.67" d="M55.1661 28.2816C57.1927 31.571 58.1984 35.3874 58.0562 39.2483C57.9139 43.1092 56.6301 46.8413 54.3671 49.9726C52.104 53.104 48.9633 55.494 45.342 56.8406C41.7207 58.1872 37.7815 58.4298 34.0223 57.5378C30.2632 56.6458 26.8529 54.6592 24.2227 51.8292C21.5925 48.9993 19.8604 45.453 19.2454 41.6387C18.6305 37.8244 19.1603 33.9134 20.7678 30.4002C22.3754 26.887 24.9885 23.9293 28.2768 21.9011C30.46 20.5498 32.8885 19.6428 35.423 19.2322C37.9575 18.8215 40.5482 18.9153 43.0463 19.5081C45.5445 20.1009 47.9011 21.181 49.9809 22.6866C52.0607 24.1922 53.8228 26.0935 55.1661 28.2816Z" fill="url(#paint24_radial_357_1556)"/>
<path opacity="0.56" d="M55.0751 28.312C57.0918 31.586 58.0925 35.3844 57.9508 39.2271C57.8091 43.0698 56.5312 46.7841 54.2788 49.9007C52.0264 53.0172 48.9005 55.396 45.2964 56.7363C41.6922 58.0766 37.7716 58.3182 34.0302 57.4306C30.2887 56.543 26.8944 54.5661 24.2764 51.7497C21.6583 48.9333 19.934 45.4039 19.3215 41.6078C18.709 37.8116 19.2358 33.919 20.8352 30.4221C22.4346 26.9253 25.0349 23.9811 28.3073 21.9619C30.4816 20.6202 32.8989 19.7202 35.4212 19.3132C37.9435 18.9063 40.5212 19.0003 43.0071 19.5901C45.493 20.1798 47.8383 21.2536 49.909 22.7502C51.9797 24.2467 53.7352 26.1367 55.0751 28.312Z" fill="url(#paint25_radial_357_1556)"/>
<path opacity="0.44" d="M55.0144 28.3424C57.0273 31.6053 58.0274 35.3919 57.8883 39.2232C57.7492 43.0545 56.4771 46.7586 54.2329 49.867C51.9887 52.9753 48.8732 55.3484 45.2803 56.6862C41.6874 58.0239 37.7785 58.2662 34.0479 57.3824C30.3173 56.4986 26.9325 54.5284 24.3216 51.721C21.7107 48.9136 19.991 45.395 19.3798 41.6102C18.7686 37.8254 19.2934 33.9443 20.8879 30.4577C22.4824 26.9712 25.075 24.0358 28.3378 22.0227C30.5043 20.6859 32.913 19.789 35.4262 19.3832C37.9393 18.9773 40.5079 19.0705 42.985 19.6573C45.4622 20.2442 47.7995 21.3132 49.8636 22.8034C51.9276 24.2936 53.6778 26.1758 55.0144 28.3424Z" fill="url(#paint26_radial_357_1556)"/>
<path opacity="0.33" d="M54.9535 28.3728C56.9625 31.6246 57.962 35.3993 57.8256 39.2193C57.6891 43.0392 56.4228 46.7329 54.1868 49.8331C51.9508 52.9333 48.8456 55.3008 45.2639 56.636C41.6823 57.9711 37.7851 58.2141 34.0654 57.3341C30.3456 56.4541 26.9704 54.4907 24.3667 51.6923C21.7629 48.8938 20.0476 45.386 19.4378 41.6125C18.8279 37.8391 19.3508 33.9695 20.9404 30.4933C22.53 27.0171 25.1149 24.0904 28.368 22.0834C30.5257 20.7475 32.9257 19.8505 35.4306 19.4436C37.9355 19.0367 40.4961 19.128 42.9656 19.7123C45.4352 20.2965 47.7652 21.3622 49.8223 22.8483C51.8794 24.3344 53.6231 26.2117 54.9535 28.3728Z" fill="url(#paint27_radial_357_1556)"/>
<path opacity="0.22" d="M54.8929 28.4336C56.8875 31.6724 57.877 35.4299 57.7362 39.2311C57.5953 43.0322 56.3305 46.7062 54.1017 49.7886C51.8728 52.8709 48.78 55.2231 45.2144 56.5478C41.6488 57.8724 37.7704 58.11 34.0697 57.2305C30.369 56.351 27.0122 54.3939 24.4238 51.6067C21.8354 48.8195 20.1316 45.3273 19.5278 41.5718C18.924 37.8163 19.4474 33.9661 21.0318 30.508C22.6162 27.0499 25.1904 24.1393 28.4289 22.1442C30.5783 20.8153 32.9689 19.9238 35.4636 19.5207C37.9583 19.1176 40.508 19.2109 42.9665 19.7952C45.4251 20.3795 47.7441 21.4433 49.7907 22.9257C51.8373 24.408 53.5711 26.2797 54.8929 28.4336Z" fill="url(#paint28_radial_357_1556)"/>
<path opacity="0.11" d="M54.8319 28.4639C56.8228 31.6916 57.8116 35.4373 57.6734 39.2271C57.5352 43.0169 56.2762 46.6806 54.0556 49.7548C51.8349 52.8289 48.7525 55.1755 45.1981 56.4976C41.6437 57.8197 37.777 58.058 34.0872 57.1823C30.3973 56.3066 27.0501 54.3562 24.4688 51.578C21.8876 48.7997 20.1882 45.3183 19.5858 41.5742C18.9833 37.83 19.5048 33.9913 21.0843 30.5435C22.6637 27.0958 25.2302 24.1939 28.4591 22.2049C30.6008 20.881 32.9827 19.9926 35.4683 19.5906C37.9539 19.1886 40.4944 19.281 42.9442 19.8624C45.394 20.4438 47.7051 21.5029 49.745 22.9788C51.7849 24.4548 53.5135 26.3188 54.8319 28.4639Z" fill="url(#paint29_radial_357_1556)"/>
<path opacity="0.11" d="M54.437 28.7069C56.3869 31.8553 57.3589 35.5114 57.2301 39.2125C57.1013 42.9135 55.8775 46.4932 53.7134 49.4984C51.5494 52.5036 48.5425 54.7993 45.0732 56.0949C41.604 57.3905 37.8283 57.6278 34.2241 56.7767C30.62 55.9257 27.3493 54.0246 24.826 51.314C22.3027 48.6033 20.6403 45.2051 20.0491 41.5493C19.4579 37.8935 19.9646 34.1445 21.5049 30.7767C23.0452 27.409 25.55 24.5739 28.7023 22.6303C30.7894 21.3339 33.1121 20.4627 35.5369 20.0665C37.9618 19.6703 40.441 19.757 42.8322 20.3217C45.2234 20.8863 47.4795 21.9177 49.471 23.3567C51.4625 24.7957 53.1502 26.6139 54.437 28.7069Z" fill="url(#paint30_radial_357_1556)"/>
<path opacity="0.22" d="M54.3762 28.7373C56.3081 31.8728 57.267 35.5106 57.1318 39.191C56.9966 42.8714 55.7733 46.429 53.6166 49.4143C51.4598 52.3996 48.4665 54.6784 45.0149 55.9628C41.5633 57.2472 37.8083 57.4795 34.2247 56.6303C30.6411 55.7811 27.3897 53.8886 24.8815 51.1919C22.3733 48.4952 20.7208 45.1154 20.1331 41.4798C19.5453 37.8442 20.0485 34.1159 21.5792 30.7662C23.1098 27.4165 25.5992 24.5958 28.7326 22.6606C30.8151 21.3746 33.1305 20.5115 35.5467 20.1209C37.9629 19.7303 40.4323 19.8197 42.8139 20.384C45.1955 20.9484 47.4425 21.9766 49.4264 23.4099C51.4104 24.8432 53.0924 26.6535 54.3762 28.7373Z" fill="url(#paint31_radial_357_1556)"/>
<path opacity="0.33" d="M54.3154 28.7981C56.2425 31.9247 57.1988 35.5527 57.0634 39.2229C56.928 42.8932 55.707 46.4409 53.5548 49.417C51.4027 52.3931 48.416 54.664 44.9729 55.9422C41.5298 57.2205 37.7848 57.4487 34.2119 56.5981C30.639 55.7474 27.3988 53.856 24.9011 51.1632C22.4034 48.4705 20.7606 45.0974 20.1805 41.4707C19.6004 37.8441 20.1092 34.1268 21.6423 30.7893C23.1754 27.4519 25.6641 24.6441 28.7933 22.7214C32.9845 20.1463 38.0264 19.3398 42.8116 20.4792C47.5969 21.6186 51.7344 24.6106 54.3154 28.7981Z" fill="url(#paint32_radial_357_1556)"/>
<path opacity="0.44" d="M47.1287 54.8723C56.156 50.1188 59.6206 38.9472 54.8671 29.9198C50.1135 20.8925 38.9419 17.4279 29.9146 22.1814C20.8872 26.9349 17.4226 38.1066 22.1761 47.1339C26.9297 56.1613 38.1013 59.6259 47.1287 54.8723Z" fill="url(#paint33_radial_357_1556)"/>
<path opacity="0.56" d="M46.976 54.8286C55.9875 50.1534 59.5029 39.0582 54.8277 30.0467C50.1526 21.0351 39.0574 17.5198 30.0458 22.1949C21.0343 26.87 17.5189 37.9653 22.1941 46.9768C26.8692 55.9883 37.9644 59.5037 46.976 54.8286Z" fill="url(#paint34_radial_357_1556)"/>
<path opacity="0.67" d="M46.8909 54.7761C55.8699 50.1476 59.3967 39.1166 54.7682 30.1376C50.1398 21.1586 39.1088 17.6318 30.1297 22.2602C21.1507 26.8887 17.6239 37.9197 22.2524 46.8987C26.8808 55.8777 37.9119 59.4045 46.8909 54.7761Z" fill="url(#paint35_radial_357_1556)"/>
<path opacity="0.78" d="M46.8402 54.6979C55.7809 50.105 59.3055 39.1338 54.7126 30.1932C50.1196 21.2525 39.1485 17.7279 30.2078 22.3208C21.2671 26.9137 17.7426 37.8849 22.3355 46.8256C26.9284 55.7662 37.8995 59.2908 46.8402 54.6979Z" fill="url(#paint36_radial_357_1556)"/>
<path opacity="0.89" d="M46.7692 54.6341C55.6698 50.0735 59.1882 39.161 54.6276 30.2603C50.067 21.3596 39.1545 17.8413 30.2538 22.4019C21.3531 26.9625 17.8348 37.875 22.3954 46.7757C26.956 55.6763 37.8685 59.1947 46.7692 54.6341Z" fill="url(#paint37_radial_357_1556)"/>
<path d="M53.8598 29.102C55.7269 32.1385 56.6514 35.6606 56.5162 39.2227C56.3809 42.7848 55.1922 46.2267 53.1002 49.1129C51.0083 51.9992 48.1072 54.2 44.764 55.437C41.4209 56.674 37.786 56.8915 34.3192 56.062C30.8524 55.2326 27.7096 53.3934 25.2884 50.7772C22.8671 48.161 21.2764 44.8854 20.7173 41.3649C20.1583 37.8444 20.6561 34.2371 22.1478 30.9996C23.6395 27.7621 26.058 25.0398 29.0973 23.1772C33.1676 20.6828 38.0615 19.9056 42.7043 21.0165C47.3471 22.1273 51.3593 25.0354 53.8598 29.102Z" fill="url(#paint38_radial_357_1556)"/>
</g>
<path d="M53.8596 29.102C55.7267 32.1385 56.6511 35.6607 56.5159 39.2228C56.3807 42.7848 55.1919 46.2268 53.1 49.113C51.008 51.9993 48.1069 54.2001 44.7638 55.4371C41.4207 56.6741 37.7857 56.8916 34.3189 56.0621C30.8522 55.2326 27.7093 53.3934 25.2881 50.7773C22.8669 48.1611 21.2761 44.8855 20.7171 41.365C20.1581 37.8444 20.6559 34.2372 22.1476 30.9997C23.6393 27.7621 26.0578 25.0398 29.0971 23.1772C33.1674 20.6828 38.0613 19.9057 42.7041 21.0166C47.3469 22.1274 51.3591 25.0354 53.8596 29.102Z" fill="#FF9800"/>
<g style="mix-blend-mode:multiply">
<path d="M53.8598 29.102C55.7269 32.1385 56.6514 35.6606 56.5162 39.2227C56.3809 42.7848 55.1922 46.2267 53.1002 49.1129C51.0083 51.9992 48.1072 54.2 44.764 55.437C41.4209 56.674 37.786 56.8915 34.3192 56.062C30.8524 55.2326 27.7096 53.3934 25.2884 50.7772C22.8671 48.161 21.2764 44.8854 20.7173 41.3649C20.1583 37.8444 20.6561 34.2371 22.1478 30.9996C23.6395 27.7621 26.058 25.0398 29.0973 23.1772C33.1676 20.6828 38.0615 19.9056 42.7043 21.0165C47.3471 22.1273 51.3593 25.0354 53.8598 29.102Z" fill="#EBEBEB"/>
<path opacity="0.95" d="M53.8598 29.1019C55.7269 32.1384 56.6514 35.6606 56.5162 39.2226C56.3809 42.7847 55.1922 46.2266 53.1002 49.1129C51.0083 51.9991 48.1072 54.2 44.764 55.437C41.4209 56.674 37.786 56.8915 34.3192 56.062C30.8524 55.2325 27.7096 53.3933 25.2884 50.7771C22.8671 48.161 21.2764 44.8854 20.7173 41.3648C20.1583 37.8443 20.6561 34.2371 22.1478 30.9995C23.6395 27.762 26.058 25.0397 29.0973 23.1771C33.1697 20.6908 38.061 19.9183 42.7014 21.0286C47.3418 22.1389 51.3538 25.0416 53.8598 29.1019Z" fill="#ECECEC"/>
<path opacity="0.9" d="M53.8294 29.1019C55.6905 32.1342 56.6106 35.6502 56.4733 39.2054C56.3359 42.7606 55.1473 46.1951 53.0578 49.0747C50.9683 51.9543 48.0718 54.1496 44.7345 55.3828C41.3973 56.6161 37.7693 56.8319 34.3093 56.0031C30.8494 55.1742 27.713 53.3379 25.2968 50.7264C22.8806 48.1148 21.2931 44.8454 20.7352 41.3316C20.1773 37.8178 20.674 34.2175 22.1625 30.986C23.6509 27.7545 26.0643 25.037 29.0973 23.1772C33.1629 20.6842 38.0522 19.9079 42.69 21.019C47.3279 22.13 51.3347 25.0374 53.8294 29.1019Z" fill="#EDEDED"/>
<path opacity="0.86" d="M53.799 29.102C55.6311 32.1413 56.5214 35.6554 56.3577 39.2005C56.194 42.7456 54.9834 46.1626 52.879 49.0202C50.7745 51.8777 47.8705 54.0476 44.5337 55.2559C41.1969 56.4641 37.5769 56.6565 34.1307 55.8087C30.6846 54.961 27.567 53.1111 25.1715 50.4927C22.7761 47.8743 21.2102 44.6048 20.6716 41.0971C20.133 37.5893 20.646 34.0007 22.1456 30.7842C23.6452 27.5678 26.0642 24.8678 29.0973 23.0253C31.1171 21.7983 33.3592 20.982 35.6952 20.6234C38.0311 20.2647 40.4148 20.3707 42.7097 20.9353C45.0046 21.4998 47.1655 22.5118 49.0684 23.9132C50.9713 25.3147 52.5789 27.0779 53.799 29.102Z" fill="#EEEEEE"/>
<path opacity="0.81" d="M53.7687 29.1019C55.5948 32.137 56.4808 35.6449 56.3149 39.1831C56.1491 42.7212 54.9388 46.1309 52.8368 48.9818C50.7348 51.8327 47.8354 53.997 44.5045 55.2015C41.1735 56.406 37.5604 56.5968 34.1212 55.7497C30.682 54.9026 27.5708 53.0556 25.1803 50.4419C22.7898 47.8281 21.2272 44.5648 20.6898 41.0638C20.1523 37.5628 20.664 33.9811 22.1604 30.7706C23.6567 27.5602 26.0706 24.865 29.0974 23.0253C31.1137 21.7949 33.3537 20.976 35.6881 20.6156C38.0225 20.2551 40.4051 20.3604 42.6986 20.9253C44.9921 21.4902 47.1511 22.5036 49.0511 23.9069C50.9511 25.3103 52.5544 27.0759 53.7687 29.1019Z" fill="#EFEFEF"/>
<path opacity="0.76" d="M53.7686 29.1019C55.585 32.1327 56.4636 35.6334 56.2937 39.1627C56.1237 42.692 54.9127 46.0921 52.8134 48.9342C50.7141 51.7764 47.8204 53.9335 44.4971 55.1337C41.1738 56.3339 37.5695 56.5234 34.1386 55.6783C30.7077 54.8333 27.6038 52.9915 25.218 50.3852C22.8322 47.7788 21.2714 44.5245 20.7323 41.0325C20.1931 37.5404 20.6998 33.9669 22.1884 30.7624C23.677 27.5579 26.081 24.8657 29.0972 23.0253C31.1147 21.799 33.3545 20.9833 35.6881 20.6251C38.0217 20.2668 40.403 20.3731 42.6954 20.9377C44.9878 21.5023 47.1461 22.5142 49.0464 23.9153C50.9466 25.3163 52.5514 27.079 53.7686 29.1019Z" fill="#F0F0F0"/>
<path opacity="0.71" d="M53.7382 29.102C55.5583 32.1326 56.4399 35.6345 56.2719 39.1657C56.104 42.6969 54.8939 46.0993 52.7944 48.9435C50.6949 51.7877 47.8 53.9464 44.475 55.1472C41.15 56.348 37.5438 56.5371 34.1114 55.6907C30.6791 54.8442 27.5743 53.0001 25.1888 50.3911C22.8033 47.782 21.2441 44.5249 20.7077 41.0306C20.1713 37.5363 20.6819 33.9615 22.175 30.7571C23.6681 27.5527 26.0768 24.8622 29.0973 23.0253C31.1113 21.7957 33.3489 20.9773 35.6809 20.6172C38.013 20.2572 40.3932 20.3628 42.6843 20.9277C44.9753 21.4927 47.1317 22.506 49.029 23.909C50.9263 25.312 52.5268 27.077 53.7382 29.102Z" fill="#F1F1F1"/>
<path opacity="0.67" d="M53.7079 29.1019C55.522 32.1282 56.3993 35.624 56.2292 39.1482C56.0591 42.6725 54.8492 46.0675 52.7522 48.9051C50.6552 51.7427 47.7649 53.8958 44.4458 55.0929C41.1266 56.2899 37.5274 56.4774 34.1019 55.6316C30.6764 54.7858 27.578 52.9446 25.1976 50.3402C22.8171 47.7358 21.2611 44.4849 20.7258 40.9974C20.1906 37.5098 20.7 33.9419 22.1898 30.7435C23.6796 27.5451 26.0832 24.8594 29.0974 23.0252C31.109 21.7964 33.3443 20.9785 35.674 20.6189C38.0037 20.2592 40.3816 20.365 42.6702 20.9301C44.9587 21.4952 47.1126 22.5083 49.0071 23.911C50.9017 25.3136 52.4994 27.0779 53.7079 29.1019Z" fill="#F2F2F2"/>
<path opacity="0.62" d="M53.708 29.102C55.5124 32.1241 56.3823 35.6125 56.2081 39.1279C56.0339 42.6434 54.8234 46.0287 52.7291 48.8575C50.6347 51.6864 47.7501 53.8323 44.4386 55.0251C41.1271 56.2178 37.5367 56.404 34.1196 55.5603C30.7024 54.7166 27.6113 52.8806 25.2356 50.2836C22.8598 47.6866 21.3055 44.4446 20.7686 40.9661C20.2316 37.4875 20.736 33.9278 22.218 30.7353C23.7001 27.5428 26.0937 24.8602 29.0974 23.0253C31.1102 21.8005 33.3454 20.9859 35.6742 20.6285C38.0031 20.271 40.3797 20.3778 42.6671 20.9426C44.9546 21.5074 47.1077 22.5191 49.0026 23.9194C50.8975 25.3198 52.4966 27.0811 53.708 29.102Z" fill="#F3F3F3"/>
<path opacity="0.57" d="M53.6774 29.1019C55.4758 32.1196 56.3414 35.6019 56.1651 39.1104C55.9887 42.6189 54.7785 45.9969 52.6866 48.8191C50.5947 51.6413 47.7148 53.7816 44.4092 54.9706C41.1036 56.1597 37.5201 56.3443 34.1098 55.5012C30.6995 54.6581 27.6149 52.825 25.2441 50.2327C22.8733 47.6403 21.3224 44.4046 20.7865 40.9328C20.2506 37.461 20.7538 33.9082 22.2326 30.7217C23.7114 27.5352 26.0999 24.8573 29.0972 23.0253C31.1065 21.7971 33.3395 20.9798 35.6669 20.6205C37.9942 20.2613 40.3697 20.3674 42.6558 20.9325C44.9419 21.4977 47.0932 22.5107 48.9851 23.913C50.8769 25.3153 52.4718 27.079 53.6774 29.1019Z" fill="#F4F4F4"/>
<path opacity="0.52" d="M53.6471 29.102C55.4395 32.1153 56.3007 35.5914 56.1223 39.093C55.9438 42.5946 54.7338 45.9652 52.6444 48.7807C50.555 51.5963 47.6796 53.731 44.3799 54.9163C41.0802 56.1016 37.5037 56.2846 34.1003 55.4421C30.6969 54.5997 27.6186 52.7695 25.2529 50.1819C22.8871 47.5942 21.3394 44.3647 20.8047 40.8996C20.2699 37.4345 20.7719 33.8886 22.2474 30.7081C23.723 27.5276 26.1062 24.8546 29.0973 23.0253C31.1054 21.8019 33.3359 20.9884 35.6601 20.6318C37.9843 20.2751 40.3561 20.3824 42.6386 20.9474C44.9211 21.5123 47.0691 22.5238 48.9586 23.9235C50.848 25.3231 52.4415 27.0831 53.6471 29.102Z" fill="#F5F5F5"/>
<path opacity="0.48" d="M53.6471 29.102C55.4395 32.1153 56.3007 35.5915 56.1223 39.093C55.9438 42.5946 54.7338 45.9652 52.6444 48.7808C50.555 51.5963 47.6796 53.731 44.3799 54.9163C41.0802 56.1016 37.5037 56.2846 34.1003 55.4422C30.6969 54.5997 27.6186 52.7696 25.2529 50.1819C22.8871 47.5943 21.3394 44.3647 20.8047 40.8996C20.2699 37.4345 20.7719 33.8887 22.2474 30.7082C23.723 27.5277 26.1062 24.8546 29.0973 23.0253C31.1031 21.7938 33.3339 20.9736 35.6597 20.6126C37.9856 20.2516 40.36 20.3569 42.6448 20.9225C44.9295 21.488 47.0789 22.5024 48.9678 23.9067C50.8567 25.311 52.4474 27.077 53.6471 29.102Z" fill="#F5F5F5"/>
<path opacity="0.43" d="M53.6168 28.9197C55.4308 31.9151 56.3178 35.3804 56.1663 38.879C56.0147 42.3776 54.8313 45.7532 52.765 48.5806C50.6988 51.4079 47.8421 53.5607 44.5548 54.7677C41.2675 55.9747 37.6965 56.182 34.2916 55.3634C30.8867 54.5449 27.8001 52.7372 25.4206 50.1679C23.0411 47.5986 21.475 44.3826 20.9196 40.925C20.3643 37.4674 20.8444 33.9228 22.2996 30.7376C23.7549 27.5523 26.1201 24.8689 29.0974 23.0253C31.0911 21.7907 33.3097 20.9636 35.625 20.5917C37.9403 20.2198 40.3064 20.3105 42.5864 20.8586C44.8664 21.4067 47.0152 22.4014 48.9085 23.785C50.8018 25.1686 52.4021 26.9138 53.6168 28.9197Z" fill="#F6F6F6"/>
<path opacity="0.38" d="M53.5863 28.9197C55.3943 31.9108 56.277 35.3699 56.1233 38.8616C55.9696 42.3533 54.7864 45.7215 52.7226 48.5423C50.6588 51.363 47.8067 53.5101 44.5253 54.7134C41.2439 55.9167 37.6798 56.1223 34.2817 55.3044C30.8837 54.4865 27.8036 52.6817 25.429 50.117C23.0545 47.5524 21.4918 44.3426 20.9375 40.8918C20.3833 37.4409 20.8623 33.9032 22.3143 30.724C23.7662 27.5448 26.1263 24.8661 29.0973 23.0253C31.0886 21.7914 33.3049 20.9648 35.6179 20.5933C37.9308 20.2219 40.2945 20.3128 42.5721 20.861C44.8496 21.4092 46.9959 22.4038 48.8865 23.787C50.7771 25.1703 52.3745 26.9148 53.5863 28.9197Z" fill="#F7F7F7"/>
<path opacity="0.33" d="M53.5864 28.8893C55.3989 31.8781 56.2867 35.3365 56.1378 38.8288C55.9889 42.3211 54.8101 45.6914 52.7498 48.5152C50.6895 51.3389 47.8397 53.49 44.5594 54.6975C41.2791 55.905 37.7148 56.115 34.3154 55.301C30.916 54.487 27.8334 52.6854 25.4557 50.1231C23.0781 47.5607 21.5118 44.3522 20.9539 40.9015C20.396 37.4508 20.8715 33.9121 22.3206 30.7311C23.7697 27.5501 26.1276 24.869 29.0973 23.0253C31.088 21.7942 33.3026 20.9691 35.6135 20.5975C37.9245 20.2259 40.2861 20.3153 42.5623 20.8603C44.8386 21.4054 46.9845 22.3954 48.8765 23.7734C50.7685 25.1513 52.3692 26.89 53.5864 28.8893Z" fill="#F8F8F8"/>
<path opacity="0.29" d="M53.5559 28.8893C55.3625 31.8738 56.2458 35.326 56.0948 38.8114C55.9439 42.2969 54.7653 45.6597 52.7074 48.4769C50.6495 51.294 47.8043 53.4394 44.5299 54.6432C41.2554 55.847 37.6981 56.0553 34.3055 55.242C30.913 54.4286 27.8368 52.6299 25.4642 50.0722C23.0916 47.5145 21.5285 44.3122 20.9718 40.8682C20.415 37.4242 20.8894 33.8925 22.3353 30.7175C23.7811 27.5425 26.1338 24.8662 29.0973 23.0253C31.0844 21.7908 33.2968 20.963 35.6062 20.5896C37.9156 20.2163 40.2761 20.3049 42.551 20.8503C44.8259 21.3957 46.97 22.3871 48.859 23.767C50.7481 25.1469 52.3445 26.888 53.5559 28.8893Z" fill="#F9F9F9"/>
<path opacity="0.24" d="M53.404 28.8893C55.2327 31.8621 56.1392 35.3103 56.0088 38.7982C55.8784 42.2861 54.7169 45.657 52.6713 48.485C50.6256 51.3129 47.7875 53.471 44.5157 54.6864C41.2438 55.9019 37.6851 56.1201 34.2893 55.3136C30.8934 54.5071 27.8129 52.712 25.437 50.1553C23.0611 47.5985 21.4964 44.3947 20.9407 40.949C20.3851 37.5032 20.8634 33.97 22.3151 30.796C23.7669 27.6219 26.127 24.9495 29.0972 23.1164C31.0707 21.8938 33.2662 21.0731 35.5578 20.7015C37.8493 20.33 40.1917 20.4149 42.4503 20.9513C44.709 21.4877 46.8394 22.4651 48.7192 23.8274C50.5989 25.1896 52.191 26.9099 53.404 28.8893Z" fill="#FAFAFA"/>
<path opacity="0.19" d="M53.4041 28.8589C55.2321 31.8315 56.1364 35.28 56.0023 38.7672C55.8681 42.2543 54.7017 45.6232 52.6507 48.4466C50.5998 51.2701 47.7568 53.4211 44.482 54.6269C41.2072 55.8327 37.6481 56.039 34.2559 55.2198C30.8637 54.4005 27.7911 52.5926 25.4275 50.0251C23.064 47.4575 21.5161 44.2461 20.9798 40.7978C20.4436 37.3495 20.9432 33.8196 22.4154 30.6556C23.8876 27.4916 26.2661 24.836 29.2493 23.0253C33.2295 20.6095 38.004 19.867 42.5299 20.96C47.0558 22.0531 50.9652 24.8928 53.4041 28.8589Z" fill="#FBFBFB"/>
<path opacity="0.14" d="M53.4039 28.8589C55.2355 31.8314 56.1428 35.281 56.0107 38.77C55.8786 42.259 54.7131 45.6302 52.6619 48.4557C50.6108 51.2812 47.7666 53.4338 44.4901 54.6402C41.2137 55.8467 37.6527 56.0526 34.259 55.232C30.8653 54.4113 27.7919 52.6011 25.4287 50.0309C23.0654 47.4607 21.519 44.2464 20.9855 40.7959C20.452 37.3454 20.9555 33.8142 22.4322 30.6503C23.9089 27.4864 26.2921 24.8325 29.2795 23.0253C33.255 20.6109 38.0249 19.8693 42.5458 20.9625C47.0668 22.0557 50.9708 24.8948 53.4039 28.8589Z" fill="#FCFCFC"/>
<path opacity="0.1" d="M53.404 28.8589C55.226 31.8272 56.1259 35.2696 55.9896 38.7499C55.8534 42.2301 54.6871 45.5916 52.6386 48.4084C50.5901 51.2253 47.7516 53.3706 44.4827 54.5727C41.2138 55.7748 37.6616 55.9795 34.2763 55.1608C30.8909 54.3422 27.8248 52.5371 25.4663 49.9743C23.1078 47.4114 21.5631 44.2061 21.028 40.7646C20.4929 37.323 20.9914 33.8 22.4603 30.642C23.9293 27.484 26.3026 24.8332 29.2796 23.0253C33.253 20.6028 38.0255 19.8565 42.5489 20.9503C47.0722 22.0441 50.9764 24.8886 53.404 28.8589Z" fill="#FDFDFD"/>
<path opacity="0.05" d="M53.404 28.8285C55.2114 31.7862 56.1015 35.2132 55.9618 38.6765C55.8221 42.1399 54.6589 45.4841 52.6191 48.2866C50.5794 51.089 47.7547 53.2239 44.502 54.4215C41.2493 55.6191 37.7146 55.8256 34.3446 55.0149C30.9745 54.2043 27.9205 52.4128 25.5683 49.8669C23.2161 47.3211 21.6713 44.1351 21.1293 40.7115C20.5872 37.288 21.0722 33.7807 22.5229 30.6327C23.9736 27.4847 26.3248 24.8374 29.2796 23.0253C31.2442 21.8205 33.427 21.0148 35.7032 20.6544C37.9794 20.294 40.3044 20.386 42.5451 20.925C44.7857 21.464 46.8981 22.4394 48.7614 23.7956C50.6247 25.1518 52.2023 26.862 53.404 28.8285Z" fill="#FEFEFE"/>
</g>
<path d="M50.8517 30.925C52.3376 33.3748 53.0639 36.2101 52.939 39.0727C52.8141 41.9352 51.8436 44.6964 50.15 47.0075C48.4563 49.3186 46.1157 51.0759 43.4237 52.0572C40.7318 53.0386 37.8094 53.2 35.0258 52.521C32.2421 51.8421 29.7222 50.3533 27.7844 48.2427C25.8466 46.1322 24.5778 43.4946 24.1385 40.6633C23.6991 37.8319 24.1088 34.9339 25.3159 32.3353C26.523 29.7367 28.4732 27.5543 30.9202 26.0637C32.5476 25.0723 34.3545 24.4116 36.2376 24.1194C38.1206 23.8272 40.0428 23.9092 41.8941 24.3608C43.7454 24.8123 45.4895 25.6245 47.0266 26.7509C48.5636 27.8772 49.8635 29.2957 50.8517 30.925Z" fill="#F0EEED"/>
<g style="mix-blend-mode:multiply">
<path d="M62.0632 24.028C64.9202 28.6896 66.3309 34.0937 66.117 39.5571C65.9031 45.0204 64.0742 50.2976 60.8616 54.7217C57.6489 59.1458 53.1967 62.5181 48.0678 64.4122C42.9389 66.3063 37.3635 66.6373 32.0465 65.3633C26.7295 64.0892 21.9096 61.2674 18.1961 57.2544C14.4826 53.2415 12.0422 48.2177 11.1835 42.818C10.3248 37.4184 11.0862 31.8853 13.3716 26.9184C15.657 21.9514 19.3637 17.7736 24.0232 14.9129C30.2777 11.0825 37.7967 9.89091 44.9291 11.5999C52.0614 13.309 58.2239 17.7789 62.0632 24.028Z" fill="#E3E3E3"/>
<path opacity="0.95" d="M62.0026 23.9976C64.8476 28.6507 66.2495 34.0425 66.0314 39.4921C65.8133 44.9416 63.9848 50.2042 60.777 54.6149C57.5693 59.0257 53.1261 62.3868 48.009 64.2734C42.8918 66.1601 37.3303 66.4878 32.027 65.215C26.7238 63.9422 21.9167 61.1261 18.2132 57.1225C14.5098 53.1188 12.076 48.1073 11.2195 42.7211C10.363 37.3349 11.1222 31.8157 13.4011 26.8608C15.6801 21.9059 19.3765 17.7376 24.0234 14.8826C27.1145 12.9834 30.5499 11.7125 34.1328 11.1428C37.7158 10.5731 41.3759 10.7156 44.9037 11.5623C48.4315 12.4089 51.7576 13.9431 54.6917 16.0769C57.6258 18.2107 60.1101 20.9023 62.0026 23.9976Z" fill="#E4E4E4"/>
<path opacity="0.9" d="M61.972 23.9672C64.8145 28.6158 66.2152 34.0028 65.997 39.4472C65.7787 44.8917 63.9514 50.1493 60.7459 54.5555C57.5404 58.9617 53.1006 62.3187 47.9877 64.2023C42.8748 66.0859 37.3183 66.4115 32.0204 65.138C26.7224 63.8644 21.921 61.0489 18.2228 57.0473C14.5246 53.0456 12.0957 48.0375 11.2431 42.6558C10.3904 37.274 11.1523 31.7604 13.4325 26.8115C15.7126 21.8627 19.4087 17.7009 24.0535 14.8522C27.1411 12.9585 30.5717 11.692 34.1491 11.1252C37.7265 10.5585 41.3806 10.7025 44.9023 11.5491C48.424 12.3956 51.7443 13.9281 54.6733 16.0589C57.6023 18.1898 60.0824 20.8771 61.972 23.9672Z" fill="#E6E6E6"/>
<path opacity="0.86" d="M61.9416 23.9672C64.7817 28.6114 66.1811 33.9934 65.9628 39.4328C65.7445 44.8722 63.9182 50.1248 60.715 54.5264C57.5118 58.928 53.0754 62.2811 47.9667 64.1616C42.858 66.0421 37.3065 66.3657 32.0139 65.0914C26.7214 63.8171 21.9255 61.0022 18.2326 57.0025C14.5397 53.0028 12.1156 47.998 11.2668 42.6208C10.4181 37.2435 11.1827 31.7354 13.4641 26.7927C15.7455 21.85 19.4411 17.6947 24.0839 14.8522C27.1679 12.964 30.5937 11.7019 34.1656 11.1381C37.7375 10.5743 41.3855 10.7198 44.9012 11.5662C48.4169 12.4127 51.7313 13.9436 54.6552 16.0714C57.579 18.1992 60.055 20.8822 61.9416 23.9672Z" fill="#E7E7E7"/>
<path opacity="0.81" d="M61.9114 23.9368C64.7203 28.5442 66.1032 33.8796 65.886 39.2713C65.6689 44.6631 63.8613 49.87 60.6911 54.2366C57.5208 58.6031 53.1294 61.9341 48.0699 63.8102C43.0105 65.6862 37.509 66.0233 32.2583 64.7792C27.0076 63.535 22.2424 60.7652 18.5626 56.8185C14.8828 52.8717 12.453 47.9244 11.579 42.5996C10.7051 37.2747 11.4261 31.8104 13.6514 26.8944C15.8766 21.9785 19.5065 17.8309 24.0841 14.9737C27.1509 13.0594 30.5669 11.7723 34.1344 11.1868C37.7019 10.6013 41.3501 10.729 44.8679 11.5626C48.3857 12.3961 51.7033 13.9189 54.6288 16.0429C57.5543 18.1669 60.0296 20.85 61.9114 23.9368Z" fill="#E8E8E8"/>
<path opacity="0.76" d="M61.8507 23.9065C64.6704 28.5135 66.0626 33.8524 65.8517 39.2498C65.6407 44.6471 63.836 49.861 60.6652 54.2339C57.4944 58.6067 53.0996 61.9426 48.0352 63.8206C42.9707 65.6987 37.4635 66.0348 32.2083 64.7866C26.953 63.5383 22.1852 60.7617 18.5061 56.8069C14.8271 52.8521 12.4017 47.8963 11.5359 42.5647C10.6702 37.2331 11.4028 31.7645 13.6414 26.8488C15.88 21.933 19.5242 17.7904 24.1145 14.9434C27.1777 13.0435 30.5864 11.7679 34.1444 11.1902C37.7025 10.6124 41.3396 10.7438 44.8467 11.5768C48.3537 12.4098 51.6615 13.9279 54.5797 16.0439C57.4979 18.1599 59.9689 20.832 61.8507 23.9065Z" fill="#EAEAEA"/>
<path opacity="0.71" d="M53.1134 61.4642C65.9283 53.4098 69.7874 36.492 61.7331 23.6771C53.6787 10.8623 36.7609 7.00309 23.946 15.0574C11.1312 23.1118 7.27201 40.0296 15.3264 52.8445C23.3807 65.6593 40.2985 69.5185 53.1134 61.4642Z" fill="#EBEBEB"/>
<path opacity="0.67" d="M52.6263 61.6466C65.562 53.8525 69.7301 37.0478 61.936 24.1121C54.142 11.1765 37.3372 7.00837 24.4016 14.8024C11.4659 22.5965 7.29782 39.4012 15.0919 52.3369C22.8859 65.2725 39.6907 69.4406 52.6263 61.6466Z" fill="#ECECEC"/>
<path opacity="0.62" d="M52.1502 61.8606C65.2238 54.3339 69.7204 37.634 62.1936 24.5603C54.6668 11.4867 37.9669 6.99012 24.8933 14.5169C11.8197 22.0437 7.32309 38.7436 14.8499 51.8172C22.3766 64.8908 39.0766 69.3874 52.1502 61.8606Z" fill="#EEEEEE"/>
<path opacity="0.57" d="M51.6236 62.0432C64.825 54.8126 69.6654 38.2491 62.4348 25.0476C55.2042 11.8462 38.6407 7.00582 25.4393 14.2364C12.2378 21.467 7.39744 38.0305 14.628 51.2319C21.8586 64.4334 38.4221 69.2738 51.6236 62.0432Z" fill="#EFEFEF"/>
<path opacity="0.52" d="M51.0582 62.2472C64.4054 55.3257 69.6145 38.8947 62.693 25.5474C55.7715 12.2002 39.3404 6.99115 25.9932 13.9126C12.646 20.8341 7.43691 37.2652 14.3584 50.6124C21.2799 63.9596 37.711 69.1687 51.0582 62.2472Z" fill="#F0F0F0"/>
<path opacity="0.48" d="M50.4698 62.4874C63.9637 55.8944 69.5578 39.6108 62.9648 26.117C56.3718 12.6231 40.0882 7.02896 26.5943 13.622C13.1005 20.215 7.50633 36.4987 14.0994 49.9925C20.6924 63.4863 36.976 69.0805 50.4698 62.4874Z" fill="#F2F2F2"/>
<path opacity="0.43" d="M49.8086 62.6561C63.4344 56.4206 69.4255 40.3198 63.19 26.694C56.9545 13.0682 40.8537 7.07713 27.2279 13.3126C13.6021 19.5481 7.61103 35.6489 13.8465 49.2747C20.082 62.9006 36.1828 68.8916 49.8086 62.6561Z" fill="#F3F3F3"/>
<path opacity="0.38" d="M49.0941 62.9308C62.8661 57.0679 69.2777 41.1507 63.4148 27.3787C57.5519 13.6067 41.6347 7.19509 27.8627 13.058C14.0907 18.9209 7.67909 34.8381 13.542 48.6101C19.4049 62.3821 35.3221 68.7937 49.0941 62.9308Z" fill="#F4F4F4"/>
<path opacity="0.33" d="M48.3885 63.1588C62.3032 57.6889 69.149 41.9745 63.6791 28.0598C58.2092 14.1451 42.4948 7.29921 28.5801 12.7691C14.6654 18.2391 7.81951 33.9534 13.2894 47.8682C18.7594 61.7829 34.4737 68.6287 48.3885 63.1588Z" fill="#F6F6F6"/>
<path opacity="0.29" d="M47.6475 63.3129C61.6833 58.2597 68.9651 42.7851 63.9119 28.7493C58.8587 14.7136 43.3841 7.43174 29.3483 12.4849C15.3126 17.5381 8.03074 33.0128 13.0839 47.0485C18.1371 61.0843 33.6118 68.3661 47.6475 63.3129Z" fill="#F7F7F7"/>
<path opacity="0.24" d="M46.8426 63.5098C61.0086 58.8878 68.7455 43.6572 64.1236 29.4913C59.5016 15.3253 44.271 7.58833 30.1051 12.2103C15.9391 16.8322 8.20215 32.0628 12.8241 46.2288C17.446 60.3947 32.6766 68.1317 46.8426 63.5098Z" fill="#F8F8F8"/>
<path opacity="0.19" d="M46.0538 63.6664C60.3236 59.4937 68.5088 44.5431 64.336 30.2733C60.1633 16.0036 45.2127 7.81834 30.9429 11.9911C16.6731 16.1639 8.48792 31.1145 12.6607 45.3842C16.8335 59.654 31.7841 67.8392 46.0538 63.6664Z" fill="#FAFAFA"/>
<path opacity="0.14" d="M45.2683 63.9108C59.6733 60.1981 68.3412 45.5109 64.6286 31.1058C60.9159 16.7008 46.2286 8.03287 31.8236 11.7455C17.4186 15.4581 8.75066 30.1454 12.4633 44.5505C16.1759 58.9555 30.8632 67.6234 45.2683 63.9108Z" fill="#FBFBFB"/>
<path opacity="0.1" d="M44.3837 63.9523C58.8574 60.7038 67.9573 46.3371 64.7087 31.8634C61.4602 17.3897 47.0935 8.28986 32.6198 11.5384C18.1461 14.7869 9.04629 29.1536 12.2948 43.6273C15.5433 58.101 29.91 67.2008 44.3837 63.9523Z" fill="#FCFCFC"/>
<path opacity="0.05" d="M43.5124 63.9951C58.0505 61.2218 67.5877 47.1882 64.8145 32.6501C62.0412 18.112 48.0076 8.57481 33.4695 11.3481C18.9314 14.1214 9.39419 28.155 12.1675 42.6931C14.9408 57.2311 28.9744 66.7684 43.5124 63.9951Z" fill="#FEFEFE"/>
</g>
<path style="mix-blend-mode:multiply" d="M62.0632 24.028C64.9202 28.6896 66.3309 34.0937 66.117 39.5571C65.9031 45.0204 64.0742 50.2976 60.8616 54.7217C57.6489 59.1458 53.1967 62.5181 48.0678 64.4122C42.9389 66.3063 37.3635 66.6373 32.0465 65.3633C26.7295 64.0892 21.9096 61.2674 18.1961 57.2544C14.4826 53.2415 12.0422 48.2177 11.1835 42.818C10.3248 37.4184 11.0862 31.8853 13.3716 26.9184C15.657 21.9514 19.3637 17.7736 24.0232 14.9129C30.2777 11.0825 37.7967 9.89091 44.9291 11.5999C52.0614 13.309 58.2239 17.7789 62.0632 24.028Z" fill="url(#paint39_linear_357_1556)"/>
<g style="mix-blend-mode:screen" opacity="0.5">
<path d="M62.0632 24.028C64.9202 28.6896 66.3309 34.0937 66.117 39.5571C65.9031 45.0204 64.0742 50.2976 60.8616 54.7217C57.6489 59.1458 53.1967 62.5181 48.0678 64.4122C42.9389 66.3063 37.3635 66.6373 32.0465 65.3633C26.7295 64.0892 21.9096 61.2674 18.1961 57.2544C14.4826 53.2415 12.0422 48.2177 11.1835 42.818C10.3248 37.4184 11.0862 31.8853 13.3716 26.9184C15.657 21.9514 19.3637 17.7736 24.0232 14.9129C30.2777 11.0825 37.7967 9.89091 44.9291 11.5999C52.0614 13.309 58.2239 17.7789 62.0632 24.028Z" fill="#BD7364"/>
<path opacity="0.95" d="M62.0024 24.0887C64.8473 28.7418 66.2493 34.1337 66.0312 39.5832C65.813 45.0327 63.9846 50.2953 60.7768 54.7061C57.569 59.1168 53.1259 62.4779 48.0088 64.3646C42.8916 66.2512 37.3301 66.5789 32.0268 65.3061C26.7235 64.0333 21.9165 61.2172 18.213 57.2136C14.5095 53.21 12.0758 48.1985 11.2193 42.8123C10.3628 37.4261 11.122 31.9068 13.4009 26.9519C15.6798 21.997 19.3762 17.8287 24.0231 14.9737C27.1143 13.0745 30.5497 11.8037 34.1326 11.2339C37.7155 10.6642 41.3757 10.8067 44.9034 11.6534C48.4312 12.5001 51.7573 14.0342 54.6914 16.168C57.6255 18.3019 60.1099 20.9935 62.0024 24.0887Z" fill="#B46E5F"/>
<path opacity="0.9" d="M61.972 24.1494C64.8145 28.7981 66.2152 34.185 65.997 39.6295C65.7787 45.074 63.9514 50.3315 60.7459 54.7377C57.5404 59.1439 53.1006 62.501 47.9877 64.3846C42.8748 66.2682 37.3183 66.5938 32.0204 65.3202C26.7224 64.0467 21.921 61.2312 18.2228 57.2295C14.5246 53.2279 12.0957 48.2197 11.2431 42.838C10.3904 37.4563 11.1523 31.9426 13.4325 26.9938C15.7126 22.045 19.4087 17.8832 24.0535 15.0344C27.1411 13.1407 30.5717 11.8743 34.1491 11.3075C37.7265 10.7407 41.3806 10.8847 44.9023 11.7313C48.424 12.5779 51.7443 14.1104 54.6733 16.2412C57.6023 18.372 60.0824 21.0593 61.972 24.1494Z" fill="#AB685A"/>
<path opacity="0.86" d="M61.9417 24.2103C64.8047 28.8429 66.2294 34.2206 66.0353 39.6631C65.8413 45.1055 64.0372 50.3681 60.8515 54.7851C57.6658 59.202 53.2415 62.5747 48.1384 64.4765C43.0354 66.3783 37.4829 66.7237 32.1834 65.469C26.884 64.2144 22.0758 61.416 18.3672 57.4279C14.6586 53.4399 12.2163 48.4415 11.3492 43.065C10.4821 37.6886 11.2293 32.1757 13.4961 27.224C15.763 22.2723 19.4476 18.1042 24.0839 15.2472C30.294 11.4203 37.7691 10.2148 44.8674 11.8953C51.9657 13.5759 58.1067 18.0052 61.9417 24.2103Z" fill="#A26356"/>
<path opacity="0.81" d="M61.9112 24.3014C64.7008 28.9201 66.0617 34.2608 65.8224 39.6513C65.5832 45.0417 63.7546 50.2409 60.5668 54.5943C57.3791 58.9477 52.9746 62.2607 47.908 64.1162C42.8413 65.9718 37.3389 66.2869 32.0936 65.0219C26.8482 63.757 22.0943 60.9685 18.4304 57.0075C14.7664 53.0465 12.3562 48.0901 11.5031 42.7622C10.65 37.4343 11.3923 31.9731 13.6363 27.0662C15.8804 22.1592 19.526 18.0259 24.1142 15.1864C27.189 13.2836 30.6106 12.0095 34.181 11.4378C37.7514 10.8661 41.3998 11.0082 44.915 11.8559C48.4301 12.7036 51.7422 14.2401 54.6596 16.3764C57.577 18.5126 60.0417 21.2063 61.9112 24.3014Z" fill="#995D51"/>
<path opacity="0.76" d="M61.8506 24.3622C64.674 28.9691 66.0693 34.3092 65.8604 39.7084C65.6515 45.1076 63.8477 50.3238 60.6767 54.6988C57.5058 59.0737 53.1098 62.4112 48.0437 64.2899C42.9776 66.1686 37.4685 66.5044 32.2117 65.2548C26.955 64.0052 22.1863 61.2263 18.5075 57.2688C14.8287 53.3113 12.4048 48.3527 11.5418 43.0188C10.6787 37.685 11.4152 32.215 13.6582 27.2993C15.9013 22.3836 19.5503 18.2427 24.1448 15.3991C27.2069 13.5039 30.6131 12.2323 34.168 11.6571C37.7228 11.0819 41.3563 11.2145 44.8598 12.0473C48.3632 12.8801 51.6677 14.3967 54.5835 16.5101C57.4993 18.6234 59.9689 21.2918 61.8506 24.3622Z" fill="#90584C"/>
<path opacity="0.71" d="M55.7659 60.0365C67.5023 50.5053 69.29 33.2646 59.7589 21.5282C50.2278 9.79179 32.9871 8.00405 21.2506 17.5352C9.51424 27.0663 7.7265 44.307 17.2576 56.0434C26.7887 67.7798 44.0295 69.5676 55.7659 60.0365Z" fill="#875247"/>
<path opacity="0.67" d="M55.8755 59.8934C67.5141 50.2958 69.1687 33.0804 59.5712 21.4418C49.9736 9.80311 32.7582 8.14849 21.1195 17.7461C9.48089 27.3436 7.82627 44.559 17.4239 56.1977C27.0214 67.8363 44.2368 69.491 55.8755 59.8934Z" fill="#7E4D43"/>
<path opacity="0.62" d="M56.0421 59.8072C67.5871 50.1232 69.0958 32.9138 59.4118 21.3688C49.7278 9.82379 32.5184 8.31512 20.9734 17.9991C9.4284 27.683 7.91974 44.8925 17.6037 56.4375C27.2877 67.9825 44.4971 69.4911 56.0421 59.8072Z" fill="#75473E"/>
<path opacity="0.57" d="M56.2035 59.6136C67.6261 49.8371 68.9605 32.6518 59.184 21.2292C49.4074 9.80663 32.2222 8.47223 20.7996 18.2487C9.37702 28.0253 8.04261 45.2105 17.8191 56.6331C27.5956 68.0557 44.7809 69.3901 56.2035 59.6136Z" fill="#6C4239"/>
<path opacity="0.52" d="M56.4315 59.4447C67.7299 49.5502 68.8679 32.3701 58.9735 21.0718C49.0791 9.77352 31.899 8.63543 20.6007 18.5298C9.3024 28.4242 8.16431 45.6043 18.0587 56.9027C27.9531 68.201 45.1332 69.3391 56.4315 59.4447Z" fill="#633C34"/>
<path opacity="0.48" d="M56.6799 59.2203C67.8317 49.1862 68.7378 32.0115 58.7037 20.8597C48.6696 9.70785 31.4949 8.80176 20.3431 18.8359C9.19124 28.87 8.28515 46.0446 18.3193 57.1965C28.3534 68.3483 45.528 69.2544 56.6799 59.2203Z" fill="#5A3730"/>
<path opacity="0.43" d="M57.0007 58.9008C67.9637 48.7098 68.5895 31.5612 58.3985 20.5983C48.2076 9.63533 31.0589 9.00951 20.096 19.2005C9.13307 29.3914 8.50725 46.5401 18.6982 57.503C28.8892 68.4659 46.0378 69.0917 57.0007 58.9008Z" fill="#51312B"/>
<path opacity="0.38" d="M57.3524 58.5545C68.1019 48.1628 68.3921 31.0245 58.0005 20.2749C47.6088 9.52533 30.4705 9.23515 19.7209 19.6268C8.97134 30.0184 8.68116 47.1568 19.0728 57.9063C29.4644 68.6559 46.6028 68.9461 57.3524 58.5545Z" fill="#482C26"/>
<path opacity="0.33" d="M57.661 58.2628C68.2094 47.7144 68.2094 30.612 57.661 20.0637C47.1126 9.51526 30.0103 9.51526 19.4619 20.0637C8.91347 30.612 8.91347 47.7144 19.4619 58.2628C30.0103 68.8112 47.1126 68.8112 57.661 58.2628Z" fill="#3F2621"/>
<path opacity="0.29" d="M58.3279 57.5159C68.4579 46.588 67.8111 29.5171 56.8831 19.3871C45.9552 9.2571 28.8844 9.90395 18.7544 20.8319C8.62435 31.7598 9.27119 48.8306 20.1991 58.9607C31.1271 69.0907 48.1979 68.4438 58.3279 57.5159Z" fill="#36211D"/>
<path opacity="0.24" d="M58.9888 56.7621C68.6621 45.472 67.3515 28.4779 56.0614 18.8046C44.7714 9.13126 27.7773 10.4419 18.1039 21.7319C8.43063 33.0219 9.74125 50.0161 21.0313 59.6894C32.3213 69.3627 49.3155 68.0521 58.9888 56.7621Z" fill="#2D1B18"/>
<path opacity="0.19" d="M59.8333 55.7098C68.9005 43.9486 66.7165 27.0639 54.9553 17.9967C43.1941 8.92955 26.3094 11.1135 17.2422 22.8747C8.17509 34.6359 10.359 51.5206 22.1202 60.5878C33.8814 69.6549 50.7662 67.471 59.8333 55.7098Z" fill="#241613"/>
<path opacity="0.14" d="M60.8719 54.2138C69.0844 41.881 65.7443 25.2257 53.4115 17.0132C41.0787 8.80069 24.4234 12.1408 16.2109 24.4736C7.99838 36.8064 11.3385 53.4617 23.6713 61.6742C36.0041 69.8867 52.6594 66.5466 60.8719 54.2138Z" fill="#1B100E"/>
<path opacity="0.1" d="M62.1344 52.0851C69.1556 39.0563 64.2854 22.8026 51.2566 15.7814C38.2278 8.76029 21.9741 13.6305 14.9529 26.6593C7.93176 39.6881 12.8019 55.9418 25.8307 62.9629C38.8595 69.9841 55.1132 65.1139 62.1344 52.0851Z" fill="#120B0A"/>
<path opacity="0.05" d="M63.4565 49.1604C68.8398 35.4099 62.0568 19.899 48.3063 14.5158C34.5558 9.1326 19.0449 15.9156 13.6617 29.6661C8.2785 43.4165 15.0615 58.9274 28.812 64.3106C42.5624 69.6939 58.0733 62.9109 63.4565 49.1604Z" fill="#090505"/>
</g>
<defs>
<radialGradient id="paint0_radial_357_1556" cx="0" cy="0" r="1" gradientUnits="userSpaceOnUse" gradientTransform="translate(38.5248 38.9692) rotate(-0.08) scale(20.205 20.205)">
<stop offset="0.66" stop-color="#090505"/>
<stop offset="0.95" stop-color="#090505"/>
<stop offset="1" stop-color="#090505"/>
</radialGradient>
<radialGradient id="paint1_radial_357_1556" cx="0" cy="0" r="1" gradientUnits="userSpaceOnUse" gradientTransform="translate(38.5335 38.9634) rotate(-0.16) scale(20.205 20.205)">
<stop offset="0.66" stop-color="#120B0A"/>
<stop offset="0.95" stop-color="#120B0A"/>
<stop offset="1" stop-color="#120B0A"/>
</radialGradient>
<radialGradient id="paint2_radial_357_1556" cx="0" cy="0" r="1" gradientUnits="userSpaceOnUse" gradientTransform="translate(38.5421 38.9289) rotate(-0.24) scale(20.1746 20.1746)">
<stop offset="0.66" stop-color="#1B100E"/>
<stop offset="0.95" stop-color="#1B100E"/>
<stop offset="1" stop-color="#1B100E"/>
</radialGradient>
<radialGradient id="paint3_radial_357_1556" cx="0" cy="0" r="1" gradientUnits="userSpaceOnUse" gradientTransform="translate(38.5151 38.9007) rotate(-0.31) scale(20.1442 20.1442)">
<stop offset="0.66" stop-color="#241613"/>
<stop offset="0.95" stop-color="#241613"/>
<stop offset="1" stop-color="#241613"/>
</radialGradient>
<radialGradient id="paint4_radial_357_1556" cx="0" cy="0" r="1" gradientUnits="userSpaceOnUse" gradientTransform="translate(38.5234 38.8693) rotate(-0.39) scale(20.1138)">
<stop offset="0.66" stop-color="#2D1B18"/>
<stop offset="0.95" stop-color="#2D1B18"/>
<stop offset="1" stop-color="#2D1B18"/>
</radialGradient>
<radialGradient id="paint5_radial_357_1556" cx="0" cy="0" r="1" gradientUnits="userSpaceOnUse" gradientTransform="translate(38.5826 38.828) rotate(-0.572939) scale(20.1148 20.1148)">
<stop offset="0.66" stop-color="#36211D"/>
<stop offset="0.95" stop-color="#36211D"/>
<stop offset="1" stop-color="#36211D"/>
</radialGradient>
<radialGradient id="paint6_radial_357_1556" cx="0" cy="0" r="1" gradientUnits="userSpaceOnUse" gradientTransform="translate(38.5396 38.8422) rotate(-0.55) scale(20.0834)">
<stop offset="0.66" stop-color="#3F2621"/>
<stop offset="0.95" stop-color="#3F2621"/>
<stop offset="1" stop-color="#3F2621"/>
</radialGradient>
<radialGradient id="paint7_radial_357_1556" cx="0" cy="0" r="1" gradientUnits="userSpaceOnUse" gradientTransform="translate(38.4906 38.8404) rotate(-0.572939) scale(20.0541)">
<stop offset="0.66" stop-color="#482C26"/>
<stop offset="0.95" stop-color="#482C26"/>
<stop offset="1" stop-color="#482C26"/>
</radialGradient>
<radialGradient id="paint8_radial_357_1556" cx="0" cy="0" r="1" gradientUnits="userSpaceOnUse" gradientTransform="translate(38.4599 38.8465) rotate(-0.572939) scale(20.0237 20.0237)">
<stop offset="0.66" stop-color="#51312B"/>
<stop offset="0.95" stop-color="#51312B"/>
<stop offset="1" stop-color="#51312B"/>
</radialGradient>
<radialGradient id="paint9_radial_357_1556" cx="0" cy="0" r="1" gradientUnits="userSpaceOnUse" gradientTransform="translate(38.5323 38.7685) rotate(-0.79) scale(20.0227 20.0227)">
<stop offset="0.66" stop-color="#5A3730"/>
<stop offset="0.95" stop-color="#5A3730"/>
<stop offset="1" stop-color="#5A3730"/>
</radialGradient>
<radialGradient id="paint10_radial_357_1556" cx="0" cy="0" r="1" gradientUnits="userSpaceOnUse" gradientTransform="translate(38.5347 38.7509) rotate(-0.86) scale(19.9923 19.9923)">
<stop offset="0.66" stop-color="#633C34"/>
<stop offset="0.95" stop-color="#633C34"/>
<stop offset="1" stop-color="#633C34"/>
</radialGradient>
<radialGradient id="paint11_radial_357_1556" cx="0" cy="0" r="1" gradientUnits="userSpaceOnUse" gradientTransform="translate(38.5112 38.7012) rotate(-0.94) scale(19.9619)">
<stop offset="0.66" stop-color="#6C4239"/>
<stop offset="0.95" stop-color="#6C4239"/>
<stop offset="1" stop-color="#6C4239"/>
</radialGradient>
<radialGradient id="paint12_radial_357_1556" cx="0" cy="0" r="1" gradientUnits="userSpaceOnUse" gradientTransform="translate(38.5183 38.7134) rotate(-1.02) scale(19.9619 19.9619)">
<stop offset="0.66" stop-color="#75473E"/>
<stop offset="0.95" stop-color="#75473E"/>
<stop offset="1" stop-color="#75473E"/>
</radialGradient>
<radialGradient id="paint13_radial_357_1556" cx="0" cy="0" r="1" gradientUnits="userSpaceOnUse" gradientTransform="translate(38.5507 38.6563) rotate(-1.14576) scale(19.9355)">
<stop offset="0.66" stop-color="#7E4D43"/>
<stop offset="0.95" stop-color="#7E4D43"/>
<stop offset="1" stop-color="#7E4D43"/>
</radialGradient>
<radialGradient id="paint14_radial_357_1556" cx="0" cy="0" r="1" gradientUnits="userSpaceOnUse" gradientTransform="translate(38.5315 38.6517) rotate(-1.18) scale(19.9011)">
<stop offset="0.66" stop-color="#875247"/>
<stop offset="0.95" stop-color="#875247"/>
<stop offset="1" stop-color="#875247"/>
</radialGradient>
<radialGradient id="paint15_radial_357_1556" cx="0" cy="0" r="1" gradientUnits="userSpaceOnUse" gradientTransform="translate(38.508 38.6392) rotate(-1.26) scale(19.8707)">
<stop offset="0.66" stop-color="#90584C"/>
<stop offset="0.95" stop-color="#90584C"/>
<stop offset="1" stop-color="#90584C"/>
</radialGradient>
<radialGradient id="paint16_radial_357_1556" cx="0" cy="0" r="1" gradientUnits="userSpaceOnUse" gradientTransform="translate(38.4261 38.6934) rotate(-1.14576) scale(19.8747)">
<stop offset="0.66" stop-color="#995D51"/>
<stop offset="0.95" stop-color="#995D51"/>
<stop offset="1" stop-color="#995D51"/>
</radialGradient>
<radialGradient id="paint17_radial_357_1556" cx="0" cy="0" r="1" gradientUnits="userSpaceOnUse" gradientTransform="translate(38.5155 38.5905) rotate(-1.41) scale(19.8404)">
<stop offset="0.66" stop-color="#A26356"/>
<stop offset="0.95" stop-color="#A26356"/>
<stop offset="1" stop-color="#A26356"/>
</radialGradient>
<radialGradient id="paint18_radial_357_1556" cx="0" cy="0" r="1" gradientUnits="userSpaceOnUse" gradientTransform="translate(38.5213 38.5821) rotate(-1.49) scale(19.81 19.81)">
<stop offset="0.66" stop-color="#AB685A"/>
<stop offset="0.95" stop-color="#AB685A"/>
<stop offset="1" stop-color="#AB685A"/>
</radialGradient>
<radialGradient id="paint19_radial_357_1556" cx="0" cy="0" r="1" gradientUnits="userSpaceOnUse" gradientTransform="translate(38.5269 38.5451) rotate(-1.57) scale(19.7796)">
<stop offset="0.66" stop-color="#B46E5F"/>
<stop offset="0.95" stop-color="#B46E5F"/>
<stop offset="1" stop-color="#B46E5F"/>
</radialGradient>
<radialGradient id="paint20_radial_357_1556" cx="0" cy="0" r="1" gradientUnits="userSpaceOnUse" gradientTransform="translate(38.5022 38.5106) rotate(-1.65) scale(19.7796)">
<stop offset="0.66" stop-color="#BD7364"/>
<stop offset="0.95" stop-color="#BD7364"/>
<stop offset="1" stop-color="#BD7364"/>
</radialGradient>
<radialGradient id="paint21_radial_357_1556" cx="0" cy="0" r="1" gradientUnits="userSpaceOnUse" gradientTransform="translate(38.5022 38.5106) rotate(-1.65) scale(19.7796)">
<stop offset="0.66" stop-color="#CFB5B0"/>
<stop offset="0.95" stop-color="#CFB5B0"/>
<stop offset="1" stop-color="#CFB5B0"/>
</radialGradient>
<radialGradient id="paint22_radial_357_1556" cx="0" cy="0" r="1" gradientUnits="userSpaceOnUse" gradientTransform="translate(38.6654 38.4604) rotate(-1.71836) scale(19.6973)">
<stop offset="0.66" stop-color="#D4BDB9"/>
<stop offset="0.95" stop-color="#D4BDB9"/>
<stop offset="1" stop-color="#D4BDB9"/>
</radialGradient>
<radialGradient id="paint23_radial_357_1556" cx="0" cy="0" r="1" gradientUnits="userSpaceOnUse" gradientTransform="translate(38.5148 38.5457) rotate(-1.28) scale(19.6277)">
<stop offset="0.66" stop-color="#DAC5C2"/>
<stop offset="0.95" stop-color="#DAC5C2"/>
<stop offset="1" stop-color="#DAC5C2"/>
</radialGradient>
<radialGradient id="paint24_radial_357_1556" cx="0" cy="0" r="1" gradientUnits="userSpaceOnUse" gradientTransform="translate(38.5476 38.5044) rotate(-1.14576) scale(19.5404 19.5404)">
<stop offset="0.66" stop-color="#DFCECA"/>
<stop offset="0.95" stop-color="#DFCECA"/>
<stop offset="1" stop-color="#DFCECA"/>
</radialGradient>
<radialGradient id="paint25_radial_357_1556" cx="0" cy="0" r="1" gradientUnits="userSpaceOnUse" gradientTransform="translate(38.5292 38.5227) rotate(-0.92) scale(19.4758 19.4758)">
<stop offset="0.66" stop-color="#E4D6D3"/>
<stop offset="0.95" stop-color="#E4D6D3"/>
<stop offset="1" stop-color="#E4D6D3"/>
</radialGradient>
<radialGradient id="paint26_radial_357_1556" cx="0" cy="0" r="1" gradientUnits="userSpaceOnUse" gradientTransform="translate(38.5006 38.5434) rotate(-0.73) scale(19.3846)">
<stop offset="0.66" stop-color="#EADEDC"/>
<stop offset="0.95" stop-color="#EADEDC"/>
<stop offset="1" stop-color="#EADEDC"/>
</radialGradient>
<radialGradient id="paint27_radial_357_1556" cx="0" cy="0" r="1" gradientUnits="userSpaceOnUse" gradientTransform="translate(38.5061 38.5082) rotate(-0.55) scale(19.3239 19.3238)">
<stop offset="0.66" stop-color="#EFE6E5"/>
<stop offset="0.95" stop-color="#EFE6E5"/>
<stop offset="1" stop-color="#EFE6E5"/>
</radialGradient>
<radialGradient id="paint28_radial_357_1556" cx="0" cy="0" r="1" gradientUnits="userSpaceOnUse" gradientTransform="translate(38.6405 38.4552) rotate(-0.572939) scale(19.264)">
<stop offset="0.66" stop-color="#F4EFED"/>
<stop offset="0.95" stop-color="#F4EFED"/>
<stop offset="1" stop-color="#F4EFED"/>
</radialGradient>
<radialGradient id="paint29_radial_357_1556" cx="0" cy="0" r="1" gradientUnits="userSpaceOnUse" gradientTransform="translate(38.5115 38.4991) rotate(-0.18) scale(19.1719)">
<stop offset="0.66" stop-color="#FAF7F6"/>
<stop offset="0.95" stop-color="#FAF7F6"/>
<stop offset="1" stop-color="#FAF7F6"/>
</radialGradient>
<radialGradient id="paint30_radial_357_1556" cx="0" cy="0" r="1" gradientUnits="userSpaceOnUse" gradientTransform="translate(38.5116 38.499) rotate(-0.18) scale(18.7162 18.7162)">
<stop offset="0.66" stop-color="#FAF7F6"/>
<stop offset="0.95" stop-color="#FAF7F6"/>
<stop offset="1" stop-color="#FAF7F6"/>
</radialGradient>
<radialGradient id="paint31_radial_357_1556" cx="0" cy="0" r="1" gradientUnits="userSpaceOnUse" gradientTransform="translate(38.542 38.5424) rotate(-0.37) scale(18.625)">
<stop offset="0.66" stop-color="#F4EFED"/>
<stop offset="0.95" stop-color="#F4EFED"/>
<stop offset="1" stop-color="#F4EFED"/>
</radialGradient>
<radialGradient id="paint32_radial_357_1556" cx="0" cy="0" r="1" gradientUnits="userSpaceOnUse" gradientTransform="translate(38.506 38.5082) rotate(-0.55) scale(18.5643 18.5643)">
<stop offset="0.66" stop-color="#EFE6E5"/>
<stop offset="0.95" stop-color="#EFE6E5"/>
<stop offset="1" stop-color="#EFE6E5"/>
</radialGradient>
<radialGradient id="paint33_radial_357_1556" cx="0" cy="0" r="1" gradientUnits="userSpaceOnUse" gradientTransform="translate(38.5424 38.3714) rotate(-0.948018) scale(18.4232)">
<stop offset="0.66" stop-color="#EADEDC"/>
<stop offset="0.95" stop-color="#EADEDC"/>
<stop offset="1" stop-color="#EADEDC"/>
</radialGradient>
<radialGradient id="paint34_radial_357_1556" cx="0" cy="0" r="1" gradientUnits="userSpaceOnUse" gradientTransform="translate(38.498 38.5113) rotate(-0.91) scale(18.382)">
<stop offset="0.66" stop-color="#E4D6D3"/>
<stop offset="0.95" stop-color="#E4D6D3"/>
<stop offset="1" stop-color="#E4D6D3"/>
</radialGradient>
<radialGradient id="paint35_radial_357_1556" cx="0" cy="0" r="1" gradientUnits="userSpaceOnUse" gradientTransform="translate(38.5088 38.5212) rotate(-1.1) scale(18.2908)">
<stop offset="0.66" stop-color="#DFCECA"/>
<stop offset="0.95" stop-color="#DFCECA"/>
<stop offset="1" stop-color="#DFCECA"/>
</radialGradient>
<radialGradient id="paint36_radial_357_1556" cx="0" cy="0" r="1" gradientUnits="userSpaceOnUse" gradientTransform="translate(38.5144 38.6236) rotate(-1.1365) scale(18.2324)">
<stop offset="0.66" stop-color="#DAC5C2"/>
<stop offset="0.95" stop-color="#DAC5C2"/>
<stop offset="1" stop-color="#DAC5C2"/>
</radialGradient>
<radialGradient id="paint37_radial_357_1556" cx="0" cy="0" r="1" gradientUnits="userSpaceOnUse" gradientTransform="translate(38.5117 38.5301) rotate(-1.46) scale(18.1085)">
<stop offset="0.66" stop-color="#D4BDB9"/>
<stop offset="0.95" stop-color="#D4BDB9"/>
<stop offset="1" stop-color="#D4BDB9"/>
</radialGradient>
<radialGradient id="paint38_radial_357_1556" cx="0" cy="0" r="1" gradientUnits="userSpaceOnUse" gradientTransform="translate(38.5022 38.5106) rotate(-1.65) scale(18.0477)">
<stop offset="0.66" stop-color="#CFB5B0"/>
<stop offset="0.95" stop-color="#CFB5B0"/>
<stop offset="1" stop-color="#CFB5B0"/>
</radialGradient>
<linearGradient id="paint39_linear_357_1556" x1="39.2982" y1="66.1481" x2="37.706" y2="10.8732" gradientUnits="userSpaceOnUse">
<stop stop-color="#E8DDDA"/>
<stop offset="0.19" stop-color="#EEE6E4"/>
<stop offset="0.67" stop-color="#FBF8F8"/>
<stop offset="1" stop-color="white"/>
</linearGradient>
</defs>
</svg>
