<svg width="132" height="58" viewBox="0 0 132 58" fill="none" xmlns="http://www.w3.org/2000/svg">
<path d="M0 0H122C127.523 0 132 4.47715 132 10V48C132 53.5229 127.523 58 122 58H10C4.47715 58 0 53.5228 0 48V0Z" fill="#22262F"/>
<path d="M57.62 22.6489C58.6755 22.6489 59.7311 22.6489 60.7714 22.6489C60.909 22.6489 61.062 22.6489 61.1997 22.6642C61.5822 22.6795 61.6586 22.7407 61.6586 23.1385C61.6739 23.7351 61.6586 24.3317 61.6433 24.9283C61.628 25.3414 61.5363 25.4178 61.1079 25.4178C59.5934 25.4178 58.0636 25.4178 56.5491 25.4026C55.9372 25.4026 55.9219 25.4026 55.9372 26.0298C55.9372 26.7488 55.9678 27.4678 55.9678 28.1868C55.9831 28.6763 55.9984 28.7069 56.4879 28.7069C57.8036 28.6763 59.1192 28.6457 60.4348 28.6304C60.5266 28.6304 60.6184 28.6304 60.7255 28.6304C60.9243 28.6304 61.0773 28.7069 61.1079 28.9211C61.1385 29.1811 61.2762 29.3035 61.5516 29.2882C61.9646 29.2882 61.9799 29.3341 62.0411 29.7472C62.0564 29.839 62.0564 29.9307 62.0717 30.0225C62.1023 31.2464 62.1329 32.4702 62.1635 33.6787C62.1788 34.3366 62.2094 34.9791 62.2247 35.6369C62.24 36.0652 62.2553 36.2029 61.7351 36.2641C61.5057 36.2794 61.3068 36.3406 61.3221 36.6465C61.3374 36.8148 61.1997 36.8913 61.0467 36.9219C60.909 36.9372 60.7561 36.9372 60.6031 36.9372C58.8438 36.9525 57.0846 36.9525 55.3253 36.9678C54.9581 36.9678 54.5757 36.9831 54.2085 37.0137C53.7802 37.0443 53.7037 36.9678 53.6578 36.5395C53.6425 36.3712 53.566 36.2641 53.3824 36.2335C53.1683 36.1876 53.1071 36.0346 53.1071 35.8358C53.0918 34.8261 53.0765 33.8164 53.0765 32.8068C53.0765 32.5161 53.153 32.4396 53.4436 32.4396C54.132 32.4243 54.8052 32.4396 55.4783 32.4396C55.6924 32.4396 55.7842 32.5467 55.8148 32.7303C55.8301 32.8374 55.8454 32.9444 55.8454 33.0668C55.8607 33.2504 55.8607 33.4493 55.876 33.6481C55.9066 34.2295 55.9066 34.2142 56.4879 34.2142C57.1916 34.1836 57.9106 34.1836 58.6143 34.1683C58.7214 34.1683 58.8285 34.1683 58.9356 34.153C59.2416 34.1224 59.3028 34.0612 59.2722 33.7552C59.211 33.1586 59.2416 32.5467 59.2263 31.9348C59.211 31.4911 59.1957 31.4605 58.752 31.4758C57.3599 31.4758 55.9831 31.4758 54.591 31.4758C53.8414 31.4758 53.8414 31.4758 53.8108 30.7262C53.8108 30.3897 53.8108 30.3744 53.4589 30.3285C53.2295 30.3132 53.1377 30.1908 53.1071 29.9919C53.1071 29.8849 53.0918 29.7778 53.0918 29.6554C53.0918 28.3704 53.0765 27.0853 53.0612 25.8003C53.0459 25.2649 53.0153 24.7141 53.0153 24.1787C53 23.781 53.0153 23.7657 53.413 23.7198C53.719 23.6892 53.719 23.6739 53.7343 23.3526C53.7343 23.2302 53.7343 23.1079 53.7343 22.9855C53.7649 22.7101 53.8108 22.6489 54.0862 22.6336C54.4992 22.6183 54.8969 22.6336 55.2947 22.6336C56.0749 22.6336 56.8398 22.6336 57.62 22.6336C57.62 22.6336 57.62 22.6336 57.62 22.6489ZM63.4908 29.7013C63.4908 27.8196 63.4908 25.938 63.4908 24.041C63.4908 23.9034 63.4908 23.7657 63.4908 23.628C63.5214 23.3526 63.5673 23.3067 63.8427 23.2761C64.271 23.2149 64.271 23.1996 64.3169 22.8019C64.3628 22.2971 64.424 22.2359 64.9288 22.2206C66.4586 22.2053 67.9731 22.2053 69.5029 22.19C70.0383 22.19 70.5738 22.2206 71.1092 22.1441C71.2316 22.1441 71.3387 22.1441 71.4457 22.1594C71.7211 22.19 71.7976 22.2512 71.8129 22.5112C71.8129 22.756 71.8435 22.9549 72.1189 23.0161C72.2565 23.0467 72.2871 23.1843 72.3024 23.322C72.3024 23.4597 72.3177 23.6127 72.3177 23.7657C72.3942 27.4525 72.3636 31.1393 72.3789 34.8108C72.3789 35.1168 72.3789 35.4227 72.3789 35.7287C72.3636 36.1111 72.3024 36.1876 71.92 36.2029C71.5222 36.2182 71.5222 36.2182 71.4457 36.6007C71.3845 36.9525 71.3081 37.0137 70.9103 37.0137C69.4111 36.9831 67.9119 36.9525 66.428 36.9219C65.9079 36.9219 65.4031 36.9219 64.8829 36.8607C64.5464 36.8301 64.5158 36.7995 64.4852 36.4783C64.4393 36.0499 64.4393 36.0499 64.0109 36.0346C63.5367 36.0193 63.4755 35.9581 63.4755 35.4686C63.4755 33.5411 63.4755 31.6135 63.4755 29.7013C63.4755 29.7013 63.4755 29.7013 63.4908 29.7013ZM69.457 29.5636C69.457 28.3704 69.457 27.1618 69.457 25.9686C69.457 25.7238 69.4417 25.4943 69.4417 25.2649C69.4417 25.066 69.3499 24.9895 69.151 25.0048C68.3556 25.066 67.5601 25.0201 66.7493 25.0354C66.3974 25.0507 66.3821 25.0507 66.3821 25.4178C66.3821 26.5193 66.3821 27.6361 66.3821 28.7375C66.3821 30.3897 66.3821 32.0572 66.3974 33.7093C66.3974 34.1377 66.428 34.153 66.8411 34.1683C67.2541 34.1683 67.6671 34.1683 68.0955 34.1683C68.3862 34.1836 68.6921 34.1989 68.9981 34.2142C69.3499 34.2448 69.4417 34.153 69.457 33.8011C69.457 33.7093 69.457 33.6023 69.457 33.5105C69.457 32.1948 69.457 30.8792 69.457 29.5636ZM76.0241 37.6715C75.9935 37.6715 75.9476 37.6715 75.9017 37.6562C75.2133 37.4573 74.5402 37.2279 73.8671 36.9525C73.6835 36.876 73.6224 36.7383 73.6682 36.5548C73.6988 36.3865 73.7447 36.2335 73.8059 36.0652C74.7085 33.3422 75.6264 30.6192 76.5137 27.8808C77.1868 25.8462 77.8905 23.8269 78.5942 21.7922C78.8237 21.1344 78.8237 21.1344 79.4662 21.3486C79.971 21.5322 80.4758 21.7157 80.9807 21.8993C81.3784 22.0523 81.3937 22.0982 81.2713 22.4959C80.9042 23.6739 80.537 24.8671 80.1546 26.0451C78.946 29.7013 77.7375 33.3575 76.529 36.9984C76.4831 37.1667 76.4219 37.3197 76.3607 37.4726C76.2995 37.6103 76.1924 37.7021 76.0241 37.6715ZM87.2388 22.6489C88.2944 22.6489 89.35 22.6489 90.3902 22.6489C90.5279 22.6489 90.6809 22.6489 90.8186 22.6642C91.201 22.6795 91.2775 22.7407 91.2775 23.1385C91.2928 23.7351 91.2775 24.3317 91.2622 24.9283C91.2469 25.3414 91.1551 25.4178 90.7268 25.4178C89.2123 25.4178 87.6825 25.4178 86.168 25.4026C85.5561 25.4026 85.5408 25.4026 85.5561 26.0298C85.5561 26.7488 85.5867 27.4678 85.5867 28.1868C85.602 28.6763 85.6173 28.7069 86.1068 28.7069C87.4224 28.6763 88.738 28.6457 90.0537 28.6304C90.1455 28.6304 90.2372 28.6304 90.3443 28.6304C90.5432 28.6304 90.6962 28.7069 90.7268 28.9211C90.7574 29.1811 90.8951 29.3035 91.1704 29.2882C91.5835 29.2882 91.5988 29.3341 91.66 29.7472C91.6752 29.839 91.6752 29.9307 91.6905 30.0225C91.7211 31.2464 91.7517 32.4702 91.7823 33.6787C91.7976 34.3366 91.8282 34.9791 91.8435 35.6369C91.8588 36.0652 91.8741 36.2029 91.354 36.2641C91.1245 36.2794 90.9256 36.3406 90.9409 36.6465C90.9562 36.8148 90.8186 36.8913 90.6656 36.9219C90.5279 36.9372 90.3749 36.9372 90.2219 36.9372C88.4627 36.9525 86.7034 36.9525 84.9442 36.9678C84.577 36.9678 84.1946 36.9831 83.8274 37.0137C83.3991 37.0443 83.3226 36.9678 83.2767 36.5395C83.2614 36.3712 83.1849 36.2641 83.0013 36.2335C82.7871 36.1876 82.7259 36.0346 82.7259 35.8358C82.7106 34.8261 82.6954 33.8164 82.6954 32.8068C82.6954 32.5161 82.7718 32.4396 83.0625 32.4396C83.7509 32.4243 84.424 32.4396 85.0971 32.4396C85.3113 32.4396 85.4031 32.5467 85.4337 32.7303C85.449 32.8374 85.4643 32.9444 85.4643 33.0668C85.4796 33.2504 85.4796 33.4493 85.4949 33.6481C85.5255 34.2295 85.5255 34.2142 86.1068 34.2142C86.8105 34.1836 87.5295 34.1836 88.2332 34.1683C88.3403 34.1683 88.4474 34.1683 88.5545 34.153C88.8604 34.1224 88.9216 34.0612 88.891 33.7552C88.8298 33.1586 88.8604 32.5467 88.8451 31.9348C88.8298 31.4911 88.8145 31.4605 88.3709 31.4758C86.9788 31.4758 85.602 31.4758 84.2098 31.4758C83.4602 31.4758 83.4602 31.4758 83.4297 30.7262C83.4297 30.3897 83.4297 30.3744 83.0778 30.3285C82.8483 30.3132 82.7565 30.1908 82.7259 29.9919C82.7259 29.8849 82.7106 29.7778 82.7106 29.6554C82.7106 28.3704 82.6954 27.0853 82.6801 25.8003C82.6648 25.2649 82.6342 24.7141 82.6342 24.1787C82.6189 23.781 82.6342 23.7657 83.0319 23.7198C83.3379 23.6892 83.3379 23.6739 83.3532 23.3526C83.3532 23.2302 83.3532 23.1079 83.3532 22.9855C83.3838 22.7101 83.4297 22.6489 83.705 22.6336C84.1181 22.6183 84.5158 22.6336 84.9136 22.6336C85.6938 22.6336 86.4586 22.6336 87.2388 22.6336C87.2388 22.6336 87.2388 22.6336 87.2388 22.6489ZM93.1097 29.7013C93.1097 27.8196 93.1097 25.938 93.1097 24.041C93.1097 23.9034 93.1097 23.7657 93.1097 23.628C93.1403 23.3526 93.1862 23.3067 93.4615 23.2761C93.8899 23.2149 93.8899 23.1996 93.9358 22.8019C93.9817 22.2971 94.0428 22.2359 94.5477 22.2206C96.0775 22.2053 97.592 22.2053 99.1218 22.19C99.6572 22.19 100.193 22.2206 100.728 22.1441C100.85 22.1441 100.958 22.1441 101.065 22.1594C101.34 22.19 101.416 22.2512 101.432 22.5112C101.432 22.756 101.462 22.9549 101.738 23.0161C101.875 23.0467 101.906 23.1843 101.921 23.322C101.921 23.4597 101.937 23.6127 101.937 23.7657C102.013 27.4525 101.982 31.1393 101.998 34.8108C101.998 35.1168 101.998 35.4227 101.998 35.7287C101.982 36.1111 101.921 36.1876 101.539 36.2029C101.141 36.2182 101.141 36.2182 101.065 36.6007C101.003 36.9525 100.927 37.0137 100.529 37.0137C99.03 36.9831 97.5308 36.9525 96.0469 36.9219C95.5267 36.9219 95.0219 36.9219 94.5018 36.8607C94.1652 36.8301 94.1346 36.7995 94.104 36.4783C94.0581 36.0499 94.0581 36.0499 93.6298 36.0346C93.1556 36.0193 93.0944 35.9581 93.0944 35.4686C93.0944 33.5411 93.0944 31.6135 93.0944 29.7013C93.0944 29.7013 93.0944 29.7013 93.1097 29.7013ZM99.0759 29.5636C99.0759 28.3704 99.0759 27.1618 99.0759 25.9686C99.0759 25.7238 99.0606 25.4943 99.0606 25.2649C99.0606 25.066 98.9688 24.9895 98.7699 25.0048C97.9744 25.066 97.1789 25.0201 96.3681 25.0354C96.0163 25.0507 96.001 25.0507 96.001 25.4178C96.001 26.5193 96.001 27.6361 96.001 28.7375C96.001 30.3897 96.001 32.0572 96.0163 33.7093C96.0163 34.1377 96.0469 34.153 96.4599 34.1683C96.873 34.1683 97.286 34.1683 97.7144 34.1683C98.005 34.1836 98.311 34.1989 98.6169 34.2142C98.9688 34.2448 99.0606 34.153 99.0759 33.8011C99.0759 33.7093 99.0759 33.6023 99.0759 33.5105C99.0759 32.1948 99.0759 30.8792 99.0759 29.5636Z" fill="white"/>
</svg>
