<svg width="246" height="56" viewBox="0 0 246 56" fill="none" xmlns="http://www.w3.org/2000/svg">
<g filter="url(#filter0_d_26_160)">
<path d="M41.2588 20.0265C41.2067 21.8509 41.1893 23.7796 41.1198 25.7083C41.0851 26.4902 41.0677 27.2721 41.0503 28.0539C41.0503 28.3667 41.0677 28.6795 40.6333 28.7316C40.5812 28.7316 40.5291 28.8011 40.5464 28.8706C40.5986 29.2007 40.3206 29.2876 40.1121 29.4092C38.3919 30.3823 36.6717 31.3553 34.9515 32.3283C34.4998 32.5889 34.048 32.8496 33.5963 33.0928C33.4399 33.1797 33.2835 33.2492 33.1271 33.3013C32.936 33.3708 32.7796 33.3187 32.6754 33.145C32.5364 32.9191 32.3974 32.6932 32.2757 32.4499C32.1715 32.2762 32.0325 32.1893 31.824 32.1893C31.6502 32.2067 31.4765 32.1893 31.3027 32.1893C31.0247 32.2067 30.9031 32.0677 30.8509 31.8244C30.7988 31.5117 30.7467 31.1989 30.7467 30.8861C30.7119 28.332 30.7119 25.7604 30.6251 23.2062C30.5556 21.0864 30.5556 18.9666 30.5556 16.8468C30.5556 16.7773 30.5556 16.7252 30.5556 16.6557C30.5556 16.0475 30.6077 16.0301 31.1811 15.9954C31.824 15.9606 32.4495 15.9085 33.075 15.9085C33.3878 15.9259 33.6658 15.9259 33.7526 16.3255C33.7874 16.5514 34.0306 16.4819 34.187 16.4645C34.743 16.395 35.2817 16.3255 35.8203 16.256C37.1061 16.0823 38.3745 15.9085 39.6603 15.7521C39.7472 15.7348 39.8514 15.7348 39.9383 15.7348C40.1816 15.7174 40.3206 15.8216 40.3727 16.0649C40.3901 16.1691 40.3901 16.2908 40.4074 16.395C40.4769 16.7773 40.4769 16.7947 40.8766 16.8468C41.1893 16.8989 41.2415 16.9337 41.2415 17.2812C41.2588 17.6808 41.2588 18.0978 41.2588 18.4975C41.2588 18.9666 41.2588 19.4357 41.2588 20.0265ZM38.0096 20.1655C38.0096 19.9049 38.027 19.6616 38.0096 19.4184C38.0096 19.123 37.9575 19.0882 37.6621 19.123C37.2972 19.1577 36.9497 19.2098 36.5848 19.262C35.8203 19.3488 35.0732 19.4531 34.3087 19.5574C33.9438 19.6095 33.8916 19.679 33.8743 20.0439C33.8743 20.1829 33.8743 20.3219 33.8743 20.4609C33.8916 22.2332 33.8916 24.0055 33.9611 25.7778C33.9959 26.6987 33.9785 27.6369 33.9959 28.5578C33.9959 28.6621 33.9959 28.7837 33.9959 28.888C34.0133 29.0444 34.0828 29.1139 34.2565 29.0444C34.3087 29.027 34.3608 28.9922 34.4129 28.9575C35.4381 28.3841 36.4632 27.7933 37.4884 27.2199C37.7142 27.0983 37.8011 26.9419 37.8185 26.6987C37.8359 24.5267 37.9054 22.3374 38.0096 20.1655ZM42.6747 20.8258C42.6747 20.3045 42.6747 19.7832 42.6747 19.262C42.692 18.8623 42.7268 18.8102 43.109 18.7233C43.5261 18.6365 43.5261 18.6365 43.5434 18.2021C43.5608 17.4028 43.5608 17.4202 44.3601 17.368C46.6189 17.2464 48.8777 17.2117 51.1365 17.1595C51.5188 17.1422 51.6404 17.2464 51.6751 17.6461C51.6925 17.8198 51.6751 18.0109 51.6925 18.2021C51.6925 18.3932 51.7968 18.4975 51.9879 18.4975C52.1443 18.4975 52.3007 18.4975 52.457 18.5148C52.7524 18.5496 52.8567 18.6365 52.8741 18.9318C52.8914 19.3141 52.8741 19.679 52.8567 20.0612C52.8567 20.374 52.8219 20.6868 52.8219 20.9995C52.7177 23.1367 52.6308 25.2739 52.5439 27.4111C52.4918 28.5752 52.457 29.7567 52.4223 30.9383C52.4049 31.1468 52.4049 31.3553 52.3702 31.5464C52.3354 31.9287 52.1617 32.0503 51.7794 32.0329C51.0496 31.9808 51.0496 31.9808 51.0149 32.6758C50.9975 33.1797 50.928 33.2666 50.4415 33.2666C48.9993 33.3013 47.5572 33.3187 46.0976 33.3361C45.6285 33.3361 45.1246 33.3013 44.6555 33.284C44.2732 33.2492 44.2211 33.2145 44.169 32.8322C44.1168 32.3631 44.0994 32.3457 43.6303 32.3283C43.0395 32.3109 42.9874 32.2414 42.97 31.668C42.9353 29.9131 42.9005 28.1756 42.8484 26.438C42.7963 24.5615 42.7268 22.6849 42.6573 20.8258C42.6747 20.8258 42.6747 20.8258 42.6747 20.8258ZM47.8004 20.4956C47.8004 20.513 47.8004 20.5304 47.8004 20.5478C47.2965 20.5478 46.81 20.5304 46.3061 20.5478C45.976 20.5478 45.9412 20.6173 45.9412 20.9474C46.0107 22.4938 46.0629 24.0576 46.0976 25.604C46.1498 26.9245 46.1671 28.2451 46.2019 29.5482C46.2193 30 46.254 30.0174 46.7058 30.0174C47.3487 30.0348 47.9916 30.0348 48.6344 30.0174C49.1557 30.0174 49.1557 30 49.1731 29.4961C49.2252 28.4015 49.2252 27.3068 49.3121 26.2122C49.3816 25.2391 49.3642 24.2661 49.4337 23.2931C49.5032 22.4764 49.4858 21.6598 49.5553 20.8431C49.5727 20.4956 49.5206 20.4783 49.1731 20.4956C48.7213 20.4956 48.2696 20.4956 47.8004 20.4956ZM64.9872 25.9515C64.9872 27.6196 64.9872 29.2876 64.9872 30.9556C64.9872 31.0947 64.9872 31.2337 64.9872 31.3727C64.9872 31.6159 64.8656 31.7202 64.6397 31.7202C64.3617 31.7202 64.101 31.7375 63.8404 31.7375C63.5971 31.7202 63.4755 31.8244 63.4755 32.0677C63.4755 32.3457 63.4581 32.6237 63.4581 32.9191C63.4581 33.1623 63.3365 33.284 63.0933 33.3013C62.989 33.3013 62.9021 33.3013 62.7979 33.3013C60.6954 33.3187 58.593 33.3187 56.4906 33.3361C56.4037 33.3361 56.3342 33.3361 56.2473 33.3361C55.9519 33.3187 55.8998 33.2666 55.8824 32.9538C55.8824 32.7453 55.8998 32.5194 55.8824 32.2936C55.8477 31.9287 55.7956 31.8939 55.4481 31.807C55.2222 31.7549 55.0137 31.7549 54.7878 31.7375C54.3708 31.7202 54.2839 31.668 54.3187 31.2684C54.4055 30.2433 54.3708 29.2355 54.4229 28.2103C54.4229 28.0539 54.4577 27.8976 54.4577 27.7412C54.5098 26.3512 54.5445 24.9437 54.5793 23.5537C54.6314 21.903 54.7009 20.2524 54.753 18.6017C54.7704 18.1673 54.8225 18.1326 55.2569 18.1152C56.0562 18.0631 56.8555 18.1673 57.6547 18.2021C58.0023 18.2194 58.037 18.2716 58.037 18.6017C57.9849 20.5304 57.9154 22.4417 57.8459 24.353C57.7764 25.9341 57.7416 27.5327 57.7069 29.1139C57.7069 29.3397 57.6895 29.5482 57.6721 29.7741C57.6547 29.9652 57.7416 30.0695 57.9501 30.0695C58.1239 30.0695 58.315 30.0869 58.5061 30.0695C59.3923 30 60.2611 30.0174 61.1472 30C61.7206 30 61.738 29.9826 61.7206 29.4266C61.6163 26.3685 61.6685 23.3278 61.6511 20.2697C61.6337 19.4357 61.6337 18.5843 61.6337 17.7329C61.6511 17.2812 61.6858 17.2812 62.1376 17.2464C62.9021 17.1769 63.6666 17.1769 64.4312 17.2464C64.8482 17.2812 64.8829 17.2985 64.9003 17.6982C64.9003 18.0283 64.9003 18.3411 64.9003 18.6538C64.9698 21.0864 64.9698 23.519 64.9872 25.9515ZM66.4204 25.8473C66.4204 24.075 66.4204 22.3027 66.4378 20.513C66.4378 19.3836 66.4725 18.2542 66.5073 17.1248C66.5073 17.0727 66.5073 17.0379 66.5073 16.9858C66.5594 16.4819 66.6115 16.4298 67.098 16.4124C67.7235 16.4124 68.3491 16.3603 68.9746 16.4124C69.2005 16.4471 69.4263 16.4298 69.6175 16.5514C69.7391 16.6383 69.8781 16.6383 70.0345 16.6209C71.5983 16.5688 73.1621 16.534 74.7432 16.4645C75.9595 16.4124 75.751 16.4471 75.8553 17.4202C75.89 17.8372 75.8726 17.8546 76.307 17.9588C76.5155 17.9936 76.6198 18.0978 76.6198 18.3063C76.6372 18.3411 76.6372 18.3584 76.6372 18.3932C76.6198 19.8354 76.6545 21.2601 76.5676 22.6849C76.5503 23.1019 76.5503 23.5363 76.5329 23.9533C76.5329 24.3356 76.4981 24.3877 76.1333 24.4746C75.8031 24.5615 75.5599 24.8047 75.2645 24.9264C75.0039 25.0306 74.7606 25.187 74.5173 25.326C74.2567 25.465 74.2567 25.5519 74.4826 25.743C74.7954 26.021 75.1081 26.3164 75.4382 26.577C75.9595 26.9767 76.1854 27.4806 76.168 28.1408C76.1333 29.4961 76.0811 30.8514 75.9769 32.1893C75.9595 32.5889 75.9421 32.5889 75.5251 32.7106C75.4382 32.7453 75.3514 32.7627 75.3166 32.8669C75.2297 33.1276 75.0212 33.145 74.7954 33.1797C74.1003 33.2492 73.4053 33.2318 72.7103 33.2492C71.216 33.284 69.7391 33.3013 68.2448 33.3361C68.1232 33.3361 68.0189 33.3361 67.9147 33.3361C67.4977 33.3013 67.4629 33.2492 67.4282 32.8496C67.4282 32.7974 67.4282 32.7279 67.4282 32.6584C67.4108 32.3109 67.4108 32.3109 67.0633 32.2762C66.9416 32.2588 66.8374 32.2414 66.7331 32.2241C66.5246 32.2067 66.4378 32.0677 66.403 31.8765C66.403 31.7375 66.3856 31.5985 66.3856 31.4595C66.3856 29.583 66.3856 27.7238 66.3856 25.8473C66.403 25.8473 66.4204 25.8473 66.4204 25.8473ZM69.6522 21.9725C69.6522 22.6502 69.6348 23.3105 69.6522 23.9881C69.6522 24.2835 69.7043 24.3182 69.9476 24.1966C70.9728 23.6927 71.9979 23.1714 73.0231 22.6676C73.2142 22.5807 73.3184 22.4417 73.3358 22.2332C73.3532 22.0594 73.3706 21.8857 73.3706 21.7119C73.4053 21.1385 73.3706 20.5478 73.4401 19.9744C73.4922 19.5226 73.4574 19.4705 72.9883 19.5052C72.0153 19.5574 71.0423 19.5574 70.0692 19.5921C69.687 19.5921 69.6522 19.6269 69.6522 20.0439C69.6522 20.6868 69.6522 21.3297 69.6522 21.9725ZM69.6348 28.9922C69.6348 29.2876 69.6175 29.583 69.6348 29.8784C69.6522 30.2433 69.687 30.2954 70.0519 30.278C70.8859 30.2606 71.7199 30.2433 72.5539 30.1911C72.8493 30.1911 72.8841 30.139 72.9188 29.8262C72.9362 29.5482 72.9188 29.2702 72.9536 28.9748C72.9709 28.7663 72.9014 28.6273 72.7624 28.4883C72.2933 28.0539 71.8242 27.6369 71.3724 27.2026C71.216 27.0809 71.077 27.0462 70.9033 27.1331C70.5557 27.3068 70.2256 27.4632 69.8781 27.6196C69.687 27.7064 69.6348 27.8628 69.6348 28.0366C69.6348 28.3493 69.6348 28.6795 69.6348 28.9922ZM82.9982 33.2666C82.112 33.2666 81.2085 33.3013 80.3224 33.3361C80.0444 33.3535 79.7837 33.3187 79.5231 33.3013C79.2625 33.2666 79.1582 33.1276 79.1582 32.9017C79.1582 32.8148 79.1582 32.7279 79.1582 32.6584C79.1582 32.4499 79.0713 32.3631 78.8455 32.3283C78.0462 32.2241 78.0462 32.2241 78.0462 31.4422C78.1331 27.6891 78.1157 23.936 78.1504 20.1829C78.1678 19.4705 78.2026 18.7407 78.2199 18.0109C78.2373 17.5939 78.3416 17.4897 78.776 17.4897C79.4884 17.4897 80.2181 17.4375 80.9305 17.5592C81.3475 17.6287 81.417 17.6634 81.4344 18.0804C81.4518 18.5843 81.4518 19.0882 81.4518 19.5921C81.4518 21.0516 81.4865 22.5112 81.4344 23.9707C81.3649 25.8125 81.3997 27.6543 81.3649 29.4787C81.3649 30.1216 81.3823 30.139 81.9904 30.1043C83.311 30 84.6315 30.0521 85.952 30.0174C86.1953 30 86.4559 29.9652 86.6992 29.9652C87.0641 29.9652 87.1683 30.0521 87.2031 30.3996C87.2726 31.1989 87.2378 32.0156 87.2204 32.8322C87.2204 33.1102 87.1162 33.1623 86.7687 33.1971C85.8478 33.2666 84.9095 33.2492 83.9886 33.2666C83.6585 33.2666 83.3283 33.2666 82.9982 33.2666ZM88.6721 19.957C88.6721 19.2793 88.6721 18.6017 88.6721 17.9241C88.6721 17.4375 88.7242 17.4202 89.1934 17.3507C89.9405 17.2464 90.6876 17.2117 91.4174 17.2985C92.0951 17.3854 92.7553 17.3854 93.433 17.3507C94.9099 17.2985 96.3694 17.2117 97.8463 17.1422C97.9506 17.1248 98.0375 17.1248 98.1417 17.1248C98.5761 17.1769 98.6804 17.2638 98.6977 17.7156C98.7151 18.3758 98.7151 19.0361 98.7151 19.6964C98.7151 20.1307 98.6456 20.2002 98.246 20.235C97.968 20.2697 97.7073 20.2871 97.4467 20.3045C96.2478 20.3566 95.0489 20.3914 93.8674 20.4435C93.3635 20.4609 92.8596 20.4783 92.3557 20.513C92.0603 20.5478 92.0082 20.5825 92.0082 20.8953C92.0082 21.7814 92.0256 22.6502 92.0429 23.5363C92.0603 23.8838 92.0777 24.2314 92.0951 24.5789C92.1124 24.8569 92.1646 24.8916 92.4426 24.8569C93.4156 24.7005 94.3712 24.5441 95.3443 24.4051C95.3964 24.3877 95.4659 24.3704 95.518 24.3704C95.9698 24.3182 96.0567 24.3877 96.1262 24.8047C96.2478 25.4476 96.352 26.0731 96.4389 26.716C96.5084 27.2721 96.4737 27.3068 95.9524 27.4111C95.0489 27.5848 94.1454 27.7238 93.2592 27.8802C92.9986 27.9149 92.7553 27.9497 92.5121 28.0018C92.3036 28.0192 92.1993 28.1408 92.1993 28.3493C92.1993 28.8358 92.1993 29.3224 92.2167 29.8089C92.2167 30.0348 92.3557 30.0869 92.5642 30.0695C93.8152 29.9479 95.0663 29.8436 96.3173 29.7567C97.0992 29.6872 97.8811 29.6525 98.663 29.6177C99.1147 29.6004 99.1495 29.6351 99.2016 30.0695C99.3059 30.7819 99.358 31.4769 99.358 32.1893C99.358 32.5021 99.3232 32.5716 98.9931 32.6237C98.6456 32.6932 98.2981 32.7106 97.9506 32.7453C97.0123 32.8322 96.0567 32.9017 95.101 32.9712C93.6588 33.0928 92.2167 33.1971 90.7745 33.3187C90.6529 33.3187 90.5139 33.3361 90.3923 33.3361C90.2011 33.3535 90.0274 33.3013 89.9579 33.0755C89.9231 32.8496 89.7494 32.7974 89.5409 32.7801C89.176 32.7453 89.0544 32.6237 89.0022 32.2588C88.9849 32.1372 88.9849 32.0329 88.9675 31.9287C88.9327 30.2085 88.898 28.5057 88.8632 26.7855C88.7937 24.5094 88.7242 22.2332 88.6547 19.957C88.6721 19.957 88.6721 19.957 88.6721 19.957ZM118.17 20.7041C118.066 22.8761 117.961 25.0306 117.875 27.2026C117.822 28.4015 117.788 29.6177 117.753 30.834C117.736 31.0947 117.718 31.3553 117.683 31.6159C117.649 31.9808 117.579 32.0329 117.197 32.0503C117.075 32.0503 116.954 32.0329 116.832 32.0329C116.38 32.0329 116.363 32.0677 116.345 32.5368C116.345 32.6584 116.363 32.7801 116.345 32.9017C116.311 33.2145 116.224 33.284 115.928 33.3187C115.807 33.3361 115.685 33.3361 115.564 33.3361C113.809 33.3361 112.071 33.3535 110.316 33.3535C110.195 33.3535 110.073 33.3535 109.951 33.3361C109.604 33.3013 109.552 33.2318 109.5 32.9017C109.5 32.8148 109.5 32.7106 109.482 32.6237C109.447 32.4673 109.361 32.3457 109.152 32.3457C109.135 32.3457 109.1 32.3283 109.065 32.3457C108.266 32.3978 108.318 32.1546 108.301 31.5117C108.266 29.7915 108.231 28.0713 108.179 26.3338C108.092 24.0923 108.005 21.8509 108.005 19.6095C108.005 19.5052 108.005 19.4184 108.005 19.3141C108.023 18.8971 108.075 18.845 108.492 18.7755C108.839 18.7407 108.839 18.7233 108.874 18.3758C108.874 18.3584 108.874 18.3237 108.874 18.2889C108.891 17.4723 108.891 17.4549 109.708 17.4028C110.455 17.3507 111.22 17.3333 111.967 17.2985C113.34 17.2638 114.73 17.229 116.12 17.1943C116.241 17.1943 116.363 17.1943 116.484 17.1943C116.884 17.2117 116.971 17.2985 117.006 17.6982C117.023 17.8198 117.006 17.9588 117.006 18.0804C117.023 18.4627 117.023 18.4627 117.405 18.5148C117.527 18.5322 117.649 18.567 117.77 18.5843C118.153 18.6538 118.205 18.7233 118.205 19.1056C118.205 19.54 118.17 19.957 118.153 20.374C118.153 20.4956 118.153 20.5999 118.153 20.7041H118.17ZM113.305 20.5304C112.749 20.5478 112.175 20.5304 111.619 20.5999C111.307 20.6346 111.272 20.6868 111.289 20.9821C111.341 22.4243 111.393 23.8665 111.428 25.3086C111.463 26.7508 111.498 28.193 111.532 29.6525C111.532 29.6525 111.532 29.6699 111.532 29.6872C111.55 30.0695 111.567 30.0869 111.949 30.0869C112.645 30.0695 113.357 30.0521 114.069 30.0348C114.452 30.0348 114.486 29.9826 114.504 29.6004C114.573 27.8976 114.643 26.1774 114.712 24.4746C114.73 24.1618 114.747 23.8491 114.764 23.5363C114.816 22.6502 114.782 21.7814 114.869 20.8953C114.903 20.5999 114.834 20.5478 114.521 20.5304C114.121 20.513 113.722 20.5304 113.305 20.5304ZM119.615 25.3781C119.615 23.519 119.633 21.6424 119.615 19.7659C119.615 19.0882 119.633 18.428 119.667 17.7503C119.702 17.1769 119.754 17.1248 120.293 17.1074C121.822 17.0553 123.351 17.0032 124.863 17.0205C125.818 17.0205 126.757 16.9163 127.695 16.951C127.817 16.951 127.956 16.951 128.077 16.951C128.39 16.9858 128.459 17.0727 128.512 17.4028C128.564 17.8198 128.564 17.8198 128.981 17.8719C129.207 17.9067 129.415 17.9414 129.641 17.9588C129.867 17.9762 129.988 18.0978 129.988 18.3237C130.006 18.3584 130.006 18.3932 130.006 18.4106C129.971 19.7832 130.023 21.1559 129.954 22.5112C129.919 23.1367 129.919 23.7796 129.919 24.4051C129.919 24.7005 129.902 24.9785 129.502 25.0132C129.398 25.0306 129.363 25.1349 129.38 25.2218C129.485 25.5171 129.293 25.6388 129.085 25.7256C128.303 26.1079 127.521 26.4902 126.739 26.8377C125.853 27.2547 126.044 27.1852 126.496 27.8281C127.365 29.027 128.251 30.2085 129.12 31.4074C129.415 31.807 129.398 31.9113 128.998 32.2067C128.407 32.6237 127.817 33.0407 127.208 33.4403C126.826 33.6836 126.757 33.6662 126.479 33.284C125.506 31.9113 124.533 30.5213 123.56 29.1312C123.455 28.9748 123.368 28.8358 123.247 28.7142C123.125 28.5752 122.986 28.61 122.934 28.7837C122.917 28.9227 122.917 29.0791 122.917 29.2181C122.917 30.1216 122.917 31.0425 122.917 31.9461C122.917 32.0677 122.917 32.2067 122.899 32.3283C122.882 32.7453 122.76 32.8843 122.326 32.9017C121.978 32.9191 121.631 32.9191 121.301 32.9017C120.866 32.9017 120.449 32.8148 120.032 32.8148C119.737 32.8148 119.633 32.6932 119.615 32.4152C119.598 32.2762 119.598 32.1546 119.598 32.0329C119.598 29.8089 119.598 27.6022 119.598 25.3781C119.615 25.3781 119.615 25.3781 119.615 25.3781ZM124.793 20.1655C124.289 20.1655 123.803 20.1655 123.299 20.1829C122.986 20.1829 122.934 20.235 122.934 20.5478C122.917 22.0073 122.917 23.4842 122.934 24.9611C122.934 25.2391 122.986 25.2739 123.229 25.1522C124.289 24.6657 125.332 24.1445 126.374 23.6406C126.583 23.5537 126.67 23.3973 126.67 23.1714C126.67 22.3027 126.687 21.4339 126.67 20.5825C126.67 20.235 126.618 20.1829 126.253 20.1655C125.766 20.1655 125.28 20.1655 124.793 20.1655ZM146.496 30.0521C145.992 30.1216 145.975 30.1216 145.732 29.7046C144.637 27.8281 143.543 25.9515 142.465 24.075C142.361 23.9186 142.274 23.7622 142.135 23.5363C142.066 23.7101 142.083 23.8491 142.083 23.9881C142.066 25.2565 142.083 26.5249 142.048 27.7933C141.996 29.3397 141.979 30.8861 141.961 32.4152C141.961 32.9538 141.857 33.0581 141.336 33.0581C140.658 33.0581 139.981 33.1102 139.303 33.0233C138.695 32.9538 138.66 32.9017 138.66 32.2936C138.677 31.5638 138.712 30.8514 138.73 30.1216C138.747 28.6968 138.712 27.2547 138.764 25.8299C138.851 23.8143 138.816 21.7814 138.851 19.7485C138.869 19.2793 138.886 18.8102 138.921 18.3411C138.955 18.0109 139.042 17.8893 139.372 17.9241C139.998 17.9936 140.502 17.7677 140.988 17.4028C141.162 17.2638 141.388 17.1595 141.596 17.0553C141.892 16.8989 141.996 16.9337 142.187 17.1943C142.361 17.4375 142.517 17.6982 142.674 17.9588C143.907 20.0612 145.124 22.1637 146.357 24.2661C146.427 24.3704 146.462 24.5267 146.601 24.5789C146.67 24.5267 146.67 24.4572 146.67 24.4051C146.705 23.4147 146.74 22.4243 146.757 21.4339C146.774 20.2002 146.844 18.9666 146.948 17.7156C146.966 17.3159 147.018 17.2638 147.435 17.2638C148.13 17.2638 148.842 17.2638 149.554 17.2812C149.954 17.2812 150.041 17.368 150.058 17.7851C150.076 17.8893 150.076 17.9936 150.076 18.1152C150.128 20.4088 150.006 22.7023 149.954 24.9959C149.937 26.0384 149.937 27.0983 149.885 28.1408C149.815 29.5482 149.815 30.9383 149.78 32.3283C149.78 32.4847 149.763 32.6584 149.746 32.7974C149.693 33.2492 149.607 33.3535 149.137 33.3361C148.408 33.284 147.661 33.284 146.931 33.2318C146.583 33.2145 146.462 33.0928 146.479 32.7106C146.479 31.9287 146.444 31.1468 146.531 30.3649C146.548 30.278 146.566 30.1738 146.496 30.0521ZM151.543 20.8258C151.543 20.3045 151.543 19.7832 151.543 19.262C151.56 18.8623 151.595 18.8102 151.977 18.7233C152.394 18.6365 152.394 18.6365 152.411 18.2021C152.429 17.4028 152.429 17.4202 153.228 17.368C155.487 17.2464 157.746 17.2117 160.005 17.1595C160.387 17.1422 160.508 17.2464 160.543 17.6461C160.561 17.8198 160.543 18.0109 160.561 18.2021C160.561 18.3932 160.665 18.4975 160.856 18.4975C161.012 18.4975 161.169 18.4975 161.325 18.5148C161.62 18.5496 161.725 18.6365 161.742 18.9318C161.759 19.3141 161.742 19.679 161.725 20.0612C161.725 20.374 161.69 20.6868 161.69 20.9995C161.586 23.1367 161.499 25.2739 161.412 27.4111C161.36 28.5752 161.325 29.7567 161.29 30.9383C161.273 31.1468 161.273 31.3553 161.238 31.5464C161.203 31.9287 161.03 32.0503 160.647 32.0329C159.918 31.9808 159.918 31.9808 159.883 32.6758C159.866 33.1797 159.796 33.2666 159.31 33.2666C157.867 33.3013 156.425 33.3187 154.966 33.3361C154.497 33.3361 153.993 33.3013 153.524 33.284C153.141 33.2492 153.089 33.2145 153.037 32.8322C152.985 32.3631 152.968 32.3457 152.498 32.3283C151.908 32.3109 151.855 32.2414 151.838 31.668C151.803 29.9131 151.769 28.1756 151.716 26.438C151.664 24.5615 151.595 22.6849 151.525 20.8258C151.543 20.8258 151.543 20.8258 151.543 20.8258ZM156.668 20.4956C156.668 20.513 156.668 20.5304 156.668 20.5478C156.165 20.5478 155.678 20.5304 155.174 20.5478C154.844 20.5478 154.809 20.6173 154.809 20.9474C154.879 22.4938 154.931 24.0576 154.966 25.604C155.018 26.9245 155.035 28.2451 155.07 29.5482C155.087 30 155.122 30.0174 155.574 30.0174C156.217 30.0348 156.86 30.0348 157.502 30.0174C158.024 30.0174 158.024 30 158.041 29.4961C158.093 28.4015 158.093 27.3068 158.18 26.2122C158.25 25.2391 158.232 24.2661 158.302 23.2931C158.371 22.4764 158.354 21.6598 158.423 20.8431C158.441 20.4956 158.389 20.4783 158.041 20.4956C157.589 20.4956 157.138 20.4956 156.668 20.4956ZM168.521 17.0727C169.946 17.0727 171.371 17.0727 172.795 17.0727C172.952 17.0727 173.125 17.0727 173.282 17.0727C173.734 17.09 173.803 17.1422 173.803 17.5939C173.82 18.3063 173.82 19.0361 173.803 19.7485C173.803 20.2176 173.734 20.2871 173.299 20.2871C172.483 20.3045 171.683 20.2871 170.884 20.3045C170.363 20.3045 170.345 20.3219 170.311 20.8605C170.241 22.4591 170.276 24.075 170.206 25.6735C170.154 27.2547 170.172 28.8358 170.12 30.417C170.085 31.2337 170.067 32.0329 170.05 32.8322C170.05 33.284 169.998 33.3187 169.529 33.3361C168.695 33.3708 167.861 33.2318 167.027 33.2318C166.679 33.2318 166.61 33.1623 166.627 32.7974C166.644 31.529 166.592 30.2606 166.697 28.9922C166.714 28.6447 166.714 28.2972 166.714 27.9497C166.749 25.6388 166.801 23.3278 166.836 21.0169C166.836 20.2871 166.836 20.2871 166.106 20.3045C165.307 20.3045 164.525 20.3045 163.743 20.3045C163.274 20.3045 163.239 20.2524 163.221 19.8006C163.187 19.123 163.152 18.4453 163.204 17.7677C163.274 17.09 163.221 17.09 163.934 17.09C165.341 17.0727 166.731 17.0727 168.139 17.0727C168.26 17.0727 168.382 17.0727 168.521 17.0727ZM175.272 28.7316C175.272 27.4632 175.307 26.1774 175.255 24.909C175.203 23.6058 175.22 22.3027 175.22 20.9995C175.22 19.957 175.255 18.8971 175.29 17.8546C175.307 17.368 175.394 17.2812 175.88 17.2638C176.541 17.2638 177.184 17.2638 177.826 17.2638C178.33 17.2812 178.4 17.3507 178.435 17.8893C178.539 19.8354 178.522 21.7814 178.522 23.7275C178.522 24.4399 178.522 24.4399 179.251 24.4572C180.085 24.4746 180.919 24.492 181.753 24.5094C182.24 24.5267 182.292 24.4746 182.327 23.9881C182.344 23.8143 182.344 23.6406 182.361 23.4668C182.379 21.903 182.448 20.3392 182.553 18.7581C182.587 18.2716 182.657 18.2021 183.161 18.2194C183.838 18.2368 184.516 18.2716 185.176 18.3237C185.698 18.3584 185.784 18.4627 185.767 18.9666C185.732 20.4088 185.68 21.8509 185.628 23.2931C185.628 23.3973 185.628 23.4842 185.611 23.5885C185.576 25.048 185.541 26.5075 185.489 27.9671C185.437 29.4092 185.385 30.8514 185.315 32.2936C185.298 32.7627 185.211 32.9017 184.759 32.8496C183.995 32.7801 183.23 32.8322 182.466 32.6932C182.066 32.6237 182.014 32.5368 182.031 32.1372C182.083 30.834 182.118 29.5482 182.17 28.2625C182.17 28.2103 182.17 28.1408 182.17 28.0713C182.153 27.7412 182.136 27.7064 181.788 27.6891C181.11 27.6717 180.433 27.6717 179.755 27.6717C179.46 27.6717 179.164 27.6717 178.869 27.6717C178.661 27.6717 178.539 27.7586 178.539 27.9844C178.539 28.0887 178.539 28.2103 178.539 28.3146C178.574 29.6699 178.504 31.0425 178.591 32.4152C178.643 33.2666 178.556 33.3361 177.705 33.3361C177.114 33.3361 176.523 33.3361 175.915 33.3361C175.377 33.3187 175.29 33.2318 175.29 32.6932C175.29 31.3727 175.29 30.0521 175.29 28.7316H175.272ZM189.028 16.812C189.949 16.8468 190.922 16.8642 191.895 16.8989C192.312 16.9163 192.381 17.0032 192.399 17.4202C192.434 18.1326 192.399 18.8623 192.329 19.5747C192.295 19.8875 192.225 19.957 191.912 19.9744C191.182 20.0265 191.2 20.0265 191.182 20.7389C191.182 22.8934 191.182 25.048 191.165 27.2026C191.148 27.9844 191.113 28.7663 191.096 29.5656C191.096 29.6872 191.113 29.8089 191.096 29.9305C191.096 30.1738 191.2 30.2606 191.443 30.2954C191.947 30.3301 191.947 30.3475 191.947 30.8514C191.947 31.4595 191.947 32.0677 191.93 32.6758C191.912 33.284 191.843 33.3535 191.269 33.3361C190.088 33.3187 188.906 33.284 187.742 33.2492C187.29 33.2318 187.221 33.1623 187.204 32.7279C187.186 32.0156 187.221 31.3032 187.29 30.6081C187.29 30.417 187.325 30.2433 187.551 30.2085C187.846 30.1738 187.846 29.9826 187.846 29.7741C187.846 28.8011 187.864 27.8454 187.864 26.8898C187.864 24.6657 187.951 22.4243 188.003 20.2002C188.003 19.9396 187.916 19.8875 187.69 19.8527C187.238 19.8006 187.204 19.7659 187.221 19.3141C187.221 18.6365 187.169 17.9414 187.273 17.2464C187.343 16.8815 187.377 16.8294 187.76 16.8294C188.159 16.812 188.576 16.812 189.028 16.812ZM201.66 30.0521C201.156 30.1216 201.139 30.1216 200.896 29.7046C199.801 27.8281 198.706 25.9515 197.629 24.075C197.525 23.9186 197.438 23.7622 197.299 23.5363C197.229 23.7101 197.247 23.8491 197.247 23.9881C197.229 25.2565 197.247 26.5249 197.212 27.7933C197.16 29.3397 197.142 30.8861 197.125 32.4152C197.125 32.9538 197.021 33.0581 196.5 33.0581C195.822 33.0581 195.144 33.1102 194.467 33.0233C193.858 32.9538 193.824 32.9017 193.824 32.2936C193.841 31.5638 193.876 30.8514 193.893 30.1216C193.911 28.6968 193.876 27.2547 193.928 25.8299C194.015 23.8143 193.98 21.7814 194.015 19.7485C194.032 19.2793 194.05 18.8102 194.084 18.3411C194.119 18.0109 194.206 17.8893 194.536 17.9241C195.162 17.9936 195.665 17.7677 196.152 17.4028C196.326 17.2638 196.552 17.1595 196.76 17.0553C197.056 16.8989 197.16 16.9337 197.351 17.1943C197.525 17.4375 197.681 17.6982 197.837 17.9588C199.071 20.0612 200.287 22.1637 201.521 24.2661C201.591 24.3704 201.625 24.5267 201.764 24.5789C201.834 24.5267 201.834 24.4572 201.834 24.4051C201.869 23.4147 201.903 22.4243 201.921 21.4339C201.938 20.2002 202.008 18.9666 202.112 17.7156C202.129 17.3159 202.181 17.2638 202.598 17.2638C203.293 17.2638 204.006 17.2638 204.718 17.2812C205.118 17.2812 205.205 17.368 205.222 17.7851C205.239 17.8893 205.239 17.9936 205.239 18.1152C205.291 20.4088 205.17 22.7023 205.118 24.9959C205.1 26.0384 205.1 27.0983 205.048 28.1408C204.979 29.5482 204.979 30.9383 204.944 32.3283C204.944 32.4847 204.927 32.6584 204.909 32.7974C204.857 33.2492 204.77 33.3535 204.301 33.3361C203.571 33.284 202.824 33.284 202.094 33.2318C201.747 33.2145 201.625 33.0928 201.643 32.7106C201.643 31.9287 201.608 31.1468 201.695 30.3649C201.712 30.278 201.73 30.1738 201.66 30.0521ZM210.06 24.9959C210.06 26.5423 210.06 28.1061 210.06 29.6525C210.06 30.1564 210.095 30.1738 210.598 30.1738C211.432 30.1738 212.267 30.139 213.101 30.0869C213.448 30.0521 213.483 30.0348 213.5 29.6525C213.5 28.9748 213.518 28.2972 213.518 27.6196C213.518 27.2373 213.465 27.1852 213.083 27.1852C212.649 27.1678 212.197 27.1852 211.763 27.1852C211.398 27.1852 211.293 27.1157 211.276 26.7508C211.241 25.9863 211.241 25.2218 211.241 24.4399C211.241 24.2314 211.363 24.1445 211.571 24.1271C211.763 24.1097 211.936 24.075 212.128 24.0576C213.014 24.0228 213.882 23.9881 214.769 23.9533C215.307 23.936 215.325 23.9533 215.498 24.4572C215.55 24.6136 215.655 24.6831 215.794 24.7005C215.985 24.7352 216.176 24.77 216.367 24.7874C216.697 24.8047 216.767 24.8742 216.802 25.2044C216.819 25.2913 216.819 25.3608 216.819 25.4476C216.819 26.6639 216.854 27.8976 216.784 29.1139C216.732 29.9652 216.749 30.8166 216.732 31.668C216.732 32.2067 216.697 32.2588 216.159 32.2936C215.898 32.3109 215.811 32.4152 215.776 32.6584C215.742 33.0928 215.689 33.1102 215.255 33.145C214.195 33.2145 213.118 33.1971 212.058 33.2492C210.946 33.284 209.851 33.3187 208.757 33.3361C208.618 33.3361 208.479 33.3361 208.322 33.3361C207.975 33.3187 207.94 33.3187 207.853 32.9538C207.801 32.7453 207.697 32.6758 207.488 32.6758C207.454 32.6758 207.436 32.6758 207.401 32.6758C206.898 32.6584 206.811 32.5716 206.811 32.0503C206.793 31.1468 206.793 30.2606 206.793 29.3571C206.793 26.2122 206.689 23.0498 206.741 19.8875C206.758 19.2446 206.776 18.6017 206.811 17.9588C206.828 17.5939 206.88 17.5244 207.245 17.4549C207.332 17.4375 207.436 17.4375 207.523 17.4375C207.732 17.4375 207.818 17.3507 207.853 17.1248C207.94 16.673 207.94 16.673 208.392 16.673C210.772 16.673 213.17 16.673 215.55 16.673C215.985 16.673 216.002 16.6904 216.072 17.1074C216.106 17.3507 216.211 17.4202 216.437 17.4375C216.906 17.4897 216.888 17.4897 216.958 17.9588C217.027 18.4453 217.01 18.9318 217.027 19.4184C217.062 19.9049 217.097 20.3914 217.097 20.8779C217.097 21.3297 216.993 21.4339 216.541 21.4513C216.054 21.4687 215.568 21.4339 215.081 21.5208C215.047 21.5382 214.994 21.5208 214.942 21.5208C214.056 21.5382 213.969 21.4687 213.952 20.5999C213.935 19.7137 213.935 19.7137 213.048 19.7137C212.232 19.7137 211.415 19.7137 210.598 19.7137C210.077 19.7137 210.042 19.7485 210.042 20.2697C210.042 21.8509 210.042 23.4147 210.042 24.9959H210.06Z" fill="white"/>
</g>
<g filter="url(#filter1_d_26_160)">
<rect x="4.44444" y="0.444444" width="237.111" height="47.1111" rx="6.55556" stroke="#F7BE44" stroke-width="0.888889" shape-rendering="crispEdges"/>
</g>
<defs>
<filter id="filter0_d_26_160" x="26.5556" y="15.7174" width="194.541" height="25.9662" filterUnits="userSpaceOnUse" color-interpolation-filters="sRGB">
<feFlood flood-opacity="0" result="BackgroundImageFix"/>
<feColorMatrix in="SourceAlpha" type="matrix" values="0 0 0 0 0 0 0 0 0 0 0 0 0 0 0 0 0 0 127 0" result="hardAlpha"/>
<feOffset dy="4"/>
<feGaussianBlur stdDeviation="2"/>
<feComposite in2="hardAlpha" operator="out"/>
<feColorMatrix type="matrix" values="0 0 0 0 0 0 0 0 0 0 0 0 0 0 0 0 0 0 0.25 0"/>
<feBlend mode="normal" in2="BackgroundImageFix" result="effect1_dropShadow_26_160"/>
<feBlend mode="normal" in="SourceGraphic" in2="effect1_dropShadow_26_160" result="shape"/>
</filter>
<filter id="filter1_d_26_160" x="0" y="0" width="246" height="56" filterUnits="userSpaceOnUse" color-interpolation-filters="sRGB">
<feFlood flood-opacity="0" result="BackgroundImageFix"/>
<feColorMatrix in="SourceAlpha" type="matrix" values="0 0 0 0 0 0 0 0 0 0 0 0 0 0 0 0 0 0 127 0" result="hardAlpha"/>
<feOffset dy="4"/>
<feGaussianBlur stdDeviation="2"/>
<feComposite in2="hardAlpha" operator="out"/>
<feColorMatrix type="matrix" values="0 0 0 0 0 0 0 0 0 0 0 0 0 0 0 0 0 0 0.25 0"/>
<feBlend mode="normal" in2="BackgroundImageFix" result="effect1_dropShadow_26_160"/>
<feBlend mode="normal" in="SourceGraphic" in2="effect1_dropShadow_26_160" result="shape"/>
</filter>
</defs>
</svg>
