<svg width="132" height="58" viewBox="0 0 132 58" fill="none" xmlns="http://www.w3.org/2000/svg">
<path d="M0 0H122C127.523 0 132 4.47715 132 10V48C132 53.5229 127.523 58 122 58H10C4.47715 58 0 53.5228 0 48V0Z" fill="#22262F"/>
<path d="M60.0258 28.4372C59.628 29.0185 59.2456 29.5998 58.8631 30.1964C58.5725 30.6248 58.2971 31.0531 58.0065 31.4815C57.777 31.8333 57.6699 31.8792 57.3486 31.6345C56.9509 31.3285 56.6143 31.2826 56.186 31.558C55.8953 31.7415 55.7577 31.665 55.5894 31.3438C55.2222 30.686 54.8704 30.0282 54.5185 29.3704C54.3961 29.1715 54.2891 28.9726 54.1514 28.7278C54.0596 28.8655 54.0902 28.9726 54.0902 29.0644C54.0443 30.8849 54.029 32.69 53.9678 34.5105C53.9525 35.3213 53.9219 36.132 53.9066 36.9581C53.8913 37.3712 53.8301 37.4324 53.4171 37.4477C52.7593 37.463 52.0862 37.4477 51.4283 37.3712C51.1224 37.3406 51.0153 37.2488 51 36.9275C51 36.6063 51.0459 36.285 51.0459 35.9791C51.0612 35.1071 51.0612 34.2351 51.0765 33.3631C51.1377 31.1143 51.1683 28.8808 51.2601 26.632C51.2907 25.8212 51.2754 24.9951 51.3824 24.1843C51.4283 23.7407 51.4436 23.6642 51.872 23.7254C52.5298 23.8172 53.0346 23.4806 53.5701 23.2053C54.1667 22.8993 54.182 22.8993 54.5185 23.4806C55.2222 24.7045 55.9106 25.9436 56.5991 27.1674C56.7061 27.3816 56.8285 27.5805 56.9509 27.7947C57.1345 27.7029 57.1957 27.5499 57.2875 27.4122C58.2053 26.066 59.1079 24.7045 60.0258 23.3583C60.3776 22.8534 60.3776 22.8534 60.9131 23.1747C61.3261 23.4347 61.7545 23.7101 62.1675 23.9702C62.6111 24.2608 62.6264 24.2914 62.4123 24.7657C62.397 24.7963 62.397 24.8422 62.397 24.8728C62.4429 24.9492 62.5194 24.9339 62.5958 24.9492C63.0089 24.9951 63.0548 25.041 63.0395 25.4694C63.0395 26.9839 62.9783 28.4831 62.9018 29.9976C62.8712 30.7778 62.8712 31.5733 62.8253 32.3535C62.7488 33.3325 62.7488 34.3269 62.7029 35.306C62.6876 36.0097 62.657 36.7134 62.6264 37.4171C62.5958 37.8454 62.5041 37.9525 62.0604 37.9372C61.4485 37.9219 60.8519 37.8913 60.24 37.8454C59.781 37.8148 59.6892 37.7077 59.7198 37.2335C59.781 35.6884 59.8575 34.1433 59.934 32.5982C59.9646 31.8639 59.9646 31.1296 60.0258 30.3953C60.0564 29.9823 60.0411 29.5692 60.087 29.1562C60.1176 28.9267 60.1023 28.6819 60.1023 28.4525C60.0717 28.4525 60.0411 28.4372 60.0258 28.4372ZM64.3453 32.2617C64.3453 31.0684 64.3453 29.8599 64.3453 28.6514C64.3606 28.1771 64.4065 28.1312 64.8807 28.1312C65.4468 28.1159 66.0128 28.1159 66.5788 28.1312C67.0225 28.1312 67.0989 28.1924 67.1142 28.6514C67.1295 29.7069 67.1907 30.7472 67.2213 31.8027C67.2672 33.5467 67.2825 35.306 67.2978 37.0652C67.2978 37.7077 67.2366 37.7689 66.5941 37.7842C66.1199 37.7995 65.6303 37.7842 65.1561 37.7842C65.0643 37.7842 64.9878 37.7842 64.896 37.7689C64.4983 37.7077 64.4524 37.6465 64.4371 37.2335C64.3759 35.5813 64.3606 33.9138 64.3453 32.2617ZM64.2994 25.3776C64.2994 25.041 64.2841 24.6892 64.2994 24.3526C64.3147 24.0008 64.4065 23.8937 64.7431 23.8937C65.4315 23.8784 66.1352 23.8937 66.8236 23.8937C67.053 23.8937 67.1142 24.0314 67.1448 24.2455C67.2213 24.7963 67.1907 25.347 67.206 25.8977C67.206 26.0966 67.206 26.3108 67.206 26.5096C67.1907 26.8003 67.0989 26.8921 66.8236 26.8921C66.4564 26.9074 66.074 26.938 65.7068 26.8921C65.355 26.8768 65.0184 26.8462 64.6819 26.8309C64.3912 26.8309 64.3147 26.7544 64.2994 26.4637C64.2841 26.0966 64.2994 25.7447 64.2994 25.3776ZM77.9079 32.3535C77.9385 33.3784 77.9079 34.5564 77.9385 35.7343C77.9538 36.3003 77.9385 36.8664 77.9232 37.4324C77.9079 37.7995 77.8467 37.8607 77.4796 37.876C76.8676 37.876 76.2557 37.876 75.6438 37.876C75.2308 37.8607 75.139 37.7842 75.139 37.3559C75.1543 36.2697 75.0625 35.1989 75.1084 34.1127C75.139 33.4243 75.0778 32.7359 75.0778 32.0475C75.0931 30.38 75.1084 28.7278 75.1237 27.0604C75.1237 27.0145 75.139 26.9533 75.139 26.9074C75.1237 26.5096 75.1084 26.479 74.6953 26.479C73.7622 26.479 72.8137 26.4637 71.8805 26.4637C71.3604 26.4637 71.3298 26.479 71.3298 26.9992C71.3451 29.8293 71.3451 32.6747 71.3604 35.5048C71.3604 36.0862 71.3604 36.6675 71.3451 37.2488C71.3451 37.723 71.2686 37.7842 70.8096 37.7842C70.2283 37.7842 69.647 37.7995 69.0657 37.7842C68.6526 37.7689 68.5914 37.7077 68.5609 37.2947C68.515 36.6369 68.5303 35.9638 68.5456 35.306C68.5761 34.3116 68.5761 33.3172 68.5761 32.3229C68.5914 30.3647 68.5914 28.4219 68.6067 26.4637C68.6067 26.0048 68.6373 25.5459 68.6526 25.1022C68.6832 24.8116 68.7444 24.7504 69.0351 24.7198C69.1116 24.7045 69.1881 24.7198 69.2493 24.7045C69.5399 24.6892 69.5705 24.6586 69.6011 24.3526C69.6011 24.2914 69.6011 24.2149 69.6011 24.1538C69.6164 23.9396 69.7388 23.8172 69.953 23.8172C70.1824 23.8019 70.4119 23.8019 70.6567 23.8019C71.6051 23.8019 72.5689 23.7866 73.5174 23.8172C74.4965 23.8631 75.4755 23.8478 76.4699 23.8784C76.837 23.8784 76.8829 23.9396 76.8982 24.322C76.8982 24.3679 76.8982 24.4291 76.8982 24.475C76.9288 24.8269 76.9441 24.8422 77.296 24.8728C77.3725 24.8728 77.4643 24.8728 77.5407 24.8881C77.6937 24.9034 77.8008 24.9951 77.8161 25.1481C77.8314 25.2399 77.8314 25.347 77.8314 25.4388C77.9079 27.6876 77.9079 29.9517 77.9079 32.3535ZM83.9882 23.5571C84.9979 23.5571 86.0076 23.5571 87.0172 23.5571C87.1243 23.5571 87.2314 23.5571 87.3538 23.5724C87.5527 23.5877 87.675 23.6948 87.675 23.909C87.6903 24.0773 87.6903 24.2455 87.6903 24.4138C87.675 24.6127 87.7668 24.7045 87.9657 24.7504C88.394 24.8575 88.4093 24.8881 88.4093 25.347C88.3787 26.9839 88.3482 28.6361 88.3176 30.2729C88.3176 30.38 88.3023 30.4718 88.287 30.5636C88.2564 30.7472 88.1493 30.8237 87.9657 30.839C87.8127 30.839 87.6597 30.839 87.5068 30.839C87.2314 30.8543 87.2008 30.8849 87.1855 31.1449C87.1855 31.3132 87.1855 31.4815 87.1702 31.6497C87.1549 31.8639 87.0325 31.971 86.8184 31.971C86.7572 31.9863 86.6807 31.9863 86.6042 31.9863C85.3192 32.0169 84.0341 32.0322 82.7491 32.0628C82.7032 32.0628 82.642 32.0628 82.5808 32.0628C82.229 32.0781 82.229 32.0934 82.229 32.4605C82.2596 33.2101 82.2596 33.975 82.2749 34.7399C82.2902 35.1683 82.3055 35.1836 82.7185 35.1836C83.5599 35.1836 84.4166 35.1836 85.258 35.1836C85.6251 35.1683 85.6557 35.1377 85.6557 34.7705C85.671 34.5105 85.6557 34.2351 85.671 33.975C85.671 33.6844 85.7322 33.6079 86.0382 33.6079C86.696 33.5926 87.3385 33.5926 87.9963 33.6079C88.2564 33.6079 88.3176 33.6691 88.3329 33.9291C88.3482 34.2198 88.3329 34.5105 88.3482 34.8011C88.3634 35.4283 88.394 36.0403 88.394 36.6675C88.394 37.0958 88.3482 37.1417 87.9198 37.1417C87.8586 37.157 87.7821 37.157 87.7209 37.157C87.5221 37.1417 87.4303 37.2335 87.4303 37.4171C87.4456 38.1208 87.2467 38.029 86.7266 38.029C85.3956 38.0443 84.08 38.0443 82.7491 38.0596C82.1678 38.0596 81.5865 38.0902 81.0051 38.1055C80.898 38.1055 80.791 38.1055 80.6686 38.1055C80.5156 38.0902 80.4238 38.0137 80.4238 37.8301C80.4238 37.7536 80.4085 37.6771 80.4085 37.5854C80.4085 37.4018 80.3167 37.3253 80.1332 37.31C79.4447 37.2488 79.4447 37.2488 79.4294 36.5451C79.3989 34.8317 79.3836 33.1336 79.3224 31.4356C79.2612 30.1353 79.2765 28.8349 79.2459 27.5346C79.2153 26.8462 79.1847 26.1578 79.1847 25.4694C79.1847 25.3623 79.1847 25.2705 79.2 25.1787C79.2153 24.7963 79.2459 24.7657 79.613 24.6892C80.1637 24.5821 80.1637 24.5821 80.2402 24.0314C80.3014 23.603 80.3167 23.5724 80.7451 23.5724C81.8312 23.5571 82.9021 23.5571 83.9882 23.5571ZM82.0913 27.6723C82.1066 27.6723 82.1372 27.6723 82.1525 27.6723C82.1525 28.1006 82.1372 28.529 82.1525 28.9573C82.1831 29.3551 82.229 29.3857 82.6114 29.3704C83.4528 29.3551 84.2942 29.3245 85.1356 29.2939C85.4262 29.2939 85.4721 29.248 85.4721 28.9573C85.5027 28.2077 85.4874 27.4428 85.5486 26.6779C85.5792 26.3873 85.518 26.3414 85.2427 26.3261C84.3095 26.2955 83.3916 26.3414 82.4584 26.2802C82.1678 26.2649 82.1066 26.3414 82.0913 26.6473C82.0913 26.9839 82.0913 27.3357 82.0913 27.6723ZM94.541 23.3889C95.4588 23.3889 96.392 23.3889 97.3252 23.3889C97.4323 23.3889 97.5394 23.3889 97.6464 23.4042C97.9218 23.4347 98.0136 23.4959 98.0136 23.756C98.0442 24.4597 98.0442 25.1634 97.9524 25.8671C97.9371 26.0507 97.83 26.1425 97.6617 26.1578C97.5394 26.1731 97.417 26.1731 97.2946 26.1731C95.9025 26.1731 94.5257 26.1578 93.1335 26.1578C93.0418 26.1578 92.95 26.1578 92.8429 26.1578C92.5216 26.1731 92.4757 26.2037 92.4757 26.5249C92.4604 27.3663 92.4757 28.2077 92.5369 29.0491C92.5522 29.3092 92.5981 29.3551 92.8735 29.3551C93.3783 29.3704 93.8984 29.3857 94.4033 29.3551C95.1682 29.2939 95.9331 29.3245 96.6827 29.3092C97.1875 29.3092 97.264 29.3857 97.2793 29.8905C97.2793 29.9211 97.2793 29.967 97.2793 30.0129C97.2946 30.4106 97.2946 30.4259 97.6923 30.4565C98.1666 30.4871 98.1819 30.4871 98.2125 30.9613C98.3348 32.2158 98.2737 33.4702 98.289 34.7246C98.3042 35.413 98.3042 36.0862 98.3042 36.7593C98.289 37.157 98.2431 37.2182 97.8606 37.2794C97.4782 37.3559 97.4782 37.3559 97.4476 37.7842C97.417 38.1514 97.3558 38.2126 96.9886 38.2126C95.0152 38.2432 93.0418 38.2891 91.053 38.2738C90.9765 38.2738 90.9 38.2738 90.8083 38.2738C90.5941 38.2585 90.4717 38.1361 90.4717 37.9372C90.4564 37.6465 90.4564 37.3712 90.4564 37.0958C90.4564 36.7593 90.4564 36.4074 90.4564 36.0556C90.4717 35.5966 90.5329 35.5201 90.9918 35.5201C92.2616 35.5048 93.5313 35.4283 94.801 35.4436C95.4282 35.4436 95.4282 35.4283 95.4282 34.7858C95.4282 34.0821 95.4435 33.3784 95.4435 32.6747C95.4435 32.1393 95.4282 32.124 94.8622 32.124C93.9596 32.124 93.0418 32.1393 92.1239 32.124C91.8026 32.124 91.4661 32.0934 91.1295 32.0781C90.8694 32.0475 90.8083 31.9863 90.7777 31.7109C90.7624 31.558 90.7624 31.3897 90.7777 31.2214C90.7777 31.0072 90.6859 30.9154 90.4717 30.9154C90.3187 30.9154 90.1657 30.9154 90.0281 30.9154C89.768 30.9001 89.6762 30.8084 89.6456 30.5636C89.6303 30.4718 89.6303 30.3953 89.6303 30.3035C89.6303 28.8349 89.6303 27.351 89.6456 25.8671C89.6456 25.5459 89.6762 25.2399 89.6915 24.9187C89.7068 24.7351 89.7833 24.6433 89.9822 24.628C90.2269 24.6127 90.4717 24.5362 90.7165 24.5515C90.9306 24.5668 91.0224 24.475 91.0224 24.2608C91.0224 24.1079 91.0224 23.9549 91.0224 23.8019C91.0377 23.4806 91.0989 23.4195 91.4202 23.4042C91.5731 23.3889 91.7261 23.3889 91.8791 23.3889C92.7664 23.3889 93.6537 23.3889 94.541 23.3889Z" fill="white"/>
</svg>
